<?xml version="1.0" encoding="utf-8"?>
<!-- Generator: Adobe Illustrator 20.1.0, SVG Export Plug-In . SVG Version: 6.00 Build 0)  -->
<svg version="1.1" id="Calque_1" xmlns="http://www.w3.org/2000/svg" xmlns:xlink="http://www.w3.org/1999/xlink" x="0px" y="0px"
	 viewBox="0 0 361 236" style="enable-background:new 0 0 361 236;" xml:space="preserve">
<style type="text/css">
	.st0{fill:#FFFFFF;}
	.st1{fill:#7C8E9C;}
	.st2{fill-rule:evenodd;clip-rule:evenodd;fill:#EACBB2;}
	.st3{fill-rule:evenodd;clip-rule:evenodd;fill:#8860A6;}
	.st4{fill-rule:evenodd;clip-rule:evenodd;fill:#0C293E;}
	.st5{fill:#F59E32;}
	.st6{fill-rule:evenodd;clip-rule:evenodd;fill:#21ABE0;}
	.st7{clip-path:url(#SVGID_2_);fill:#FFFFFF;}
	.st8{clip-path:url(#SVGID_2_);}
	.st9{fill:#F0692F;}
	.st10{fill:none;stroke:#D9E3E8;stroke-linecap:round;stroke-miterlimit:10;}
</style>
<g>
	
		<image style="overflow:visible;opacity:0.15;" width="1455" height="942" xlink:href="C7EB13E60493CE03.png"  transform="matrix(0.24 0 0 0.24 4.5327 8.646)">
	</image>
	<g>
		<path class="st0" d="M329.7,217.5H28.5c-4.9,0-9-4-9-9v-178c0-4.9,4-9,9-9h301.2c4.9,0,9,4,9,9v178
			C338.6,213.5,334.6,217.5,329.7,217.5z"/>
	</g>
</g>
<g>
	<path class="st1" d="M35.6,112.2c0.5-0.1,1.2-0.2,2.1-0.2c1.1,0,1.9,0.3,2.4,0.7s0.7,1,0.7,1.8s-0.2,1.4-0.7,1.8
		c-0.6,0.6-1.5,0.9-2.6,0.9c-0.3,0-0.6,0-0.9-0.1v3.4h-1.1L35.6,112.2L35.6,112.2z M36.7,116.3c0.2,0.1,0.5,0.1,0.9,0.1
		c1.3,0,2.1-0.6,2.1-1.8c0-1.1-0.8-1.7-2-1.7c-0.5,0-0.8,0-1,0.1V116.3z"/>
	<path class="st1" d="M45.4,120.6l-0.1-0.8l0,0c-0.3,0.5-1,0.9-1.9,0.9c-1.2,0-1.9-0.9-1.9-1.8c0-1.5,1.3-2.3,3.7-2.3v-0.1
		c0-0.5-0.1-1.4-1.4-1.4c-0.6,0-1.2,0.2-1.6,0.5l-0.3-0.7c0.5-0.3,1.2-0.5,2-0.5c1.9,0,2.3,1.3,2.3,2.5v2.3c0,0.5,0,1,0.1,1.5
		L45.4,120.6L45.4,120.6z M45.2,117.5c-1.2,0-2.6,0.2-2.6,1.4c0,0.7,0.5,1.1,1,1.1c0.8,0,1.3-0.5,1.5-1c0-0.1,0.1-0.2,0.1-0.4V117.5
		z"/>
	<path class="st1" d="M48.1,116.4c0-0.7,0-1.3-0.1-1.9h1v1.2h0.1c0.3-0.8,0.9-1.3,1.7-1.3c0.1,0,0.2,0,0.3,0v1c-0.1,0-0.2,0-0.4,0
		c-0.8,0-1.3,0.6-1.5,1.4c0,0.2-0.1,0.3-0.1,0.5v3.3H48L48.1,116.4L48.1,116.4z"/>
	<path class="st1" d="M56.4,120.4c-0.3,0.2-0.9,0.4-1.8,0.4c-1.8,0-3-1.2-3-3.1c0-1.9,1.3-3.2,3.3-3.2c0.7,0,1.2,0.2,1.5,0.3
		l-0.3,0.9c-0.3-0.2-0.7-0.3-1.3-0.3c-1.4,0-2.2,1-2.2,2.3c0,1.4,0.9,2.3,2.1,2.3c0.6,0,1-0.2,1.4-0.3L56.4,120.4z"/>
	<path class="st1" d="M58.3,117.8c0,1.5,1,2.1,2.1,2.1c0.8,0,1.3-0.1,1.7-0.3l0.2,0.8c-0.4,0.2-1.1,0.4-2,0.4c-1.9,0-3-1.2-3-3.1
		s1.1-3.3,2.9-3.3c2,0,2.5,1.8,2.5,2.9c0,0.2,0,0.4,0,0.5L58.3,117.8L58.3,117.8z M61.5,117c0-0.7-0.3-1.8-1.5-1.8
		c-1.1,0-1.6,1-1.7,1.8H61.5z"/>
	<path class="st1" d="M70.8,119.7L70.8,119.7c-0.4,0.6-1,1.1-2,1.1c-1.4,0-2.6-1.2-2.6-3.1c0-2.3,1.5-3.3,2.8-3.3
		c0.9,0,1.6,0.5,1.9,1.1l0,0v-0.9h1c0,0.5,0,1,0,1.7v6.9h-1.1C70.8,123.2,70.8,119.7,70.8,119.7z M70.8,117c0-0.2,0-0.3-0.1-0.5
		c-0.2-0.7-0.8-1.3-1.6-1.3c-1.1,0-1.8,1-1.8,2.3c0,1.2,0.6,2.3,1.8,2.3c0.7,0,1.3-0.4,1.6-1.2c0.1-0.2,0.1-0.4,0.1-0.5V117z"/>
	<path class="st1" d="M78.9,118.9c0,0.6,0,1.2,0.1,1.7h-1l-0.1-1l0,0c-0.3,0.5-0.9,1.1-2,1.1c-1,0-2.1-0.5-2.1-2.7v-3.6h1.1v3.4
		c0,1.2,0.4,1.9,1.4,1.9c0.7,0,1.3-0.5,1.5-1c0.1-0.2,0.1-0.4,0.1-0.6v-3.8H79L78.9,118.9L78.9,118.9z"/>
	<path class="st1" d="M81.4,117.8c0,1.5,1,2.1,2.1,2.1c0.8,0,1.3-0.1,1.7-0.3l0.2,0.8c-0.4,0.2-1.1,0.4-2,0.4c-1.9,0-3-1.2-3-3.1
		s1.1-3.3,2.9-3.3c2,0,2.5,1.8,2.5,2.9c0,0.2,0,0.4,0,0.5L81.4,117.8L81.4,117.8z M84.6,117c0-0.7-0.3-1.8-1.5-1.8
		c-1.1,0-1.6,1-1.7,1.8H84.6z"/>
	<path class="st1" d="M89.3,118.5c0-1,0.6-1.8,1.6-2.2l0,0c-0.9-0.4-1.3-1.1-1.3-1.8c0-1.3,1.1-2.2,2.5-2.2c1.6,0,2.4,1,2.4,2
		c0,0.7-0.3,1.4-1.4,1.9l0,0c1,0.4,1.7,1.1,1.7,2.1c0,1.4-1.2,2.4-2.8,2.4C90.3,120.7,89.3,119.7,89.3,118.5z M93.7,118.5
		c0-1-0.7-1.5-1.8-1.8c-1,0.3-1.5,0.9-1.5,1.7S91,120,92,120C93.1,119.9,93.7,119.3,93.7,118.5z M90.7,114.4c0,0.8,0.6,1.3,1.6,1.5
		c0.7-0.2,1.3-0.7,1.3-1.5c0-0.7-0.4-1.3-1.4-1.3S90.7,113.7,90.7,114.4z"/>
	<path class="st1" d="M101.4,116.4c0,2.8-1,4.3-2.9,4.3c-1.6,0-2.7-1.5-2.7-4.2c0-2.8,1.2-4.3,2.9-4.3
		C100.4,112.3,101.4,113.8,101.4,116.4z M96.9,116.5c0,2.1,0.7,3.3,1.7,3.3c1.1,0,1.7-1.3,1.7-3.4c0-2-0.5-3.3-1.7-3.3
		C97.6,113.1,96.9,114.3,96.9,116.5z"/>
	<path class="st1" d="M106.1,114.7c0,1.7-0.9,2.6-2,2.6c-1,0-1.9-0.8-1.9-2.5c0-1.6,0.9-2.6,2-2.6
		C105.3,112.3,106.1,113.1,106.1,114.7z M103.1,114.8c0,1,0.4,1.8,1.1,1.8s1.1-0.8,1.1-1.9c0-1-0.3-1.8-1.1-1.8
		S103.1,113.8,103.1,114.8z M104,120.7l4.8-8.5h0.7l-4.8,8.5H104z M111.4,118.1c0,1.7-0.9,2.6-2,2.6c-1,0-1.9-0.8-1.9-2.5
		s0.9-2.6,2-2.6C110.7,115.7,111.4,116.5,111.4,118.1z M108.4,118.2c0,1,0.4,1.8,1.1,1.8s1.1-0.8,1.1-1.9c0-1-0.3-1.8-1.1-1.8
		C108.8,116.3,108.4,117.1,108.4,118.2z"/>
	<path class="st1" d="M120.7,111.6v7.4c0,0.5,0,1.2,0.1,1.6h-1l-0.1-1.1l0,0c-0.3,0.7-1.1,1.2-2.1,1.2c-1.5,0-2.6-1.2-2.6-3.1
		c0-2,1.3-3.3,2.7-3.3c0.9,0,1.6,0.4,1.8,0.9l0,0v-3.7h1.2V111.6z M119.6,117c0-0.1,0-0.3-0.1-0.5c-0.2-0.7-0.8-1.3-1.6-1.3
		c-1.1,0-1.8,1-1.8,2.4c0,1.2,0.6,2.3,1.8,2.3c0.7,0,1.4-0.5,1.6-1.3c0-0.2,0.1-0.3,0.1-0.5V117z"/>
	<path class="st1" d="M123.2,117.8c0,1.5,1,2.1,2.1,2.1c0.8,0,1.3-0.1,1.7-0.3l0.2,0.8c-0.4,0.2-1.1,0.4-2,0.4c-1.9,0-3-1.2-3-3.1
		s1.1-3.3,2.9-3.3c2,0,2.5,1.8,2.5,2.9c0,0.2,0,0.4,0,0.5L123.2,117.8L123.2,117.8z M126.4,117c0-0.7-0.3-1.8-1.5-1.8
		c-1.1,0-1.6,1-1.7,1.8H126.4z"/>
	<path class="st1" d="M128.7,119.5c0.3,0.2,0.9,0.4,1.5,0.4c0.8,0,1.2-0.4,1.2-0.9s-0.3-0.8-1.1-1.1c-1.1-0.4-1.6-1-1.6-1.7
		c0-1,0.8-1.8,2.1-1.8c0.6,0,1.2,0.2,1.5,0.4l-0.3,0.8c-0.2-0.2-0.7-0.4-1.3-0.4c-0.7,0-1,0.4-1,0.8c0,0.5,0.4,0.7,1.2,1
		c1.1,0.4,1.6,0.9,1.6,1.8c0,1.1-0.8,1.8-2.3,1.8c-0.7,0-1.3-0.2-1.7-0.4L128.7,119.5z"/>
	<path class="st1" d="M141.8,111.6v7.4c0,0.5,0,1.2,0.1,1.6h-1l-0.1-1.1l0,0c-0.3,0.7-1.1,1.2-2.1,1.2c-1.5,0-2.6-1.2-2.6-3.1
		c0-2,1.3-3.3,2.7-3.3c0.9,0,1.6,0.4,1.8,0.9l0,0v-3.7h1.2V111.6z M140.7,117c0-0.1,0-0.3-0.1-0.5c-0.2-0.7-0.8-1.3-1.6-1.3
		c-1.1,0-1.8,1-1.8,2.4c0,1.2,0.6,2.3,1.8,2.3c0.7,0,1.4-0.5,1.6-1.3c0-0.2,0.1-0.3,0.1-0.5V117z"/>
	<path class="st1" d="M144.9,112.8c0,0.4-0.3,0.7-0.7,0.7s-0.7-0.3-0.7-0.7s0.3-0.7,0.7-0.7C144.7,112.1,144.9,112.4,144.9,112.8z
		 M143.7,120.6v-6.1h1.1v6.1H143.7z"/>
	<path class="st1" d="M146.6,116.4c0-0.7,0-1.3-0.1-1.9h1v1.2h0.1c0.3-0.8,0.9-1.3,1.7-1.3c0.1,0,0.2,0,0.3,0v1c-0.1,0-0.2,0-0.4,0
		c-0.8,0-1.3,0.6-1.5,1.4c0,0.2-0.1,0.3-0.1,0.5v3.3h-1.1v-4.2H146.6z"/>
	<path class="st1" d="M152.1,112.8c0,0.4-0.3,0.7-0.7,0.7s-0.7-0.3-0.7-0.7s0.3-0.7,0.7-0.7S152.1,112.4,152.1,112.8z M150.8,120.6
		v-6.1h1.1v6.1H150.8z"/>
	<path class="st1" d="M159.1,114.5c0,0.4-0.1,0.9-0.1,1.7v3.5c0,1.4-0.3,2.3-0.9,2.8c-0.6,0.6-1.5,0.7-2.2,0.7s-1.5-0.2-2-0.5
		l0.3-0.8c0.4,0.3,1,0.5,1.8,0.5c1.1,0,2-0.6,2-2.1v-0.7l0,0c-0.3,0.6-1,1-1.9,1c-1.5,0-2.6-1.3-2.6-3c0-2.1,1.4-3.2,2.8-3.2
		c1.1,0,1.6,0.6,1.9,1.1l0,0l0.1-0.9h0.8V114.5z M157.9,116.9c0-0.2,0-0.4-0.1-0.5c-0.2-0.6-0.7-1.2-1.6-1.2c-1.1,0-1.8,0.9-1.8,2.3
		c0,1.2,0.6,2.2,1.8,2.2c0.7,0,1.3-0.4,1.5-1.1c0.1-0.2,0.1-0.4,0.1-0.6v-1.1H157.9z"/>
	<path class="st1" d="M161.5,117.8c0,1.5,1,2.1,2.1,2.1c0.8,0,1.3-0.1,1.7-0.3l0.2,0.8c-0.4,0.2-1.1,0.4-2,0.4c-1.9,0-3-1.2-3-3.1
		s1.1-3.3,2.9-3.3c2,0,2.5,1.8,2.5,2.9c0,0.2,0,0.4,0,0.5L161.5,117.8L161.5,117.8z M164.7,117c0-0.7-0.3-1.8-1.5-1.8
		c-1.1,0-1.6,1-1.7,1.8H164.7z"/>
	<path class="st1" d="M170.6,120.6l-0.1-0.8l0,0c-0.3,0.5-1,0.9-1.9,0.9c-1.2,0-1.9-0.9-1.9-1.8c0-1.5,1.3-2.3,3.7-2.3v-0.1
		c0-0.5-0.1-1.4-1.4-1.4c-0.6,0-1.2,0.2-1.6,0.5l-0.3-0.7c0.5-0.3,1.2-0.5,2-0.5c1.9,0,2.3,1.3,2.3,2.5v2.3c0,0.5,0,1,0.1,1.5
		L170.6,120.6L170.6,120.6z M170.4,117.5c-1.2,0-2.6,0.2-2.6,1.4c0,0.7,0.5,1.1,1,1.1c0.8,0,1.3-0.5,1.5-1c0-0.1,0.1-0.2,0.1-0.4
		V117.5z"/>
	<path class="st1" d="M173.3,116.2c0-0.6,0-1.1-0.1-1.7h1l0.1,1l0,0c0.3-0.6,1-1.1,2-1.1c0.8,0,2.2,0.5,2.2,2.6v3.7h-1.1v-3.5
		c0-1-0.4-1.8-1.4-1.8c-0.7,0-1.3,0.5-1.5,1.1c-0.1,0.1-0.1,0.3-0.1,0.5v3.7h-1.1L173.3,116.2L173.3,116.2z"/>
	<path class="st1" d="M181.6,112.7v1.8h1.6v0.8h-1.6v3.3c0,0.8,0.2,1.2,0.8,1.2c0.3,0,0.5,0,0.6-0.1l0.1,0.8c-0.2,0.1-0.6,0.2-1,0.2
		c-0.5,0-0.9-0.2-1.2-0.5s-0.4-0.9-0.4-1.6v-3.3h-1v-0.8h0.9V113L181.6,112.7z"/>
	<path class="st1" d="M184.3,119.5c0.3,0.2,0.9,0.4,1.5,0.4c0.8,0,1.2-0.4,1.2-0.9s-0.3-0.8-1.1-1.1c-1.1-0.4-1.6-1-1.6-1.7
		c0-1,0.8-1.8,2.1-1.8c0.6,0,1.2,0.2,1.5,0.4l-0.3,0.8c-0.2-0.2-0.7-0.4-1.3-0.4c-0.7,0-1,0.4-1,0.8c0,0.5,0.4,0.7,1.2,1
		c1.1,0.4,1.6,0.9,1.6,1.8c0,1.1-0.8,1.8-2.3,1.8c-0.7,0-1.3-0.2-1.7-0.4L184.3,119.5z"/>
	<path class="st1" d="M197.6,117.5c0,2.3-1.6,3.2-3,3.2c-1.7,0-2.9-1.2-2.9-3.1c0-2,1.3-3.2,3-3.2
		C196.4,114.4,197.6,115.6,197.6,117.5z M192.8,117.6c0,1.3,0.8,2.3,1.9,2.3c1.1,0,1.9-1,1.9-2.4c0-1-0.5-2.3-1.8-2.3
		C193.3,115.2,192.8,116.4,192.8,117.6z"/>
	<path class="st1" d="M204.2,118.9c0,0.6,0,1.2,0,1.7h-1l-0.1-1l0,0c-0.3,0.5-0.9,1.1-2,1.1c-1,0-2.1-0.5-2.1-2.7v-3.6h1.1v3.4
		c0,1.2,0.4,1.9,1.4,1.9c0.7,0,1.3-0.5,1.5-1c0.1-0.2,0.1-0.4,0.1-0.6v-3.8h1.1V118.9z"/>
	<path class="st1" d="M208.7,112.2c0.7-0.1,1.5-0.2,2.3-0.2c1.6,0,2.7,0.4,3.4,1.1c0.8,0.7,1.2,1.7,1.2,3.1c0,1.4-0.4,2.5-1.2,3.3
		s-2.1,1.2-3.8,1.2c-0.8,0-1.4,0-2-0.1v-8.4H208.7z M209.8,119.7c0.3,0.1,0.7,0.1,1.1,0.1c2.4,0,3.6-1.3,3.6-3.6
		c0-2-1.1-3.3-3.4-3.3c-0.6,0-1,0.1-1.3,0.1L209.8,119.7L209.8,119.7z"/>
	<path class="st1" d="M217.1,112.2c0.6-0.1,1.4-0.2,2.1-0.2c1.2,0,1.9,0.2,2.5,0.7c0.4,0.4,0.7,1,0.7,1.6c0,1.1-0.7,1.9-1.6,2.2l0,0
		c0.7,0.2,1,0.8,1.3,1.7c0.3,1.2,0.5,2,0.7,2.3h-1.3c-0.1-0.2-0.3-1-0.6-2c-0.3-1.2-0.7-1.6-1.7-1.7h-1v3.7h-1.1L217.1,112.2
		L217.1,112.2z M218.2,116.1h1.1c1.2,0,1.9-0.6,1.9-1.6c0-1.1-0.8-1.6-2-1.6c-0.5,0-0.9,0.1-1.1,0.1v3.1H218.2z"/>
	<path class="st1" d="M225,112.1v3.6h4.1v-3.6h1.1v8.5h-1.1v-4H225v4h-1.1v-8.5H225z"/>
	<path class="st1" d="M239.2,120.4c-0.3,0.2-0.9,0.4-1.8,0.4c-1.8,0-3-1.2-3-3.1c0-1.9,1.3-3.2,3.3-3.2c0.7,0,1.2,0.2,1.5,0.3
		l-0.3,0.9c-0.3-0.2-0.7-0.3-1.3-0.3c-1.4,0-2.2,1-2.2,2.3c0,1.4,0.9,2.3,2.1,2.3c0.6,0,1-0.2,1.4-0.3L239.2,120.4z"/>
	<path class="st1" d="M245.9,117.5c0,2.3-1.6,3.2-3,3.2c-1.7,0-2.9-1.2-2.9-3.1c0-2,1.3-3.2,3-3.2S245.9,115.6,245.9,117.5z
		 M241.1,117.6c0,1.3,0.8,2.3,1.9,2.3c1.1,0,1.9-1,1.9-2.4c0-1-0.5-2.3-1.8-2.3C241.6,115.2,241.1,116.4,241.1,117.6z"/>
	<path class="st1" d="M247.3,116.2c0-0.6,0-1.1,0-1.7h1l0.1,1l0,0c0.3-0.6,1-1.1,2-1.1c0.8,0,2.2,0.5,2.2,2.6v3.7h-1.1v-3.5
		c0-1-0.4-1.8-1.4-1.8c-0.7,0-1.3,0.5-1.5,1.1c-0.1,0.1-0.1,0.3-0.1,0.5v3.7h-1.1L247.3,116.2L247.3,116.2z"/>
	<path class="st1" d="M254.2,119.5c0.3,0.2,0.9,0.4,1.5,0.4c0.8,0,1.2-0.4,1.2-0.9s-0.3-0.8-1.1-1.1c-1.1-0.4-1.6-1-1.6-1.7
		c0-1,0.8-1.8,2.1-1.8c0.6,0,1.2,0.2,1.5,0.4l-0.3,0.8c-0.2-0.2-0.7-0.4-1.3-0.4c-0.7,0-1,0.4-1,0.8c0,0.5,0.4,0.7,1.2,1
		c1.1,0.4,1.6,0.9,1.6,1.8c0,1.1-0.8,1.8-2.3,1.8c-0.7,0-1.3-0.2-1.7-0.4L254.2,119.5z"/>
	<path class="st1" d="M260.6,112.8c0,0.4-0.3,0.7-0.7,0.7c-0.4,0-0.7-0.3-0.7-0.7s0.3-0.7,0.7-0.7
		C260.3,112.1,260.6,112.4,260.6,112.8z M259.4,120.6v-6.1h1.1v6.1H259.4z"/>
	<path class="st1" d="M267.6,111.6v7.4c0,0.5,0,1.2,0.1,1.6h-1l-0.1-1.1l0,0c-0.3,0.7-1.1,1.2-2.1,1.2c-1.5,0-2.6-1.2-2.6-3.1
		c0-2,1.2-3.3,2.7-3.3c0.9,0,1.6,0.4,1.8,0.9l0,0v-3.7h1.2V111.6z M266.5,117c0-0.1,0-0.3-0.1-0.5c-0.2-0.7-0.8-1.3-1.6-1.3
		c-1.1,0-1.8,1-1.8,2.4c0,1.2,0.6,2.3,1.8,2.3c0.7,0,1.4-0.5,1.6-1.3c0-0.2,0.1-0.3,0.1-0.5V117z"/>
	<path class="st1" d="M270.1,117.8c0,1.5,1,2.1,2.1,2.1c0.8,0,1.3-0.1,1.7-0.3l0.2,0.8c-0.4,0.2-1.1,0.4-2,0.4c-1.9,0-3-1.2-3-3.1
		s1.1-3.3,2.9-3.3c2,0,2.5,1.8,2.5,2.9c0,0.2,0,0.4,0,0.5L270.1,117.8L270.1,117.8z M273.3,117c0-0.7-0.3-1.8-1.5-1.8
		c-1.1,0-1.6,1-1.7,1.8H273.3z M271.4,111.9l1.1,1.8h-0.8l-1.5-1.8H271.4z"/>
	<path class="st1" d="M275.8,116.4c0-0.7,0-1.3,0-1.9h1v1.2l0,0c0.3-0.8,0.9-1.3,1.7-1.3c0.1,0,0.2,0,0.3,0v1c-0.1,0-0.2,0-0.4,0
		c-0.8,0-1.3,0.6-1.5,1.4c0,0.2-0.1,0.3-0.1,0.5v3.3h-1.1v-4.2H275.8z"/>
	<path class="st1" d="M280.4,117.8c0,1.5,1,2.1,2.1,2.1c0.8,0,1.3-0.1,1.7-0.3l0.2,0.8c-0.4,0.2-1.1,0.4-2,0.4c-1.9,0-3-1.2-3-3.1
		s1.1-3.3,2.9-3.3c2,0,2.5,1.8,2.5,2.9c0,0.2,0,0.4,0,0.5L280.4,117.8L280.4,117.8z M283.7,117c0-0.7-0.3-1.8-1.5-1.8
		c-1.1,0-1.6,1-1.7,1.8H283.7z"/>
	<path class="st1" d="M286.1,116.2c0-0.6,0-1.1,0-1.7h1l0.1,1l0,0c0.3-0.6,1-1.1,2-1.1c0.8,0,2.2,0.5,2.2,2.6v3.7h-1.1v-3.5
		c0-1-0.4-1.8-1.4-1.8c-0.7,0-1.3,0.5-1.5,1.1c-0.1,0.1-0.1,0.3-0.1,0.5v3.7h-1.1v-4.5H286.1z"/>
	<path class="st1" d="M294.4,112.7v1.8h1.6v0.8h-1.6v3.3c0,0.8,0.2,1.2,0.8,1.2c0.3,0,0.5,0,0.6-0.1v0.8c-0.2,0.1-0.6,0.2-1,0.2
		c-0.5,0-0.9-0.2-1.2-0.5c-0.3-0.3-0.4-0.9-0.4-1.6v-3.3h-0.9v-0.8h0.9V113L294.4,112.7z"/>
	<path class="st1" d="M304.1,119.7L304.1,119.7c-0.4,0.6-1,1.1-2,1.1c-1.4,0-2.6-1.2-2.6-3.1c0-2.3,1.5-3.3,2.8-3.3
		c0.9,0,1.6,0.5,1.9,1.1l0,0v-0.9h1c0,0.5,0,1,0,1.7v6.9h-1.1L304.1,119.7L304.1,119.7z M304.1,117c0-0.2,0-0.3-0.1-0.5
		c-0.2-0.7-0.8-1.3-1.6-1.3c-1.1,0-1.8,1-1.8,2.3c0,1.2,0.6,2.3,1.8,2.3c0.7,0,1.3-0.4,1.6-1.2c0.1-0.2,0.1-0.4,0.1-0.5V117z"/>
	<path class="st1" d="M312.2,118.9c0,0.6,0,1.2,0.1,1.7h-1l-0.1-1l0,0c-0.3,0.5-0.9,1.1-2,1.1c-1,0-2.1-0.5-2.1-2.7v-3.6h1.1v3.4
		c0,1.2,0.4,1.9,1.4,1.9c0.7,0,1.3-0.5,1.5-1c0.1-0.2,0.1-0.4,0.1-0.6v-3.8h1.1v4.6H312.2z"/>
	<path class="st1" d="M314.6,117.8c0,1.5,1,2.1,2.1,2.1c0.8,0,1.3-0.1,1.7-0.3l0.2,0.8c-0.4,0.2-1.1,0.4-2,0.4c-1.9,0-3-1.2-3-3.1
		s1.1-3.3,2.9-3.3c2,0,2.5,1.8,2.5,2.9c0,0.2,0,0.4,0,0.5L314.6,117.8L314.6,117.8z M317.9,117c0-0.7-0.3-1.8-1.5-1.8
		c-1.1,0-1.6,1-1.7,1.8H317.9z"/>
	<path class="st1" d="M35.6,126.8h1.1v9h-1.1V126.8z"/>
	<path class="st1" d="M40,127.1c-0.3,1.1-0.8,2.4-1.2,3l-0.7,0.1c0.3-0.7,0.6-2.1,0.7-3L40,127.1z"/>
	<path class="st1" d="M40.9,132.9c0,1.5,1,2.1,2.1,2.1c0.8,0,1.3-0.1,1.7-0.3l0.2,0.8c-0.4,0.2-1.1,0.4-2,0.4c-1.9,0-3-1.2-3-3.1
		s1.1-3.3,2.9-3.3c2,0,2.5,1.8,2.5,2.9c0,0.2,0,0.4,0,0.5L40.9,132.9L40.9,132.9z M44.2,132.1c0-0.7-0.3-1.8-1.5-1.8
		c-1.1,0-1.6,1-1.7,1.8H44.2z"/>
	<path class="st1" d="M46.6,131.3c0-0.6,0-1.1-0.1-1.7h1l0.1,1l0,0c0.3-0.6,0.9-1.1,1.9-1.1c0.8,0,1.5,0.5,1.7,1.2l0,0
		c0.2-0.3,0.4-0.6,0.7-0.8c0.4-0.3,0.8-0.4,1.4-0.4c0.8,0,2,0.5,2,2.7v3.6h-1.1v-3.5c0-1.2-0.4-1.9-1.3-1.9c-0.6,0-1.1,0.5-1.3,1
		c-0.1,0.2-0.1,0.4-0.1,0.6v3.8h-1.1v-3.7c0-1-0.4-1.7-1.3-1.7c-0.7,0-1.2,0.6-1.4,1.1c-0.1,0.2-0.1,0.4-0.1,0.5v3.7h-1.1
		L46.6,131.3L46.6,131.3z"/>
	<path class="st1" d="M57.1,135.8c0-0.4,0.1-1,0.1-1.6v-7.4h1.1v3.8l0,0c0.4-0.7,1.1-1.1,2.1-1.1c1.5,0,2.6,1.3,2.6,3.1
		c0,2.2-1.4,3.3-2.7,3.3c-0.9,0-1.6-0.3-2-1.1l0,0l-0.1,1H57.1z M58.3,133.3c0,0.1,0,0.3,0.1,0.4c0.2,0.8,0.9,1.3,1.7,1.3
		c1.2,0,1.9-0.9,1.9-2.4c0-1.2-0.6-2.3-1.8-2.3c-0.8,0-1.5,0.5-1.7,1.4c0,0.1-0.1,0.3-0.1,0.5L58.3,133.3L58.3,133.3z"/>
	<path class="st1" d="M67.7,135.8l-0.1-0.8l0,0c-0.3,0.5-1,0.9-1.9,0.9c-1.2,0-1.9-0.9-1.9-1.8c0-1.5,1.3-2.3,3.7-2.3v-0.1
		c0-0.5-0.1-1.4-1.4-1.4c-0.6,0-1.2,0.2-1.6,0.5l-0.3-0.7c0.5-0.3,1.2-0.5,2-0.5c1.9,0,2.3,1.3,2.3,2.5v2.3c0,0.5,0,1,0.1,1.5
		L67.7,135.8L67.7,135.8z M67.6,132.7c-1.2,0-2.6,0.2-2.6,1.4c0,0.7,0.5,1.1,1,1.1c0.8,0,1.3-0.5,1.5-1c0-0.1,0.1-0.2,0.1-0.4V132.7
		z"/>
	<path class="st1" d="M75.6,134.1c0,0.6,0,1.2,0.1,1.7h-1l-0.1-1l0,0c-0.3,0.5-0.9,1.1-2,1.1c-1,0-2.1-0.5-2.1-2.7v-3.6h1v3.4
		c0,1.2,0.4,1.9,1.4,1.9c0.7,0,1.3-0.5,1.5-1c0.1-0.2,0.1-0.4,0.1-0.6v-3.8h1.1V134.1z"/>
	<path class="st1" d="M81.8,135.5c-0.3,0.2-0.9,0.4-1.8,0.4c-1.8,0-3-1.2-3-3.1c0-1.9,1.3-3.2,3.3-3.2c0.7,0,1.2,0.2,1.5,0.3
		l-0.3,0.9c-0.3-0.2-0.7-0.3-1.3-0.3c-1.4,0-2.2,1-2.2,2.3c0,1.4,0.9,2.3,2.1,2.3c0.6,0,1-0.2,1.4-0.3L81.8,135.5z"/>
	<path class="st1" d="M83.1,126.8h1.1v3.8l0,0c0.2-0.3,0.5-0.6,0.8-0.8s0.7-0.3,1.1-0.3c0.8,0,2.1,0.5,2.1,2.6v3.6h-1.1v-3.5
		c0-1-0.4-1.8-1.4-1.8c-0.7,0-1.3,0.5-1.5,1.1c-0.1,0.2-0.1,0.3-0.1,0.5v3.7H83L83.1,126.8L83.1,126.8z"/>
	<path class="st1" d="M90.7,132.9c0,1.5,1,2.1,2.1,2.1c0.8,0,1.3-0.1,1.7-0.3l0.2,0.8c-0.4,0.2-1.1,0.4-2,0.4c-1.9,0-3-1.2-3-3.1
		s1.1-3.3,2.9-3.3c2,0,2.5,1.8,2.5,2.9c0,0.2,0,0.4,0,0.5L90.7,132.9L90.7,132.9z M94,132.1c0-0.7-0.3-1.8-1.5-1.8
		c-1.1,0-1.6,1-1.7,1.8H94z"/>
	<path class="st1" d="M104.4,126.8v7.4c0,0.5,0,1.2,0.1,1.6h-1l-0.1-1.1l0,0c-0.3,0.7-1.1,1.2-2.1,1.2c-1.5,0-2.6-1.2-2.6-3.1
		c0-2,1.3-3.3,2.7-3.3c0.9,0,1.6,0.4,1.8,0.9l0,0v-3.7h1.2V126.8z M103.3,132.1c0-0.1,0-0.3-0.1-0.5c-0.2-0.7-0.8-1.3-1.6-1.3
		c-1.1,0-1.8,1-1.8,2.4c0,1.2,0.6,2.3,1.8,2.3c0.7,0,1.4-0.5,1.6-1.3c0-0.2,0.1-0.3,0.1-0.5V132.1z"/>
	<path class="st1" d="M106.8,132.9c0,1.5,1,2.1,2.1,2.1c0.8,0,1.3-0.1,1.7-0.3l0.2,0.8c-0.4,0.2-1.1,0.4-2,0.4c-1.9,0-3-1.2-3-3.1
		s1.1-3.3,2.9-3.3c2,0,2.5,1.8,2.5,2.9c0,0.2,0,0.4,0,0.5L106.8,132.9L106.8,132.9z M110.1,132.1c0-0.7-0.3-1.8-1.5-1.8
		c-1.1,0-1.6,1-1.7,1.8H110.1z"/>
	<path class="st1" d="M115.2,131.7c0-0.8,0-1.4-0.1-2h1l0.1,1l0,0c0.5-0.7,1.2-1.2,2.2-1.2c1.5,0,2.6,1.3,2.6,3.1
		c0,2.2-1.3,3.3-2.8,3.3c-0.8,0-1.5-0.4-1.9-1l0,0v3.3h-1.1C115.2,138.2,115.2,131.7,115.2,131.7z M116.3,133.3c0,0.2,0,0.3,0.1,0.5
		c0.2,0.8,0.9,1.3,1.7,1.3c1.2,0,1.9-1,1.9-2.4c0-1.2-0.6-2.3-1.8-2.3c-0.8,0-1.5,0.5-1.7,1.4c0,0.1-0.1,0.3-0.1,0.5L116.3,133.3
		L116.3,133.3z"/>
	<path class="st1" d="M123,132.9c0,1.5,1,2.1,2.1,2.1c0.8,0,1.3-0.1,1.7-0.3l0.2,0.8c-0.4,0.2-1.1,0.4-2,0.4c-1.9,0-3-1.2-3-3.1
		s1.1-3.3,2.9-3.3c2,0,2.5,1.8,2.5,2.9c0,0.2,0,0.4,0,0.5L123,132.9L123,132.9z M126.3,132.1c0-0.7-0.3-1.8-1.5-1.8
		c-1.1,0-1.6,1-1.7,1.8H126.3z"/>
	<path class="st1" d="M128.7,131.6c0-0.7,0-1.3-0.1-1.9h1v1.2h0.1c0.3-0.8,0.9-1.3,1.7-1.3c0.1,0,0.2,0,0.3,0v1c-0.1,0-0.2,0-0.4,0
		c-0.8,0-1.3,0.6-1.5,1.4c0,0.2-0.1,0.3-0.1,0.5v3.3h-1.1v-4.2H128.7z"/>
	<path class="st1" d="M132.7,134.6c0.3,0.2,0.9,0.4,1.5,0.4c0.8,0,1.2-0.4,1.2-0.9s-0.3-0.8-1.1-1.1c-1.1-0.4-1.6-1-1.6-1.7
		c0-1,0.8-1.8,2.1-1.8c0.6,0,1.2,0.2,1.5,0.4l-0.3,0.8c-0.2-0.2-0.7-0.4-1.3-0.4c-0.7,0-1,0.4-1,0.8c0,0.5,0.4,0.7,1.2,1
		c1.1,0.4,1.6,0.9,1.6,1.8c0,1.1-0.8,1.8-2.3,1.8c-0.7,0-1.3-0.2-1.7-0.4L132.7,134.6z"/>
	<path class="st1" d="M143.4,132.7c0,2.3-1.6,3.2-3,3.2c-1.7,0-2.9-1.2-2.9-3.1c0-2,1.3-3.2,3-3.2
		C142.2,129.5,143.4,130.8,143.4,132.7z M138.6,132.7c0,1.3,0.8,2.3,1.9,2.3c1.1,0,1.9-1,1.9-2.4c0-1-0.5-2.3-1.8-2.3
		C139.1,130.4,138.6,131.6,138.6,132.7z"/>
	<path class="st1" d="M144.8,131.3c0-0.6,0-1.1-0.1-1.7h1l0.1,1l0,0c0.3-0.6,1-1.1,2-1.1c0.8,0,2.2,0.5,2.2,2.6v3.7h-1.1v-3.5
		c0-1-0.4-1.8-1.4-1.8c-0.7,0-1.3,0.5-1.5,1.1c-0.1,0.1-0.1,0.3-0.1,0.5v3.7h-1.1L144.8,131.3L144.8,131.3z"/>
	<path class="st1" d="M151.8,131.3c0-0.6,0-1.1-0.1-1.7h1l0.1,1l0,0c0.3-0.6,1-1.1,2-1.1c0.8,0,2.2,0.5,2.2,2.6v3.7h-1.1v-3.5
		c0-1-0.4-1.8-1.4-1.8c-0.7,0-1.3,0.5-1.5,1.1c-0.1,0.1-0.1,0.3-0.1,0.5v3.7h-1.1L151.8,131.3L151.8,131.3z"/>
	<path class="st1" d="M159.5,132.9c0,1.5,1,2.1,2.1,2.1c0.8,0,1.3-0.1,1.7-0.3l0.2,0.8c-0.4,0.2-1.1,0.4-2,0.4c-1.9,0-3-1.2-3-3.1
		s1.1-3.3,2.9-3.3c2,0,2.5,1.8,2.5,2.9c0,0.2,0,0.4,0,0.5L159.5,132.9L159.5,132.9z M162.7,132.1c0-0.7-0.3-1.8-1.5-1.8
		c-1.1,0-1.6,1-1.7,1.8H162.7z"/>
	<path class="st1" d="M165,134.6c0.3,0.2,0.9,0.4,1.5,0.4c0.8,0,1.2-0.4,1.2-0.9s-0.3-0.8-1.1-1.1c-1.1-0.4-1.6-1-1.6-1.7
		c0-1,0.8-1.8,2.1-1.8c0.6,0,1.2,0.2,1.5,0.4l-0.3,0.8c-0.2-0.2-0.7-0.4-1.3-0.4c-0.7,0-1,0.4-1,0.8c0,0.5,0.4,0.7,1.2,1
		c1.1,0.4,1.6,0.9,1.6,1.8c0,1.1-0.8,1.8-2.3,1.8c-0.7,0-1.3-0.2-1.7-0.4L165,134.6z"/>
	<path class="st1" d="M172.9,126.8h1.1v3.8l0,0c0.2-0.3,0.5-0.6,0.8-0.8s0.7-0.3,1.1-0.3c0.8,0,2.1,0.5,2.1,2.6v3.6h-1.1v-3.5
		c0-1-0.4-1.8-1.4-1.8c-0.7,0-1.3,0.5-1.5,1.1c-0.1,0.2-0.1,0.3-0.1,0.5v3.7h-1.1L172.9,126.8L172.9,126.8z"/>
	<path class="st1" d="M183.3,135.8l-0.1-0.8l0,0c-0.3,0.5-1,0.9-1.9,0.9c-1.2,0-1.9-0.9-1.9-1.8c0-1.5,1.3-2.3,3.7-2.3v-0.1
		c0-0.5-0.1-1.4-1.4-1.4c-0.6,0-1.2,0.2-1.6,0.5l-0.3-0.7c0.5-0.3,1.2-0.5,2-0.5c1.9,0,2.3,1.3,2.3,2.5v2.3c0,0.5,0,1,0.1,1.5
		L183.3,135.8L183.3,135.8z M183.1,132.7c-1.2,0-2.6,0.2-2.6,1.4c0,0.7,0.5,1.1,1,1.1c0.8,0,1.3-0.5,1.5-1c0-0.1,0.1-0.2,0.1-0.4
		V132.7z"/>
	<path class="st1" d="M186,131.3c0-0.6,0-1.1-0.1-1.7h1l0.1,1l0,0c0.3-0.6,1-1.1,2-1.1c0.8,0,2.2,0.5,2.2,2.6v3.7h-1.1v-3.5
		c0-1-0.4-1.8-1.4-1.8c-0.7,0-1.3,0.5-1.5,1.1c-0.1,0.1-0.1,0.3-0.1,0.5v3.7H186L186,131.3L186,131.3z"/>
	<path class="st1" d="M198.3,126.8v7.4c0,0.5,0,1.2,0,1.6h-1l-0.1-1.1l0,0c-0.3,0.7-1.1,1.2-2.1,1.2c-1.5,0-2.6-1.2-2.6-3.1
		c0-2,1.3-3.3,2.7-3.3c0.9,0,1.6,0.4,1.8,0.9l0,0v-3.7h1.3V126.8z M197.2,132.1c0-0.1,0-0.3-0.1-0.5c-0.2-0.7-0.8-1.3-1.6-1.3
		c-1.2,0-1.8,1-1.8,2.4c0,1.2,0.6,2.3,1.8,2.3c0.7,0,1.4-0.5,1.6-1.3c0-0.2,0.1-0.3,0.1-0.5V132.1z"/>
	<path class="st1" d="M201.3,127.9c0,0.4-0.3,0.7-0.7,0.7s-0.7-0.3-0.7-0.7c0-0.4,0.3-0.7,0.7-0.7
		C201.1,127.2,201.3,127.6,201.3,127.9z M200.1,135.8v-6.1h1.1v6.1H200.1z"/>
	<path class="st1" d="M207.4,135.5c-0.3,0.2-0.9,0.4-1.8,0.4c-1.8,0-3-1.2-3-3.1c0-1.9,1.3-3.2,3.3-3.2c0.7,0,1.2,0.2,1.5,0.3
		l-0.3,0.9c-0.3-0.2-0.7-0.3-1.3-0.3c-1.4,0-2.2,1-2.2,2.3c0,1.4,0.9,2.3,2.1,2.3c0.6,0,1-0.2,1.4-0.3L207.4,135.5z"/>
	<path class="st1" d="M212.1,135.8L212,135l0,0c-0.3,0.5-1,0.9-1.9,0.9c-1.2,0-1.9-0.9-1.9-1.8c0-1.5,1.3-2.3,3.7-2.3v-0.1
		c0-0.5-0.1-1.4-1.4-1.4c-0.6,0-1.2,0.2-1.6,0.5l-0.3-0.7c0.5-0.3,1.2-0.5,2-0.5c1.9,0,2.3,1.3,2.3,2.5v2.3c0,0.5,0,1,0.1,1.5
		L212.1,135.8L212.1,135.8z M211.9,132.7c-1.2,0-2.6,0.2-2.6,1.4c0,0.7,0.5,1.1,1,1.1c0.8,0,1.3-0.5,1.5-1c0-0.1,0.1-0.2,0.1-0.4
		V132.7z"/>
	<path class="st1" d="M214.8,131.7c0-0.8,0-1.4,0-2h1v1l0,0c0.5-0.7,1.2-1.2,2.2-1.2c1.5,0,2.6,1.3,2.6,3.1c0,2.2-1.3,3.3-2.8,3.3
		c-0.8,0-1.5-0.4-1.9-1l0,0v3.3h-1.1V131.7z M215.9,133.3c0,0.2,0,0.3,0.1,0.5c0.2,0.8,0.9,1.3,1.7,1.3c1.2,0,1.9-1,1.9-2.4
		c0-1.2-0.6-2.3-1.8-2.3c-0.8,0-1.5,0.5-1.7,1.4c0,0.1-0.1,0.3-0.1,0.5L215.9,133.3L215.9,133.3z"/>
	<path class="st1" d="M222.6,132.9c0,1.5,1,2.1,2.1,2.1c0.8,0,1.3-0.1,1.7-0.3l0.2,0.8c-0.4,0.2-1.1,0.4-2,0.4c-1.9,0-3-1.2-3-3.1
		s1.1-3.3,2.9-3.3c2,0,2.5,1.8,2.5,2.9c0,0.2,0,0.4,0,0.5L222.6,132.9L222.6,132.9z M225.9,132.1c0-0.7-0.3-1.8-1.5-1.8
		c-1.1,0-1.6,1-1.7,1.8H225.9z M226.2,127l-1.5,1.8h-0.8l1.1-1.8H226.2z"/>
	<path class="st1" d="M229,132.9c0,1.5,1,2.1,2.1,2.1c0.8,0,1.3-0.1,1.7-0.3l0.2,0.8c-0.4,0.2-1.1,0.4-2,0.4c-1.9,0-3-1.2-3-3.1
		s1.1-3.3,2.9-3.3c2,0,2.5,1.8,2.5,2.9c0,0.2,0,0.4,0,0.5L229,132.9L229,132.9z M232.2,132.1c0-0.7-0.3-1.8-1.5-1.8
		c-1.1,0-1.6,1-1.7,1.8H232.2z"/>
	<path class="st1" d="M234.5,134.6c0.3,0.2,0.9,0.4,1.5,0.4c0.8,0,1.2-0.4,1.2-0.9s-0.3-0.8-1.1-1.1c-1.1-0.4-1.6-1-1.6-1.7
		c0-1,0.8-1.8,2.1-1.8c0.6,0,1.2,0.2,1.5,0.4l-0.3,0.8c-0.2-0.2-0.7-0.4-1.3-0.4c-0.7,0-1,0.4-1,0.8c0,0.5,0.4,0.7,1.2,1
		c1.1,0.4,1.6,0.9,1.6,1.8c0,1.1-0.8,1.8-2.3,1.8c-0.7,0-1.3-0.2-1.7-0.4L234.5,134.6z"/>
	<path class="st1" d="M246.7,135.5c-0.3,0.2-0.9,0.4-1.8,0.4c-1.8,0-3-1.2-3-3.1c0-1.9,1.3-3.2,3.3-3.2c0.7,0,1.2,0.2,1.5,0.3
		l-0.3,0.9c-0.3-0.2-0.7-0.3-1.3-0.3c-1.4,0-2.2,1-2.2,2.3c0,1.4,0.9,2.3,2.1,2.3c0.6,0,1-0.2,1.4-0.3L246.7,135.5z"/>
	<path class="st1" d="M253.5,132.7c0,2.3-1.6,3.2-3,3.2c-1.7,0-2.9-1.2-2.9-3.1c0-2,1.3-3.2,3-3.2
		C252.3,129.5,253.5,130.8,253.5,132.7z M248.6,132.7c0,1.3,0.8,2.3,1.9,2.3c1.1,0,1.9-1,1.9-2.4c0-1-0.5-2.3-1.8-2.3
		C249.2,130.4,248.6,131.6,248.6,132.7z"/>
	<path class="st1" d="M254.9,131.3c0-0.6,0-1.1,0-1.7h1l0.1,1l0,0c0.3-0.6,1-1.1,2-1.1c0.8,0,2.2,0.5,2.2,2.6v3.7h-1.1v-3.5
		c0-1-0.4-1.8-1.4-1.8c-0.7,0-1.3,0.5-1.5,1.1c-0.1,0.1-0.1,0.3-0.1,0.5v3.7H255v-4.5H254.9z"/>
	<path class="st1" d="M261.7,134.6c0.3,0.2,0.9,0.4,1.5,0.4c0.8,0,1.2-0.4,1.2-0.9s-0.3-0.8-1.1-1.1c-1.1-0.4-1.6-1-1.6-1.7
		c0-1,0.8-1.8,2.1-1.8c0.6,0,1.2,0.2,1.5,0.4l-0.3,0.8c-0.2-0.2-0.7-0.4-1.3-0.4c-0.7,0-1,0.4-1,0.8c0,0.5,0.4,0.7,1.2,1
		c1.1,0.4,1.6,0.9,1.6,1.8c0,1.1-0.8,1.8-2.3,1.8c-0.7,0-1.3-0.2-1.7-0.4L261.7,134.6z"/>
	<path class="st1" d="M268.2,127.9v1.8h1.6v0.8h-1.6v3.3c0,0.8,0.2,1.2,0.8,1.2c0.3,0,0.5,0,0.6-0.1v0.8c-0.2,0.1-0.6,0.2-1,0.2
		c-0.5,0-0.9-0.2-1.2-0.5c-0.3-0.3-0.4-0.9-0.4-1.6v-3.3h-0.9v-0.8h0.9v-1.5L268.2,127.9z"/>
	<path class="st1" d="M272.3,127.9c0,0.4-0.3,0.7-0.7,0.7c-0.4,0-0.7-0.3-0.7-0.7c0-0.4,0.3-0.7,0.7-0.7
		C272.1,127.2,272.3,127.6,272.3,127.9z M271.1,135.8v-6.1h1.1v6.1H271.1z"/>
	<path class="st1" d="M275.4,127.9v1.8h1.6v0.8h-1.6v3.3c0,0.8,0.2,1.2,0.8,1.2c0.3,0,0.5,0,0.6-0.1v0.8c-0.2,0.1-0.6,0.2-1,0.2
		c-0.5,0-0.9-0.2-1.2-0.5c-0.3-0.3-0.4-0.9-0.4-1.6v-3.3h-0.9v-0.8h0.9v-1.5L275.4,127.9z"/>
	<path class="st1" d="M283.3,134.1c0,0.6,0,1.2,0.1,1.7h-1l-0.1-1l0,0c-0.3,0.5-0.9,1.1-2,1.1c-1,0-2.1-0.5-2.1-2.7v-3.6h1.1v3.4
		c0,1.2,0.4,1.9,1.4,1.9c0.7,0,1.3-0.5,1.5-1c0.1-0.2,0.1-0.4,0.1-0.6v-3.8h1.1v4.6H283.3z"/>
	<path class="st1" d="M285.8,132.9c0,1.5,1,2.1,2.1,2.1c0.8,0,1.3-0.1,1.7-0.3l0.2,0.8c-0.4,0.2-1.1,0.4-2,0.4c-1.9,0-3-1.2-3-3.1
		s1.1-3.3,2.9-3.3c2,0,2.5,1.8,2.5,2.9c0,0.2,0,0.4,0,0.5L285.8,132.9L285.8,132.9z M289.1,132.1c0-0.7-0.3-1.8-1.5-1.8
		c-1.1,0-1.6,1-1.7,1.8H289.1z"/>
	<path class="st1" d="M299.3,134.1c0,0.6,0,1.2,0.1,1.7h-1l-0.1-1l0,0c-0.3,0.5-0.9,1.1-2,1.1c-1,0-2.1-0.5-2.1-2.7v-3.6h1.1v3.4
		c0,1.2,0.4,1.9,1.4,1.9c0.7,0,1.3-0.5,1.5-1c0.1-0.2,0.1-0.4,0.1-0.6v-3.8h1.1v4.6H299.3z"/>
	<path class="st1" d="M301.2,131.3c0-0.6,0-1.1,0-1.7h1l0.1,1l0,0c0.3-0.6,1-1.1,2-1.1c0.8,0,2.2,0.5,2.2,2.6v3.7h-1.1v-3.5
		c0-1-0.4-1.8-1.4-1.8c-0.7,0-1.3,0.5-1.5,1.1c-0.1,0.1-0.1,0.3-0.1,0.5v3.7h-1.1v-4.5H301.2z"/>
	<path class="st1" d="M39,150.9l-0.1-0.8l0,0c-0.3,0.5-1,0.9-1.9,0.9c-1.2,0-1.9-0.9-1.9-1.8c0-1.5,1.3-2.3,3.7-2.3v-0.1
		c0-0.5-0.1-1.4-1.4-1.4c-0.6,0-1.2,0.2-1.6,0.5l-0.3-0.7c0.5-0.3,1.2-0.5,2-0.5c1.9,0,2.3,1.3,2.3,2.5v2.3c0,0.5,0,1,0.1,1.5
		L39,150.9L39,150.9z M38.8,147.8c-1.2,0-2.6,0.2-2.6,1.4c0,0.7,0.5,1.1,1,1.1c0.8,0,1.3-0.5,1.5-1c0-0.1,0.1-0.2,0.1-0.4V147.8z"/>
	<path class="st1" d="M46,150.7c-0.3,0.2-0.9,0.4-1.8,0.4c-1.8,0-3-1.2-3-3.1c0-1.9,1.3-3.2,3.3-3.2c0.7,0,1.2,0.2,1.5,0.3l-0.3,0.9
		c-0.3-0.2-0.7-0.3-1.3-0.3c-1.4,0-2.2,1-2.2,2.3c0,1.4,0.9,2.3,2.1,2.3c0.6,0,1-0.2,1.4-0.3L46,150.7z"/>
	<path class="st1" d="M48.8,143.1v1.8h1.6v0.8h-1.6v3.3c0,0.8,0.2,1.2,0.8,1.2c0.3,0,0.5,0,0.6-0.1l0.1,0.8c-0.2,0.1-0.6,0.2-1,0.2
		c-0.5,0-0.9-0.2-1.2-0.5s-0.4-0.9-0.4-1.6v-3.3h-0.9v-0.8h0.9v-1.5L48.8,143.1z"/>
	<path class="st1" d="M52.2,148.1c0,1.5,1,2.1,2.1,2.1c0.8,0,1.3-0.1,1.7-0.3l0.2,0.8c-0.4,0.2-1.1,0.4-2,0.4c-1.9,0-3-1.2-3-3.1
		c0-1.8,1.1-3.3,2.9-3.3c2,0,2.5,1.8,2.5,2.9c0,0.2,0,0.4,0,0.5L52.2,148.1L52.2,148.1z M55.5,147.3c0-0.7-0.3-1.8-1.5-1.8
		c-1.1,0-1.6,1-1.7,1.8H55.5z"/>
	<path class="st1" d="M65.9,142v7.4c0,0.5,0,1.2,0.1,1.6h-1l-0.1-1.1l0,0c-0.3,0.7-1.1,1.2-2.1,1.2c-1.5,0-2.6-1.3-2.6-3.1
		c0-2,1.3-3.3,2.7-3.3c0.9,0,1.6,0.4,1.8,0.9l0,0v-3.7h1.2V142z M64.8,147.3c0-0.1,0-0.3-0.1-0.5c-0.2-0.7-0.8-1.3-1.6-1.3
		c-1.1,0-1.8,1-1.8,2.4c0,1.2,0.6,2.3,1.8,2.3c0.7,0,1.4-0.5,1.6-1.3c0-0.2,0.1-0.3,0.1-0.5V147.3z"/>
	<path class="st1" d="M69,143.1c0,0.4-0.3,0.7-0.7,0.7c-0.4,0-0.7-0.3-0.7-0.7s0.3-0.7,0.7-0.7S69,142.7,69,143.1z M67.7,150.9v-6.1
		h1.1v6.1H67.7z"/>
	<path class="st1" d="M78.4,143.1c-0.3-0.2-0.7-0.3-1.2-0.3c-1.2,0-1.5,0.8-1.5,1.8v0.3h3.6v6.1h-1.1v-5.3h-2.4v5.3h-1.3v-5.3h-2.6
		v5.3h-1.1v-5.3h-0.9v-0.8h0.9v-0.2c0-0.8,0.2-1.5,0.7-2c0.4-0.4,0.9-0.6,1.6-0.6c0.4,0,0.8,0.2,1.1,0.3l-0.3,0.8
		c-0.2-0.1-0.5-0.2-0.8-0.2c-0.4,0-0.6,0.1-0.8,0.3c-0.3,0.3-0.4,0.9-0.4,1.4v0.2h2.6v-0.3c0-1.6,1-2.7,2.7-2.7
		c0.6,0,1.2,0.2,1.5,0.4L78.4,143.1z"/>
	<path class="st1" d="M85.4,150.7c-0.3,0.2-0.9,0.4-1.8,0.4c-1.8,0-3-1.2-3-3.1c0-1.9,1.3-3.2,3.3-3.2c0.7,0,1.2,0.2,1.5,0.3
		l-0.3,0.9c-0.3-0.2-0.7-0.3-1.3-0.3c-1.4,0-2.2,1-2.2,2.3c0,1.4,0.9,2.3,2.1,2.3c0.6,0,1-0.2,1.4-0.3L85.4,150.7z"/>
	<path class="st1" d="M87.9,143.1c0,0.4-0.3,0.7-0.7,0.7c-0.4,0-0.7-0.3-0.7-0.7s0.3-0.7,0.7-0.7S87.9,142.7,87.9,143.1z
		 M86.7,150.9v-6.1h1.1v6.1H86.7z"/>
	<path class="st1" d="M89.6,142h1.1v9h-1.1V142z"/>
	<path class="st1" d="M93.2,148.1c0,1.5,1,2.1,2.1,2.1c0.8,0,1.3-0.1,1.7-0.3l0.2,0.8c-0.4,0.2-1.1,0.4-2,0.4c-1.9,0-3-1.2-3-3.1
		c0-1.8,1.1-3.3,2.9-3.3c2,0,2.5,1.8,2.5,2.9c0,0.2,0,0.4,0,0.5L93.2,148.1L93.2,148.1z M96.5,147.3c0-0.7-0.3-1.8-1.5-1.8
		c-1.1,0-1.6,1-1.7,1.8H96.5z"/>
	<path class="st1" d="M98.5,150.3c0-0.5,0.3-0.8,0.8-0.8s0.7,0.3,0.7,0.8s-0.3,0.8-0.8,0.8C98.8,151.1,98.5,150.7,98.5,150.3z"/>
	<path class="st1" d="M35.6,157.7c0.5-0.1,1.2-0.2,2.1-0.2c1.1,0,1.9,0.3,2.4,0.7s0.7,1,0.7,1.8s-0.2,1.4-0.7,1.8
		c-0.6,0.6-1.5,0.9-2.6,0.9c-0.3,0-0.6,0-0.9-0.1v3.4h-1.1L35.6,157.7L35.6,157.7z M36.7,161.8c0.2,0.1,0.5,0.1,0.9,0.1
		c1.3,0,2.1-0.6,2.1-1.8c0-1.1-0.8-1.7-2-1.7c-0.5,0-0.8,0-1,0.1V161.8z"/>
	<path class="st1" d="M47.5,163c0,2.3-1.6,3.2-3,3.2c-1.7,0-2.9-1.2-2.9-3.1c0-2,1.3-3.2,3-3.2C46.3,159.8,47.5,161.1,47.5,163z
		 M42.7,163.1c0,1.3,0.8,2.3,1.9,2.3c1.1,0,1.9-1,1.9-2.4c0-1-0.5-2.3-1.8-2.3C43.2,160.7,42.7,161.9,42.7,163.1z"/>
	<path class="st1" d="M54.1,164.4c0,0.6,0,1.2,0.1,1.7h-1l-0.1-1l0,0c-0.3,0.5-0.9,1.1-2,1.1c-1,0-2.1-0.5-2.1-2.7v-3.6h1.1v3.4
		c0,1.2,0.4,1.9,1.4,1.9c0.7,0,1.3-0.5,1.5-1c0.1-0.2,0.1-0.4,0.1-0.6v-3.8h1.1L54.1,164.4L54.1,164.4z"/>
	<path class="st1" d="M55.9,161.9c0-0.7,0-1.3-0.1-1.9h1v1.2h0.1c0.3-0.8,0.9-1.3,1.7-1.3c0.1,0,0.2,0,0.3,0v1c-0.1,0-0.2,0-0.4,0
		c-0.8,0-1.3,0.6-1.5,1.4c0,0.2-0.1,0.3-0.1,0.5v3.3h-1.1L55.9,161.9L55.9,161.9z"/>
	<path class="st1" d="M62.7,166.1c0-0.4,0.1-1,0.1-1.6v-7.4h1.1v3.8l0,0c0.4-0.7,1.1-1.1,2.1-1.1c1.5,0,2.6,1.3,2.6,3.1
		c0,2.2-1.4,3.3-2.7,3.3c-0.9,0-1.6-0.3-2-1.1l0,0l-0.1,1H62.7z M63.8,163.7c0,0.1,0,0.3,0.1,0.4c0.2,0.8,0.9,1.3,1.7,1.3
		c1.2,0,1.9-0.9,1.9-2.4c0-1.2-0.6-2.3-1.8-2.3c-0.8,0-1.5,0.5-1.7,1.4c0,0.1-0.1,0.3-0.1,0.5L63.8,163.7L63.8,163.7z"/>
	<path class="st1" d="M70.5,163.2c0,1.5,1,2.1,2.1,2.1c0.8,0,1.3-0.1,1.7-0.3l0.2,0.8c-0.4,0.2-1.1,0.4-2,0.4c-1.9,0-3-1.2-3-3.1
		c0-1.8,1.1-3.3,2.9-3.3c2,0,2.5,1.8,2.5,2.9c0,0.2,0,0.4,0,0.5L70.5,163.2L70.5,163.2z M73.8,162.5c0-0.7-0.3-1.8-1.5-1.8
		c-1.1,0-1.6,1-1.7,1.8H73.8z"/>
	<path class="st1" d="M79.6,166.1l-0.1-0.8l0,0c-0.3,0.5-1,0.9-1.9,0.9c-1.2,0-1.9-0.9-1.9-1.8c0-1.5,1.3-2.3,3.7-2.3V162
		c0-0.5-0.1-1.4-1.4-1.4c-0.6,0-1.2,0.2-1.6,0.5l-0.3-0.7c0.5-0.3,1.2-0.5,2-0.5c1.9,0,2.3,1.3,2.3,2.5v2.3c0,0.5,0,1,0.1,1.5
		L79.6,166.1L79.6,166.1z M79.5,163c-1.2,0-2.6,0.2-2.6,1.4c0,0.7,0.5,1.1,1,1.1c0.8,0,1.3-0.5,1.5-1c0-0.1,0.1-0.2,0.1-0.4V163z"/>
	<path class="st1" d="M87.4,164.4c0,0.6,0,1.2,0.1,1.7h-1l-0.1-1l0,0c-0.3,0.5-0.9,1.1-2,1.1c-1,0-2.1-0.5-2.1-2.7v-3.6h1.1v3.4
		c0,1.2,0.4,1.9,1.4,1.9c0.7,0,1.3-0.5,1.5-1c0.1-0.2,0.1-0.4,0.1-0.6v-3.8h1.1L87.4,164.4L87.4,164.4z"/>
	<path class="st1" d="M93.6,165.9c-0.3,0.2-0.9,0.4-1.8,0.4c-1.8,0-3-1.2-3-3.1c0-1.9,1.3-3.2,3.3-3.2c0.7,0,1.2,0.2,1.5,0.3
		l-0.3,0.9c-0.3-0.2-0.7-0.3-1.3-0.3c-1.4,0-2.2,1-2.2,2.3c0,1.4,0.9,2.3,2.1,2.3c0.6,0,1-0.2,1.4-0.3L93.6,165.9z"/>
	<path class="st1" d="M100.4,163c0,2.3-1.6,3.2-3,3.2c-1.7,0-2.9-1.2-2.9-3.1c0-2,1.3-3.2,3-3.2C99.2,159.8,100.4,161.1,100.4,163z
		 M95.6,163.1c0,1.3,0.8,2.3,1.9,2.3s1.9-1,1.9-2.4c0-1-0.5-2.3-1.8-2.3C96.1,160.7,95.6,161.9,95.6,163.1z"/>
	<path class="st1" d="M106.9,164.4c0,0.6,0,1.2,0.1,1.7h-1l-0.1-1l0,0c-0.3,0.5-0.9,1.1-2,1.1c-1,0-2.1-0.5-2.1-2.7v-3.6h1.1v3.4
		c0,1.2,0.4,1.9,1.4,1.9c0.7,0,1.3-0.5,1.5-1c0.1-0.2,0.1-0.4,0.1-0.6v-3.8h1.1L106.9,164.4L106.9,164.4z"/>
	<path class="st1" d="M108.8,162c0-0.8,0-1.4-0.1-2h1l0.1,1l0,0c0.5-0.7,1.2-1.2,2.2-1.2c1.5,0,2.6,1.3,2.6,3.1
		c0,2.2-1.3,3.3-2.8,3.3c-0.8,0-1.5-0.4-1.9-1l0,0v3.3h-1.1C108.8,168.5,108.8,162,108.8,162z M109.9,163.6c0,0.2,0,0.3,0.1,0.5
		c0.2,0.8,0.9,1.3,1.7,1.3c1.2,0,1.9-1,1.9-2.4c0-1.2-0.6-2.3-1.8-2.3c-0.8,0-1.5,0.5-1.7,1.4c0,0.1-0.1,0.3-0.1,0.5L109.9,163.6
		L109.9,163.6z"/>
	<path class="st1" d="M114.9,167.7c0.3-0.7,0.6-2.1,0.8-3l1.2-0.1c-0.3,1.1-0.8,2.5-1.2,3.1H114.9z"/>
	<path class="st1" d="M121,157.1h1.1v9H121V157.1z"/>
	<path class="st1" d="M124.6,163.2c0,1.5,1,2.1,2.1,2.1c0.8,0,1.3-0.1,1.7-0.3l0.2,0.8c-0.4,0.2-1.1,0.4-2,0.4c-1.9,0-3-1.2-3-3.1
		c0-1.8,1.1-3.3,2.9-3.3c2,0,2.5,1.8,2.5,2.9c0,0.2,0,0.4,0,0.5L124.6,163.2L124.6,163.2z M127.8,162.5c0-0.7-0.3-1.8-1.5-1.8
		c-1.1,0-1.6,1-1.7,1.8H127.8z"/>
	<path class="st1" d="M132.9,157.1h1.1v3.8l0,0c0.2-0.3,0.5-0.6,0.8-0.8s0.7-0.3,1.1-0.3c0.8,0,2.1,0.5,2.1,2.6v3.6h-1.1v-3.5
		c0-1-0.4-1.8-1.4-1.8c-0.7,0-1.3,0.5-1.5,1.1c-0.1,0.2-0.1,0.3-0.1,0.5v3.7h-1.1L132.9,157.1L132.9,157.1z"/>
	<path class="st1" d="M143.3,166.1l-0.1-0.8l0,0c-0.3,0.5-1,0.9-1.9,0.9c-1.2,0-1.9-0.9-1.9-1.8c0-1.5,1.3-2.3,3.7-2.3V162
		c0-0.5-0.1-1.4-1.4-1.4c-0.6,0-1.2,0.2-1.6,0.5l-0.3-0.7c0.5-0.3,1.2-0.5,2-0.5c1.9,0,2.3,1.3,2.3,2.5v2.3c0,0.5,0,1,0.1,1.5
		L143.3,166.1L143.3,166.1z M143.2,163c-1.2,0-2.6,0.2-2.6,1.4c0,0.7,0.5,1.1,1,1.1c0.8,0,1.3-0.5,1.5-1c0-0.1,0.1-0.2,0.1-0.4V163z
		"/>
	<path class="st1" d="M146,161.6c0-0.6,0-1.1-0.1-1.7h1l0.1,1l0,0c0.3-0.6,1-1.1,2-1.1c0.8,0,2.2,0.5,2.2,2.6v3.7h-1.1v-3.5
		c0-1-0.4-1.8-1.4-1.8c-0.7,0-1.3,0.5-1.5,1.1c-0.1,0.1-0.1,0.3-0.1,0.5v3.7H146L146,161.6L146,161.6z"/>
	<path class="st1" d="M158.3,157.1v7.4c0,0.5,0,1.2,0.1,1.6h-1l-0.1-1.1l0,0c-0.3,0.7-1.1,1.2-2.1,1.2c-1.5,0-2.6-1.3-2.6-3.1
		c0-2,1.3-3.3,2.7-3.3c0.9,0,1.6,0.4,1.8,0.9l0,0V157h1.2V157.1z M157.2,162.5c0-0.1,0-0.3-0.1-0.5c-0.2-0.7-0.8-1.3-1.6-1.3
		c-1.1,0-1.8,1-1.8,2.4c0,1.2,0.6,2.3,1.8,2.3c0.7,0,1.4-0.5,1.6-1.3c0-0.2,0.1-0.3,0.1-0.5V162.5z"/>
	<path class="st1" d="M161.4,158.3c0,0.4-0.3,0.7-0.7,0.7s-0.7-0.3-0.7-0.7s0.3-0.7,0.7-0.7C161.2,157.6,161.4,157.9,161.4,158.3z
		 M160.2,166.1V160h1.1v6.1H160.2z"/>
	<path class="st1" d="M167.5,165.9c-0.3,0.2-0.9,0.4-1.8,0.4c-1.8,0-3-1.2-3-3.1c0-1.9,1.3-3.2,3.3-3.2c0.7,0,1.2,0.2,1.5,0.3
		l-0.3,0.9c-0.3-0.2-0.7-0.3-1.3-0.3c-1.4,0-2.2,1-2.2,2.3c0,1.4,0.9,2.3,2.1,2.3c0.6,0,1-0.2,1.4-0.3L167.5,165.9z"/>
	<path class="st1" d="M172.2,166.1l-0.1-0.8l0,0c-0.3,0.5-1,0.9-1.9,0.9c-1.2,0-1.9-0.9-1.9-1.8c0-1.5,1.3-2.3,3.7-2.3V162
		c0-0.5-0.1-1.4-1.4-1.4c-0.6,0-1.2,0.2-1.6,0.5l-0.3-0.7c0.5-0.3,1.2-0.5,2-0.5c1.9,0,2.3,1.3,2.3,2.5v2.3c0,0.5,0,1,0.1,1.5
		L172.2,166.1L172.2,166.1z M172,163c-1.2,0-2.6,0.2-2.6,1.4c0,0.7,0.5,1.1,1,1.1c0.8,0,1.3-0.5,1.5-1c0-0.1,0.1-0.2,0.1-0.4V163z"
		/>
	<path class="st1" d="M174.9,162c0-0.8,0-1.4-0.1-2h1l0.1,1l0,0c0.5-0.7,1.2-1.2,2.2-1.2c1.5,0,2.6,1.3,2.6,3.1
		c0,2.2-1.3,3.3-2.8,3.3c-0.8,0-1.5-0.4-1.9-1l0,0v3.3h-1.1V162z M176,163.6c0,0.2,0,0.3,0.1,0.5c0.2,0.8,0.9,1.3,1.7,1.3
		c1.2,0,1.9-1,1.9-2.4c0-1.2-0.6-2.3-1.8-2.3c-0.8,0-1.5,0.5-1.7,1.4c0,0.1-0.1,0.3-0.1,0.5L176,163.6L176,163.6z"/>
	<path class="st1" d="M184.6,165c0.3,0.2,0.9,0.4,1.5,0.4c0.8,0,1.2-0.4,1.2-0.9s-0.3-0.8-1.1-1.1c-1.1-0.4-1.6-1-1.6-1.7
		c0-1,0.8-1.8,2.1-1.8c0.6,0,1.2,0.2,1.5,0.4l-0.3,0.8c-0.2-0.2-0.7-0.4-1.3-0.4c-0.7,0-1,0.4-1,0.8c0,0.5,0.4,0.7,1.2,1
		c1.1,0.4,1.6,0.9,1.6,1.8c0,1.1-0.8,1.8-2.3,1.8c-0.7,0-1.3-0.2-1.7-0.4L184.6,165z"/>
	<path class="st1" d="M191,157.4c-0.3,1.1-0.8,2.4-1.2,3l-0.7,0.1c0.3-0.7,0.6-2.1,0.7-3L191,157.4z"/>
	<path class="st1" d="M195.3,166.1l-0.1-0.8l0,0c-0.3,0.5-1,0.9-1.9,0.9c-1.2,0-1.9-0.9-1.9-1.8c0-1.5,1.3-2.3,3.7-2.3V162
		c0-0.5-0.1-1.4-1.4-1.4c-0.6,0-1.2,0.2-1.6,0.5l-0.3-0.7c0.5-0.3,1.2-0.5,2-0.5c1.9,0,2.3,1.3,2.3,2.5v2.3c0,0.5,0,1,0.1,1.5
		L195.3,166.1L195.3,166.1z M195.2,163c-1.2,0-2.6,0.2-2.6,1.4c0,0.7,0.5,1.1,1,1.1c0.8,0,1.3-0.5,1.5-1c0-0.1,0.1-0.2,0.1-0.4V163z
		"/>
	<path class="st1" d="M198,162c0-0.8,0-1.4-0.1-2h1l0.1,1l0,0c0.5-0.7,1.2-1.2,2.2-1.2c1.5,0,2.6,1.3,2.6,3.1c0,2.2-1.3,3.3-2.8,3.3
		c-0.8,0-1.5-0.4-1.9-1l0,0v3.3H198V162z M199.1,163.6c0,0.2,0,0.3,0,0.5c0.2,0.8,0.9,1.3,1.7,1.3c1.2,0,1.9-1,1.9-2.4
		c0-1.2-0.6-2.3-1.8-2.3c-0.8,0-1.5,0.5-1.7,1.4c0,0.1-0.1,0.3-0.1,0.5L199.1,163.6L199.1,163.6z"/>
	<path class="st1" d="M205.2,162c0-0.8,0-1.4,0-2h1v1l0,0c0.5-0.7,1.2-1.2,2.2-1.2c1.5,0,2.6,1.3,2.6,3.1c0,2.2-1.3,3.3-2.8,3.3
		c-0.8,0-1.5-0.4-1.9-1l0,0v3.3h-1.1V162z M206.3,163.6c0,0.2,0,0.3,0.1,0.5c0.2,0.8,0.9,1.3,1.7,1.3c1.2,0,1.9-1,1.9-2.4
		c0-1.2-0.6-2.3-1.8-2.3c-0.8,0-1.5,0.5-1.7,1.4c0,0.1-0.1,0.3-0.1,0.5L206.3,163.6L206.3,163.6z"/>
	<path class="st1" d="M215.8,166.1l-0.1-0.8l0,0c-0.3,0.5-1,0.9-1.9,0.9c-1.2,0-1.9-0.9-1.9-1.8c0-1.5,1.3-2.3,3.7-2.3V162
		c0-0.5-0.1-1.4-1.4-1.4c-0.6,0-1.2,0.2-1.6,0.5l-0.3-0.7c0.5-0.3,1.2-0.5,2-0.5c1.9,0,2.3,1.3,2.3,2.5v2.3c0,0.5,0,1,0.1,1.5
		L215.8,166.1L215.8,166.1z M215.6,163c-1.2,0-2.6,0.2-2.6,1.4c0,0.7,0.5,1.1,1,1.1c0.8,0,1.3-0.5,1.5-1c0-0.1,0.1-0.2,0.1-0.4V163z
		"/>
	<path class="st1" d="M218.5,161.9c0-0.7,0-1.3,0-1.9h1v1.2l0,0c0.3-0.8,0.9-1.3,1.7-1.3c0.1,0,0.2,0,0.3,0v1c-0.1,0-0.2,0-0.4,0
		c-0.8,0-1.3,0.6-1.5,1.4c0,0.2-0.1,0.3-0.1,0.5v3.3h-1V161.9z"/>
	<path class="st1" d="M223.1,163.2c0,1.5,1,2.1,2.1,2.1c0.8,0,1.3-0.1,1.7-0.3l0.2,0.8c-0.4,0.2-1.1,0.4-2,0.4c-1.9,0-3-1.2-3-3.1
		c0-1.8,1.1-3.3,2.9-3.3c2,0,2.5,1.8,2.5,2.9c0,0.2,0,0.4,0,0.5L223.1,163.2L223.1,163.2z M226.4,162.5c0-0.7-0.3-1.8-1.5-1.8
		c-1.1,0-1.6,1-1.7,1.8H226.4z"/>
	<path class="st1" d="M228.8,161.6c0-0.6,0-1.1,0-1.7h1l0.1,1l0,0c0.3-0.6,1-1.1,2-1.1c0.8,0,2.2,0.5,2.2,2.6v3.7H233v-3.5
		c0-1-0.4-1.8-1.4-1.8c-0.7,0-1.3,0.5-1.5,1.1c-0.1,0.1-0.1,0.3-0.1,0.5v3.7h-1.1L228.8,161.6L228.8,161.6z"/>
	<path class="st1" d="M237.1,158.2v1.8h1.6v0.8h-1.6v3.3c0,0.8,0.2,1.2,0.8,1.2c0.3,0,0.5,0,0.6-0.1v0.8c-0.2,0.1-0.6,0.2-1,0.2
		c-0.5,0-0.9-0.2-1.2-0.5s-0.4-0.9-0.4-1.6v-3.3H235V160h0.9v-1.5L237.1,158.2z"/>
	<path class="st1" d="M240.5,163.2c0,1.5,1,2.1,2.1,2.1c0.8,0,1.3-0.1,1.7-0.3l0.2,0.8c-0.4,0.2-1.1,0.4-2,0.4c-1.9,0-3-1.2-3-3.1
		c0-1.8,1.1-3.3,2.9-3.3c2,0,2.5,1.8,2.5,2.9c0,0.2,0,0.4,0,0.5L240.5,163.2L240.5,163.2z M243.8,162.5c0-0.7-0.3-1.8-1.5-1.8
		c-1.1,0-1.6,1-1.7,1.8H243.8z"/>
	<path class="st1" d="M252.3,166.1l-0.1-0.8l0,0c-0.3,0.5-1,0.9-1.9,0.9c-1.2,0-1.9-0.9-1.9-1.8c0-1.5,1.3-2.3,3.7-2.3V162
		c0-0.5-0.1-1.4-1.4-1.4c-0.6,0-1.2,0.2-1.6,0.5l-0.3-0.7c0.5-0.3,1.2-0.5,2-0.5c1.9,0,2.3,1.3,2.3,2.5v2.3c0,0.5,0,1,0.1,1.5
		L252.3,166.1L252.3,166.1z M252.1,163c-1.2,0-2.6,0.2-2.6,1.4c0,0.7,0.5,1.1,1,1.1c0.8,0,1.3-0.5,1.5-1c0-0.1,0.1-0.2,0.1-0.4V163z
		"/>
	<path class="st1" d="M260.1,164.4c0,0.6,0,1.2,0.1,1.7h-1l-0.1-1l0,0c-0.3,0.5-0.9,1.1-2,1.1c-1,0-2.1-0.5-2.1-2.7v-3.6h1.1v3.4
		c0,1.2,0.4,1.9,1.4,1.9c0.7,0,1.3-0.5,1.5-1c0.1-0.2,0.1-0.4,0.1-0.6v-3.8h1.1v4.6H260.1z"/>
	<path class="st1" d="M264.8,166.1v-5.3h-0.9V160h0.9v-0.3c0-0.9,0.2-1.6,0.7-2.1c0.4-0.4,1-0.6,1.5-0.6c0.4,0,0.7,0.1,0.9,0.2
		l-0.2,0.9c-0.2-0.1-0.4-0.1-0.7-0.1c-0.9,0-1.2,0.8-1.2,1.8v0.3h1.5v0.8h-1.5v5.3L264.8,166.1L264.8,166.1z"/>
	<path class="st1" d="M271.7,166.1l-0.1-0.8l0,0c-0.3,0.5-1,0.9-1.9,0.9c-1.2,0-1.9-0.9-1.9-1.8c0-1.5,1.3-2.3,3.7-2.3V162
		c0-0.5-0.1-1.4-1.4-1.4c-0.6,0-1.2,0.2-1.6,0.5l-0.3-0.7c0.5-0.3,1.2-0.5,2-0.5c1.9,0,2.3,1.3,2.3,2.5v2.3c0,0.5,0,1,0.1,1.5
		L271.7,166.1L271.7,166.1z M271.6,163c-1.2,0-2.6,0.2-2.6,1.4c0,0.7,0.5,1.1,1,1.1c0.8,0,1.3-0.5,1.5-1c0-0.1,0.1-0.2,0.1-0.4V163z
		"/>
	<path class="st1" d="M279.6,164.4c0,0.6,0,1.2,0.1,1.7h-1l-0.1-1l0,0c-0.3,0.5-0.9,1.1-2,1.1c-1,0-2.1-0.5-2.1-2.7v-3.6h1.1v3.4
		c0,1.2,0.4,1.9,1.4,1.9c0.7,0,1.3-0.5,1.5-1c0.1-0.2,0.1-0.4,0.1-0.6v-3.8h1.1v4.6H279.6z"/>
	<path class="st1" d="M282.7,158.2v1.8h1.6v0.8h-1.6v3.3c0,0.8,0.2,1.2,0.8,1.2c0.3,0,0.5,0,0.6-0.1v0.8c-0.2,0.1-0.6,0.2-1,0.2
		c-0.5,0-0.9-0.2-1.2-0.5c-0.3-0.3-0.4-0.9-0.4-1.6v-3.3h-0.9V160h0.9v-1.5L282.7,158.2z"/>
	<path class="st1" d="M286.1,163.2c0,1.5,1,2.1,2.1,2.1c0.8,0,1.3-0.1,1.7-0.3l0.2,0.8c-0.4,0.2-1.1,0.4-2,0.4c-1.9,0-3-1.2-3-3.1
		c0-1.8,1.1-3.3,2.9-3.3c2,0,2.5,1.8,2.5,2.9c0,0.2,0,0.4,0,0.5L286.1,163.2L286.1,163.2z M289.4,162.5c0-0.7-0.3-1.8-1.5-1.8
		c-1.1,0-1.6,1-1.7,1.8H289.4z"/>
	<path class="st1" d="M297,164.4c0,0.6,0,1.2,0.1,1.7h-1l-0.1-1l0,0c-0.3,0.5-0.9,1.1-2,1.1c-1,0-2.1-0.5-2.1-2.7v-3.6h1.1v3.4
		c0,1.2,0.4,1.9,1.4,1.9c0.7,0,1.3-0.5,1.5-1c0.1-0.2,0.1-0.4,0.1-0.6v-3.8h1.1v4.6H297z"/>
	<path class="st1" d="M300,158.3c0,0.4-0.3,0.7-0.7,0.7c-0.4,0-0.7-0.3-0.7-0.7s0.3-0.7,0.7-0.7C299.8,157.6,300,157.9,300,158.3z
		 M298.8,166.1V160h1.1v6.1H298.8z"/>
	<path class="st1" d="M301.8,157.1h1.1v9h-1.1V157.1z"/>
	<path class="st1" d="M35.6,177.1c0-0.7,0-1.3-0.1-1.9h1v1.2h0.1c0.3-0.8,0.9-1.3,1.7-1.3c0.1,0,0.2,0,0.3,0v1c-0.1,0-0.2,0-0.4,0
		c-0.8,0-1.3,0.6-1.5,1.4c0,0.2-0.1,0.3-0.1,0.5v3.3h-1.1L35.6,177.1L35.6,177.1z"/>
	<path class="st1" d="M45.1,178.2c0,2.3-1.6,3.2-3,3.2c-1.7,0-2.9-1.2-2.9-3.1c0-2,1.3-3.2,3-3.2C43.9,175,45.1,176.3,45.1,178.2z
		 M40.3,178.2c0,1.3,0.8,2.3,1.9,2.3c1.1,0,1.9-1,1.9-2.4c0-1-0.5-2.3-1.8-2.3C40.8,175.8,40.3,177.1,40.3,178.2z"/>
	<path class="st1" d="M51.6,179.6c0,0.6,0,1.2,0.1,1.7h-1l-0.1-1l0,0c-0.3,0.5-0.9,1.1-2,1.1c-1,0-2.1-0.5-2.1-2.7v-3.6h1.1v3.4
		c0,1.2,0.4,1.9,1.4,1.9c0.7,0,1.3-0.5,1.5-1c0.1-0.2,0.1-0.4,0.1-0.6V175h1.1L51.6,179.6L51.6,179.6z"/>
	<path class="st1" d="M53.5,172.3h1.1v9h-1.1V172.3z"/>
	<path class="st1" d="M59.9,181.3l-0.1-0.8l0,0c-0.3,0.5-1,0.9-1.9,0.9c-1.2,0-1.9-0.9-1.9-1.8c0-1.5,1.3-2.3,3.7-2.3v-0.1
		c0-0.5-0.1-1.4-1.4-1.4c-0.6,0-1.2,0.2-1.6,0.5l-0.3-0.7c0.5-0.3,1.2-0.5,2-0.5c1.9,0,2.3,1.3,2.3,2.5v2.3c0,0.5,0,1,0.1,1.5h-0.9
		V181.3z M59.7,178.1c-1.2,0-2.6,0.2-2.6,1.4c0,0.7,0.5,1.1,1,1.1c0.8,0,1.3-0.5,1.5-1c0-0.1,0.1-0.2,0.1-0.4V178.1z"/>
	<path class="st1" d="M62.6,176.8c0-0.6,0-1.1-0.1-1.7h1l0.1,1l0,0c0.3-0.6,1-1.1,2-1.1c0.8,0,2.2,0.5,2.2,2.6v3.7h-1.1v-3.5
		c0-1-0.4-1.8-1.4-1.8c-0.7,0-1.3,0.5-1.5,1.1c-0.1,0.1-0.1,0.3-0.1,0.5v3.7h-1.1V176.8z"/>
	<path class="st1" d="M70.9,173.4v1.8h1.6v0.8h-1.6v3.3c0,0.8,0.2,1.2,0.8,1.2c0.3,0,0.5,0,0.6-0.1l0.1,0.8c-0.2,0.1-0.6,0.2-1,0.2
		c-0.5,0-0.9-0.2-1.2-0.5c-0.3-0.3-0.4-0.9-0.4-1.6V176h-0.9v-0.8h0.9v-1.5L70.9,173.4z"/>
	<path class="st1" d="M77,178.4c0,1.5,1,2.1,2.1,2.1c0.8,0,1.3-0.1,1.7-0.3L81,181c-0.4,0.2-1.1,0.4-2,0.4c-1.9,0-3-1.2-3-3.1
		s1.1-3.3,2.9-3.3c2,0,2.5,1.8,2.5,2.9c0,0.2,0,0.4,0,0.5H77z M80.3,177.6c0-0.7-0.3-1.8-1.5-1.8c-1.1,0-1.6,1-1.7,1.8H80.3z"/>
	<path class="st1" d="M84.1,173.4v1.8h1.6v0.8h-1.6v3.3c0,0.8,0.2,1.2,0.8,1.2c0.3,0,0.5,0,0.6-0.1l0.1,0.8c-0.2,0.1-0.6,0.2-1,0.2
		c-0.5,0-0.9-0.2-1.2-0.5c-0.3-0.3-0.4-0.9-0.4-1.6V176h-0.9v-0.8H83v-1.5L84.1,173.4z"/>
	<path class="st1" d="M89.6,176.8c0-0.6,0-1.1-0.1-1.7h1l0.1,1l0,0c0.3-0.6,1-1.1,2-1.1c0.8,0,2.2,0.5,2.2,2.6v3.7h-1.1v-3.5
		c0-1-0.4-1.8-1.4-1.8c-0.7,0-1.3,0.5-1.5,1.1c-0.1,0.1-0.1,0.3-0.1,0.5v3.7h-1.1V176.8z"/>
	<path class="st1" d="M97.2,178.4c0,1.5,1,2.1,2.1,2.1c0.8,0,1.3-0.1,1.7-0.3l0.2,0.8c-0.4,0.2-1.1,0.4-2,0.4c-1.9,0-3-1.2-3-3.1
		s1.1-3.3,2.9-3.3c2,0,2.5,1.8,2.5,2.9c0,0.2,0,0.4,0,0.5H97.2z M100.5,177.6c0-0.7-0.3-1.8-1.5-1.8c-1.1,0-1.6,1-1.7,1.8H100.5z
		 M100.7,172.5l-1.5,1.8h-0.8l1.1-1.8H100.7z"/>
	<path class="st1" d="M107.3,181c-0.3,0.2-0.9,0.4-1.8,0.4c-1.8,0-3-1.2-3-3.1s1.3-3.2,3.3-3.2c0.7,0,1.2,0.2,1.5,0.3l-0.3,0.9
		c-0.3-0.2-0.7-0.3-1.3-0.3c-1.4,0-2.2,1-2.2,2.3c0,1.4,0.9,2.3,2.1,2.3c0.6,0,1-0.2,1.4-0.3L107.3,181z"/>
	<path class="st1" d="M109.1,178.4c0,1.5,1,2.1,2.1,2.1c0.8,0,1.3-0.1,1.7-0.3l0.2,0.8c-0.4,0.2-1.1,0.4-2,0.4c-1.9,0-3-1.2-3-3.1
		s1.1-3.3,2.9-3.3c2,0,2.5,1.8,2.5,2.9c0,0.2,0,0.4,0,0.5H109.1z M112.4,177.6c0-0.7-0.3-1.8-1.5-1.8c-1.1,0-1.6,1-1.7,1.8H112.4z"
		/>
	<path class="st1" d="M114.7,180.1c0.3,0.2,0.9,0.4,1.5,0.4c0.8,0,1.2-0.4,1.2-0.9s-0.3-0.8-1.1-1.1c-1.1-0.4-1.6-1-1.6-1.7
		c0-1,0.8-1.8,2.1-1.8c0.6,0,1.2,0.2,1.5,0.4l-0.3,0.8c-0.2-0.2-0.7-0.4-1.3-0.4c-0.7,0-1,0.4-1,0.8c0,0.5,0.4,0.7,1.2,1
		c1.1,0.4,1.6,0.9,1.6,1.8c0,1.1-0.8,1.8-2.3,1.8c-0.7,0-1.3-0.2-1.7-0.4L114.7,180.1z"/>
	<path class="st1" d="M119.7,180.1c0.3,0.2,0.9,0.4,1.5,0.4c0.8,0,1.2-0.4,1.2-0.9s-0.3-0.8-1.1-1.1c-1.1-0.4-1.6-1-1.6-1.7
		c0-1,0.8-1.8,2.1-1.8c0.6,0,1.2,0.2,1.5,0.4l-0.3,0.8c-0.2-0.2-0.7-0.4-1.3-0.4c-0.7,0-1,0.4-1,0.8c0,0.5,0.4,0.7,1.2,1
		c1.1,0.4,1.6,0.9,1.6,1.8c0,1.1-0.8,1.8-2.3,1.8c-0.7,0-1.3-0.2-1.7-0.4L119.7,180.1z"/>
	<path class="st1" d="M126.1,173.4c0,0.4-0.3,0.7-0.7,0.7s-0.7-0.3-0.7-0.7c0-0.4,0.3-0.7,0.7-0.7S126.1,173,126.1,173.4z
		 M124.9,181.3v-6.1h1.1v6.1H124.9z"/>
	<path class="st1" d="M129.2,173.4v1.8h1.6v0.8h-1.6v3.3c0,0.8,0.2,1.2,0.8,1.2c0.3,0,0.5,0,0.6-0.1l0.1,0.8c-0.2,0.1-0.6,0.2-1,0.2
		c-0.5,0-0.9-0.2-1.2-0.5s-0.4-0.9-0.4-1.6V176h-0.9v-0.8h0.9v-1.5L129.2,173.4z"/>
	<path class="st1" d="M132.5,178.4c0,1.5,1,2.1,2.1,2.1c0.8,0,1.3-0.1,1.7-0.3l0.2,0.8c-0.4,0.2-1.1,0.4-2,0.4c-1.9,0-3-1.2-3-3.1
		s1.1-3.3,2.9-3.3c2,0,2.5,1.8,2.5,2.9c0,0.2,0,0.4,0,0.5H132.5z M135.8,177.6c0-0.7-0.3-1.8-1.5-1.8c-1.1,0-1.6,1-1.7,1.8H135.8z"
		/>
	<path class="st1" d="M146.2,172.3v7.4c0,0.5,0,1.2,0.1,1.6h-1l-0.1-1.1l0,0c-0.3,0.7-1.1,1.2-2.1,1.2c-1.5,0-2.6-1.2-2.6-3.1
		c0-2,1.3-3.3,2.7-3.3c0.9,0,1.6,0.4,1.8,0.9l0,0v-3.7h1.2V172.3z M145.1,177.6c0-0.1,0-0.3-0.1-0.5c-0.2-0.7-0.8-1.3-1.6-1.3
		c-1.1,0-1.8,1-1.8,2.4c0,1.2,0.6,2.3,1.8,2.3c0.7,0,1.4-0.5,1.6-1.3c0-0.2,0.1-0.3,0.1-0.5V177.6z"/>
	<path class="st1" d="M148.7,178.4c0,1.5,1,2.1,2.1,2.1c0.8,0,1.3-0.1,1.7-0.3l0.2,0.8c-0.4,0.2-1.1,0.4-2,0.4c-1.9,0-3-1.2-3-3.1
		s1.1-3.3,2.9-3.3c2,0,2.5,1.8,2.5,2.9c0,0.2,0,0.4,0,0.5H148.7z M151.9,177.6c0-0.7-0.3-1.8-1.5-1.8c-1.1,0-1.6,1-1.7,1.8H151.9z"
		/>
	<path class="st1" d="M154.2,180.1c0.3,0.2,0.9,0.4,1.5,0.4c0.8,0,1.2-0.4,1.2-0.9s-0.3-0.8-1.1-1.1c-1.1-0.4-1.6-1-1.6-1.7
		c0-1,0.8-1.8,2.1-1.8c0.6,0,1.2,0.2,1.5,0.4l-0.3,0.8c-0.2-0.2-0.7-0.4-1.3-0.4c-0.7,0-1,0.4-1,0.8c0,0.5,0.4,0.7,1.2,1
		c1.1,0.4,1.6,0.9,1.6,1.8c0,1.1-0.8,1.8-2.3,1.8c-0.7,0-1.3-0.2-1.7-0.4L154.2,180.1z"/>
	<path class="st1" d="M165.5,181.3l-0.1-0.8l0,0c-0.3,0.5-1,0.9-1.9,0.9c-1.2,0-1.9-0.9-1.9-1.8c0-1.5,1.3-2.3,3.7-2.3v-0.1
		c0-0.5-0.1-1.4-1.4-1.4c-0.6,0-1.2,0.2-1.6,0.5l-0.3-0.7c0.5-0.3,1.2-0.5,2-0.5c1.9,0,2.3,1.3,2.3,2.5v2.3c0,0.5,0,1,0.1,1.5h-0.9
		V181.3z M165.3,178.1c-1.2,0-2.6,0.2-2.6,1.4c0,0.7,0.5,1.1,1,1.1c0.8,0,1.3-0.5,1.5-1c0-0.1,0.1-0.2,0.1-0.4V178.1z"/>
	<path class="st1" d="M168.2,176.8c0-0.6,0-1.1-0.1-1.7h1l0.1,1l0,0c0.3-0.6,0.9-1.1,1.9-1.1c0.8,0,1.5,0.5,1.7,1.2l0,0
		c0.2-0.3,0.4-0.6,0.7-0.8c0.4-0.3,0.8-0.4,1.4-0.4c0.8,0,2,0.5,2,2.7v3.6h-1.1v-3.5c0-1.2-0.4-1.9-1.3-1.9c-0.6,0-1.1,0.5-1.3,1
		c-0.1,0.2-0.1,0.4-0.1,0.6v3.8H172v-3.7c0-1-0.4-1.7-1.3-1.7c-0.7,0-1.2,0.6-1.4,1.1c-0.1,0.2-0.1,0.4-0.1,0.5v3.7h-1.1v-4.4H168.2
		z"/>
	<path class="st1" d="M179.3,178.4c0,1.5,1,2.1,2.1,2.1c0.8,0,1.3-0.1,1.7-0.3l0.2,0.8c-0.4,0.2-1.1,0.4-2,0.4c-1.9,0-3-1.2-3-3.1
		s1.1-3.3,2.9-3.3c2,0,2.5,1.8,2.5,2.9c0,0.2,0,0.4,0,0.5H179.3z M182.6,177.6c0-0.7-0.3-1.8-1.5-1.8c-1.1,0-1.6,1-1.7,1.8H182.6z
		 M182.8,172.5l-1.5,1.8h-0.8l1.1-1.8H182.8z"/>
	<path class="st1" d="M185,176.8c0-0.6,0-1.1-0.1-1.7h1l0.1,1l0,0c0.3-0.6,1-1.1,2-1.1c0.8,0,2.2,0.5,2.2,2.6v3.7h-1.1v-3.5
		c0-1-0.4-1.8-1.4-1.8c-0.7,0-1.3,0.5-1.5,1.1c-0.1,0.1-0.1,0.3-0.1,0.5v3.7H185L185,176.8L185,176.8z"/>
	<path class="st1" d="M195.4,181.3l-0.1-0.8l0,0c-0.3,0.5-1,0.9-1.9,0.9c-1.2,0-1.9-0.9-1.9-1.8c0-1.5,1.3-2.3,3.7-2.3v-0.1
		c0-0.5-0.1-1.4-1.4-1.4c-0.6,0-1.2,0.2-1.6,0.5l-0.3-0.7c0.5-0.3,1.2-0.5,2-0.5c1.9,0,2.3,1.3,2.3,2.5v2.3c0,0.5,0,1,0.1,1.5h-0.9
		V181.3z M195.3,178.1c-1.2,0-2.6,0.2-2.6,1.4c0,0.7,0.5,1.1,1,1.1c0.8,0,1.3-0.5,1.5-1c0-0.1,0.1-0.2,0.1-0.4V178.1z"/>
	<path class="st1" d="M203.4,175.2c0,0.4,0,0.9,0,1.7v3.5c0,1.4-0.3,2.3-0.9,2.8c-0.6,0.6-1.5,0.7-2.2,0.7s-1.5-0.2-2-0.5l0.3-0.8
		c0.4,0.3,1,0.5,1.8,0.5c1.1,0,2-0.6,2-2.1v-0.7l0,0c-0.3,0.6-1,1-1.9,1c-1.5,0-2.6-1.3-2.6-3c0-2.1,1.4-3.2,2.8-3.2
		c1.1,0,1.6,0.6,1.9,1.1l0,0l0.1-0.9h0.7V175.2z M202.3,177.6c0-0.2,0-0.4-0.1-0.5c-0.2-0.6-0.7-1.2-1.6-1.2c-1.1,0-1.8,0.9-1.8,2.3
		c0,1.2,0.6,2.2,1.8,2.2c0.7,0,1.3-0.4,1.5-1.1c0.1-0.2,0.1-0.4,0.1-0.6v-1.1H202.3z"/>
	<path class="st1" d="M205.8,178.4c0,1.5,1,2.1,2.1,2.1c0.8,0,1.3-0.1,1.7-0.3l0.2,0.8c-0.4,0.2-1.1,0.4-2,0.4c-1.9,0-3-1.2-3-3.1
		s1.1-3.3,2.9-3.3c2,0,2.5,1.8,2.5,2.9c0,0.2,0,0.4,0,0.5H205.8z M209.1,177.6c0-0.7-0.3-1.8-1.5-1.8c-1.1,0-1.6,1-1.7,1.8H209.1z"
		/>
	<path class="st1" d="M211.5,176.8c0-0.6,0-1.1,0-1.7h1l0.1,1l0,0c0.3-0.6,0.9-1.1,1.9-1.1c0.8,0,1.5,0.5,1.7,1.2l0,0
		c0.2-0.3,0.4-0.6,0.7-0.8c0.4-0.3,0.8-0.4,1.4-0.4c0.8,0,2,0.5,2,2.7v3.6h-1.1v-3.5c0-1.2-0.4-1.9-1.3-1.9c-0.6,0-1.1,0.5-1.3,1
		c-0.1,0.2-0.1,0.4-0.1,0.6v3.8h-1.1v-3.7c0-1-0.4-1.7-1.3-1.7c-0.7,0-1.2,0.6-1.4,1.1c-0.1,0.2-0.1,0.4-0.1,0.5v3.7h-1.1V176.8z"/>
	<path class="st1" d="M222.7,178.4c0,1.5,1,2.1,2.1,2.1c0.8,0,1.3-0.1,1.7-0.3l0.2,0.8c-0.4,0.2-1.1,0.4-2,0.4c-1.9,0-3-1.2-3-3.1
		s1.1-3.3,2.9-3.3c2,0,2.5,1.8,2.5,2.9c0,0.2,0,0.4,0,0.5H222.7z M226,177.6c0-0.7-0.3-1.8-1.5-1.8c-1.1,0-1.6,1-1.7,1.8H226z"/>
	<path class="st1" d="M228.4,176.8c0-0.6,0-1.1,0-1.7h1l0.1,1l0,0c0.3-0.6,1-1.1,2-1.1c0.8,0,2.2,0.5,2.2,2.6v3.7h-1.2v-3.5
		c0-1-0.4-1.8-1.4-1.8c-0.7,0-1.3,0.5-1.5,1.1c-0.1,0.1-0.1,0.3-0.1,0.5v3.7h-1.1V176.8z"/>
	<path class="st1" d="M236.7,173.4v1.8h1.6v0.8h-1.6v3.3c0,0.8,0.2,1.2,0.8,1.2c0.3,0,0.5,0,0.6-0.1l0.1,0.8c-0.2,0.1-0.6,0.2-1,0.2
		c-0.5,0-0.9-0.2-1.2-0.5s-0.4-0.9-0.4-1.6V176h-0.9v-0.8h0.9v-1.5L236.7,173.4z"/>
	<path class="st1" d="M239.4,180.1c0.3,0.2,0.9,0.4,1.5,0.4c0.8,0,1.2-0.4,1.2-0.9s-0.3-0.8-1.1-1.1c-1.1-0.4-1.6-1-1.6-1.7
		c0-1,0.8-1.8,2.1-1.8c0.6,0,1.2,0.2,1.5,0.4l-0.3,0.8c-0.2-0.2-0.7-0.4-1.3-0.4c-0.7,0-1,0.4-1,0.8c0,0.5,0.4,0.7,1.2,1
		c1.1,0.4,1.6,0.9,1.6,1.8c0,1.1-0.8,1.8-2.3,1.8c-0.7,0-1.3-0.2-1.7-0.4L239.4,180.1z"/>
	<path class="st1" d="M244.1,180.6c0-0.5,0.3-0.8,0.8-0.8s0.7,0.3,0.7,0.8s-0.3,0.8-0.8,0.8C244.5,181.4,244.1,181.1,244.1,180.6z"
		/>
	<path class="st1" d="M249.7,172.9c0.5-0.1,1.2-0.2,2.1-0.2c1.1,0,1.9,0.3,2.4,0.7c0.5,0.4,0.7,1,0.7,1.8s-0.2,1.4-0.7,1.8
		c-0.6,0.6-1.5,0.9-2.6,0.9c-0.3,0-0.6,0-0.9-0.1v3.4h-1.1v-8.3H249.7z M250.8,177c0.2,0.1,0.5,0.1,0.9,0.1c1.3,0,2.1-0.6,2.1-1.8
		c0-1.1-0.8-1.7-2-1.7c-0.5,0-0.8,0-1,0.1L250.8,177L250.8,177z"/>
	<path class="st1" d="M261.7,178.2c0,2.3-1.6,3.2-3,3.2c-1.7,0-2.9-1.2-2.9-3.1c0-2,1.3-3.2,3-3.2
		C260.5,175,261.7,176.3,261.7,178.2z M256.8,178.2c0,1.3,0.8,2.3,1.9,2.3s1.9-1,1.9-2.4c0-1-0.5-2.3-1.8-2.3
		C257.4,175.8,256.8,177.1,256.8,178.2z"/>
	<path class="st1" d="M268.2,179.6c0,0.6,0,1.2,0.1,1.7h-1l-0.1-1l0,0c-0.3,0.5-0.9,1.1-2,1.1c-1,0-2.1-0.5-2.1-2.7v-3.6h1.1v3.4
		c0,1.2,0.4,1.9,1.4,1.9c0.7,0,1.3-0.5,1.5-1c0.1-0.2,0.1-0.4,0.1-0.6V175h1.1v4.6H268.2z"/>
	<path class="st1" d="M270,177.1c0-0.7,0-1.3,0-1.9h1v1.2l0,0c0.3-0.8,0.9-1.3,1.7-1.3c0.1,0,0.2,0,0.3,0v1c-0.1,0-0.2,0-0.4,0
		c-0.8,0-1.3,0.6-1.5,1.4c0,0.2-0.1,0.3-0.1,0.5v3.3h-1.1v-4.2H270z"/>
	<path class="st1" d="M275.8,173.4v1.8h1.6v0.8h-1.6v3.3c0,0.8,0.2,1.2,0.8,1.2c0.3,0,0.5,0,0.6-0.1l0.1,0.8c-0.2,0.1-0.6,0.2-1,0.2
		c-0.5,0-0.9-0.2-1.2-0.5c-0.3-0.3-0.4-0.9-0.4-1.6V176h-0.9v-0.8h0.9v-1.5L275.8,173.4z"/>
	<path class="st1" d="M282,181.3l-0.1-0.8l0,0c-0.3,0.5-1,0.9-1.9,0.9c-1.2,0-1.9-0.9-1.9-1.8c0-1.5,1.3-2.3,3.7-2.3v-0.1
		c0-0.5-0.1-1.4-1.4-1.4c-0.6,0-1.2,0.2-1.6,0.5l-0.3-0.7c0.5-0.3,1.2-0.5,2-0.5c1.9,0,2.3,1.3,2.3,2.5v2.3c0,0.5,0,1,0.1,1.5H282
		V181.3z M281.9,178.1c-1.2,0-2.6,0.2-2.6,1.4c0,0.7,0.5,1.1,1,1.1c0.8,0,1.3-0.5,1.5-1c0-0.1,0.1-0.2,0.1-0.4V178.1z"/>
	<path class="st1" d="M284.7,176.8c0-0.6,0-1.1,0-1.7h1l0.1,1l0,0c0.3-0.6,1-1.1,2-1.1c0.8,0,2.2,0.5,2.2,2.6v3.7h-1.1v-3.5
		c0-1-0.4-1.8-1.4-1.8c-0.7,0-1.3,0.5-1.5,1.1c-0.1,0.1-0.1,0.3-0.1,0.5v3.7h-1.1v-4.5H284.7z"/>
	<path class="st1" d="M293,173.4v1.8h1.6v0.8H293v3.3c0,0.8,0.2,1.2,0.8,1.2c0.3,0,0.5,0,0.6-0.1v0.8c-0.2,0.1-0.6,0.2-1,0.2
		c-0.5,0-0.9-0.2-1.2-0.5c-0.3-0.3-0.4-0.9-0.4-1.6V176h-0.9v-0.8h0.9v-1.5L293,173.4z"/>
	<path class="st1" d="M295.1,182.8c0.3-0.7,0.6-2.1,0.8-3l1.2-0.1c-0.3,1.1-0.8,2.5-1.2,3.1H295.1z"/>
	<path class="st1" d="M305.5,181c-0.3,0.2-0.9,0.4-1.8,0.4c-1.8,0-3-1.2-3-3.1s1.3-3.2,3.3-3.2c0.7,0,1.2,0.2,1.5,0.3l-0.3,0.9
		c-0.3-0.2-0.7-0.3-1.3-0.3c-1.4,0-2.2,1-2.2,2.3c0,1.4,0.9,2.3,2.1,2.3c0.6,0,1-0.2,1.4-0.3L305.5,181z"/>
	<path class="st1" d="M308.4,172.6c-0.3,1.1-0.8,2.4-1.2,3l-0.7,0.1c0.3-0.7,0.6-2.1,0.7-3L308.4,172.6z"/>
	<path class="st1" d="M309.3,178.4c0,1.5,1,2.1,2.1,2.1c0.8,0,1.3-0.1,1.7-0.3l0.2,0.8c-0.4,0.2-1.1,0.4-2,0.4c-1.9,0-3-1.2-3-3.1
		s1.1-3.3,2.9-3.3c2,0,2.5,1.8,2.5,2.9c0,0.2,0,0.4,0,0.5H309.3z M312.5,177.6c0-0.7-0.3-1.8-1.5-1.8c-1.1,0-1.6,1-1.7,1.8H312.5z"
		/>
	<path class="st1" d="M314.8,180.1c0.3,0.2,0.9,0.4,1.5,0.4c0.8,0,1.2-0.4,1.2-0.9s-0.3-0.8-1.1-1.1c-1.1-0.4-1.6-1-1.6-1.7
		c0-1,0.8-1.8,2.1-1.8c0.6,0,1.2,0.2,1.5,0.4l-0.3,0.8c-0.2-0.2-0.7-0.4-1.3-0.4c-0.7,0-1,0.4-1,0.8c0,0.5,0.4,0.7,1.2,1
		c1.1,0.4,1.6,0.9,1.6,1.8c0,1.1-0.8,1.8-2.3,1.8c-0.7,0-1.3-0.2-1.7-0.4L314.8,180.1z"/>
	<path class="st1" d="M321.3,173.4v1.8h1.6v0.8h-1.6v3.3c0,0.8,0.2,1.2,0.8,1.2c0.3,0,0.5,0,0.6-0.1l0.1,0.8c-0.2,0.1-0.6,0.2-1,0.2
		c-0.5,0-0.9-0.2-1.2-0.5c-0.3-0.3-0.4-0.9-0.4-1.6V176h-0.9v-0.8h0.9v-1.5L321.3,173.4z"/>
	<path class="st1" d="M35.6,187.5h1.1v9h-1.1V187.5z"/>
	<path class="st1" d="M39.2,193.6c0,1.5,1,2.1,2.1,2.1c0.8,0,1.3-0.1,1.7-0.3l0.2,0.8c-0.4,0.2-1.1,0.4-2,0.4c-1.9,0-3-1.2-3-3.1
		s1.1-3.3,2.9-3.3c2,0,2.5,1.8,2.5,2.9c0,0.2,0,0.4,0,0.5H39.2z M42.5,192.8c0-0.7-0.3-1.8-1.5-1.8c-1.1,0-1.6,1-1.7,1.8H42.5z"/>
	<path class="st1" d="M47.6,192.3c0-0.8,0-1.4-0.1-2h1l0.1,1l0,0c0.5-0.7,1.2-1.2,2.2-1.2c1.5,0,2.6,1.3,2.6,3.1
		c0,2.2-1.3,3.3-2.8,3.3c-0.8,0-1.5-0.4-1.9-1l0,0v3.3h-1.1V192.3z M48.7,193.9c0,0.2,0,0.3,0.1,0.5c0.2,0.8,0.9,1.3,1.7,1.3
		c1.2,0,1.9-1,1.9-2.4c0-1.2-0.6-2.3-1.8-2.3c-0.8,0-1.5,0.5-1.7,1.4c0,0.1-0.1,0.3-0.1,0.5v1H48.7z"/>
	<path class="st1" d="M54.8,187.5h1.1v9h-1.1V187.5z"/>
	<path class="st1" d="M62.9,194.8c0,0.6,0,1.2,0.1,1.7h-1l-0.1-1l0,0c-0.3,0.5-0.9,1.1-2,1.1c-1,0-2.1-0.5-2.1-2.7v-3.6h1.1v3.4
		c0,1.2,0.4,1.9,1.4,1.9c0.7,0,1.3-0.5,1.5-1c0.1-0.2,0.1-0.4,0.1-0.6v-3.8H63L62.9,194.8L62.9,194.8z"/>
	<path class="st1" d="M64.6,195.3c0.3,0.2,0.9,0.4,1.5,0.4c0.8,0,1.2-0.4,1.2-0.9s-0.3-0.8-1.1-1.1c-1.1-0.4-1.6-1-1.6-1.7
		c0-1,0.8-1.8,2.1-1.8c0.6,0,1.2,0.2,1.5,0.4l-0.3,0.8c-0.2-0.2-0.7-0.4-1.3-0.4c-0.7,0-1,0.4-1,0.8c0,0.5,0.4,0.7,1.2,1
		c1.1,0.4,1.6,0.9,1.6,1.8c0,1.1-0.8,1.8-2.3,1.8c-0.7,0-1.3-0.2-1.7-0.4L64.6,195.3z"/>
	<path class="st1" d="M72.4,192c0-0.6,0-1.1-0.1-1.7h1l0.1,1l0,0c0.3-0.6,0.9-1.1,1.9-1.1c0.8,0,1.5,0.5,1.7,1.2l0,0
		c0.2-0.3,0.4-0.6,0.7-0.8c0.4-0.3,0.8-0.4,1.4-0.4c0.8,0,2,0.5,2,2.7v3.6H80V193c0-1.2-0.4-1.9-1.3-1.9c-0.6,0-1.1,0.5-1.3,1
		c-0.1,0.2-0.1,0.4-0.1,0.6v3.8h-1.1v-3.7c0-1-0.4-1.7-1.3-1.7c-0.7,0-1.2,0.6-1.4,1.1c-0.1,0.2-0.1,0.4-0.1,0.5v3.7h-1.1V192H72.4z
		"/>
	<path class="st1" d="M84.2,188.6c0,0.4-0.3,0.7-0.7,0.7c-0.4,0-0.7-0.3-0.7-0.7c0-0.4,0.3-0.7,0.7-0.7
		C83.9,187.9,84.2,188.2,84.2,188.6z M82.9,196.4v-6.1H84v6.1H82.9z"/>
	<path class="st1" d="M85.9,192c0-0.6,0-1.1-0.1-1.7h1l0.1,1l0,0c0.3-0.6,1-1.1,2-1.1c0.8,0,2.2,0.5,2.2,2.6v3.7H90V193
		c0-1-0.4-1.8-1.4-1.8c-0.7,0-1.3,0.5-1.5,1.1c-0.1,0.1-0.1,0.3-0.1,0.5v3.7h-1.1V192z"/>
	<path class="st1" d="M98.4,193.3c0,2.3-1.6,3.2-3,3.2c-1.7,0-2.9-1.2-2.9-3.1c0-2,1.3-3.2,3-3.2C97.3,190.2,98.4,191.5,98.4,193.3z
		 M93.6,193.4c0,1.3,0.8,2.3,1.9,2.3s1.9-1,1.9-2.4c0-1-0.5-2.3-1.8-2.3C94.2,191,93.6,192.2,93.6,193.4z"/>
	<path class="st1" d="M99.8,192.2c0-0.7,0-1.3-0.1-1.9h1v1.2h0.1c0.3-0.8,0.9-1.3,1.7-1.3c0.1,0,0.2,0,0.3,0v1c-0.1,0-0.2,0-0.4,0
		c-0.8,0-1.3,0.6-1.5,1.4c0,0.2-0.1,0.3-0.1,0.5v3.3h-1.1L99.8,192.2L99.8,192.2z"/>
	<path class="st1" d="M105.3,188.6c0,0.4-0.3,0.7-0.7,0.7c-0.4,0-0.7-0.3-0.7-0.7c0-0.4,0.3-0.7,0.7-0.7S105.3,188.2,105.3,188.6z
		 M104,196.4v-6.1h1.1v6.1H104z"/>
	<path class="st1" d="M108.3,188.6v1.8h1.6v0.8h-1.6v3.3c0,0.8,0.2,1.2,0.8,1.2c0.3,0,0.5,0,0.6-0.1l0.1,0.8c-0.2,0.1-0.6,0.2-1,0.2
		c-0.5,0-0.9-0.2-1.2-0.5c-0.3-0.3-0.4-0.9-0.4-1.6v-3.3h-0.9v-0.8h0.9v-1.5L108.3,188.6z"/>
	<path class="st1" d="M114.6,196.4l-0.1-0.8l0,0c-0.3,0.5-1,0.9-1.9,0.9c-1.2,0-1.9-0.9-1.9-1.8c0-1.5,1.3-2.3,3.7-2.3v0
		c0-0.5-0.1-1.4-1.4-1.4c-0.6,0-1.2,0.2-1.6,0.5l-0.3-0.7c0.5-0.3,1.2-0.5,2-0.5c1.9,0,2.3,1.3,2.3,2.5v2.3c0,0.5,0,1,0.1,1.5h-0.9
		V196.4z M114.4,193.3c-1.2,0-2.6,0.2-2.6,1.4c0,0.7,0.5,1.1,1,1.1c0.8,0,1.3-0.5,1.5-1c0-0.1,0.1-0.2,0.1-0.4V193.3z"/>
	<path class="st1" d="M118.5,188.6c0,0.4-0.3,0.7-0.7,0.7c-0.4,0-0.7-0.3-0.7-0.7c0-0.4,0.3-0.7,0.7-0.7S118.5,188.2,118.5,188.6z
		 M117.3,196.4v-6.1h1.1v6.1H117.3z"/>
	<path class="st1" d="M120.2,192.2c0-0.7,0-1.3-0.1-1.9h1v1.2h0.1c0.3-0.8,0.9-1.3,1.7-1.3c0.1,0,0.2,0,0.3,0v1c-0.1,0-0.2,0-0.4,0
		c-0.8,0-1.3,0.6-1.5,1.4c0,0.2-0.1,0.3-0.1,0.5v3.3h-1.1L120.2,192.2L120.2,192.2z"/>
	<path class="st1" d="M124.8,193.6c0,1.5,1,2.1,2.1,2.1c0.8,0,1.3-0.1,1.7-0.3l0.2,0.8c-0.4,0.2-1.1,0.4-2,0.4c-1.9,0-3-1.2-3-3.1
		s1.1-3.3,2.9-3.3c2,0,2.5,1.8,2.5,2.9c0,0.2,0,0.4,0,0.5H124.8z M128.1,192.8c0-0.7-0.3-1.8-1.5-1.8c-1.1,0-1.6,1-1.7,1.8H128.1z"
		/>
	<path class="st1" d="M138.5,187.5v7.4c0,0.5,0,1.2,0.1,1.6h-1l-0.1-1.1l0,0c-0.3,0.7-1.1,1.2-2.1,1.2c-1.5,0-2.6-1.2-2.6-3.1
		c0-2,1.3-3.3,2.7-3.3c0.9,0,1.6,0.4,1.8,0.9l0,0v-3.7h1.2V187.5z M137.4,192.8c0-0.1,0-0.3-0.1-0.5c-0.2-0.7-0.8-1.3-1.6-1.3
		c-1.1,0-1.8,1-1.8,2.4c0,1.2,0.6,2.3,1.8,2.3c0.7,0,1.4-0.5,1.6-1.3c0-0.2,0.1-0.3,0.1-0.5V192.8z"/>
	<path class="st1" d="M141,193.6c0,1.5,1,2.1,2.1,2.1c0.8,0,1.3-0.1,1.7-0.3l0.2,0.8c-0.4,0.2-1.1,0.4-2,0.4c-1.9,0-3-1.2-3-3.1
		s1.1-3.3,2.9-3.3c2,0,2.5,1.8,2.5,2.9c0,0.2,0,0.4,0,0.5H141z M144.2,192.8c0-0.7-0.3-1.8-1.5-1.8c-1.1,0-1.6,1-1.7,1.8H144.2z"/>
	<path class="st1" d="M150.7,188.6v1.8h1.6v0.8h-1.6v3.3c0,0.8,0.2,1.2,0.8,1.2c0.3,0,0.5,0,0.6-0.1l0.1,0.8c-0.2,0.1-0.6,0.2-1,0.2
		c-0.5,0-0.9-0.2-1.2-0.5s-0.4-0.9-0.4-1.6v-3.3h-0.9v-0.8h0.9v-1.5L150.7,188.6z"/>
	<path class="st1" d="M159,193.3c0,2.3-1.6,3.2-3,3.2c-1.7,0-2.9-1.2-2.9-3.1c0-2,1.3-3.2,3-3.2S159,191.5,159,193.3z M154.2,193.4
		c0,1.3,0.8,2.3,1.9,2.3c1.1,0,1.9-1,1.9-2.4c0-1-0.5-2.3-1.8-2.3C154.7,191,154.2,192.2,154.2,193.4z"/>
	<path class="st1" d="M165.5,194.8c0,0.6,0,1.2,0.1,1.7h-1l-0.1-1l0,0c-0.3,0.5-0.9,1.1-2,1.1c-1,0-2.1-0.5-2.1-2.7v-3.6h1.1v3.4
		c0,1.2,0.4,1.9,1.4,1.9c0.7,0,1.3-0.5,1.5-1c0.1-0.2,0.1-0.4,0.1-0.6v-3.8h1.1v4.6H165.5z"/>
	<path class="st1" d="M167.2,195.3c0.3,0.2,0.9,0.4,1.5,0.4c0.8,0,1.2-0.4,1.2-0.9s-0.3-0.8-1.1-1.1c-1.1-0.4-1.6-1-1.6-1.7
		c0-1,0.8-1.8,2.1-1.8c0.6,0,1.2,0.2,1.5,0.4l-0.3,0.8c-0.2-0.2-0.7-0.4-1.3-0.4c-0.7,0-1,0.4-1,0.8c0,0.5,0.4,0.7,1.2,1
		c1.1,0.4,1.6,0.9,1.6,1.8c0,1.1-0.8,1.8-2.3,1.8c-0.7,0-1.3-0.2-1.7-0.4L167.2,195.3z"/>
	<path class="st1" d="M175.1,187.5h1.1v9h-1.1V187.5z"/>
	<path class="st1" d="M178.7,193.6c0,1.5,1,2.1,2.1,2.1c0.8,0,1.3-0.1,1.7-0.3l0.2,0.8c-0.4,0.2-1.1,0.4-2,0.4c-1.9,0-3-1.2-3-3.1
		s1.1-3.3,2.9-3.3c2,0,2.5,1.8,2.5,2.9c0,0.2,0,0.4,0,0.5H178.7z M181.9,192.8c0-0.7-0.3-1.8-1.5-1.8c-1.1,0-1.6,1-1.7,1.8H181.9z"
		/>
	<path class="st1" d="M184.2,195.3c0.3,0.2,0.9,0.4,1.5,0.4c0.8,0,1.2-0.4,1.2-0.9s-0.3-0.8-1.1-1.1c-1.1-0.4-1.6-1-1.6-1.7
		c0-1,0.8-1.8,2.1-1.8c0.6,0,1.2,0.2,1.5,0.4l-0.3,0.8c-0.2-0.2-0.7-0.4-1.3-0.4c-0.7,0-1,0.4-1,0.8c0,0.5,0.4,0.7,1.2,1
		c1.1,0.4,1.6,0.9,1.6,1.8c0,1.1-0.8,1.8-2.3,1.8c-0.7,0-1.3-0.2-1.7-0.4L184.2,195.3z"/>
	<path class="st1" d="M192.1,187.5h1.1v3.8l0,0c0.2-0.3,0.5-0.6,0.8-0.8c0.3-0.2,0.7-0.3,1.1-0.3c0.8,0,2.1,0.5,2.1,2.6v3.6h-1.1
		v-3.5c0-1-0.4-1.8-1.4-1.8c-0.7,0-1.3,0.5-1.5,1.1c-0.1,0.2-0.1,0.3-0.1,0.5v3.7H192L192.1,187.5L192.1,187.5z"/>
	<path class="st1" d="M202.5,196.4l-0.1-0.8l0,0c-0.3,0.5-1,0.9-1.9,0.9c-1.2,0-1.9-0.9-1.9-1.8c0-1.5,1.3-2.3,3.7-2.3v0
		c0-0.5-0.1-1.4-1.4-1.4c-0.6,0-1.2,0.2-1.6,0.5l-0.3-0.7c0.5-0.3,1.2-0.5,2-0.5c1.9,0,2.3,1.3,2.3,2.5v2.3c0,0.5,0,1,0.1,1.5h-0.9
		V196.4z M202.3,193.3c-1.2,0-2.6,0.2-2.6,1.4c0,0.7,0.5,1.1,1,1.1c0.8,0,1.3-0.5,1.5-1c0-0.1,0.1-0.2,0.1-0.4V193.3z"/>
	<path class="st1" d="M205.2,192c0-0.6,0-1.1,0-1.7h1l0.1,1l0,0c0.3-0.6,1-1.1,2-1.1c0.8,0,2.2,0.5,2.2,2.6v3.7h-1.1V193
		c0-1-0.4-1.8-1.4-1.8c-0.7,0-1.3,0.5-1.5,1.1c-0.1,0.1-0.1,0.3-0.1,0.5v3.7h-1.1L205.2,192L205.2,192z"/>
	<path class="st1" d="M217.5,187.5v7.4c0,0.5,0,1.2,0.1,1.6h-1l-0.1-1.1l0,0c-0.3,0.7-1.1,1.2-2.1,1.2c-1.5,0-2.6-1.2-2.6-3.1
		c0-2,1.2-3.3,2.7-3.3c0.9,0,1.6,0.4,1.8,0.9l0,0v-3.7h1.2V187.5z M216.3,192.8c0-0.1,0-0.3-0.1-0.5c-0.2-0.7-0.8-1.3-1.6-1.3
		c-1.1,0-1.8,1-1.8,2.4c0,1.2,0.6,2.3,1.8,2.3c0.7,0,1.4-0.5,1.6-1.3c0-0.2,0.1-0.3,0.1-0.5V192.8z"/>
	<path class="st1" d="M220.5,188.6c0,0.4-0.3,0.7-0.7,0.7s-0.7-0.3-0.7-0.7c0-0.4,0.3-0.7,0.7-0.7
		C220.3,187.9,220.5,188.2,220.5,188.6z M219.3,196.4v-6.1h1.1v6.1H219.3z"/>
	<path class="st1" d="M226.6,196.2c-0.3,0.2-0.9,0.4-1.8,0.4c-1.8,0-3-1.2-3-3.1s1.3-3.2,3.3-3.2c0.7,0,1.2,0.2,1.5,0.3l-0.3,0.9
		c-0.3-0.2-0.7-0.3-1.3-0.3c-1.4,0-2.2,1-2.2,2.3c0,1.4,0.9,2.3,2.1,2.3c0.6,0,1-0.2,1.4-0.3L226.6,196.2z"/>
	<path class="st1" d="M231.3,196.4l-0.1-0.8l0,0c-0.3,0.5-1,0.9-1.9,0.9c-1.2,0-1.9-0.9-1.9-1.8c0-1.5,1.3-2.3,3.7-2.3v0
		c0-0.5-0.1-1.4-1.4-1.4c-0.6,0-1.2,0.2-1.6,0.5l-0.3-0.7c0.5-0.3,1.2-0.5,2-0.5c1.9,0,2.3,1.3,2.3,2.5v2.3c0,0.5,0,1,0.1,1.5h-0.9
		V196.4z M231.1,193.3c-1.2,0-2.6,0.2-2.6,1.4c0,0.7,0.5,1.1,1,1.1c0.8,0,1.3-0.5,1.5-1c0-0.1,0.1-0.2,0.1-0.4V193.3z"/>
	<path class="st1" d="M234,192.3c0-0.8,0-1.4,0-2h1v1l0,0c0.5-0.7,1.2-1.2,2.2-1.2c1.5,0,2.6,1.3,2.6,3.1c0,2.2-1.3,3.3-2.8,3.3
		c-0.8,0-1.5-0.4-1.9-1l0,0v3.3H234V192.3z M235.1,193.9c0,0.2,0,0.3,0.1,0.5c0.2,0.8,0.9,1.3,1.7,1.3c1.2,0,1.9-1,1.9-2.4
		c0-1.2-0.6-2.3-1.8-2.3c-0.8,0-1.5,0.5-1.7,1.4c0,0.1-0.1,0.3-0.1,0.5L235.1,193.9L235.1,193.9z"/>
	<path class="st1" d="M241.1,195.3c0.3,0.2,0.9,0.4,1.5,0.4c0.8,0,1.2-0.4,1.2-0.9s-0.3-0.8-1.1-1.1c-1.1-0.4-1.6-1-1.6-1.7
		c0-1,0.8-1.8,2.1-1.8c0.6,0,1.2,0.2,1.5,0.4l-0.3,0.8c-0.2-0.2-0.7-0.4-1.3-0.4c-0.7,0-1,0.4-1,0.8c0,0.5,0.4,0.7,1.2,1
		c1.1,0.4,1.6,0.9,1.6,1.8c0,1.1-0.8,1.8-2.3,1.8c-0.7,0-1.3-0.2-1.7-0.4L241.1,195.3z"/>
	<path class="st1" d="M249.5,193.6c0,1.5,1,2.1,2.1,2.1c0.8,0,1.3-0.1,1.7-0.3l0.2,0.8c-0.4,0.2-1.1,0.4-2,0.4c-1.9,0-3-1.2-3-3.1
		s1.1-3.3,2.9-3.3c2,0,2.5,1.8,2.5,2.9c0,0.2,0,0.4,0,0.5H249.5z M252.8,192.8c0-0.7-0.3-1.8-1.5-1.8c-1.1,0-1.6,1-1.7,1.8H252.8z"
		/>
	<path class="st1" d="M255.7,190.3l0.9,1.3c0.2,0.3,0.4,0.7,0.6,1l0,0c0.2-0.4,0.4-0.7,0.6-1l0.9-1.3h1.2l-2.1,3l2.1,3.2h-1.3
		l-0.9-1.4c-0.2-0.4-0.4-0.7-0.7-1.1l0,0c-0.2,0.4-0.4,0.7-0.6,1.1l-0.9,1.4h-1.2l2.2-3.1l-2.1-3h1.3V190.3z"/>
	<path class="st1" d="M262.3,188.6c0,0.4-0.3,0.7-0.7,0.7c-0.4,0-0.7-0.3-0.7-0.7c0-0.4,0.3-0.7,0.7-0.7S262.3,188.2,262.3,188.6z
		 M261,196.4v-6.1h1.1v6.1H261z"/>
	<path class="st1" d="M263.8,195.3c0.3,0.2,0.9,0.4,1.5,0.4c0.8,0,1.2-0.4,1.2-0.9s-0.3-0.8-1.1-1.1c-1.1-0.4-1.6-1-1.6-1.7
		c0-1,0.8-1.8,2.1-1.8c0.6,0,1.2,0.2,1.5,0.4l-0.3,0.8c-0.2-0.2-0.7-0.4-1.3-0.4c-0.7,0-1,0.4-1,0.8c0,0.5,0.4,0.7,1.2,1
		c1.1,0.4,1.6,0.9,1.6,1.8c0,1.1-0.8,1.8-2.3,1.8c-0.7,0-1.3-0.2-1.7-0.4L263.8,195.3z"/>
	<path class="st1" d="M270.3,188.6v1.8h1.6v0.8h-1.6v3.3c0,0.8,0.2,1.2,0.8,1.2c0.3,0,0.5,0,0.6-0.1v0.8c-0.2,0.1-0.6,0.2-1,0.2
		c-0.5,0-0.9-0.2-1.2-0.5c-0.3-0.3-0.4-0.9-0.4-1.6v-3.3h-0.9v-0.8h0.9v-1.5L270.3,188.6z"/>
	<path class="st1" d="M276.6,196.4l-0.1-0.8l0,0c-0.3,0.5-1,0.9-1.9,0.9c-1.2,0-1.9-0.9-1.9-1.8c0-1.5,1.3-2.3,3.7-2.3v0
		c0-0.5-0.1-1.4-1.4-1.4c-0.6,0-1.2,0.2-1.6,0.5l-0.3-0.7c0.5-0.3,1.2-0.5,2-0.5c1.9,0,2.3,1.3,2.3,2.5v2.3c0,0.5,0,1,0.1,1.5h-0.9
		V196.4z M276.4,193.3c-1.2,0-2.6,0.2-2.6,1.4c0,0.7,0.5,1.1,1,1.1c0.8,0,1.3-0.5,1.5-1c0-0.1,0.1-0.2,0.1-0.4V193.3z"/>
	<path class="st1" d="M279.3,192c0-0.6,0-1.1,0-1.7h1l0.1,1l0,0c0.3-0.6,1-1.1,2-1.1c0.8,0,2.2,0.5,2.2,2.6v3.7h-1.1V193
		c0-1-0.4-1.8-1.4-1.8c-0.7,0-1.3,0.5-1.5,1.1c-0.1,0.1-0.1,0.3-0.1,0.5v3.7h-1.1V192H279.3z"/>
	<path class="st1" d="M287.6,188.6v1.8h1.6v0.8h-1.6v3.3c0,0.8,0.2,1.2,0.8,1.2c0.3,0,0.5,0,0.6-0.1l0.1,0.8c-0.2,0.1-0.6,0.2-1,0.2
		c-0.5,0-0.9-0.2-1.2-0.5c-0.3-0.3-0.4-0.9-0.4-1.6v-3.3h-1v-0.8h0.9v-1.5L287.6,188.6z"/>
	<path class="st1" d="M290.3,195.3c0.3,0.2,0.9,0.4,1.5,0.4c0.8,0,1.2-0.4,1.2-0.9s-0.3-0.8-1.1-1.1c-1.1-0.4-1.6-1-1.6-1.7
		c0-1,0.8-1.8,2.1-1.8c0.6,0,1.2,0.2,1.5,0.4l-0.4,0.8c-0.2-0.2-0.7-0.4-1.3-0.4c-0.7,0-1,0.4-1,0.8c0,0.5,0.4,0.7,1.2,1
		c1.1,0.4,1.6,0.9,1.6,1.8c0,1.1-0.8,1.8-2.3,1.8c-0.7,0-1.3-0.2-1.7-0.4L290.3,195.3z"/>
	<path class="st1" d="M295,195.8c0-0.5,0.3-0.8,0.8-0.8s0.7,0.3,0.7,0.8s-0.3,0.8-0.8,0.8C295.3,196.6,295,196.2,295,195.8z"/>
</g>
<g>
	<g>
		<path class="st2" d="M112.8,52.8c0,0-0.1-0.8,0-1c0.1-0.2,0.8-0.6,0.8-0.6s0.5-0.3,0.5-0.2c0.1,0.1-0.9,1.8-0.9,1.8L112.8,52.8z"
			/>
		<path class="st3" d="M108.9,49.9l1.3,3.1l2.5-0.5l0.5,0.4c0,0-3.6,1.5-3.8,1.4c-0.2-0.1-1.7-2.8-1.9-2.9c-0.2-0.2-0.1-0.9,0.2-1.4
			C108.1,49.4,108.9,49.9,108.9,49.9z"/>
		<path class="st4" d="M108,68.8c-0.2-0.1-0.3-0.3-0.3-0.3l0.2-0.6c0,0,1.7-5.6,1.5-6.3c-0.1-0.7-0.1-5.2-0.1-5.2l0.5-0.2
			c0,0,0,0,0,0c-0.2-0.1-0.4-0.1-0.6-0.2c-0.6-0.4-2.1-0.5-2.1-0.5s-0.5,0.6-0.7,1.2c0,0,0,0,0,0c0,0,0,0,0,0c0,0,0,0,0,0.1
			c0,0,0,0.1,0,0.1c0,0,0,0,0,0c0,0,0,0.1,0,0.1c0,0,0,0,0,0c0,0,0,0.1,0,0.1c0.2,0.7,0.8,4.3,0.7,4.6l-0.6,6.7l0,0.8l0.4,0l0.1,0
			l0.1-0.1c0,0,0.2,0.1,0.3,0.1c0.1,0,1.2,0,1.2,0s0-0.1-0.1-0.1C108.8,69,108.2,68.9,108,68.8z"/>
		<path class="st2" d="M106.5,46.3c0.2,0.8,0.3,1.5-0.1,2.9c0.8,0.2,1.7,0.3,2.5,0.5c0,0-0.8-0.5-0.9-1.2c-0.1-0.7,0.2-1.3,0.2-1.3
			C107.8,46.8,106.9,46.6,106.5,46.3z"/>
		<path class="st2" d="M112.1,55.8c0,0,0.5-0.7,0.7-0.7c0.2,0,1,0.1,1,0.1s0.6,0.1,0.5,0.2c0,0.1-1.9,0.7-1.9,0.7L112.1,55.8z"/>
		<path class="st4" d="M107.1,68.8c-0.2-0.1-0.3-0.3-0.3-0.3l0.3-0.6c0,0,1.8-5.5,1.8-6.2c-0.1-0.7,0.1-5.2,0.1-5.2l0.6-0.2
			c0,0,0,0,0,0c-0.2-0.1-0.4-0.1-0.6-0.2c-0.6-0.4-2.1-0.6-2.1-0.6s-0.6,0.6-0.7,1.2c0,0,0,0,0,0c0,0,0,0,0,0c0,0,0,0,0,0.1
			c0,0,0,0.1,0,0.1c0,0,0,0,0,0c0,0,0,0.1,0,0.1c0,0,0,0,0,0c0,0,0,0.1,0,0.1c0.2,0.7,0.6,4.3,0.5,4.6l-0.8,6.7l0,0.8h0.4h0.1
			l0.1-0.1c0,0,0.2,0.1,0.3,0.1c0.1,0,1.2,0,1.2,0s0-0.1-0.1-0.1C107.9,69,107.3,68.9,107.1,68.8z"/>
		<path class="st2" d="M109.3,45.2c0.1,0.3-0.1,0.7-0.1,0.7c0.3,0.5,0.8,0.7,0.8,0.7c-0.1,0.3-0.3,0.3-0.3,0.4
			c-0.1,0.1-0.2,0.9-0.4,1.2c-0.2,0.3-1.2,0.3-1.7,0c-0.5-0.3-0.8-0.8-0.8-0.8c-1.1-2.1-0.3-4,1.7-3.3
			C108.8,44.1,109.3,45,109.3,45.2z"/>
		<path class="st3" d="M106.1,49.4c-0.1,0.9,0.4,3-0.1,6.5c-0.2,1.3,4.2,0.6,4,0.2c0.1-3.7,0.1-4.6-1.5-7
			C108.3,48.7,106.2,48.2,106.1,49.4z"/>
		<path class="st3" d="M112.5,55.4l-0.1,0.7c-0.2,0-4.3-0.7-4.9-1.4c-0.9-1.1-1.4-4.6-1.3-4.9c0.2-0.9,1.4-0.7,1.7-0.3
			c0.4,1.6,0.3,4.2,0.6,4.5C108.7,54.1,110.9,54.6,112.5,55.4z"/>
		<path class="st4" d="M105.9,45.1c0.1-0.4,0.4-0.7,0.4-0.7s0-0.3,0.2-0.5c0.2-0.2,1.5-0.3,2-0.3c0.5,0.1,0.8-0.1,0.8-0.1
			s0.1,0.4-0.3,0.9c-0.3,0.4-1.7,0.5-1.8,0.6c-0.1,0,0,1,0.1,1.2c0.1,0.2,0,0.3-0.2,0.2c-0.1-0.1-0.2-0.5-0.4-0.5
			c-0.8,0-0.2,1.1,0,1.5C106.3,47.3,105.6,46,105.9,45.1z"/>
		<path class="st2" d="M106.7,46.9c0,0,0.1,0.1,0.2,0.1c0.1,0,0.2,0,0.2,0c-0.2,0.4,0.3,1.1,0.2,1c0,0-0.6-0.3-0.6-0.4
			C106.7,47.5,106.7,46.9,106.7,46.9z"/>
	</g>
	<path class="st5" d="M126.8,89.9c-2.4,0-4.6-0.3-6.6-0.9c-2-0.6-3.6-1.5-5-2.5c-1.4-1.1-2.5-2.4-3.2-3.9c-0.8-1.5-1.1-3.2-1.1-5
		c0-2.3,0.7-4.4,2.1-6.2c1.4-1.8,3.2-3.2,5.4-4.1c-1-0.4-2-0.9-2.8-1.6c-0.8-0.7-1.5-1.4-2.1-2.3c-0.6-0.8-1-1.7-1.3-2.7
		c-0.3-1-0.5-1.9-0.5-2.9c0-1.8,0.4-3.4,1.1-4.9c0.8-1.5,1.8-2.8,3.1-3.8c1.3-1.1,2.9-1.9,4.8-2.5c1.8-0.6,3.9-0.9,6.1-0.9
		s4.2,0.3,6.1,0.9c1.8,0.6,3.4,1.4,4.8,2.5c1.3,1.1,2.4,2.4,3.1,3.8c0.8,1.5,1.1,3.1,1.1,4.9c0,0.9-0.1,1.8-0.4,2.8
		c-0.3,1-0.7,1.9-1.3,2.7c-0.6,0.8-1.3,1.6-2.1,2.3c-0.8,0.7-1.8,1.2-2.8,1.6c2.2,0.8,4,2.2,5.4,4c1.4,1.9,2.1,4,2.1,6.3
		c0,1.8-0.4,3.5-1.1,5c-0.8,1.5-1.8,2.8-3.2,3.9c-1.4,1.1-3.1,1.9-5.1,2.5C131.3,89.6,129.2,89.9,126.8,89.9z M126.8,82.4
		c1.2,0,2.2-0.2,3.1-0.5c0.9-0.3,1.6-0.8,2.3-1.3c0.6-0.5,1.1-1.2,1.4-1.9c0.3-0.7,0.5-1.4,0.5-2.2c0-0.8-0.2-1.5-0.5-2.2
		c-0.3-0.7-0.7-1.3-1.3-1.9c-0.6-0.5-1.3-1-2.2-1.3c-0.9-0.3-2-0.5-3.1-0.5c-1.2,0-2.2,0.2-3.1,0.5c-0.9,0.3-1.6,0.8-2.2,1.3
		c-0.6,0.5-1,1.2-1.3,1.9c-0.3,0.7-0.5,1.5-0.5,2.2c0,0.7,0.2,1.5,0.5,2.2c0.3,0.7,0.8,1.3,1.4,1.9c0.6,0.5,1.3,1,2.2,1.3
		C124.6,82.3,125.6,82.4,126.8,82.4z M126.8,63.9c2,0,3.5-0.6,4.6-1.7c1.1-1.1,1.6-2.4,1.6-3.9c0-1.4-0.5-2.6-1.6-3.7
		c-1.1-1.1-2.6-1.6-4.6-1.6c-2,0-3.5,0.5-4.6,1.6c-1.1,1.1-1.6,2.3-1.6,3.7c0,1.5,0.5,2.8,1.6,3.9C123.3,63.3,124.8,63.9,126.8,63.9
		z"/>
	<path class="st5" d="M147.6,67.8c0-2.7,0.3-5.4,0.8-7.9c0.5-2.5,1.5-4.9,2.9-7.1c1.4-2.1,3.2-3.8,5.5-5.1c2.3-1.3,5.1-2,8.4-2
		c3.3,0,6.1,0.7,8.4,2c2.3,1.3,4.1,3,5.5,5.1c1.4,2.2,2.4,4.6,3,7.1c0.5,2.5,0.8,5.2,0.8,7.9s-0.3,5.4-0.8,7.9
		c-0.5,2.5-1.5,4.9-3,7.1c-1.4,2.1-3.2,3.8-5.5,5.1c-2.3,1.3-5.1,2-8.4,2c-3.3,0-6.1-0.7-8.4-2s-4.1-3-5.5-5.1
		c-1.4-2.2-2.4-4.6-2.9-7.1C147.9,73.1,147.6,70.5,147.6,67.8z M156.6,67.8c0,2.2,0.2,4.2,0.5,6.1c0.3,1.8,0.9,3.4,1.8,4.7
		c0.7,1,1.5,1.9,2.5,2.5c1,0.6,2.3,0.9,3.8,0.9c1.6,0,2.8-0.3,3.8-0.9c1-0.6,1.8-1.5,2.5-2.5c0.9-1.3,1.5-2.8,1.8-4.7
		c0.3-1.8,0.5-3.9,0.5-6.1s-0.2-4.2-0.5-6.1c-0.3-1.8-1-3.4-1.8-4.7c-0.7-1-1.5-1.9-2.5-2.5c-1-0.6-2.3-0.9-3.8-0.9
		c-1.5,0-2.8,0.3-3.8,0.9c-1,0.6-1.9,1.5-2.5,2.5c-0.8,1.3-1.4,2.8-1.8,4.7C156.8,63.5,156.6,65.5,156.6,67.8z"/>
	<path class="st5" d="M205.6,88.9l29.9-42.3h7.6l-29.9,42.3H205.6z"/>
	<g>
		<path class="st2" d="M202.8,70.5c0,0-0.1-0.7-0.1-0.8c0-0.1,0.4-0.9,0.4-0.9s0.1,0.2,0.1,0.2c0,0.1-0.1,0.4-0.1,0.4l0,0.2l0.3-0.3
			c0,0,0.2-0.4,0.3-0.4c0,0,0.3-0.3,0.4-0.3c0.1,0,0.2-0.1,0.2,0c0,0-0.4,1.1-0.4,1.1c0,0.1-0.5,0.8-0.5,0.9
			c-0.1,0.1-0.4,0.3-0.4,0.3L202.8,70.5z"/>
		<path class="st6" d="M197.7,69.3l0.8-0.7c0.9,0.9,1.9,3.3,2.1,3.1l2.3-1.3l0.5,0.4c0,0-2.3,2.5-3,2.5c-0.7,0.1-2.7-2.7-2.7-2.7
			L197.7,69.3z"/>
		<path class="st4" d="M194.5,88.1l2.1-6.7c0.1-0.3-1.7-4.5-1.8-5.2c-0.2-0.8,0.8-1.7,0.8-1.7s1.6,0.2,2.2,0.7
			c0.2,0.1,0.4,0.1,0.6,0.2c0.1,0.2,0.2,0.5,0.3,0.8c0,0.1,0,0.1,0.1,0.2c0,0,0,0,0,0c0,0.1,0,0.1,0.1,0.2c0,0,0,0,0,0
			c0,0.1,0,0.1,0.1,0.2c0,0,0,0,0,0c0.2,0.6,0.5,1.2,0.8,1.8c0,0,0,0,0,0c0,0.1,0.1,0.1,0.1,0.2c0,0,0,0,0,0c0,0.1,0.1,0.2,0.1,0.2
			c0,0,0,0,0,0c0.1,0.2,0.1,0.3,0.2,0.5c0,0,0,0,0,0c0,0.1,0,0.1,0.1,0.2c0,0,0,0,0,0.1c0,0.1,0,0.1,0.1,0.2c0,0,0,0.1,0,0.1
			c0,0,0,0.1,0,0.1c0,0,0,0.1,0,0.1c0,0,0,0.1,0,0.1c0,0,0,0.1,0,0.1c0,0,0,0.1,0,0.1c0,0,0,0,0,0.1c0,0.1,0,0.1,0,0.1c0,0,0,0,0,0
			c0,0.1,0,0.1,0,0.2c0,0,0,0,0,0c0,0,0,0.1,0,0.1c0,0,0,0,0,0.1c0,0,0,0.1,0,0.1c0,0,0,0,0,0.1c0,0,0,0.1,0,0.1c0,0,0,0,0,0.1
			c0,0,0,0.1,0,0.1c0,0,0,0,0,0.1c0,0,0,0.1,0,0.1c0,0,0,0,0,0c0,0,0,0.1,0,0.1c0,0,0,0,0,0c0,0,0,0.1,0,0.1
			c-0.5,2.1-0.8,3.7-1.5,6.1l0,0c0,0,0.1,0.2,0.3,0.4c0.2,0.1,0.8,0.2,0.9,0.2c0,0,0,0,0,0c0,0,0,0,0,0c0,0,0,0,0,0c0,0,0,0,0,0
			c0,0,0,0,0,0c0,0,0,0,0,0c0,0,0,0,0,0c0,0,0,0,0,0c0,0,0,0,0,0c0,0,0,0.1,0,0.1s-1.2,0-1.3,0c-0.1,0-0.4-0.1-0.4-0.1l-0.1,0.1
			h-0.6l0-0.8c0.5-2.3,0.5-3.7,0.8-6.1c-0.1-0.1-0.2-0.3-0.3-0.4c0,0,0,0,0,0.1c0,0,0,0,0,0.1c0,0,0,0.1,0,0.1c0,0,0,0,0,0.1
			c0,0,0,0,0,0.1c0,0,0,0,0,0c0,0,0,0,0,0.1c0,0,0,0,0,0c0,0,0,0,0,0.1l-2.9,6.1c0,0,0.1,0.2,0.3,0.4c0.2,0.1,0.8,0.2,0.9,0.2
			c0,0,0,0,0,0c0,0,0,0,0,0c0,0,0,0,0,0c0,0,0,0,0,0c0,0,0,0,0,0c0,0,0,0,0,0c0,0,0,0,0,0c0,0,0,0,0,0c0,0,0,0.1,0,0.1s-1.2,0-1.3,0
			c-0.1,0-0.4-0.1-0.4-0.1l-0.1,0.1h-0.6L194.5,88.1z"/>
		<path class="st6" d="M196.2,68.8c0.1-0.3,0.5-0.7,1-0.7c0.4,0,4.3,2.9,4.3,2.9l4.4,0l0.1,0.7l-4.9,0.6c0,0-4.2-2.3-4.5-2.5
			C196.3,69.6,196.2,68.8,196.2,68.8z"/>
		<path class="st5" d="M218.2,56.2c-0.6-1.3-1.4-2.4-2.4-3.4c-1-1-2.2-1.7-3.5-2.3c-1.3-0.5-2.7-0.8-4.2-0.8c-1.5,0-2.9,0.3-4.2,0.8
			c-1.3,0.5-2.4,1.3-3.4,2.3c-1,1-1.8,2.1-2.3,3.4s-0.9,2.7-0.9,4.2c0,1.5,0.3,2.9,0.8,4.2c0.6,1.3,1.3,2.4,2.3,3.4
			c1,1,2.1,1.7,3.5,2.2c1.3,0.5,2.7,0.8,4.2,0.8c1.5,0,2.9-0.3,4.2-0.8c1.3-0.5,2.5-1.3,3.5-2.2c1-0.9,1.8-2.1,2.4-3.4
			c0.6-1.3,0.9-2.7,0.9-4.2C219.1,58.9,218.8,57.5,218.2,56.2z M211.3,63.6c-0.8,0.8-1.8,1.3-3.1,1.3c-1.2,0-2.2-0.4-3.1-1.2
			c-0.8-0.8-1.2-1.9-1.2-3.3c0-1.3,0.4-2.4,1.2-3.3c0.8-0.8,1.8-1.2,3.1-1.2c1.3,0,2.3,0.4,3.1,1.2c0.8,0.8,1.2,1.9,1.2,3.3
			C212.5,61.7,212.1,62.8,211.3,63.6z"/>
		<path class="st2" d="M196.6,66c0.3,0.8,0.5,1.5,0.3,3c0.9,0.1,1.3,0,2.1,0c0,0-0.4-0.3-0.6-1c-0.2-0.7,0-1.4,0-1.4
			C197.9,66.3,197.1,66.2,196.6,66z"/>
		<path class="st2" d="M199.2,64.3c0.1,0.3,0.3,1,0.3,1c0.4,0.5,0.5,0.5,0.6,0.5c0.1,0.2,0,0.4-0.1,0.4c-0.1,0.1-0.1,0.8-0.2,1.1
			c-0.1,0.4-1.3,0.6-1.9,0.3c-0.6-0.3-0.9-0.7-0.9-0.7c-1.5-2-0.9-4.1,1.3-3.7C198.6,63.4,199.1,64.1,199.2,64.3z"/>
		<path class="st4" d="M195.7,64.9c0.1-0.4,0.3-0.8,0.3-0.8s0-0.3,0.1-0.6c0.2-0.2,1.5-0.5,2-0.5c0.5,0,0.9-0.3,0.9-0.3
			s0.1,0.5-0.2,1c-0.3,0.5-1.6,0.8-1.8,0.9c-0.1,0.1,0.2,1.1,0.3,1.2c0.2,0.2,0,0.3-0.2,0.2c-0.2-0.1-0.3-0.5-0.5-0.5
			c-0.9,0.1-0.1,1.2,0.3,1.6C196.5,67.1,195.6,65.8,195.7,64.9z"/>
		<path class="st6" d="M196,68.6c-0.2,1.9,0,3.1-1.3,6.5c-0.5,1.3,4.1,1.6,4.1,1.1c0.9-3.8,1.2-4.7,0.1-7.5
			C198.7,68.3,196.4,67.4,196,68.6z"/>
		<path class="st2" d="M205.8,71.1l0.3-0.3l0.9-0.4c0,0,0.1,0,0.1,0.1c0,0.1-0.4,0.4-0.4,0.4c0,0,0.7,0,0.8,0c0.2,0,0.6,0,0.6,0
			c0,0,0,0.2,0,0.2s0.1,0,0.2,0c0.1,0.1,0.1,0.2,0,0.2c0,0-0.2,0.1-0.2,0.1s0,0.1,0,0.1c0,0-0.2,0.1-0.2,0.1s0,0.1,0,0.1
			c-0.1,0.1-0.7,0-0.7,0.1c-0.1,0-0.7,0.1-0.8,0.1c-0.1,0-0.4-0.2-0.4-0.2L205.8,71.1z"/>
	</g>
	<g>
		<path class="st2" d="M230,69c0,0,0.7-0.5,0.7-0.7c0-0.2-0.1-1-0.1-1s-0.1-0.6-0.2-0.5c-0.1,0-0.7,1.9-0.7,1.9L230,69z"/>
		<path class="st3" d="M234.8,69.8l-3.1,1.1l-1.3-2.2l-0.6-0.1c0,0,1.3,3.6,1.5,3.7c0.2,0.1,3.1-0.6,3.4-0.6c0.3,0,0.7-0.5,0.9-1.1
			C235.7,70.1,234.8,69.8,234.8,69.8z"/>
		<path class="st4" d="M230.7,82.1c-0.3-1,1.6-4.3,2.1-6.1c0.2-0.1,0.4-0.1,0.6-0.2c0.6-0.4,2.1-0.6,2.1-0.6s0.6,0.6,0.7,1.2
			c0,0,0,0,0,0c0,0,0,0,0,0c0,0,0,0,0,0.1c0,0,0,0.1,0,0.1c0,0,0,0,0,0c0,0,0,0.1,0,0.1c0,0,0,0,0,0c0,0,0,0.1,0,0.1
			c-0.2,0.7-2,4.3-1.9,4.6l2.2,6.7l0,0.8H236h-0.1l-0.1-0.1c0,0-0.2,0.1-0.3,0.1c-0.1,0-1.2,0-1.2,0s0-0.1,0.1-0.1
			c0.1,0,0.7-0.1,0.9-0.2c0.2-0.1,0.3-0.3,0.3-0.3l-2.9-6.1c0-0.1,0-0.2,0-0.3c-0.1,0.1-0.1,0.2-0.2,0.3c0.3,2.3,0.3,3.9,0.8,6.1
			l0,0.8h-0.5h-0.1l-0.1-0.1c0,0-0.2,0.1-0.3,0.1c-0.1,0-1.2,0-1.2,0s0-0.1,0.1-0.1c0.1,0,0.7-0.1,0.9-0.2c0.2-0.1,0.3-0.3,0.3-0.3
			l0,0C231.5,86,231.1,84.2,230.7,82.1z"/>
		<path class="st2" d="M237.2,67.1c-0.5,0.6-0.8,1.2-1,2.7c-0.8-0.2-1.6-0.3-2.5-0.5c0,0,1-0.2,1.3-0.8c0.3-0.6,0.3-1.3,0.3-1.3
			C235.9,67.1,236.7,67.2,237.2,67.1z"/>
		<path class="st2" d="M231.7,63.3c0,0,0.8-0.3,0.9-0.5c0.1-0.2,0.2-1,0.2-1s0.1-0.6,0-0.6c-0.1,0-1.2,1.6-1.2,1.6L231.7,63.3z"/>
		<path class="st2" d="M235.1,65.1c-0.2,0.2-0.2,0.7-0.2,0.7c-0.5,0.3-1,0.3-1,0.3c0,0.3,0.1,0.4,0.2,0.5c0,0.1-0.1,0.9-0.1,1.2
			c0,0.4,1,0.7,1.6,0.7c0.6-0.1,1-0.4,1-0.4c1.9-1.5,1.8-3.6-0.2-3.7C236,64.3,235.2,64.9,235.1,65.1z"/>
		<path class="st3" d="M237.1,69.7c-0.3,1.8-0.8,2.8-0.5,6.3c0.1,1.4-4.2,0.4-4,0c0.1-3.7,0.1-4.6,1.8-6.9
			C234.7,68.7,237,68.5,237.1,69.7z"/>
		<path class="st3" d="M232.3,63.1l-0.7-0.1c0,0.2-0.7,4.3-0.2,5.1c0.8,1.2,4,2.7,4.3,2.8c0.9,0.1,1.2-1.1,0.8-1.5
			c-1.4-0.9-3.9-1.6-4-2C232.4,67.1,232.5,64.8,232.3,63.1z"/>
		<path class="st4" d="M238.3,66.3c0.1-0.4-0.1-0.8-0.1-0.8s0.1-0.3,0-0.6c-0.1-0.3-1.2-0.9-1.7-1c-0.5-0.1-0.7-0.5-0.7-0.5
			s-0.2,0.4-0.1,0.9c0.1,0.5,1.3,1.1,1.4,1.2c0.1,0.1-0.4,0.9-0.6,1.1c-0.2,0.2-0.1,0.3,0.1,0.2c0.2-0.1,0.4-0.4,0.6-0.3
			c0.8,0.3-0.2,1.1-0.6,1.4C237,68.2,238.1,67.2,238.3,66.3z"/>
		<path class="st2" d="M236.9,67.6c0,0-0.1,0.1-0.2,0.1c-0.1,0-0.2-0.1-0.2-0.1c0,0.4-0.7,0.9-0.6,0.9c0,0,0.7,0,0.7-0.2
			C236.6,68.1,236.9,67.6,236.9,67.6z"/>
	</g>
	<path class="st5" d="M260.7,75.2c-0.6-1.3-1.4-2.4-2.4-3.4c-1-1-2.2-1.7-3.5-2.3c-1.3-0.5-2.7-0.8-4.2-0.8c-1.5,0-2.9,0.3-4.2,0.8
		c-1.3,0.5-2.4,1.3-3.4,2.3c-1,1-1.8,2.1-2.3,3.4c-0.6,1.3-0.9,2.7-0.9,4.2c0,1.5,0.3,2.9,0.8,4.2c0.6,1.3,1.3,2.4,2.3,3.4
		c1,1,2.1,1.7,3.5,2.2c1.3,0.5,2.7,0.8,4.2,0.8c1.5,0,2.9-0.3,4.2-0.8c1.3-0.5,2.5-1.3,3.5-2.2c1-0.9,1.8-2.1,2.4-3.4
		c0.6-1.3,0.9-2.7,0.9-4.2C261.6,77.9,261.3,76.5,260.7,75.2z M253.8,82.6c-0.8,0.8-1.8,1.3-3.1,1.3c-1.2,0-2.2-0.4-3.1-1.2
		c-0.8-0.8-1.2-1.9-1.2-3.3c0-1.3,0.4-2.4,1.2-3.3c0.8-0.8,1.8-1.2,3.1-1.2c1.3,0,2.3,0.4,3.1,1.2c0.8,0.8,1.2,1.9,1.2,3.3
		C255,80.7,254.6,81.8,253.8,82.6z"/>
	<g>
		<g>
			<defs>
				<path id="SVGID_1_" d="M147.6,67.8c0-2.7,0.3-5.4,0.8-7.9c0.5-2.5,1.5-4.9,2.9-7.1c1.4-2.1,3.2-3.8,5.5-5.1c2.3-1.3,5.1-2,8.4-2
					c3.3,0,6.1,0.7,8.4,2c2.3,1.3,4.1,3,5.5,5.1c1.4,2.2,2.4,4.6,3,7.1c0.5,2.5,0.8,5.2,0.8,7.9s-0.3,5.4-0.8,7.9
					c-0.5,2.5-1.5,4.9-3,7.1c-1.4,2.1-3.2,3.8-5.5,5.1c-2.3,1.3-5.1,2-8.4,2c-3.3,0-6.1-0.7-8.4-2s-4.1-3-5.5-5.1
					c-1.4-2.2-2.4-4.6-2.9-7.1C147.9,73.1,147.6,70.5,147.6,67.8z M156.6,67.8c0,2.2,0.2,4.2,0.5,6.1c0.3,1.8,0.9,3.4,1.8,4.7
					c0.7,1,1.5,1.9,2.5,2.5c1,0.6,2.3,0.9,3.8,0.9c1.6,0,2.8-0.3,3.8-0.9c1-0.6,1.8-1.5,2.5-2.5c0.9-1.3,1.5-2.8,1.8-4.7
					c0.3-1.8,0.5-3.9,0.5-6.1s-0.2-4.2-0.5-6.1c-0.3-1.8-1-3.4-1.8-4.7c-0.7-1-1.5-1.9-2.5-2.5c-1-0.6-2.3-0.9-3.8-0.9
					c-1.5,0-2.8,0.3-3.8,0.9c-1,0.6-1.9,1.5-2.5,2.5c-0.8,1.3-1.4,2.8-1.8,4.7C156.8,63.5,156.6,65.5,156.6,67.8z"/>
			</defs>
			<clipPath id="SVGID_2_">
				<use xlink:href="#SVGID_1_"  style="overflow:visible;"/>
			</clipPath>
			<polygon class="st7" points="146.3,80.8 166.9,80.8 166.9,66 184.1,66 184.1,92.1 146.3,92.1 			"/>
			<g class="st8">
				<path class="st9" d="M176.1,69.5h5.8c0.3,0,0.5-0.2,0.5-0.5v-1.9c0-0.3-0.2-0.5-0.5-0.5h-5.8c-0.3,0-0.5,0.2-0.5,0.5V69
					C175.6,69.3,175.9,69.5,176.1,69.5z"/>
				<path class="st9" d="M168.5,69.6h5.8c0.3,0,0.5-0.2,0.5-0.5v-1.9c0-0.3-0.2-0.5-0.5-0.5h-5.8c-0.3,0-0.5,0.2-0.5,0.5v1.9
					C168.1,69.4,168.3,69.6,168.5,69.6z"/>
				<path class="st9" d="M178,70.3h-5.8c-0.3,0-0.5,0.2-0.5,0.5v1.9c0,0.3,0.2,0.5,0.5,0.5h5.8c0.3,0,0.5-0.2,0.5-0.5v-1.9
					C178.5,70.5,178.3,70.3,178,70.3z"/>
				<path class="st9" d="M185.5,70.3h-5.8c-0.3,0-0.5,0.2-0.5,0.5v1.9c0,0.3,0.2,0.5,0.5,0.5h5.8c0.3,0,0.5-0.2,0.5-0.5v-1.9
					C186,70.5,185.8,70.3,185.5,70.3z"/>
				<path class="st9" d="M182.3,76.3v-1.9c0-0.3-0.2-0.5-0.5-0.5h-5.8c-0.3,0-0.5,0.2-0.5,0.5v1.9c0,0.3,0.2,0.5,0.5,0.5h5.8
					C182.1,76.8,182.3,76.6,182.3,76.3z"/>
				<path class="st9" d="M168.5,76.8h5.8c0.3,0,0.5-0.2,0.5-0.5v-1.9c0-0.3-0.2-0.5-0.5-0.5h-5.8c-0.3,0-0.5,0.2-0.5,0.5v1.9
					C168.1,76.6,168.3,76.8,168.5,76.8z"/>
				<path class="st9" d="M178.5,80.1v-1.9c0-0.3-0.2-0.5-0.5-0.5h-5.8c-0.3,0-0.5,0.2-0.5,0.5v1.9c0,0.3,0.2,0.5,0.5,0.5h5.8
					C178.3,80.6,178.5,80.4,178.5,80.1z"/>
				<path class="st9" d="M185.5,77.8h-5.8c-0.3,0-0.5,0.2-0.5,0.5v1.9c0,0.3,0.2,0.5,0.5,0.5h5.8c0.3,0,0.5-0.2,0.5-0.5v-1.9
					C186,78,185.8,77.8,185.5,77.8z"/>
				<path class="st9" d="M164.9,80.6h5.8c0.3,0,0.5-0.2,0.5-0.5v-1.9c0-0.3-0.2-0.5-0.5-0.5h-5.8c-0.3,0-0.5,0.2-0.5,0.5v1.9
					C164.4,80.4,164.6,80.6,164.9,80.6z"/>
				<path class="st9" d="M174.7,83.9V82c0-0.3-0.2-0.5-0.5-0.5h-5.8c-0.3,0-0.5,0.2-0.5,0.5v1.9c0,0.3,0.2,0.5,0.5,0.5h5.8
					C174.5,84.3,174.7,84.1,174.7,83.9z"/>
				<path class="st9" d="M181.7,81.5H176c-0.3,0-0.5,0.2-0.5,0.5v1.9c0,0.3,0.2,0.5,0.5,0.5h5.8c0.3,0,0.5-0.2,0.5-0.5V82
					C182.2,81.7,182,81.5,181.7,81.5z"/>
				<path class="st9" d="M161.1,84.3h5.8c0.3,0,0.5-0.2,0.5-0.5V82c0-0.3-0.2-0.5-0.5-0.5h-5.8c-0.3,0-0.5,0.2-0.5,0.5v1.9
					C160.7,84.1,160.9,84.3,161.1,84.3z"/>
				<path class="st9" d="M153.6,84.3h5.8c0.3,0,0.5-0.2,0.5-0.5V82c0-0.3-0.2-0.5-0.5-0.5h-5.8c-0.3,0-0.5,0.2-0.5,0.5v1.9
					C153.2,84.1,153.4,84.3,153.6,84.3z"/>
				<path class="st9" d="M152.5,83.9V82c0-0.3-0.2-0.5-0.5-0.5h-5.8c-0.3,0-0.5,0.2-0.5,0.5v1.9c0,0.3,0.2,0.5,0.5,0.5h5.8
					C152.3,84.3,152.5,84.1,152.5,83.9z"/>
				<path class="st9" d="M164.8,85.1c-0.3,0-0.5,0.2-0.5,0.5v1.9c0,0.3,0.2,0.5,0.5,0.5h5.8c0.3,0,0.5-0.2,0.5-0.5v-1.9
					c0-0.3-0.2-0.5-0.5-0.5H164.8z"/>
				<path class="st9" d="M178.1,85.1h-5.8c-0.3,0-0.5,0.2-0.5,0.5v1.9c0,0.3,0.2,0.5,0.5,0.5h5.8c0.3,0,0.5-0.2,0.5-0.5v-1.9
					C178.5,85.3,178.3,85.1,178.1,85.1z"/>
				<path class="st9" d="M157.4,85.1c-0.3,0-0.5,0.2-0.5,0.5v1.9c0,0.3,0.2,0.5,0.5,0.5h5.8c0.3,0,0.5-0.2,0.5-0.5v-1.9
					c0-0.3-0.2-0.5-0.5-0.5H157.4z"/>
				<path class="st9" d="M156.2,87.5v-1.9c0-0.3-0.2-0.5-0.5-0.5h-5.8c-0.3,0-0.5,0.2-0.5,0.5v1.9c0,0.3,0.2,0.5,0.5,0.5h5.8
					C156,88,156.2,87.8,156.2,87.5z"/>
				<path class="st9" d="M167.2,88.8h-5.8c-0.3,0-0.5,0.2-0.5,0.5v1.9c0,0.3,0.2,0.5,0.5,0.5h5.8c0.3,0,0.5-0.2,0.5-0.5v-1.9
					C167.7,89,167.5,88.8,167.2,88.8z"/>
				<path class="st9" d="M174.7,88.8h-5.8c-0.3,0-0.5,0.2-0.5,0.5v1.9c0,0.3,0.2,0.5,0.5,0.5h5.8c0.3,0,0.5-0.2,0.5-0.5v-1.9
					C175.2,89,175,88.8,174.7,88.8z"/>
				<path class="st9" d="M159.9,88.8h-5.8c-0.3,0-0.5,0.2-0.5,0.5v1.9c0,0.3,0.2,0.5,0.5,0.5h5.8c0.3,0,0.5-0.2,0.5-0.5v-1.9
					C160.3,89,160.1,88.8,159.9,88.8z"/>
			</g>
		</g>
	</g>
	<g>
		<path class="st9" d="M111.2,89h3.7l-1.5-4.2c-0.1-0.3-0.6-0.3-0.7,0L111.2,89z"/>
		<path class="st9" d="M114.9,89.9h-3.7c-0.2,0-0.4-0.2-0.4-0.4l0,0c0-0.2,0.2-0.4,0.4-0.4h3.7c0.2,0,0.4,0.2,0.4,0.4l0,0
			C115.4,89.7,115.1,89.9,114.9,89.9z"/>
		<polygon class="st0" points="111.6,88 111.2,89 114.9,89 114.5,88 		"/>
		<polygon class="st0" points="112,86.9 114.1,86.9 113.8,85.8 112.4,85.8 		"/>
	</g>
	<g>
		<path class="st9" d="M118.4,89.9h5.2l-2.1-6c-0.2-0.5-0.8-0.5-1,0L118.4,89.9z"/>
		<path class="st9" d="M123.8,91.1h-5.5c-0.2,0-0.4-0.2-0.4-0.4v-0.4c0-0.2,0.2-0.4,0.4-0.4h5.5c0.2,0,0.4,0.2,0.4,0.4v0.4
			C124.2,90.9,124,91.1,123.8,91.1z"/>
		<polygon class="st0" points="118.9,88.4 118.4,89.9 123.6,89.9 123.1,88.4 		"/>
		<polygon class="st0" points="119.5,86.8 122.5,86.8 122,85.3 120,85.3 		"/>
	</g>
	<g>
		<path class="st9" d="M135.6,89.8h3.7l-1.5-4.2c-0.1-0.3-0.6-0.3-0.7,0L135.6,89.8z"/>
		<path class="st9" d="M139.3,90.7h-3.7c-0.2,0-0.4-0.2-0.4-0.4l0,0c0-0.2,0.2-0.4,0.4-0.4h3.7c0.2,0,0.4,0.2,0.4,0.4l0,0
			C139.7,90.5,139.5,90.7,139.3,90.7z"/>
		<polygon class="st0" points="136,88.7 135.6,89.8 139.3,89.8 138.9,88.7 		"/>
		<polygon class="st0" points="136.4,87.6 138.5,87.6 138.1,86.6 136.7,86.6 		"/>
	</g>
	<line class="st10" x1="112.8" y1="50.8" x2="101" y2="89.8"/>
</g>
</svg>
