<?xml version="1.0" encoding="utf-8"?>
<!-- Generator: Adobe Illustrator 20.1.0, SVG Export Plug-In . SVG Version: 6.00 Build 0)  -->
<svg version="1.1" id="Calque_1" xmlns="http://www.w3.org/2000/svg" xmlns:xlink="http://www.w3.org/1999/xlink" x="0px" y="0px"
	 viewBox="0 0 361 187.4" style="enable-background:new 0 0 361 187.4;" xml:space="preserve">
<style type="text/css">
	.st0{fill:#FFFFFF;}
	.st1{fill:#7C8E9C;}
	.st2{fill:#F59E32;}
	.st3{opacity:0.15;fill:#7D8E9B;}
	.st4{fill:#FDD234;}
</style>
<g>
	
		<image style="overflow:visible;opacity:0.15;" width="1455" height="736" xlink:href="146258228EE57FE0.png"  transform="matrix(0.24 0 0 0.24 6.7468 8.0088)">
	</image>
	<g>
		<path class="st0" d="M331.9,167.5H30.7c-4.9,0-9-4-9-9V30c0-4.9,4-9,9-9h301.2c4.9,0,9,4,9,9v128.6
			C340.8,163.5,336.8,167.5,331.9,167.5z"/>
	</g>
</g>
<g>
	<path class="st1" d="M41,127.5h1.1v7.6h3.6v0.9H41C41,136,41,127.5,41,127.5z"/>
	<path class="st1" d="M47.4,133.2c0,1.5,1,2.1,2.1,2.1c0.8,0,1.3-0.1,1.7-0.3l0.2,0.8c-0.4,0.2-1.1,0.4-2,0.4c-1.9,0-3-1.2-3-3.1
		c0-1.9,1.1-3.3,2.9-3.3c2,0,2.5,1.8,2.5,2.9c0,0.2,0,0.4,0,0.5H47.4z M50.7,132.4c0-0.7-0.3-1.8-1.5-1.8c-1.1,0-1.6,1-1.7,1.8H50.7
		z"/>
	<path class="st1" d="M57.1,128.2v1.8h1.6v0.8h-1.6v3.3c0,0.8,0.2,1.2,0.8,1.2c0.3,0,0.5,0,0.6-0.1l0.1,0.8c-0.2,0.1-0.6,0.2-1,0.2
		c-0.5,0-0.9-0.2-1.2-0.5s-0.4-0.9-0.4-1.6v-3.3h-0.9V130H56v-1.5L57.1,128.2z"/>
	<path class="st1" d="M63.4,136l-0.1-0.8l0,0c-0.3,0.5-1,0.9-1.9,0.9c-1.2,0-1.9-0.9-1.9-1.8c0-1.5,1.3-2.3,3.7-2.3v-0.1
		c0-0.5-0.1-1.4-1.4-1.4c-0.6,0-1.2,0.2-1.6,0.5l-0.3-0.7c0.5-0.3,1.2-0.5,2-0.5c1.9,0,2.3,1.3,2.3,2.5v2.3c0,0.5,0,1,0.1,1.5h-0.9
		V136z M63.2,132.9c-1.2,0-2.6,0.2-2.6,1.4c0,0.7,0.5,1.1,1,1.1c0.8,0,1.3-0.5,1.5-1c0-0.1,0.1-0.2,0.1-0.4V132.9z"/>
	<path class="st1" d="M71.2,134.4c0,0.6,0,1.2,0.1,1.7h-1l-0.1-1l0,0c-0.3,0.5-0.9,1.1-2,1.1c-1,0-2.1-0.5-2.1-2.7v-3.6h1.1v3.4
		c0,1.2,0.4,1.9,1.4,1.9c0.7,0,1.3-0.5,1.5-1c0.1-0.2,0.1-0.4,0.1-0.6v-3.8h1.1L71.2,134.4L71.2,134.4z"/>
	<path class="st1" d="M73.5,129.9l0.9,1.3c0.2,0.3,0.4,0.7,0.6,1l0,0c0.2-0.4,0.4-0.7,0.6-1l0.9-1.3h1.2l-2.1,3l2.1,3.2h-1.3
		l-0.9-1.4c-0.2-0.4-0.4-0.7-0.7-1.1l0,0c-0.2,0.4-0.4,0.7-0.6,1.1l-0.9,1.4h-1.2l2.2-3.1l-2.1-3L73.5,129.9L73.5,129.9z"/>
	<path class="st1" d="M86.8,127.1v7.4c0,0.5,0,1.2,0.1,1.6h-1l-0.1-1.1l0,0c-0.3,0.7-1.1,1.2-2.1,1.2c-1.5,0-2.6-1.2-2.6-3.1
		c0-2,1.3-3.3,2.7-3.3c0.9,0,1.6,0.4,1.8,0.9l0,0V127L86.8,127.1L86.8,127.1z M85.7,132.4c0-0.1,0-0.3-0.1-0.5
		c-0.2-0.7-0.8-1.3-1.6-1.3c-1.1,0-1.8,1-1.8,2.4c0,1.2,0.6,2.3,1.8,2.3c0.7,0,1.4-0.5,1.6-1.3c0-0.2,0.1-0.3,0.1-0.5V132.4z"/>
	<path class="st1" d="M89.3,133.2c0,1.5,1,2.1,2.1,2.1c0.8,0,1.3-0.1,1.7-0.3l0.2,0.8c-0.4,0.2-1.1,0.4-2,0.4c-1.9,0-3-1.2-3-3.1
		c0-1.9,1.1-3.3,2.9-3.3c2,0,2.5,1.8,2.5,2.9c0,0.2,0,0.4,0,0.5H89.3z M92.6,132.4c0-0.7-0.3-1.8-1.5-1.8c-1.1,0-1.6,1-1.7,1.8H92.6
		z"/>
	<path class="st1" d="M102,135.8c-0.3,0.2-0.9,0.4-1.8,0.4c-1.8,0-3-1.2-3-3.1c0-1.9,1.3-3.2,3.3-3.2c0.7,0,1.2,0.2,1.5,0.3
		l-0.3,0.9c-0.3-0.2-0.7-0.3-1.3-0.3c-1.4,0-2.2,1-2.2,2.3c0,1.4,0.9,2.3,2.1,2.3c0.6,0,1-0.2,1.4-0.3L102,135.8z"/>
	<path class="st1" d="M103.4,127.1h1.1v3.8l0,0c0.2-0.3,0.5-0.6,0.8-0.8s0.7-0.3,1.1-0.3c0.8,0,2.1,0.5,2.1,2.6v3.6h-1.1v-3.5
		c0-1-0.4-1.8-1.4-1.8c-0.7,0-1.3,0.5-1.5,1.1c-0.1,0.2-0.1,0.3-0.1,0.5v3.7h-1.1L103.4,127.1L103.4,127.1z"/>
	<path class="st1" d="M115.9,132.9c0,2.3-1.6,3.2-3,3.2c-1.7,0-2.9-1.2-2.9-3.1c0-2,1.3-3.2,3-3.2
		C114.7,129.8,115.9,131.1,115.9,132.9z M111,133c0,1.3,0.8,2.3,1.9,2.3s1.9-1,1.9-2.4c0-1-0.5-2.3-1.8-2.3
		C111.6,130.6,111,131.8,111,133z M113.3,127.3l1.2,1.8h-0.9l-0.7-1.2l0,0l-0.7,1.2h-0.8l1.2-1.8H113.3z"/>
	<path class="st1" d="M117.3,131.6c0-0.6,0-1.1-0.1-1.7h1l0.1,1l0,0c0.3-0.6,0.9-1.1,1.9-1.1c0.8,0,1.5,0.5,1.7,1.2l0,0
		c0.2-0.3,0.4-0.6,0.7-0.8c0.4-0.3,0.8-0.4,1.4-0.4c0.8,0,2,0.5,2,2.7v3.6h-1.1v-3.5c0-1.2-0.4-1.9-1.3-1.9c-0.6,0-1.1,0.5-1.3,1
		c-0.1,0.2-0.1,0.4-0.1,0.6v3.8h-1.1v-3.7c0-1-0.4-1.7-1.3-1.7c-0.7,0-1.2,0.6-1.4,1.1c-0.1,0.2-0.1,0.4-0.1,0.5v3.7h-1.1v-4.4
		H117.3z"/>
	<path class="st1" d="M131.2,136l-0.1-0.8l0,0c-0.3,0.5-1,0.9-1.9,0.9c-1.2,0-1.9-0.9-1.9-1.8c0-1.5,1.3-2.3,3.7-2.3v-0.1
		c0-0.5-0.1-1.4-1.4-1.4c-0.6,0-1.2,0.2-1.6,0.5l-0.3-0.7c0.5-0.3,1.2-0.5,2-0.5c1.9,0,2.3,1.3,2.3,2.5v2.3c0,0.5,0,1,0.1,1.5h-0.9
		V136z M131.1,132.9c-1.2,0-2.6,0.2-2.6,1.4c0,0.7,0.5,1.1,1,1.1c0.8,0,1.3-0.5,1.5-1c0-0.1,0.1-0.2,0.1-0.4L131.1,132.9
		L131.1,132.9z"/>
	<path class="st1" d="M139.2,129.9c0,0.4-0.1,0.9-0.1,1.7v3.5c0,1.4-0.3,2.3-0.9,2.8c-0.6,0.6-1.5,0.7-2.2,0.7s-1.5-0.2-2-0.5
		l0.3-0.8c0.4,0.3,1,0.5,1.8,0.5c1.1,0,2-0.6,2-2.1V135l0,0c-0.3,0.6-1,1-1.9,1c-1.5,0-2.6-1.3-2.6-3c0-2.1,1.4-3.2,2.8-3.2
		c1.1,0,1.6,0.6,1.9,1.1l0,0l0.1-0.9L139.2,129.9L139.2,129.9z M138.1,132.3c0-0.2,0-0.4-0.1-0.5c-0.2-0.6-0.7-1.2-1.6-1.2
		c-1.1,0-1.8,0.9-1.8,2.3c0,1.2,0.6,2.2,1.8,2.2c0.7,0,1.3-0.4,1.5-1.1c0.1-0.2,0.1-0.4,0.1-0.6v-1.1H138.1z"/>
	<path class="st1" d="M141.6,133.2c0,1.5,1,2.1,2.1,2.1c0.8,0,1.3-0.1,1.7-0.3l0.2,0.8c-0.4,0.2-1.1,0.4-2,0.4c-1.9,0-3-1.2-3-3.1
		c0-1.9,1.1-3.3,2.9-3.3c2,0,2.5,1.8,2.5,2.9c0,0.2,0,0.4,0,0.5H141.6z M144.9,132.4c0-0.7-0.3-1.8-1.5-1.8c-1.1,0-1.6,1-1.7,1.8
		H144.9z"/>
	<path class="st1" d="M154.4,135.8c-0.3,0.2-0.9,0.4-1.8,0.4c-1.8,0-3-1.2-3-3.1c0-1.9,1.3-3.2,3.3-3.2c0.7,0,1.2,0.2,1.5,0.3
		l-0.3,0.9c-0.3-0.2-0.7-0.3-1.3-0.3c-1.4,0-2.2,1-2.2,2.3c0,1.4,0.9,2.3,2.1,2.3c0.6,0,1-0.2,1.4-0.3L154.4,135.8z"/>
	<path class="st1" d="M155.7,127.1h1.1v3.8l0,0c0.2-0.3,0.5-0.6,0.8-0.8s0.7-0.3,1.1-0.3c0.8,0,2.1,0.5,2.1,2.6v3.6h-1.1v-3.5
		c0-1-0.4-1.8-1.4-1.8c-0.7,0-1.3,0.5-1.5,1.1c-0.1,0.2-0.1,0.3-0.1,0.5v3.7h-1.1L155.7,127.1L155.7,127.1z"/>
	<path class="st1" d="M163.3,133.2c0,1.5,1,2.1,2.1,2.1c0.8,0,1.3-0.1,1.7-0.3l0.2,0.8c-0.4,0.2-1.1,0.4-2,0.4c-1.9,0-3-1.2-3-3.1
		c0-1.9,1.1-3.3,2.9-3.3c2,0,2.5,1.8,2.5,2.9c0,0.2,0,0.4,0,0.5H163.3z M166.6,132.4c0-0.7-0.3-1.8-1.5-1.8c-1.1,0-1.6,1-1.7,1.8
		H166.6z"/>
	<path class="st1" d="M168.3,135.4l2.8-3.6c0.3-0.3,0.5-0.6,0.8-0.9l0,0h-3.3V130h4.7v0.7l-2.7,3.5c-0.3,0.3-0.5,0.6-0.8,1l0,0h3.6
		v0.9h-5v-0.7H168.3z"/>
	<path class="st1" d="M177.1,127.1h1.1v9h-1.1V127.1z"/>
	<path class="st1" d="M180.7,133.2c0,1.5,1,2.1,2.1,2.1c0.8,0,1.3-0.1,1.7-0.3l0.2,0.8c-0.4,0.2-1.1,0.4-2,0.4c-1.9,0-3-1.2-3-3.1
		c0-1.9,1.1-3.3,2.9-3.3c2,0,2.5,1.8,2.5,2.9c0,0.2,0,0.4,0,0.5H180.7z M184,132.4c0-0.7-0.3-1.8-1.5-1.8c-1.1,0-1.6,1-1.7,1.8H184z
		"/>
	<path class="st1" d="M186.3,134.9c0.3,0.2,0.9,0.4,1.5,0.4c0.8,0,1.2-0.4,1.2-0.9s-0.3-0.8-1.1-1.1c-1.1-0.4-1.6-1-1.6-1.7
		c0-1,0.8-1.8,2.1-1.8c0.6,0,1.2,0.2,1.5,0.4l-0.3,0.8c-0.2-0.2-0.7-0.4-1.3-0.4c-0.7,0-1,0.4-1,0.8c0,0.5,0.4,0.7,1.2,1
		c1.1,0.4,1.6,0.9,1.6,1.8c0,1.1-0.8,1.8-2.3,1.8c-0.7,0-1.3-0.2-1.7-0.4L186.3,134.9z"/>
	<path class="st1" d="M194.1,131.9c0-0.8,0-1.4-0.1-2h1l0.1,1l0,0c0.5-0.7,1.2-1.2,2.2-1.2c1.5,0,2.6,1.3,2.6,3.1
		c0,2.2-1.3,3.3-2.8,3.3c-0.8,0-1.5-0.4-1.9-1l0,0v3.3h-1.1V131.9z M195.2,133.6c0,0.2,0,0.3,0.1,0.5c0.2,0.8,0.9,1.3,1.7,1.3
		c1.2,0,1.9-1,1.9-2.4c0-1.2-0.6-2.3-1.8-2.3c-0.8,0-1.5,0.5-1.7,1.4c0,0.1-0.1,0.3-0.1,0.5L195.2,133.6L195.2,133.6z"/>
	<path class="st1" d="M201.9,133.2c0,1.5,1,2.1,2.1,2.1c0.8,0,1.3-0.1,1.7-0.3l0.2,0.8c-0.4,0.2-1.1,0.4-2,0.4c-1.9,0-3-1.2-3-3.1
		c0-1.9,1.1-3.3,2.9-3.3c2,0,2.5,1.8,2.5,2.9c0,0.2,0,0.4,0,0.5H201.9z M205.2,132.4c0-0.7-0.3-1.8-1.5-1.8c-1.1,0-1.6,1-1.7,1.8
		H205.2z"/>
	<path class="st1" d="M207.6,131.8c0-0.7,0-1.3,0-1.9h1v1.2l0,0c0.3-0.8,0.9-1.3,1.7-1.3c0.1,0,0.2,0,0.3,0v1c-0.1,0-0.2,0-0.4,0
		c-0.8,0-1.3,0.6-1.5,1.4c0,0.2-0.1,0.3-0.1,0.5v3.3h-1.1v-4.2H207.6z"/>
	<path class="st1" d="M211.6,134.9c0.3,0.2,0.9,0.4,1.5,0.4c0.8,0,1.2-0.4,1.2-0.9s-0.3-0.8-1.1-1.1c-1.1-0.4-1.6-1-1.6-1.7
		c0-1,0.8-1.8,2.1-1.8c0.6,0,1.2,0.2,1.5,0.4l-0.3,0.8c-0.2-0.2-0.7-0.4-1.3-0.4c-0.7,0-1,0.4-1,0.8c0,0.5,0.4,0.7,1.2,1
		c1.1,0.4,1.6,0.9,1.6,1.8c0,1.1-0.8,1.8-2.3,1.8c-0.7,0-1.3-0.2-1.7-0.4L211.6,134.9z"/>
	<path class="st1" d="M222.3,132.9c0,2.3-1.6,3.2-3,3.2c-1.7,0-2.9-1.2-2.9-3.1c0-2,1.3-3.2,3-3.2S222.3,131.1,222.3,132.9z
		 M217.4,133c0,1.3,0.8,2.3,1.9,2.3c1.1,0,1.9-1,1.9-2.4c0-1-0.5-2.3-1.8-2.3C218,130.6,217.4,131.8,217.4,133z"/>
	<path class="st1" d="M223.7,131.6c0-0.6,0-1.1,0-1.7h1l0.1,1l0,0c0.3-0.6,1-1.1,2-1.1c0.8,0,2.2,0.5,2.2,2.6v3.7h-1.1v-3.5
		c0-1-0.4-1.8-1.4-1.8c-0.7,0-1.3,0.5-1.5,1.1c-0.1,0.1-0.1,0.3-0.1,0.5v3.7h-1.1L223.7,131.6L223.7,131.6z"/>
	<path class="st1" d="M230.7,131.6c0-0.6,0-1.1,0-1.7h1l0.1,1l0,0c0.3-0.6,1-1.1,2-1.1c0.8,0,2.2,0.5,2.2,2.6v3.7h-1.1v-3.5
		c0-1-0.4-1.8-1.4-1.8c-0.7,0-1.3,0.5-1.5,1.1c-0.1,0.1-0.1,0.3-0.1,0.5v3.7h-1.1L230.7,131.6L230.7,131.6z"/>
	<path class="st1" d="M238.3,133.2c0,1.5,1,2.1,2.1,2.1c0.8,0,1.3-0.1,1.7-0.3l0.2,0.8c-0.4,0.2-1.1,0.4-2,0.4c-1.9,0-3-1.2-3-3.1
		c0-1.9,1.1-3.3,2.9-3.3c2,0,2.5,1.8,2.5,2.9c0,0.2,0,0.4,0,0.5H238.3z M241.6,132.4c0-0.7-0.3-1.8-1.5-1.8c-1.1,0-1.6,1-1.7,1.8
		H241.6z"/>
	<path class="st1" d="M243.9,134.9c0.3,0.2,0.9,0.4,1.5,0.4c0.8,0,1.2-0.4,1.2-0.9s-0.3-0.8-1.1-1.1c-1.1-0.4-1.6-1-1.6-1.7
		c0-1,0.8-1.8,2.1-1.8c0.6,0,1.2,0.2,1.5,0.4l-0.3,0.8c-0.2-0.2-0.7-0.4-1.3-0.4c-0.7,0-1,0.4-1,0.8c0,0.5,0.4,0.7,1.2,1
		c1.1,0.4,1.6,0.9,1.6,1.8c0,1.1-0.8,1.8-2.3,1.8c-0.7,0-1.3-0.2-1.7-0.4L243.9,134.9z"/>
	<path class="st1" d="M251.7,127.1h1.1v3.8l0,0c0.2-0.3,0.5-0.6,0.8-0.8s0.7-0.3,1.1-0.3c0.8,0,2.1,0.5,2.1,2.6v3.6h-1.1v-3.5
		c0-1-0.4-1.8-1.4-1.8c-0.7,0-1.3,0.5-1.5,1.1c-0.1,0.2-0.1,0.3-0.1,0.5v3.7h-1.1L251.7,127.1L251.7,127.1z"/>
	<path class="st1" d="M262.1,136l-0.1-0.8l0,0c-0.3,0.5-1,0.9-1.9,0.9c-1.2,0-1.9-0.9-1.9-1.8c0-1.5,1.3-2.3,3.7-2.3v-0.1
		c0-0.5-0.1-1.4-1.4-1.4c-0.6,0-1.2,0.2-1.6,0.5l-0.3-0.7c0.5-0.3,1.2-0.5,2-0.5c1.9,0,2.3,1.3,2.3,2.5v2.3c0,0.5,0,1,0.1,1.5h-0.9
		V136z M262,132.9c-1.2,0-2.6,0.2-2.6,1.4c0,0.7,0.5,1.1,1,1.1c0.8,0,1.3-0.5,1.5-1c0-0.1,0.1-0.2,0.1-0.4V132.9z"/>
	<path class="st1" d="M264.8,131.6c0-0.6,0-1.1,0-1.7h1l0.1,1l0,0c0.3-0.6,1-1.1,2-1.1c0.8,0,2.2,0.5,2.2,2.6v3.7h-1.2v-3.5
		c0-1-0.4-1.8-1.4-1.8c-0.7,0-1.3,0.5-1.5,1.1c-0.1,0.1-0.1,0.3-0.1,0.5v3.7h-1.1V131.6z"/>
	<path class="st1" d="M277.1,127.1v7.4c0,0.5,0,1.2,0.1,1.6h-1l-0.1-1.1l0,0c-0.3,0.7-1.1,1.2-2.1,1.2c-1.5,0-2.6-1.2-2.6-3.1
		c0-2,1.2-3.3,2.7-3.3c0.9,0,1.6,0.4,1.8,0.9l0,0V127L277.1,127.1L277.1,127.1z M276,132.4c0-0.1,0-0.3-0.1-0.5
		c-0.2-0.7-0.8-1.3-1.6-1.3c-1.1,0-1.8,1-1.8,2.4c0,1.2,0.6,2.3,1.8,2.3c0.7,0,1.4-0.5,1.6-1.3c0-0.2,0.1-0.3,0.1-0.5V132.4z"/>
	<path class="st1" d="M280.2,128.2c0,0.4-0.3,0.7-0.7,0.7c-0.4,0-0.7-0.3-0.7-0.7c0-0.4,0.3-0.7,0.7-0.7
		C280,127.5,280.2,127.8,280.2,128.2z M279,136v-6.1h1.1v6.1H279z"/>
	<path class="st1" d="M286.3,135.8c-0.3,0.2-0.9,0.4-1.8,0.4c-1.8,0-3-1.2-3-3.1c0-1.9,1.3-3.2,3.3-3.2c0.7,0,1.2,0.2,1.5,0.3
		l-0.3,0.9c-0.3-0.2-0.7-0.3-1.3-0.3c-1.4,0-2.2,1-2.2,2.3c0,1.4,0.9,2.3,2.1,2.3c0.6,0,1-0.2,1.4-0.3L286.3,135.8z"/>
	<path class="st1" d="M291,136l-0.1-0.8l0,0c-0.3,0.5-1,0.9-1.9,0.9c-1.2,0-1.9-0.9-1.9-1.8c0-1.5,1.3-2.3,3.7-2.3v-0.1
		c0-0.5-0.1-1.4-1.4-1.4c-0.6,0-1.2,0.2-1.6,0.5l-0.3-0.7c0.5-0.3,1.2-0.5,2-0.5c1.9,0,2.3,1.3,2.3,2.5v2.3c0,0.5,0,1,0.1,1.5H291
		V136z M290.8,132.9c-1.2,0-2.6,0.2-2.6,1.4c0,0.7,0.5,1.1,1,1.1c0.8,0,1.3-0.5,1.5-1c0-0.1,0.1-0.2,0.1-0.4V132.9z"/>
	<path class="st1" d="M293.7,131.9c0-0.8,0-1.4,0-2h1v1l0,0c0.5-0.7,1.2-1.2,2.2-1.2c1.5,0,2.6,1.3,2.6,3.1c0,2.2-1.3,3.3-2.8,3.3
		c-0.8,0-1.5-0.4-1.9-1l0,0v3.3h-1.1L293.7,131.9L293.7,131.9z M294.8,133.6c0,0.2,0,0.3,0.1,0.5c0.2,0.8,0.9,1.3,1.7,1.3
		c1.2,0,1.9-1,1.9-2.4c0-1.2-0.6-2.3-1.8-2.3c-0.8,0-1.5,0.5-1.7,1.4c0,0.1-0.1,0.3-0.1,0.5v1H294.8z"/>
	<path class="st1" d="M301.5,133.2c0,1.5,1,2.1,2.1,2.1c0.8,0,1.3-0.1,1.7-0.3l0.2,0.8c-0.4,0.2-1.1,0.4-2,0.4c-1.9,0-3-1.2-3-3.1
		c0-1.9,1.1-3.3,2.9-3.3c2,0,2.5,1.8,2.5,2.9c0,0.2,0,0.4,0,0.5H301.5z M304.8,132.4c0-0.7-0.3-1.8-1.5-1.8c-1.1,0-1.6,1-1.7,1.8
		H304.8z M305,127.3l-1.5,1.8h-0.8l1.1-1.8H305z"/>
	<path class="st1" d="M307.8,133.2c0,1.5,1,2.1,2.1,2.1c0.8,0,1.3-0.1,1.7-0.3l0.2,0.8c-0.4,0.2-1.1,0.4-2,0.4c-1.9,0-3-1.2-3-3.1
		c0-1.9,1.1-3.3,2.9-3.3c2,0,2.5,1.8,2.5,2.9c0,0.2,0,0.4,0,0.5H307.8z M311.1,132.4c0-0.7-0.3-1.8-1.5-1.8c-1.1,0-1.6,1-1.7,1.8
		H311.1z"/>
	<path class="st1" d="M313.4,134.9c0.3,0.2,0.9,0.4,1.5,0.4c0.8,0,1.2-0.4,1.2-0.9s-0.3-0.8-1.1-1.1c-1.1-0.4-1.6-1-1.6-1.7
		c0-1,0.8-1.8,2.1-1.8c0.6,0,1.2,0.2,1.5,0.4l-0.3,0.8c-0.2-0.2-0.7-0.4-1.3-0.4c-0.7,0-1,0.4-1,0.8c0,0.5,0.4,0.7,1.2,1
		c1.1,0.4,1.6,0.9,1.6,1.8c0,1.1-0.8,1.8-2.3,1.8c-0.7,0-1.3-0.2-1.7-0.4L313.4,134.9z"/>
	<path class="st1" d="M40.8,150.1c0.3,0.2,0.9,0.4,1.5,0.4c0.8,0,1.2-0.4,1.2-0.9s-0.3-0.8-1.1-1.1c-1.1-0.4-1.6-1-1.6-1.7
		c0-1,0.8-1.8,2.1-1.8c0.6,0,1.2,0.2,1.5,0.4l-0.3,0.8c-0.2-0.2-0.7-0.4-1.3-0.4c-0.7,0-1,0.4-1,0.8c0,0.5,0.4,0.7,1.2,1
		c1.1,0.4,1.6,0.9,1.6,1.8c0,1.1-0.8,1.8-2.3,1.8c-0.7,0-1.3-0.2-1.7-0.4L40.8,150.1z"/>
	<path class="st1" d="M47.2,142.6c-0.3,1.1-0.8,2.4-1.2,3l-0.7,0.1c0.3-0.7,0.6-2.1,0.7-3L47.2,142.6z"/>
	<path class="st1" d="M48,148.3c0,1.5,1,2.1,2.1,2.1c0.8,0,1.3-0.1,1.7-0.3l0.2,0.8c-0.4,0.2-1.1,0.4-2,0.4c-1.9,0-3-1.2-3-3.1
		c0-1.9,1.1-3.3,2.9-3.3c2,0,2.5,1.8,2.5,2.9c0,0.2,0,0.4,0,0.5H48z M51.3,147.6c0-0.7-0.3-1.8-1.5-1.8c-1.1,0-1.6,1-1.7,1.8H51.3z
		 M51.6,142.4l-1.5,1.8h-0.8l1.1-1.8H51.6z"/>
	<path class="st1" d="M53.8,142.2h1.1v9h-1.1V142.2z"/>
	<path class="st1" d="M57.4,148.3c0,1.5,1,2.1,2.1,2.1c0.8,0,1.3-0.1,1.7-0.3l0.2,0.8c-0.4,0.2-1.1,0.4-2,0.4c-1.9,0-3-1.2-3-3.1
		c0-1.9,1.1-3.3,2.9-3.3c2,0,2.5,1.8,2.5,2.9c0,0.2,0,0.4,0,0.5H57.4z M60.6,147.6c0-0.7-0.3-1.8-1.5-1.8c-1.1,0-1.6,1-1.7,1.8H60.6
		z M58.7,142.4l1.1,1.8H59l-1.5-1.8H58.7z"/>
	<path class="st1" d="M63.5,145.1l1.2,3.4c0.2,0.6,0.4,1.1,0.5,1.6l0,0c0.1-0.5,0.3-1,0.5-1.6l1.2-3.4h1.2l-2.4,6.1h-1.1l-2.3-6.1
		H63.5z"/>
	<path class="st1" d="M69.6,148.3c0,1.5,1,2.1,2.1,2.1c0.8,0,1.3-0.1,1.7-0.3l0.2,0.8c-0.4,0.2-1.1,0.4-2,0.4c-1.9,0-3-1.2-3-3.1
		c0-1.9,1.1-3.3,2.9-3.3c2,0,2.5,1.8,2.5,2.9c0,0.2,0,0.4,0,0.5H69.6z M72.9,147.6c0-0.7-0.3-1.8-1.5-1.8c-1.1,0-1.6,1-1.7,1.8H72.9
		z"/>
	<path class="st1" d="M81.4,151.2l-0.1-0.8l0,0c-0.3,0.5-1,0.9-1.9,0.9c-1.2,0-1.9-0.9-1.9-1.8c0-1.5,1.3-2.3,3.7-2.3v-0.1
		c0-0.5-0.1-1.4-1.4-1.4c-0.6,0-1.2,0.2-1.6,0.5l-0.3-0.7c0.5-0.3,1.2-0.5,2-0.5c1.9,0,2.3,1.3,2.3,2.5v2.3c0,0.5,0,1,0.1,1.5
		L81.4,151.2L81.4,151.2z M79.5,142.4l1.1,1.8h-0.8l-1.5-1.8H79.5z M81.2,148.1c-1.2,0-2.6,0.2-2.6,1.4c0,0.7,0.5,1.1,1,1.1
		c0.8,0,1.3-0.5,1.5-1c0-0.1,0.1-0.2,0.1-0.4V148.1z"/>
	<path class="st1" d="M88.9,144L88.9,144l-1.5,0.8l-0.2-0.8l1.8-1h0.9v8.2h-1V144z"/>
	<path class="st1" d="M93.6,150.4c0.2,0,0.5,0,0.9,0c0.6-0.1,1.3-0.4,1.7-0.8c0.5-0.5,0.9-1.2,1.1-2.2l0,0c-0.5,0.6-1.1,0.9-1.9,0.9
		c-1.5,0-2.4-1.1-2.4-2.5c0-1.6,1.1-2.9,2.8-2.9s2.7,1.4,2.7,3.5c0,1.8-0.6,3.1-1.4,3.9c-0.6,0.6-1.5,1-2.4,1.1
		c-0.4,0.1-0.8,0.1-1,0.1L93.6,150.4L93.6,150.4z M94,145.7c0,1,0.6,1.7,1.6,1.7c0.7,0,1.3-0.4,1.6-0.9c0.1-0.1,0.1-0.2,0.1-0.4
		c0-1.4-0.5-2.5-1.7-2.5C94.6,143.7,94,144.5,94,145.7z"/>
	<path class="st1" d="M103.1,145.3c0,1.7-0.9,2.6-2,2.6c-1,0-1.9-0.8-1.9-2.5c0-1.6,0.9-2.6,2-2.6
		C102.4,142.9,103.1,143.7,103.1,145.3z M100.1,145.4c0,1,0.4,1.8,1.1,1.8s1.1-0.8,1.1-1.9c0-1-0.3-1.8-1.1-1.8
		C100.5,143.5,100.1,144.3,100.1,145.4z M101.1,151.3l4.8-8.5h0.7l-4.8,8.5H101.1z M108.5,148.7c0,1.7-0.9,2.6-2,2.6
		c-1,0-1.9-0.8-1.9-2.5s0.9-2.6,2-2.6C107.7,146.3,108.5,147.1,108.5,148.7z M105.4,148.8c0,1,0.4,1.8,1.1,1.8s1.1-0.8,1.1-1.9
		c0-1-0.3-1.8-1.1-1.8C105.8,146.9,105.4,147.7,105.4,148.8z"/>
	<path class="st1" d="M116.8,151c-0.3,0.2-0.9,0.4-1.8,0.4c-1.8,0-3-1.2-3-3.1c0-1.9,1.3-3.2,3.3-3.2c0.7,0,1.2,0.2,1.5,0.3
		l-0.3,0.9c-0.3-0.2-0.7-0.3-1.3-0.3c-1.4,0-2.2,1-2.2,2.3c0,1.4,0.9,2.3,2.1,2.3c0.6,0,1-0.2,1.4-0.3L116.8,151z"/>
	<path class="st1" d="M123.6,148.1c0,2.3-1.6,3.2-3,3.2c-1.7,0-2.9-1.2-2.9-3.1c0-2,1.3-3.2,3-3.2
		C122.4,145,123.6,146.2,123.6,148.1z M118.7,148.2c0,1.3,0.8,2.3,1.9,2.3s1.9-1,1.9-2.4c0-1-0.5-2.3-1.8-2.3
		C119.3,145.8,118.7,147,118.7,148.2z"/>
	<path class="st1" d="M125,146.7c0-0.6,0-1.1-0.1-1.7h1l0.1,1l0,0c0.3-0.6,1-1.1,2-1.1c0.8,0,2.2,0.5,2.2,2.6v3.7h-1.1v-3.5
		c0-1-0.4-1.8-1.4-1.8c-0.7,0-1.3,0.5-1.5,1.1c-0.1,0.1-0.1,0.3-0.1,0.5v3.7H125V146.7z"/>
	<path class="st1" d="M133.3,143.3v1.8h1.6v0.8h-1.6v3.3c0,0.8,0.2,1.2,0.8,1.2c0.3,0,0.5,0,0.6-0.1l0.1,0.8c-0.2,0.1-0.6,0.2-1,0.2
		c-0.5,0-0.9-0.2-1.2-0.5s-0.4-0.9-0.4-1.6v-3.3h-0.9v-0.8h0.9v-1.5L133.3,143.3z"/>
	<path class="st1" d="M136.1,147c0-0.7,0-1.3-0.1-1.9h1v1.2h0.1c0.3-0.8,0.9-1.3,1.7-1.3c0.1,0,0.2,0,0.3,0v1c-0.1,0-0.2,0-0.4,0
		c-0.8,0-1.3,0.6-1.5,1.4c0,0.2-0.1,0.3-0.1,0.5v3.3H136V147H136.1z"/>
	<path class="st1" d="M140.7,148.3c0,1.5,1,2.1,2.1,2.1c0.8,0,1.3-0.1,1.7-0.3l0.2,0.8c-0.4,0.2-1.1,0.4-2,0.4c-1.9,0-3-1.2-3-3.1
		c0-1.9,1.1-3.3,2.9-3.3c2,0,2.5,1.8,2.5,2.9c0,0.2,0,0.4,0,0.5H140.7z M144,147.6c0-0.7-0.3-1.8-1.5-1.8c-1.1,0-1.6,1-1.7,1.8H144z
		"/>
	<path class="st1" d="M149.4,150.4c0.2,0,0.5,0,0.9,0c0.6-0.1,1.3-0.4,1.7-0.8c0.5-0.5,0.9-1.2,1.1-2.2l0,0
		c-0.5,0.6-1.1,0.9-1.9,0.9c-1.5,0-2.4-1.1-2.4-2.5c0-1.6,1.1-2.9,2.8-2.9s2.7,1.4,2.7,3.5c0,1.8-0.6,3.1-1.4,3.9
		c-0.6,0.6-1.5,1-2.4,1.1c-0.4,0.1-0.8,0.1-1,0.1v-1.1H149.4z M149.8,145.7c0,1,0.6,1.7,1.6,1.7c0.7,0,1.3-0.4,1.6-0.9
		c0.1-0.1,0.1-0.2,0.1-0.4c0-1.4-0.5-2.5-1.7-2.5C150.5,143.7,149.8,144.5,149.8,145.7z"/>
	<path class="st1" d="M159,145.3c0,1.7-0.9,2.6-2,2.6c-1,0-1.9-0.8-1.9-2.5c0-1.6,0.9-2.6,2-2.6C158.2,142.9,159,143.7,159,145.3z
		 M156,145.4c0,1,0.4,1.8,1.1,1.8c0.7,0,1.1-0.8,1.1-1.9c0-1-0.3-1.8-1.1-1.8C156.3,143.5,156,144.3,156,145.4z M156.9,151.3
		l4.8-8.5h0.7l-4.8,8.5H156.9z M164.3,148.7c0,1.7-0.9,2.6-2,2.6c-1,0-1.9-0.8-1.9-2.5s0.9-2.6,2-2.6
		C163.6,146.3,164.3,147.1,164.3,148.7z M161.3,148.8c0,1,0.4,1.8,1.1,1.8c0.7,0,1.1-0.8,1.1-1.9c0-1-0.3-1.8-1.1-1.8
		C161.7,146.9,161.3,147.7,161.3,148.8z"/>
	<path class="st1" d="M172.7,151c-0.3,0.2-0.9,0.4-1.8,0.4c-1.8,0-3-1.2-3-3.1c0-1.9,1.3-3.2,3.3-3.2c0.7,0,1.2,0.2,1.5,0.3
		l-0.3,0.9c-0.3-0.2-0.7-0.3-1.3-0.3c-1.4,0-2.2,1-2.2,2.3c0,1.4,0.9,2.3,2.1,2.3c0.6,0,1-0.2,1.4-0.3L172.7,151z"/>
	<path class="st1" d="M174,142.2h1.1v3.8l0,0c0.2-0.3,0.5-0.6,0.8-0.8s0.7-0.3,1.1-0.3c0.8,0,2.1,0.5,2.1,2.6v3.6H178v-3.5
		c0-1-0.4-1.8-1.4-1.8c-0.7,0-1.3,0.5-1.5,1.1c-0.1,0.2-0.1,0.3-0.1,0.5v3.7h-1.1L174,142.2L174,142.2z"/>
	<path class="st1" d="M181.6,148.3c0,1.5,1,2.1,2.1,2.1c0.8,0,1.3-0.1,1.7-0.3l0.2,0.8c-0.4,0.2-1.1,0.4-2,0.4c-1.9,0-3-1.2-3-3.1
		c0-1.9,1.1-3.3,2.9-3.3c2,0,2.5,1.8,2.5,2.9c0,0.2,0,0.4,0,0.5H181.6z M184.9,147.6c0-0.7-0.3-1.8-1.5-1.8c-1.1,0-1.6,1-1.7,1.8
		H184.9z"/>
	<path class="st1" d="M186.6,150.6l2.8-3.6c0.3-0.3,0.5-0.6,0.8-0.9l0,0h-3.3v-0.9h4.7v0.7l-2.7,3.5c-0.3,0.3-0.5,0.6-0.8,1l0,0h3.6
		v0.9h-5v-0.7H186.6z"/>
	<path class="st1" d="M195.4,142.2h1.1v9h-1.1V142.2z"/>
	<path class="st1" d="M199,148.3c0,1.5,1,2.1,2.1,2.1c0.8,0,1.3-0.1,1.7-0.3l0.2,0.8c-0.4,0.2-1.1,0.4-2,0.4c-1.9,0-3-1.2-3-3.1
		c0-1.9,1.1-3.3,2.9-3.3c2,0,2.5,1.8,2.5,2.9c0,0.2,0,0.4,0,0.5H199z M202.3,147.6c0-0.7-0.3-1.8-1.5-1.8c-1.1,0-1.6,1-1.7,1.8
		H202.3z"/>
	<path class="st1" d="M207.4,147c0-0.7,0-1.3,0-1.9h1v1.2l0,0c0.3-0.8,0.9-1.3,1.7-1.3c0.1,0,0.2,0,0.3,0v1c-0.1,0-0.2,0-0.4,0
		c-0.8,0-1.3,0.6-1.5,1.4c0,0.2-0.1,0.3-0.1,0.5v3.3h-1.1V147H207.4z"/>
	<path class="st1" d="M212,148.3c0,1.5,1,2.1,2.1,2.1c0.8,0,1.3-0.1,1.7-0.3l0.2,0.8c-0.4,0.2-1.1,0.4-2,0.4c-1.9,0-3-1.2-3-3.1
		c0-1.9,1.1-3.3,2.9-3.3c2,0,2.5,1.8,2.5,2.9c0,0.2,0,0.4,0,0.5H212z M215.3,147.6c0-0.7-0.3-1.8-1.5-1.8c-1.1,0-1.6,1-1.7,1.8
		H215.3z"/>
	<path class="st1" d="M217.6,150.1c0.3,0.2,0.9,0.4,1.5,0.4c0.8,0,1.2-0.4,1.2-0.9s-0.3-0.8-1.1-1.1c-1.1-0.4-1.6-1-1.6-1.7
		c0-1,0.8-1.8,2.1-1.8c0.6,0,1.2,0.2,1.5,0.4l-0.3,0.8c-0.2-0.2-0.7-0.4-1.3-0.4c-0.7,0-1,0.4-1,0.8c0,0.5,0.4,0.7,1.2,1
		c1.1,0.4,1.6,0.9,1.6,1.8c0,1.1-0.8,1.8-2.3,1.8c-0.7,0-1.3-0.2-1.7-0.4L217.6,150.1z"/>
	<path class="st1" d="M224.1,143.3v1.8h1.6v0.8h-1.6v3.3c0,0.8,0.2,1.2,0.8,1.2c0.3,0,0.5,0,0.6-0.1v0.8c-0.2,0.1-0.6,0.2-1,0.2
		c-0.5,0-0.9-0.2-1.2-0.5s-0.4-0.9-0.4-1.6v-3.3H222v-0.8h0.9v-1.5L224.1,143.3z"/>
	<path class="st1" d="M227.5,148.3c0,1.5,1,2.1,2.1,2.1c0.8,0,1.3-0.1,1.7-0.3l0.2,0.8c-0.4,0.2-1.1,0.4-2,0.4c-1.9,0-3-1.2-3-3.1
		c0-1.9,1.1-3.3,2.9-3.3c2,0,2.5,1.8,2.5,2.9c0,0.2,0,0.4,0,0.5H227.5z M230.7,147.6c0-0.7-0.3-1.8-1.5-1.8c-1.1,0-1.6,1-1.7,1.8
		H230.7z"/>
	<path class="st1" d="M241.1,142.2v7.4c0,0.5,0,1.2,0.1,1.6h-1l-0.1-1.1l0,0c-0.3,0.7-1.1,1.2-2.1,1.2c-1.5,0-2.6-1.2-2.6-3.1
		c0-2,1.2-3.3,2.7-3.3c0.9,0,1.6,0.4,1.8,0.9l0,0v-3.7h1.2V142.2z M240,147.6c0-0.1,0-0.3-0.1-0.5c-0.2-0.7-0.8-1.3-1.6-1.3
		c-1.1,0-1.8,1-1.8,2.4c0,1.2,0.6,2.3,1.8,2.3c0.7,0,1.4-0.5,1.6-1.3c0-0.2,0.1-0.3,0.1-0.5V147.6z"/>
	<path class="st1" d="M243.6,148.3c0,1.5,1,2.1,2.1,2.1c0.8,0,1.3-0.1,1.7-0.3l0.2,0.8c-0.4,0.2-1.1,0.4-2,0.4c-1.9,0-3-1.2-3-3.1
		c0-1.9,1.1-3.3,2.9-3.3c2,0,2.5,1.8,2.5,2.9c0,0.2,0,0.4,0,0.5H243.6z M246.9,147.6c0-0.7-0.3-1.8-1.5-1.8c-1.1,0-1.6,1-1.7,1.8
		H246.9z"/>
	<path class="st1" d="M252,142.2h1.1v9H252V142.2z"/>
	<path class="st1" d="M258.4,151.2l-0.1-0.8l0,0c-0.3,0.5-1,0.9-1.9,0.9c-1.2,0-1.9-0.9-1.9-1.8c0-1.5,1.3-2.3,3.7-2.3v-0.1
		c0-0.5-0.1-1.4-1.4-1.4c-0.6,0-1.2,0.2-1.6,0.5l-0.3-0.7c0.5-0.3,1.2-0.5,2-0.5c1.9,0,2.3,1.3,2.3,2.5v2.3c0,0.5,0,1,0.1,1.5
		L258.4,151.2L258.4,151.2z M258.2,148.1c-1.2,0-2.6,0.2-2.6,1.4c0,0.7,0.5,1.1,1,1.1c0.8,0,1.3-0.5,1.5-1c0-0.1,0.1-0.2,0.1-0.4
		V148.1z"/>
	<path class="st1" d="M263.7,147.1c0-0.8,0-1.4,0-2h1l0.1,1l0,0c0.5-0.7,1.2-1.2,2.2-1.2c1.5,0,2.6,1.3,2.6,3.1
		c0,2.2-1.3,3.3-2.8,3.3c-0.8,0-1.5-0.4-1.9-1l0,0v3.3h-1.1v-6.5H263.7z M264.8,148.7c0,0.2,0,0.3,0.1,0.5c0.2,0.8,0.9,1.3,1.7,1.3
		c1.2,0,1.9-1,1.9-2.4c0-1.2-0.6-2.3-1.8-2.3c-0.8,0-1.5,0.5-1.7,1.4c0,0.1-0.1,0.3-0.1,0.5v1H264.8z"/>
	<path class="st1" d="M276.5,148.1c0,2.3-1.6,3.2-3,3.2c-1.7,0-2.9-1.2-2.9-3.1c0-2,1.3-3.2,3-3.2
		C275.3,145,276.5,146.2,276.5,148.1z M271.6,148.2c0,1.3,0.8,2.3,1.9,2.3s1.9-1,1.9-2.4c0-1-0.5-2.3-1.8-2.3
		C272.2,145.8,271.6,147,271.6,148.2z"/>
	<path class="st1" d="M277.9,147.1c0-0.8,0-1.4,0-2h1v1l0,0c0.5-0.7,1.2-1.2,2.2-1.2c1.5,0,2.6,1.3,2.6,3.1c0,2.2-1.3,3.3-2.8,3.3
		c-0.8,0-1.5-0.4-1.9-1l0,0v3.3h-1.1V147.1z M279,148.7c0,0.2,0,0.3,0.1,0.5c0.2,0.8,0.9,1.3,1.7,1.3c1.2,0,1.9-1,1.9-2.4
		c0-1.2-0.6-2.3-1.8-2.3c-0.8,0-1.5,0.5-1.7,1.4c0,0.1-0.1,0.3-0.1,0.5v1H279z"/>
	<path class="st1" d="M290.2,149.5c0,0.6,0,1.2,0.1,1.7h-1l-0.1-1l0,0c-0.3,0.5-0.9,1.1-2,1.1c-1,0-2.1-0.5-2.1-2.7V145h1.1v3.4
		c0,1.2,0.4,1.9,1.4,1.9c0.7,0,1.3-0.5,1.5-1c0.1-0.2,0.1-0.4,0.1-0.6v-3.8h1.1v4.6H290.2z"/>
	<path class="st1" d="M292,142.2h1.1v9H292V142.2z"/>
	<path class="st1" d="M298.4,151.2l-0.1-0.8l0,0c-0.3,0.5-1,0.9-1.9,0.9c-1.2,0-1.9-0.9-1.9-1.8c0-1.5,1.3-2.3,3.7-2.3v-0.1
		c0-0.5-0.1-1.4-1.4-1.4c-0.6,0-1.2,0.2-1.6,0.5l-0.3-0.7c0.5-0.3,1.2-0.5,2-0.5c1.9,0,2.3,1.3,2.3,2.5v2.3c0,0.5,0,1,0.1,1.5
		L298.4,151.2L298.4,151.2z M298.2,148.1c-1.2,0-2.6,0.2-2.6,1.4c0,0.7,0.5,1.1,1,1.1c0.8,0,1.3-0.5,1.5-1c0-0.1,0.1-0.2,0.1-0.4
		V148.1z"/>
	<path class="st1" d="M302.4,143.3v1.8h1.6v0.8h-1.6v3.3c0,0.8,0.2,1.2,0.8,1.2c0.3,0,0.5,0,0.6-0.1l0.1,0.8c-0.2,0.1-0.6,0.2-1,0.2
		c-0.5,0-0.9-0.2-1.2-0.5c-0.3-0.3-0.4-0.9-0.4-1.6v-3.3h-0.9v-0.8h0.9v-1.5L302.4,143.3z"/>
	<path class="st1" d="M306.5,143.4c0,0.4-0.3,0.7-0.7,0.7c-0.4,0-0.7-0.3-0.7-0.7c0-0.4,0.3-0.7,0.7-0.7
		C306.2,142.7,306.5,143,306.5,143.4z M305.2,151.2v-6.1h1.1v6.1H305.2z"/>
	<path class="st1" d="M313.7,148.1c0,2.3-1.6,3.2-3,3.2c-1.7,0-2.9-1.2-2.9-3.1c0-2,1.3-3.2,3-3.2S313.7,146.2,313.7,148.1z
		 M308.9,148.2c0,1.3,0.8,2.3,1.9,2.3s1.9-1,1.9-2.4c0-1-0.5-2.3-1.8-2.3C309.4,145.8,308.9,147,308.9,148.2z"/>
	<path class="st1" d="M315.1,146.7c0-0.6,0-1.1,0-1.7h1l0.1,1l0,0c0.3-0.6,1-1.1,2-1.1c0.8,0,2.2,0.5,2.2,2.6v3.7h-1.1v-3.5
		c0-1-0.4-1.8-1.4-1.8c-0.7,0-1.3,0.5-1.5,1.1c-0.1,0.1-0.1,0.3-0.1,0.5v3.7h-1.1v-4.5H315.1z"/>
	<path class="st1" d="M321.9,150.5c0-0.5,0.3-0.8,0.8-0.8s0.7,0.3,0.7,0.8s-0.3,0.8-0.8,0.8C322.2,151.3,321.9,151,321.9,150.5z"/>
</g>
<g>
	<g>
		<path class="st2" d="M240.6,79.7c0.3,0.2,0.9,0.4,1.5,0.6c0.7,0.2,1.3,0.3,2,0.3c1.8,0,3.3-0.5,4.4-1.4c1.1-1,1.8-2.4,1.9-4.2
			c-0.4,0.6-1,1.2-1.8,1.6c-0.8,0.4-1.7,0.6-2.8,0.6c-0.9,0-1.8-0.2-2.7-0.5c-0.8-0.3-1.6-0.8-2.2-1.3s-1.1-1.3-1.5-2.1
			c-0.4-0.8-0.6-1.8-0.6-2.8c0-1,0.2-2,0.6-2.8c0.4-0.9,0.9-1.6,1.6-2.2c0.7-0.6,1.5-1.1,2.4-1.4c0.9-0.3,2-0.5,3.1-0.5
			c1.1,0,2.1,0.2,3.1,0.6c1,0.4,1.8,1,2.5,1.8c0.7,0.8,1.3,1.8,1.7,2.9c0.4,1.2,0.6,2.6,0.6,4.2c0,1.8-0.2,3.4-0.7,4.8
			c-0.5,1.4-1.1,2.6-2,3.6c-0.9,1-2,1.7-3.3,2.3c-1.3,0.5-2.8,0.8-4.5,0.8c-0.9,0-1.7-0.1-2.6-0.3c-0.8-0.2-1.5-0.5-2.1-0.8
			L240.6,79.7z M249.9,70.2c0-0.5-0.1-0.9-0.3-1.3c-0.2-0.4-0.4-0.8-0.7-1c-0.3-0.3-0.7-0.5-1.1-0.7c-0.4-0.2-0.9-0.2-1.3-0.2
			c-0.5,0-0.9,0.1-1.3,0.2c-0.4,0.2-0.8,0.4-1.1,0.7c-0.3,0.3-0.6,0.6-0.7,1c-0.2,0.4-0.3,0.8-0.3,1.3c0,1,0.3,1.8,1,2.4
			c0.7,0.6,1.5,0.9,2.4,0.9c0.5,0,0.9-0.1,1.3-0.2c0.4-0.2,0.8-0.4,1.1-0.7c0.3-0.3,0.6-0.6,0.7-1C249.8,71.1,249.9,70.7,249.9,70.2
			z"/>
		<path class="st2" d="M256.6,68.4c0-0.7,0.1-1.4,0.4-2c0.3-0.6,0.6-1.2,1.1-1.6c0.5-0.5,1-0.8,1.6-1.1c0.6-0.3,1.3-0.4,2-0.4
			c0.7,0,1.4,0.1,2,0.4c0.6,0.3,1.2,0.6,1.6,1.1c0.5,0.5,0.8,1,1.1,1.6c0.3,0.6,0.4,1.3,0.4,2c0,0.7-0.1,1.4-0.4,2
			c-0.3,0.6-0.7,1.1-1.1,1.6c-0.5,0.4-1,0.8-1.6,1c-0.6,0.3-1.3,0.4-2,0.4c-0.7,0-1.4-0.1-2-0.4c-0.6-0.3-1.2-0.6-1.6-1.1
			c-0.5-0.5-0.8-1-1.1-1.6C256.7,69.8,256.6,69.1,256.6,68.4z M259.6,83.7l14.1-20h3.6l-14.1,20H259.6z M259.7,68.4
			c0,0.7,0.2,1.2,0.6,1.6c0.4,0.4,0.9,0.6,1.4,0.6c0.6,0,1.1-0.2,1.5-0.6c0.4-0.4,0.6-0.9,0.6-1.6c0-0.6-0.2-1.2-0.6-1.5
			c-0.4-0.4-0.9-0.6-1.5-0.6c-0.6,0-1.1,0.2-1.4,0.6C259.9,67.3,259.7,67.8,259.7,68.4z M270.1,79c0-0.7,0.1-1.4,0.4-2
			c0.3-0.6,0.6-1.2,1.1-1.6c0.5-0.5,1-0.8,1.6-1.1c0.6-0.3,1.3-0.4,2-0.4c0.7,0,1.4,0.1,2,0.4c0.6,0.3,1.2,0.6,1.6,1.1
			c0.5,0.5,0.8,1,1.1,1.6c0.3,0.6,0.4,1.3,0.4,2c0,0.7-0.1,1.4-0.4,2c-0.3,0.6-0.7,1.1-1.1,1.6c-0.5,0.4-1,0.8-1.6,1
			c-0.6,0.3-1.3,0.4-2,0.4c-0.7,0-1.4-0.1-2-0.4c-0.6-0.3-1.2-0.6-1.6-1.1c-0.5-0.5-0.8-1-1.1-1.6C270.2,80.4,270.1,79.7,270.1,79z
			 M273.2,79c0,0.7,0.2,1.2,0.6,1.6c0.4,0.4,0.9,0.6,1.4,0.6c0.6,0,1.1-0.2,1.5-0.6c0.4-0.4,0.6-0.9,0.6-1.6c0-0.6-0.2-1.2-0.6-1.5
			c-0.4-0.4-0.9-0.6-1.5-0.6c-0.6,0-1.1,0.2-1.4,0.6C273.4,77.9,273.2,78.4,273.2,79z"/>
	</g>
	<path class="st3" d="M257.6,114.3c-22.4,0-40.5-18.2-40.5-40.5s18.2-40.5,40.5-40.5c22.4,0,40.5,18.2,40.5,40.5
		S280,114.3,257.6,114.3z M257.6,35.2c-21.3,0-38.5,17.3-38.5,38.5s17.3,38.5,38.5,38.5c21.3,0,38.5-17.3,38.5-38.5
		S278.9,35.2,257.6,35.2z"/>
	<path class="st2" d="M277.8,41c-0.1,0-0.2-0.1-0.3-0.1c-5-3-10.7-4.9-16.5-5.4c-0.6,0-1-0.5-0.9-1.1c0.1-0.6,0.5-1,1.1-0.9
		c6.1,0.6,12.1,2.5,17.4,5.7c0.5,0.3,0.6,0.9,0.3,1.4C278.7,40.9,278.3,41.1,277.8,41z"/>
</g>
<g>
	<g>
		<path class="st2" d="M79.1,82.8V69.4h-4.8v-2.9c1.5,0,2.7-0.4,3.6-1.1c1-0.7,1.5-1.6,1.7-2.7h3.7v20H79.1z"/>
		<path class="st2" d="M88.3,78.7c0.3,0.2,0.9,0.4,1.5,0.6c0.7,0.2,1.3,0.3,2,0.3c1.8,0,3.3-0.5,4.4-1.4c1.1-1,1.8-2.4,1.9-4.2
			c-0.4,0.6-1,1.2-1.8,1.6c-0.8,0.4-1.7,0.6-2.8,0.6c-0.9,0-1.8-0.2-2.7-0.5c-0.8-0.3-1.6-0.8-2.2-1.3s-1.1-1.3-1.5-2.1
			c-0.4-0.8-0.6-1.8-0.6-2.8c0-1,0.2-2,0.6-2.8c0.4-0.9,0.9-1.6,1.6-2.2c0.7-0.6,1.5-1.1,2.4-1.4c0.9-0.3,2-0.5,3.1-0.5
			c1.1,0,2.1,0.2,3.1,0.6c1,0.4,1.8,1,2.5,1.8c0.7,0.8,1.3,1.8,1.7,2.9c0.4,1.2,0.6,2.6,0.6,4.2c0,1.8-0.2,3.4-0.7,4.8
			c-0.5,1.4-1.1,2.6-2,3.6c-0.9,1-2,1.7-3.3,2.3c-1.3,0.5-2.8,0.8-4.5,0.8c-0.9,0-1.7-0.1-2.6-0.3c-0.8-0.2-1.5-0.5-2.1-0.8
			L88.3,78.7z M97.7,69.2c0-0.5-0.1-0.9-0.3-1.3c-0.2-0.4-0.4-0.8-0.7-1c-0.3-0.3-0.7-0.5-1.1-0.7c-0.4-0.2-0.9-0.2-1.3-0.2
			c-0.5,0-0.9,0.1-1.3,0.2c-0.4,0.2-0.8,0.4-1.1,0.7c-0.3,0.3-0.6,0.6-0.7,1c-0.2,0.4-0.3,0.8-0.3,1.3c0,1,0.3,1.8,1,2.4
			c0.7,0.6,1.5,0.9,2.4,0.9c0.5,0,0.9-0.1,1.3-0.2c0.4-0.2,0.8-0.4,1.1-0.7c0.3-0.3,0.6-0.6,0.7-1C97.6,70.1,97.7,69.7,97.7,69.2z"
			/>
		<path class="st2" d="M104.4,67.5c0-0.7,0.1-1.4,0.4-2c0.3-0.6,0.6-1.2,1.1-1.6c0.5-0.5,1-0.8,1.6-1.1c0.6-0.3,1.3-0.4,2-0.4
			c0.7,0,1.4,0.1,2,0.4c0.6,0.3,1.2,0.6,1.6,1.1c0.5,0.5,0.8,1,1.1,1.6c0.3,0.6,0.4,1.3,0.4,2c0,0.7-0.1,1.4-0.4,2
			c-0.3,0.6-0.7,1.1-1.1,1.6c-0.5,0.4-1,0.8-1.6,1c-0.6,0.3-1.3,0.4-2,0.4c-0.7,0-1.4-0.1-2-0.4c-0.6-0.3-1.2-0.6-1.6-1.1
			c-0.5-0.5-0.8-1-1.1-1.6C104.5,68.8,104.4,68.2,104.4,67.5z M107.4,82.8l14.1-20h3.6l-14.1,20H107.4z M107.4,67.5
			c0,0.7,0.2,1.2,0.6,1.6c0.4,0.4,0.9,0.6,1.4,0.6c0.6,0,1.1-0.2,1.5-0.6c0.4-0.4,0.6-0.9,0.6-1.6c0-0.6-0.2-1.2-0.6-1.5
			c-0.4-0.4-0.9-0.6-1.5-0.6c-0.6,0-1.1,0.2-1.4,0.6C107.6,66.3,107.4,66.8,107.4,67.5z M117.8,78.1c0-0.7,0.1-1.4,0.4-2
			c0.3-0.6,0.6-1.2,1.1-1.6c0.5-0.5,1-0.8,1.6-1.1c0.6-0.3,1.3-0.4,2-0.4c0.7,0,1.4,0.1,2,0.4c0.6,0.3,1.2,0.6,1.6,1.1
			c0.5,0.5,0.8,1,1.1,1.6c0.3,0.6,0.4,1.3,0.4,2c0,0.7-0.1,1.4-0.4,2c-0.3,0.6-0.7,1.1-1.1,1.6c-0.5,0.4-1,0.8-1.6,1
			c-0.6,0.3-1.3,0.4-2,0.4c-0.7,0-1.4-0.1-2-0.4c-0.6-0.3-1.2-0.6-1.6-1.1c-0.5-0.5-0.8-1-1.1-1.6C118,79.4,117.8,78.8,117.8,78.1z
			 M120.9,78.1c0,0.7,0.2,1.2,0.6,1.6c0.4,0.4,0.9,0.6,1.4,0.6c0.6,0,1.1-0.2,1.5-0.6c0.4-0.4,0.6-0.9,0.6-1.6
			c0-0.6-0.2-1.2-0.6-1.5c-0.4-0.4-0.9-0.6-1.5-0.6c-0.6,0-1.1,0.2-1.4,0.6C121.1,76.9,120.9,77.4,120.9,78.1z"/>
	</g>
	<path class="st3" d="M100.2,113.5c-22.4,0-40.5-18.2-40.5-40.5s18.2-40.5,40.5-40.5s40.5,18.2,40.5,40.5S122.6,113.5,100.2,113.5z
		 M100.2,34.4C79,34.4,61.7,51.7,61.7,73s17.3,38.5,38.5,38.5s38.5-17.3,38.5-38.5S121.5,34.4,100.2,34.4z"/>
	<path class="st2" d="M140.6,69.2c-0.2,0.3-0.4,0.5-0.8,0.5c-0.5,0.1-1-0.3-1.1-0.9c-1.3-12.5-8.5-23.7-19.5-29.8
		c-5.9-3.3-12.5-5-19.2-4.9c-0.6,0-1-0.4-1-1c0-0.6,0.4-1,1-1c7-0.1,14,1.7,20.2,5.2c11.5,6.5,19.2,18.2,20.5,31.4
		C140.8,68.9,140.7,69.1,140.6,69.2z"/>
</g>
<path class="st4" d="M178.7,63.3l-4.4,11.9c-0.1,0.2,0.1,0.4,0.3,0.4h4.3c0.2,0,0.3,0.1,0.3,0.3V84c0,0.3,0.4,0.4,0.6,0.1l4.4-11.9
	c0.1-0.2-0.1-0.4-0.3-0.4h-4.3c-0.2,0-0.3-0.1-0.3-0.3v-8.1C179.2,63.1,178.8,63,178.7,63.3z"/>
</svg>
