<?xml version="1.0" encoding="utf-8"?>
<!-- Generator: Adobe Illustrator 20.1.0, SVG Export Plug-In . SVG Version: 6.00 Build 0)  -->
<svg version="1.1" id="Calque_1" xmlns="http://www.w3.org/2000/svg" xmlns:xlink="http://www.w3.org/1999/xlink" x="0px" y="0px"
	 viewBox="0 0 361 203" style="enable-background:new 0 0 361 203;" xml:space="preserve">
<style type="text/css">
	.st0{fill:#FFFFFF;}
	.st1{fill:#7C8E9C;}
	.st2{fill:#F59E32;}
	.st3{opacity:0.3;}
	.st4{fill:#21ABE0;}
	.st5{fill:#EACBB2;}
	.st6{fill:#0B293E;}
	.st7{fill:#7D8E9B;}
	.st8{fill:#282828;}
	.st9{fill:#175077;}
	.st10{fill:#91A6B4;}
	.st11{fill:#0F2336;}
	.st12{fill:#23AADF;}
	.st13{fill:#0F9DD3;}
	.st14{fill:#D6B59F;}
</style>
<g>
	
		<image style="overflow:visible;opacity:0.15;" width="1455" height="800" xlink:href="AE1017744941336E.png"  transform="matrix(0.24 0 0 0.24 6.15 7.9215)">
	</image>
	<g>
		<path class="st0" d="M331.3,182.7H30.1c-4.9,0-9-4-9-9V29.9c0-4.9,4-9,9-9h301.2c4.9,0,9,4,9,9v143.9
			C340.2,178.7,336.2,182.7,331.3,182.7z"/>
	</g>
</g>
<g>
	<path class="st1" d="M41,109.9h1.1v7.6h3.6v0.9H41C41,118.4,41,109.9,41,109.9z"/>
	<path class="st1" d="M50.3,118.4l-0.1-0.8l0,0c-0.3,0.5-1,0.9-1.9,0.9c-1.2,0-1.9-0.9-1.9-1.8c0-1.5,1.3-2.3,3.7-2.3v-0.1
		c0-0.5-0.1-1.4-1.4-1.4c-0.6,0-1.2,0.2-1.6,0.5l-0.3-0.7c0.5-0.3,1.2-0.5,2-0.5c1.9,0,2.3,1.3,2.3,2.5v2.3c0,0.5,0,1,0.1,1.5h-0.9
		V118.4z M50.2,115.3c-1.2,0-2.6,0.2-2.6,1.4c0,0.7,0.5,1.1,1,1.1c0.8,0,1.3-0.5,1.5-1c0-0.1,0.1-0.2,0.1-0.4V115.3z"/>
	<path class="st1" d="M55.7,109.5h1.1v9h-1.1V109.5z"/>
	<path class="st1" d="M64.2,115.3c0,2.3-1.6,3.2-3,3.2c-1.7,0-2.9-1.2-2.9-3.1c0-2,1.3-3.2,3-3.2C63.1,112.2,64.2,113.4,64.2,115.3z
		 M59.4,115.4c0,1.3,0.8,2.3,1.9,2.3c1.1,0,1.9-1,1.9-2.4c0-1-0.5-2.3-1.8-2.3C60,113,59.4,114.2,59.4,115.4z"/>
	<path class="st1" d="M66.9,110.6c0,0.4-0.3,0.7-0.7,0.7c-0.4,0-0.7-0.3-0.7-0.7c0-0.4,0.3-0.7,0.7-0.7S66.9,110.2,66.9,110.6z
		 M65.6,118.4v-6.1h1.1v6.1H65.6z"/>
	<path class="st1" d="M71.3,109.5h1.1v3.8l0,0c0.2-0.3,0.5-0.6,0.8-0.8c0.3-0.2,0.7-0.3,1.1-0.3c0.8,0,2.1,0.5,2.1,2.6v3.6h-1.1
		v-3.5c0-1-0.4-1.8-1.4-1.8c-0.7,0-1.3,0.5-1.5,1.1c-0.1,0.2-0.1,0.3-0.1,0.5v3.7h-1.1L71.3,109.5L71.3,109.5z"/>
	<path class="st1" d="M81.7,118.4l-0.1-0.8l0,0c-0.3,0.5-1,0.9-1.9,0.9c-1.2,0-1.9-0.9-1.9-1.8c0-1.5,1.3-2.3,3.7-2.3v-0.1
		c0-0.5-0.1-1.4-1.4-1.4c-0.6,0-1.2,0.2-1.6,0.5l-0.3-0.7c0.5-0.3,1.2-0.5,2-0.5c1.9,0,2.3,1.3,2.3,2.5v2.3c0,0.5,0,1,0.1,1.5h-0.9
		V118.4z M81.5,115.3c-1.2,0-2.6,0.2-2.6,1.4c0,0.7,0.5,1.1,1,1.1c0.8,0,1.3-0.5,1.5-1c0-0.1,0.1-0.2,0.1-0.4V115.3z"/>
	<path class="st1" d="M84.4,114c0-0.6,0-1.1-0.1-1.7h1l0.1,1l0,0c0.3-0.6,1-1.1,2-1.1c0.8,0,2.2,0.5,2.2,2.6v3.7h-1.1V115
		c0-1-0.4-1.8-1.4-1.8c-0.7,0-1.3,0.5-1.5,1.1c-0.1,0.1-0.1,0.3-0.1,0.5v3.7h-1.1V114z"/>
	<path class="st1" d="M96.7,109.5v7.4c0,0.5,0,1.2,0.1,1.6h-1l-0.1-1.1l0,0c-0.3,0.7-1.1,1.2-2.1,1.2c-1.5,0-2.6-1.2-2.6-3.1
		c0-2,1.3-3.3,2.7-3.3c0.9,0,1.6,0.4,1.8,0.9l0,0v-3.7h1.2V109.5z M95.6,114.8c0-0.1,0-0.3-0.1-0.5c-0.2-0.7-0.8-1.3-1.6-1.3
		c-1.1,0-1.8,1-1.8,2.4c0,1.2,0.6,2.3,1.8,2.3c0.7,0,1.4-0.5,1.6-1.3c0-0.2,0.1-0.3,0.1-0.5V114.8z"/>
	<path class="st1" d="M99.8,110.6c0,0.4-0.3,0.7-0.7,0.7s-0.7-0.3-0.7-0.7c0-0.4,0.3-0.7,0.7-0.7S99.8,110.2,99.8,110.6z
		 M98.5,118.4v-6.1h1.1v6.1H98.5z"/>
	<path class="st1" d="M105.8,118.2c-0.3,0.2-0.9,0.4-1.8,0.4c-1.8,0-3-1.2-3-3.1s1.3-3.2,3.3-3.2c0.7,0,1.2,0.2,1.5,0.3l-0.3,0.9
		c-0.3-0.2-0.7-0.3-1.3-0.3c-1.4,0-2.2,1-2.2,2.3c0,1.4,0.9,2.3,2.1,2.3c0.6,0,1-0.2,1.4-0.3L105.8,118.2z"/>
	<path class="st1" d="M110.5,118.4l-0.1-0.8l0,0c-0.3,0.5-1,0.9-1.9,0.9c-1.2,0-1.9-0.9-1.9-1.8c0-1.5,1.3-2.3,3.7-2.3v-0.1
		c0-0.5-0.1-1.4-1.4-1.4c-0.6,0-1.2,0.2-1.6,0.5l-0.3-0.7c0.5-0.3,1.2-0.5,2-0.5c1.9,0,2.3,1.3,2.3,2.5v2.3c0,0.5,0,1,0.1,1.5h-0.9
		V118.4z M110.4,115.3c-1.2,0-2.6,0.2-2.6,1.4c0,0.7,0.5,1.1,1,1.1c0.8,0,1.3-0.5,1.5-1c0-0.1,0.1-0.2,0.1-0.4V115.3z"/>
	<path class="st1" d="M113.2,114.3c0-0.8,0-1.4-0.1-2h1l0.1,1l0,0c0.5-0.7,1.2-1.2,2.2-1.2c1.5,0,2.6,1.3,2.6,3.1
		c0,2.2-1.3,3.3-2.8,3.3c-0.8,0-1.5-0.4-1.9-1l0,0v3.3h-1.1C113.2,120.8,113.2,114.3,113.2,114.3z M114.3,115.9c0,0.2,0,0.3,0.1,0.5
		c0.2,0.8,0.9,1.3,1.7,1.3c1.2,0,1.9-1,1.9-2.4c0-1.2-0.6-2.3-1.8-2.3c-0.8,0-1.5,0.5-1.7,1.4c0,0.1-0.1,0.3-0.1,0.5v1H114.3z"/>
	<path class="st1" d="M128.4,109.5v7.4c0,0.5,0,1.2,0.1,1.6h-1l-0.1-1.1l0,0c-0.3,0.7-1.1,1.2-2.1,1.2c-1.5,0-2.6-1.2-2.6-3.1
		c0-2,1.3-3.3,2.7-3.3c0.9,0,1.6,0.4,1.8,0.9l0,0v-3.7h1.2V109.5z M127.3,114.8c0-0.1,0-0.3-0.1-0.5c-0.2-0.7-0.8-1.3-1.6-1.3
		c-1.1,0-1.8,1-1.8,2.4c0,1.2,0.6,2.3,1.8,2.3c0.7,0,1.4-0.5,1.6-1.3c0-0.2,0.1-0.3,0.1-0.5V114.8z"/>
	<path class="st1" d="M130.9,115.6c0,1.5,1,2.1,2.1,2.1c0.8,0,1.3-0.1,1.7-0.3l0.2,0.8c-0.4,0.2-1.1,0.4-2,0.4c-1.9,0-3-1.2-3-3.1
		s1.1-3.3,2.9-3.3c2,0,2.5,1.8,2.5,2.9c0,0.2,0,0.4,0,0.5H130.9z M134.1,114.8c0-0.7-0.3-1.8-1.5-1.8c-1.1,0-1.6,1-1.7,1.8H134.1z"
		/>
	<path class="st1" d="M139.4,118.4v-5.3h-0.9v-0.8h0.9V112c0-0.9,0.2-1.6,0.7-2.1c0.4-0.4,1-0.6,1.5-0.6c0.4,0,0.7,0.1,0.9,0.2
		l-0.2,0.9c-0.2-0.1-0.4-0.1-0.7-0.1c-0.9,0-1.2,0.8-1.2,1.8v0.3h1.5v0.8h-1.5v5.3L139.4,118.4L139.4,118.4z"/>
	<path class="st1" d="M143.4,115.6c0,1.5,1,2.1,2.1,2.1c0.8,0,1.3-0.1,1.7-0.3l0.2,0.8c-0.4,0.2-1.1,0.4-2,0.4c-1.9,0-3-1.2-3-3.1
		s1.1-3.3,2.9-3.3c2,0,2.5,1.8,2.5,2.9c0,0.2,0,0.4,0,0.5H143.4z M146.6,114.8c0-0.7-0.3-1.8-1.5-1.8c-1.1,0-1.6,1-1.7,1.8H146.6z
		 M146.9,109.7l-1.5,1.8h-0.8l1.1-1.8H146.9z"/>
	<path class="st1" d="M149.5,112.3l1.2,3.4c0.2,0.6,0.4,1.1,0.5,1.6l0,0c0.1-0.5,0.3-1,0.5-1.6l1.2-3.4h1.2l-2.4,6.1h-1.1l-2.3-6.1
		H149.5z"/>
	<path class="st1" d="M155.2,114.2c0-0.7,0-1.3-0.1-1.9h1v1.2h0.1c0.3-0.8,0.9-1.3,1.7-1.3c0.1,0,0.2,0,0.3,0v1c-0.1,0-0.2,0-0.4,0
		c-0.8,0-1.3,0.6-1.5,1.4c0,0.2-0.1,0.3-0.1,0.5v3.3h-1.1v-4.2H155.2z"/>
	<path class="st1" d="M160.6,110.6c0,0.4-0.3,0.7-0.7,0.7s-0.7-0.3-0.7-0.7c0-0.4,0.3-0.7,0.7-0.7S160.6,110.2,160.6,110.6z
		 M159.4,118.4v-6.1h1.1v6.1H159.4z"/>
	<path class="st1" d="M162.9,115.6c0,1.5,1,2.1,2.1,2.1c0.8,0,1.3-0.1,1.7-0.3l0.2,0.8c-0.4,0.2-1.1,0.4-2,0.4c-1.9,0-3-1.2-3-3.1
		s1.1-3.3,2.9-3.3c2,0,2.5,1.8,2.5,2.9c0,0.2,0,0.4,0,0.5H162.9z M166.2,114.8c0-0.7-0.3-1.8-1.5-1.8c-1.1,0-1.6,1-1.7,1.8H166.2z"
		/>
	<path class="st1" d="M168.6,114.2c0-0.7,0-1.3-0.1-1.9h1v1.2h0.1c0.3-0.8,0.9-1.3,1.7-1.3c0.1,0,0.2,0,0.3,0v1c-0.1,0-0.2,0-0.4,0
		c-0.8,0-1.3,0.6-1.5,1.4c0,0.2-0.1,0.3-0.1,0.5v3.3h-1.1v-4.2H168.6z"/>
	<path class="st1" d="M175.1,118.4v-0.7l0.9-0.8c2.1-2,3-3.1,3.1-4.3c0-0.8-0.4-1.6-1.6-1.6c-0.7,0-1.4,0.4-1.7,0.7l-0.4-0.8
		c0.6-0.5,1.4-0.8,2.3-0.8c1.8,0,2.5,1.2,2.5,2.4c0,1.5-1.1,2.7-2.8,4.4l-0.7,0.6l0,0h3.7v0.9L175.1,118.4L175.1,118.4z"/>
	<path class="st1" d="M187,114.2c0,2.8-1,4.3-2.9,4.3c-1.6,0-2.7-1.5-2.7-4.2c0-2.8,1.2-4.3,2.9-4.3
		C186.1,110.1,187,111.6,187,114.2z M182.6,114.4c0,2.1,0.7,3.3,1.7,3.3c1.1,0,1.7-1.3,1.7-3.4c0-2-0.5-3.3-1.7-3.3
		C183.3,110.9,182.6,112.1,182.6,114.4z"/>
	<path class="st1" d="M193.5,114.2c0,2.8-1,4.3-2.9,4.3c-1.6,0-2.7-1.5-2.7-4.2c0-2.8,1.2-4.3,2.9-4.3
		C192.5,110.1,193.5,111.6,193.5,114.2z M189.1,114.4c0,2.1,0.7,3.3,1.7,3.3c1.1,0,1.7-1.3,1.7-3.4c0-2-0.5-3.3-1.7-3.3
		C189.8,110.9,189.1,112.1,189.1,114.4z"/>
	<path class="st1" d="M199.5,111.1h-3.1l-0.3,2.1c0.2,0,0.4-0.1,0.7-0.1c0.6,0,1.3,0.1,1.8,0.4c0.6,0.4,1.2,1.1,1.2,2.1
		c0,1.6-1.3,2.8-3.1,2.8c-0.9,0-1.7-0.3-2-0.5l0.3-0.8c0.3,0.2,1,0.5,1.8,0.5c1,0,1.9-0.7,1.9-1.8c0-1.1-0.7-1.8-2.4-1.8
		c-0.5,0-0.8,0-1.1,0.1l0.5-3.9h3.9L199.5,111.1L199.5,111.1z"/>
	<path class="st1" d="M203.9,117.3c0.3,0.2,0.9,0.4,1.5,0.4c0.8,0,1.2-0.4,1.2-0.9s-0.3-0.8-1.1-1.1c-1.1-0.4-1.6-1-1.6-1.7
		c0-1,0.8-1.8,2.1-1.8c0.6,0,1.2,0.2,1.5,0.4l-0.3,0.8c-0.2-0.2-0.7-0.4-1.3-0.4c-0.7,0-1,0.4-1,0.8c0,0.5,0.4,0.7,1.2,1
		c1.1,0.4,1.6,0.9,1.6,1.8c0,1.1-0.8,1.8-2.3,1.8c-0.7,0-1.3-0.2-1.7-0.4L203.9,117.3z"/>
	<path class="st1" d="M210.4,110.6v1.8h1.6v0.8h-1.6v3.3c0,0.8,0.2,1.2,0.8,1.2c0.3,0,0.5,0,0.6-0.1v0.8c-0.2,0.1-0.6,0.2-1,0.2
		c-0.5,0-0.9-0.2-1.2-0.5s-0.4-0.9-0.4-1.6v-3.3h-0.9v-0.8h0.9v-1.5L210.4,110.6z"/>
	<path class="st1" d="M214.5,110.6c0,0.4-0.3,0.7-0.7,0.7s-0.7-0.3-0.7-0.7c0-0.4,0.3-0.7,0.7-0.7S214.5,110.2,214.5,110.6z
		 M213.3,118.4v-6.1h1.1v6.1H213.3z"/>
	<path class="st1" d="M216.2,114.3c0-0.8,0-1.4,0-2h1l0.1,1l0,0c0.5-0.7,1.2-1.2,2.2-1.2c1.5,0,2.6,1.3,2.6,3.1
		c0,2.2-1.3,3.3-2.8,3.3c-0.8,0-1.5-0.4-1.9-1l0,0v3.3h-1.1v-6.5H216.2z M217.3,115.9c0,0.2,0,0.3,0.1,0.5c0.2,0.8,0.9,1.3,1.7,1.3
		c1.2,0,1.9-1,1.9-2.4c0-1.2-0.6-2.3-1.8-2.3c-0.8,0-1.5,0.5-1.7,1.4c0,0.1-0.1,0.3-0.1,0.5L217.3,115.9L217.3,115.9z"/>
	<path class="st1" d="M228.5,116.8c0,0.6,0,1.2,0.1,1.7h-1l-0.1-1l0,0c-0.3,0.5-0.9,1.1-2,1.1c-1,0-2.1-0.5-2.1-2.7v-3.6h1.1v3.4
		c0,1.2,0.4,1.9,1.4,1.9c0.7,0,1.3-0.5,1.5-1c0.1-0.2,0.1-0.4,0.1-0.6v-3.8h1.1v4.6H228.5z"/>
	<path class="st1" d="M230.4,109.5h1.1v9h-1.1V109.5z"/>
	<path class="st1" d="M234,115.6c0,1.5,1,2.1,2.1,2.1c0.8,0,1.3-0.1,1.7-0.3l0.2,0.8c-0.4,0.2-1.1,0.4-2,0.4c-1.9,0-3-1.2-3-3.1
		s1.1-3.3,2.9-3.3c2,0,2.5,1.8,2.5,2.9c0,0.2,0,0.4,0,0.5H234z M237.2,114.8c0-0.7-0.3-1.8-1.5-1.8c-1.1,0-1.6,1-1.7,1.8H237.2z"/>
	<path class="st1" d="M246.5,117.5L246.5,117.5c-0.4,0.6-1,1.1-2,1.1c-1.4,0-2.6-1.2-2.6-3.1c0-2.3,1.5-3.3,2.8-3.3
		c0.9,0,1.6,0.5,1.9,1.1l0,0v-0.9h1c0,0.5,0,1,0,1.7v6.9h-1.1L246.5,117.5L246.5,117.5z M246.5,114.8c0-0.2,0-0.3-0.1-0.5
		c-0.2-0.7-0.8-1.3-1.6-1.3c-1.1,0-1.8,1-1.8,2.3c0,1.2,0.6,2.3,1.8,2.3c0.7,0,1.3-0.4,1.6-1.2c0.1-0.2,0.1-0.4,0.1-0.5V114.8z"/>
	<path class="st1" d="M254.6,116.8c0,0.6,0,1.2,0.1,1.7h-1l-0.1-1l0,0c-0.3,0.5-0.9,1.1-2,1.1c-1,0-2.1-0.5-2.1-2.7v-3.6h1.1v3.4
		c0,1.2,0.4,1.9,1.4,1.9c0.7,0,1.3-0.5,1.5-1c0.1-0.2,0.1-0.4,0.1-0.6v-3.8h1.1v4.6H254.6z"/>
	<path class="st1" d="M257.1,115.6c0,1.5,1,2.1,2.1,2.1c0.8,0,1.3-0.1,1.7-0.3l0.2,0.8c-0.4,0.2-1.1,0.4-2,0.4c-1.9,0-3-1.2-3-3.1
		s1.1-3.3,2.9-3.3c2,0,2.5,1.8,2.5,2.9c0,0.2,0,0.4,0,0.5H257.1z M260.3,114.8c0-0.7-0.3-1.8-1.5-1.8c-1.1,0-1.6,1-1.7,1.8H260.3z"
		/>
	<path class="st1" d="M266.8,110.6v1.8h1.6v0.8h-1.6v3.3c0,0.8,0.2,1.2,0.8,1.2c0.3,0,0.5,0,0.6-0.1v0.8c-0.2,0.1-0.6,0.2-1,0.2
		c-0.5,0-0.9-0.2-1.2-0.5c-0.3-0.3-0.4-0.9-0.4-1.6v-3.3h-0.9v-0.8h0.9v-1.5L266.8,110.6z"/>
	<path class="st1" d="M275.1,115.3c0,2.3-1.6,3.2-3,3.2c-1.7,0-2.9-1.2-2.9-3.1c0-2,1.3-3.2,3-3.2
		C273.9,112.2,275.1,113.4,275.1,115.3z M270.2,115.4c0,1.3,0.8,2.3,1.9,2.3s1.9-1,1.9-2.4c0-1-0.5-2.3-1.8-2.3
		C270.8,113,270.2,114.2,270.2,115.4z"/>
	<path class="st1" d="M281.6,116.8c0,0.6,0,1.2,0.1,1.7h-1l-0.1-1l0,0c-0.3,0.5-0.9,1.1-2,1.1c-1,0-2.1-0.5-2.1-2.7v-3.6h1.1v3.4
		c0,1.2,0.4,1.9,1.4,1.9c0.7,0,1.3-0.5,1.5-1c0.1-0.2,0.1-0.4,0.1-0.6v-3.8h1.1v4.6H281.6z"/>
	<path class="st1" d="M284.8,110.6v1.8h1.6v0.8h-1.6v3.3c0,0.8,0.2,1.2,0.8,1.2c0.3,0,0.5,0,0.6-0.1v0.8c-0.2,0.1-0.6,0.2-1,0.2
		c-0.5,0-0.9-0.2-1.2-0.5c-0.3-0.3-0.4-0.9-0.4-1.6v-3.3h-0.9v-0.8h0.9v-1.5L284.8,110.6z"/>
	<path class="st1" d="M288.2,115.6c0,1.5,1,2.1,2.1,2.1c0.8,0,1.3-0.1,1.7-0.3l0.2,0.8c-0.4,0.2-1.1,0.4-2,0.4c-1.9,0-3-1.2-3-3.1
		s1.1-3.3,2.9-3.3c2,0,2.5,1.8,2.5,2.9c0,0.2,0,0.4,0,0.5H288.2z M291.4,114.8c0-0.7-0.3-1.8-1.5-1.8c-1.1,0-1.6,1-1.7,1.8H291.4z"
		/>
	<path class="st1" d="M293.7,117.3c0.3,0.2,0.9,0.4,1.5,0.4c0.8,0,1.2-0.4,1.2-0.9s-0.3-0.8-1.1-1.1c-1.1-0.4-1.6-1-1.6-1.7
		c0-1,0.8-1.8,2.1-1.8c0.6,0,1.2,0.2,1.5,0.4l-0.3,0.8c-0.2-0.2-0.7-0.4-1.3-0.4c-0.7,0-1,0.4-1,0.8c0,0.5,0.4,0.7,1.2,1
		c1.1,0.4,1.6,0.9,1.6,1.8c0,1.1-0.8,1.8-2.3,1.8c-0.7,0-1.3-0.2-1.7-0.4L293.7,117.3z"/>
	<path class="st1" d="M301.6,109.5h1.1v9h-1.1V109.5z"/>
	<path class="st1" d="M305.2,115.6c0,1.5,1,2.1,2.1,2.1c0.8,0,1.3-0.1,1.7-0.3l0.2,0.8c-0.4,0.2-1.1,0.4-2,0.4c-1.9,0-3-1.2-3-3.1
		s1.1-3.3,2.9-3.3c2,0,2.5,1.8,2.5,2.9c0,0.2,0,0.4,0,0.5H305.2z M308.4,114.8c0-0.7-0.3-1.8-1.5-1.8c-1.1,0-1.6,1-1.7,1.8H308.4z"
		/>
	<path class="st1" d="M310.7,117.3c0.3,0.2,0.9,0.4,1.5,0.4c0.8,0,1.2-0.4,1.2-0.9s-0.3-0.8-1.1-1.1c-1.1-0.4-1.6-1-1.6-1.7
		c0-1,0.8-1.8,2.1-1.8c0.6,0,1.2,0.2,1.5,0.4l-0.3,0.8c-0.2-0.2-0.7-0.4-1.3-0.4c-0.7,0-1,0.4-1,0.8c0,0.5,0.4,0.7,1.2,1
		c1.1,0.4,1.6,0.9,1.6,1.8c0,1.1-0.8,1.8-2.3,1.8c-0.7,0-1.3-0.2-1.7-0.4L310.7,117.3z"/>
	<path class="st1" d="M41.6,130.7c0,1.5,1,2.1,2.1,2.1c0.8,0,1.3-0.1,1.7-0.3l0.2,0.8c-0.4,0.2-1.1,0.4-2,0.4c-1.9,0-3-1.2-3-3.1
		s1.1-3.3,2.9-3.3c2,0,2.5,1.8,2.5,2.9c0,0.2,0,0.4,0,0.5H41.6z M44.9,129.9c0-0.7-0.3-1.8-1.5-1.8c-1.1,0-1.6,1-1.7,1.8H44.9z"/>
	<path class="st1" d="M47.3,129.1c0-0.6,0-1.1-0.1-1.7h1l0.1,1l0,0c0.3-0.6,1-1.1,2-1.1c0.8,0,2.2,0.5,2.2,2.6v3.7h-1.1v-3.5
		c0-1-0.4-1.8-1.4-1.8c-0.7,0-1.3,0.5-1.5,1.1c-0.1,0.1-0.1,0.3-0.1,0.5v3.7h-1.1C47.3,133.6,47.3,129.1,47.3,129.1z"/>
	<path class="st1" d="M55.6,125.7v1.8h1.6v0.8h-1.6v3.3c0,0.8,0.2,1.2,0.8,1.2c0.3,0,0.5,0,0.6-0.1l0.1,0.8c-0.2,0.1-0.6,0.2-1,0.2
		c-0.5,0-0.9-0.2-1.2-0.5s-0.4-0.9-0.4-1.6v-3.3h-0.9v-0.8h0.9V126L55.6,125.7z"/>
	<path class="st1" d="M58.5,129.4c0-0.7,0-1.3-0.1-1.9h1v1.2h0.1c0.3-0.8,0.9-1.3,1.7-1.3c0.1,0,0.2,0,0.3,0v1c-0.1,0-0.2,0-0.4,0
		c-0.8,0-1.3,0.6-1.5,1.4c0,0.2-0.1,0.3-0.1,0.5v3.3h-1.1L58.5,129.4L58.5,129.4z"/>
	<path class="st1" d="M63.1,130.7c0,1.5,1,2.1,2.1,2.1c0.8,0,1.3-0.1,1.7-0.3l0.2,0.8c-0.4,0.2-1.1,0.4-2,0.4c-1.9,0-3-1.2-3-3.1
		s1.1-3.3,2.9-3.3c2,0,2.5,1.8,2.5,2.9c0,0.2,0,0.4,0,0.5H63.1z M66.4,129.9c0-0.7-0.3-1.8-1.5-1.8c-1.1,0-1.6,1-1.7,1.8H66.4z"/>
	<path class="st1" d="M68.8,129.5c0-0.8,0-1.4-0.1-2h1l0.1,1l0,0c0.5-0.7,1.2-1.2,2.2-1.2c1.5,0,2.6,1.3,2.6,3.1
		c0,2.2-1.3,3.3-2.8,3.3c-0.8,0-1.5-0.4-1.9-1l0,0v3.3h-1.1C68.8,136,68.8,129.5,68.8,129.5z M69.9,131.1c0,0.2,0,0.3,0.1,0.5
		c0.2,0.8,0.9,1.3,1.7,1.3c1.2,0,1.9-1,1.9-2.4c0-1.2-0.6-2.3-1.8-2.3c-0.8,0-1.5,0.5-1.7,1.4c0,0.1-0.1,0.3-0.1,0.5L69.9,131.1
		L69.9,131.1z"/>
	<path class="st1" d="M76,129.4c0-0.7,0-1.3-0.1-1.9h1v1.2H77c0.3-0.8,0.9-1.3,1.7-1.3c0.1,0,0.2,0,0.3,0v1c-0.1,0-0.2,0-0.4,0
		c-0.8,0-1.3,0.6-1.5,1.4c0,0.2-0.1,0.3-0.1,0.5v3.3h-1.1L76,129.4L76,129.4z"/>
	<path class="st1" d="M81.4,125.8c0,0.4-0.3,0.7-0.7,0.7c-0.4,0-0.7-0.3-0.7-0.7c0-0.4,0.3-0.7,0.7-0.7S81.4,125.4,81.4,125.8z
		 M80.2,133.6v-6.1h1.1v6.1H80.2z"/>
	<path class="st1" d="M83,132.5c0.3,0.2,0.9,0.4,1.5,0.4c0.8,0,1.2-0.4,1.2-0.9s-0.3-0.8-1.1-1.1c-1.1-0.4-1.6-1-1.6-1.7
		c0-1,0.8-1.8,2.1-1.8c0.6,0,1.2,0.2,1.5,0.4l-0.3,0.8c-0.2-0.2-0.7-0.4-1.3-0.4c-0.7,0-1,0.4-1,0.8c0,0.5,0.4,0.7,1.2,1
		c1.1,0.4,1.6,0.9,1.6,1.8c0,1.1-0.8,1.8-2.3,1.8c-0.7,0-1.3-0.2-1.7-0.4L83,132.5z"/>
	<path class="st1" d="M88.8,130.7c0,1.5,1,2.1,2.1,2.1c0.8,0,1.3-0.1,1.7-0.3l0.2,0.8c-0.4,0.2-1.1,0.4-2,0.4c-1.9,0-3-1.2-3-3.1
		s1.1-3.3,2.9-3.3c2,0,2.5,1.8,2.5,2.9c0,0.2,0,0.4,0,0.5H88.8z M92,129.9c0-0.7-0.3-1.8-1.5-1.8c-1.1,0-1.6,1-1.7,1.8H92z"/>
	<path class="st1" d="M94.3,132.5c0.3,0.2,0.9,0.4,1.5,0.4c0.8,0,1.2-0.4,1.2-0.9s-0.3-0.8-1.1-1.1c-1.1-0.4-1.6-1-1.6-1.7
		c0-1,0.8-1.8,2.1-1.8c0.6,0,1.2,0.2,1.5,0.4l-0.3,0.8c-0.2-0.2-0.7-0.4-1.3-0.4c-0.7,0-1,0.4-1,0.8c0,0.5,0.4,0.7,1.2,1
		c1.1,0.4,1.6,0.9,1.6,1.8c0,1.1-0.8,1.8-2.3,1.8c-0.7,0-1.3-0.2-1.7-0.4L94.3,132.5z"/>
	<path class="st1" d="M107.4,124.6v7.4c0,0.5,0,1.2,0.1,1.6h-1l-0.1-1.1l0,0c-0.3,0.7-1.1,1.2-2.1,1.2c-1.5,0-2.6-1.2-2.6-3.1
		c0-2,1.3-3.3,2.7-3.3c0.9,0,1.6,0.4,1.8,0.9l0,0v-3.6H107.4z M106.3,130c0-0.1,0-0.3-0.1-0.5c-0.2-0.7-0.8-1.3-1.6-1.3
		c-1.1,0-1.8,1-1.8,2.4c0,1.2,0.6,2.3,1.8,2.3c0.7,0,1.4-0.5,1.6-1.3c0-0.2,0.1-0.3,0.1-0.5V130z"/>
	<path class="st1" d="M110.8,124.9c-0.3,1.1-0.8,2.4-1.2,3l-0.7,0.1c0.3-0.7,0.6-2.1,0.7-3L110.8,124.9z"/>
	<path class="st1" d="M115.1,133.6l-0.1-0.8l0,0c-0.3,0.5-1,0.9-1.9,0.9c-1.2,0-1.9-0.9-1.9-1.8c0-1.5,1.3-2.3,3.7-2.3v0
		c0-0.5-0.1-1.4-1.4-1.4c-0.6,0-1.2,0.2-1.6,0.5l-0.3-0.7c0.5-0.3,1.2-0.5,2-0.5c1.9,0,2.3,1.3,2.3,2.5v2.3c0,0.5,0,1,0.1,1.5h-0.9
		V133.6z M115,130.5c-1.2,0-2.6,0.2-2.6,1.4c0,0.7,0.5,1.1,1,1.1c0.8,0,1.3-0.5,1.5-1c0-0.1,0.1-0.2,0.1-0.4V130.5z"/>
	<path class="st1" d="M123,131.9c0,0.6,0,1.2,0.1,1.7h-1l-0.1-1l0,0c-0.3,0.5-0.9,1.1-2,1.1c-1,0-2.1-0.5-2.1-2.7v-3.6h1.1v3.4
		c0,1.2,0.4,1.9,1.4,1.9c0.7,0,1.3-0.5,1.5-1c0.1-0.2,0.1-0.4,0.1-0.6v-3.8h1.1v4.6H123z"/>
	<path class="st1" d="M127.5,129.1c0-0.6,0-1.1-0.1-1.7h1l0.1,1l0,0c0.3-0.6,0.9-1.1,1.9-1.1c0.8,0,1.5,0.5,1.7,1.2l0,0
		c0.2-0.3,0.4-0.6,0.7-0.8c0.4-0.3,0.8-0.4,1.4-0.4c0.8,0,2,0.5,2,2.7v3.6h-1.1v-3.5c0-1.2-0.4-1.9-1.3-1.9c-0.6,0-1.1,0.5-1.3,1
		c-0.1,0.2-0.1,0.4-0.1,0.6v3.8h-1.1v-3.7c0-1-0.4-1.7-1.3-1.7c-0.7,0-1.2,0.6-1.4,1.1c-0.1,0.2-0.1,0.4-0.1,0.5v3.7h-1.1v-4.4
		H127.5z"/>
	<path class="st1" d="M143.5,130.5c0,2.3-1.6,3.2-3,3.2c-1.7,0-2.9-1.2-2.9-3.1c0-2,1.3-3.2,3-3.2
		C142.4,127.3,143.5,128.6,143.5,130.5z M138.7,130.5c0,1.3,0.8,2.3,1.9,2.3c1.1,0,1.9-1,1.9-2.4c0-1-0.5-2.3-1.8-2.3
		C139.3,128.2,138.7,129.4,138.7,130.5z"/>
	<path class="st1" d="M146.2,125.8c0,0.4-0.3,0.7-0.7,0.7s-0.7-0.3-0.7-0.7c0-0.4,0.3-0.7,0.7-0.7S146.2,125.4,146.2,125.8z
		 M145,133.6v-6.1h1.1v6.1H145z"/>
	<path class="st1" d="M147.9,129.1c0-0.6,0-1.1-0.1-1.7h1l0.1,1l0,0c0.3-0.6,1-1.1,2-1.1c0.8,0,2.2,0.5,2.2,2.6v3.7H152v-3.5
		c0-1-0.4-1.8-1.4-1.8c-0.7,0-1.3,0.5-1.5,1.1c-0.1,0.1-0.1,0.3-0.1,0.5v3.7h-1.1V129.1z"/>
	<path class="st1" d="M154.8,132.5c0.3,0.2,0.9,0.4,1.5,0.4c0.8,0,1.2-0.4,1.2-0.9s-0.3-0.8-1.1-1.1c-1.1-0.4-1.6-1-1.6-1.7
		c0-1,0.8-1.8,2.1-1.8c0.6,0,1.2,0.2,1.5,0.4l-0.3,0.8c-0.2-0.2-0.7-0.4-1.3-0.4c-0.7,0-1,0.4-1,0.8c0,0.5,0.4,0.7,1.2,1
		c1.1,0.4,1.6,0.9,1.6,1.8c0,1.1-0.8,1.8-2.3,1.8c-0.7,0-1.3-0.2-1.7-0.4L154.8,132.5z"/>
	<path class="st1" d="M162.3,133.6v-0.7l0.9-0.8c2.1-2,3-3.1,3.1-4.3c0-0.8-0.4-1.6-1.6-1.6c-0.7,0-1.4,0.4-1.7,0.7l-0.4-0.8
		c0.6-0.5,1.4-0.8,2.3-0.8c1.8,0,2.5,1.2,2.5,2.4c0,1.5-1.1,2.7-2.8,4.4l-0.7,0.6l0,0h3.7v0.9L162.3,133.6L162.3,133.6z"/>
	<path class="st1" d="M174.2,129.4c0,2.8-1,4.3-2.9,4.3c-1.6,0-2.7-1.5-2.7-4.2c0-2.8,1.2-4.3,2.9-4.3
		C173.2,125.2,174.2,126.8,174.2,129.4z M169.7,129.5c0,2.1,0.7,3.3,1.7,3.3c1.1,0,1.7-1.3,1.7-3.4c0-2-0.5-3.3-1.7-3.3
		C170.4,126.1,169.7,127.3,169.7,129.5z"/>
	<path class="st1" d="M178.1,132.5c0.3,0.2,0.9,0.4,1.5,0.4c0.8,0,1.2-0.4,1.2-0.9s-0.3-0.8-1.1-1.1c-1.1-0.4-1.6-1-1.6-1.7
		c0-1,0.8-1.8,2.1-1.8c0.6,0,1.2,0.2,1.5,0.4l-0.3,0.8c-0.2-0.2-0.7-0.4-1.3-0.4c-0.7,0-1,0.4-1,0.8c0,0.5,0.4,0.7,1.2,1
		c1.1,0.4,1.6,0.9,1.6,1.8c0,1.1-0.8,1.8-2.3,1.8c-0.7,0-1.3-0.2-1.7-0.4L178.1,132.5z"/>
	<path class="st1" d="M186.6,133.6l-0.1-0.8l0,0c-0.3,0.5-1,0.9-1.9,0.9c-1.2,0-1.9-0.9-1.9-1.8c0-1.5,1.3-2.3,3.7-2.3v0
		c0-0.5-0.1-1.4-1.4-1.4c-0.6,0-1.2,0.2-1.6,0.5l-0.3-0.7c0.5-0.3,1.2-0.5,2-0.5c1.9,0,2.3,1.3,2.3,2.5v2.3c0,0.5,0,1,0.1,1.5h-0.9
		V133.6z M186.5,130.5c-1.2,0-2.6,0.2-2.6,1.4c0,0.7,0.5,1.1,1,1.1c0.8,0,1.3-0.5,1.5-1c0-0.1,0.1-0.2,0.1-0.4V130.5z"/>
	<path class="st1" d="M189.3,124.6h1.1v9h-1.1V124.6z"/>
	<path class="st1" d="M195.7,133.6l-0.1-0.8l0,0c-0.3,0.5-1,0.9-1.9,0.9c-1.2,0-1.9-0.9-1.9-1.8c0-1.5,1.3-2.3,3.7-2.3v0
		c0-0.5-0.1-1.4-1.4-1.4c-0.6,0-1.2,0.2-1.6,0.5l-0.3-0.7c0.5-0.3,1.2-0.5,2-0.5c1.9,0,2.3,1.3,2.3,2.5v2.3c0,0.5,0,1,0.1,1.5h-0.9
		V133.6z M195.6,130.5c-1.2,0-2.6,0.2-2.6,1.4c0,0.7,0.5,1.1,1,1.1c0.8,0,1.3-0.5,1.5-1c0-0.1,0.1-0.2,0.1-0.4V130.5z"/>
	<path class="st1" d="M198.4,129.4c0-0.7,0-1.3-0.1-1.9h1v1.2h0.1c0.3-0.8,0.9-1.3,1.7-1.3c0.1,0,0.2,0,0.3,0v1c-0.1,0-0.2,0-0.4,0
		c-0.8,0-1.3,0.6-1.5,1.4c0,0.2-0.1,0.3-0.1,0.5v3.3h-1.1v-4.2H198.4z"/>
	<path class="st1" d="M203.8,125.8c0,0.4-0.3,0.7-0.7,0.7s-0.7-0.3-0.7-0.7c0-0.4,0.3-0.7,0.7-0.7
		C203.6,125.1,203.8,125.4,203.8,125.8z M202.6,133.6v-6.1h1.1v6.1H202.6z"/>
	<path class="st1" d="M206.2,130.7c0,1.5,1,2.1,2.1,2.1c0.8,0,1.3-0.1,1.7-0.3l0.2,0.8c-0.4,0.2-1.1,0.4-2,0.4c-1.9,0-3-1.2-3-3.1
		s1.1-3.3,2.9-3.3c2,0,2.5,1.8,2.5,2.9c0,0.2,0,0.4,0,0.5H206.2z M209.4,129.9c0-0.7-0.3-1.8-1.5-1.8c-1.1,0-1.6,1-1.7,1.8H209.4z
		 M209.7,124.8l-1.5,1.8h-0.8l1.1-1.8H209.7z"/>
	<path class="st1" d="M211.7,132.5c0.3,0.2,0.9,0.4,1.5,0.4c0.8,0,1.2-0.4,1.2-0.9s-0.3-0.8-1.1-1.1c-1.1-0.4-1.6-1-1.6-1.7
		c0-1,0.8-1.8,2.1-1.8c0.6,0,1.2,0.2,1.5,0.4l-0.3,0.8c-0.2-0.2-0.7-0.4-1.3-0.4c-0.7,0-1,0.4-1,0.8c0,0.5,0.4,0.7,1.2,1
		c1.1,0.4,1.6,0.9,1.6,1.8c0,1.1-0.8,1.8-2.3,1.8c-0.7,0-1.3-0.2-1.7-0.4L211.7,132.5z"/>
	<path class="st1" d="M219.4,132.5c0.3,0.2,0.9,0.4,1.5,0.4c0.8,0,1.2-0.4,1.2-0.9s-0.3-0.8-1.1-1.1c-1.1-0.4-1.6-1-1.6-1.7
		c0-1,0.8-1.8,2.1-1.8c0.6,0,1.2,0.2,1.5,0.4l-0.3,0.8c-0.2-0.2-0.7-0.4-1.3-0.4c-0.7,0-1,0.4-1,0.8c0,0.5,0.4,0.7,1.2,1
		c1.1,0.4,1.6,0.9,1.6,1.8c0,1.1-0.8,1.8-2.3,1.8c-0.7,0-1.3-0.2-1.7-0.4L219.4,132.5z"/>
	<path class="st1" d="M225.2,130.7c0,1.5,1,2.1,2.1,2.1c0.8,0,1.3-0.1,1.7-0.3l0.2,0.8c-0.4,0.2-1.1,0.4-2,0.4c-1.9,0-3-1.2-3-3.1
		s1.1-3.3,2.9-3.3c2,0,2.5,1.8,2.5,2.9c0,0.2,0,0.4,0,0.5H225.2z M228.5,129.9c0-0.7-0.3-1.8-1.5-1.8c-1.1,0-1.6,1-1.7,1.8H228.5z"
		/>
	<path class="st1" d="M238.9,124.6v7.4c0,0.5,0,1.2,0.1,1.6h-1l-0.1-1.1l0,0c-0.3,0.7-1.1,1.2-2.1,1.2c-1.5,0-2.6-1.2-2.6-3.1
		c0-2,1.2-3.3,2.7-3.3c0.9,0,1.6,0.4,1.8,0.9l0,0v-3.6H238.9z M237.8,130c0-0.1,0-0.3-0.1-0.5c-0.2-0.7-0.8-1.3-1.6-1.3
		c-1.1,0-1.8,1-1.8,2.4c0,1.2,0.6,2.3,1.8,2.3c0.7,0,1.4-0.5,1.6-1.3c0-0.2,0.1-0.3,0.1-0.5V130z"/>
	<path class="st1" d="M246.2,130.5c0,2.3-1.6,3.2-3,3.2c-1.7,0-2.9-1.2-2.9-3.1c0-2,1.3-3.2,3-3.2
		C245.1,127.3,246.2,128.6,246.2,130.5z M241.4,130.5c0,1.3,0.8,2.3,1.9,2.3c1.1,0,1.9-1,1.9-2.4c0-1-0.5-2.3-1.8-2.3
		C242,128.2,241.4,129.4,241.4,130.5z"/>
	<path class="st1" d="M248.9,125.8c0,0.4-0.3,0.7-0.7,0.7s-0.7-0.3-0.7-0.7c0-0.4,0.3-0.7,0.7-0.7S248.9,125.4,248.9,125.8z
		 M247.7,133.6v-6.1h1.1v6.1H247.7z"/>
	<path class="st1" d="M251,127.5l1.2,3.4c0.2,0.6,0.4,1.1,0.5,1.6l0,0c0.1-0.5,0.3-1,0.5-1.6l1.2-3.4h1.2l-2.4,6.1h-1.1l-2.3-6.1
		H251z"/>
	<path class="st1" d="M257.2,130.7c0,1.5,1,2.1,2.1,2.1c0.8,0,1.3-0.1,1.7-0.3l0.2,0.8c-0.4,0.2-1.1,0.4-2,0.4c-1.9,0-3-1.2-3-3.1
		s1.1-3.3,2.9-3.3c2,0,2.5,1.8,2.5,2.9c0,0.2,0,0.4,0,0.5H257.2z M260.4,129.9c0-0.7-0.3-1.8-1.5-1.8c-1.1,0-1.6,1-1.7,1.8H260.4z"
		/>
	<path class="st1" d="M262.9,129.1c0-0.6,0-1.1,0-1.7h1l0.1,1l0,0c0.3-0.6,1-1.1,2-1.1c0.8,0,2.2,0.5,2.2,2.6v3.7h-1.1v-3.5
		c0-1-0.4-1.8-1.4-1.8c-0.7,0-1.3,0.5-1.5,1.1c-0.1,0.1-0.1,0.3-0.1,0.5v3.7h-1.2V129.1z"/>
	<path class="st1" d="M271.2,125.7v1.8h1.6v0.8h-1.6v3.3c0,0.8,0.2,1.2,0.8,1.2c0.3,0,0.5,0,0.6-0.1l0.1,0.8c-0.2,0.1-0.6,0.2-1,0.2
		c-0.5,0-0.9-0.2-1.2-0.5c-0.3-0.3-0.4-0.9-0.4-1.6v-3.3h-0.9v-0.8h0.9V126L271.2,125.7z"/>
	<path class="st1" d="M46.3,139.8v7.4c0,0.5,0,1.2,0.1,1.6h-1l-0.1-1.1l0,0c-0.3,0.7-1.1,1.2-2.1,1.2c-1.5,0-2.6-1.3-2.6-3.1
		c0-2,1.3-3.3,2.7-3.3c0.9,0,1.6,0.4,1.8,0.9l0,0v-3.7h1.2V139.8z M45.2,145.1c0-0.1,0-0.3-0.1-0.5c-0.2-0.7-0.8-1.3-1.6-1.3
		c-1.1,0-1.8,1-1.8,2.4c0,1.2,0.6,2.3,1.8,2.3c0.7,0,1.4-0.5,1.6-1.3c0-0.2,0.1-0.3,0.1-0.5V145.1z"/>
	<path class="st1" d="M48.9,140.1l-0.2,3H48l-0.2-3H48.9z"/>
	<path class="st1" d="M53.9,148.8l-0.1-0.8l0,0c-0.3,0.5-1,0.9-1.9,0.9c-1.2,0-1.9-0.9-1.9-1.8c0-1.5,1.3-2.3,3.7-2.3v-0.1
		c0-0.5-0.1-1.4-1.4-1.4c-0.6,0-1.2,0.2-1.6,0.5l-0.3-0.7c0.5-0.3,1.2-0.5,2-0.5c1.9,0,2.3,1.3,2.3,2.5v2.3c0,0.5,0,1,0.1,1.5h-0.9
		V148.8z M53.7,145.6c-1.2,0-2.6,0.2-2.6,1.4c0,0.7,0.5,1.1,1,1.1c0.8,0,1.3-0.5,1.5-1c0-0.1,0.1-0.2,0.1-0.4V145.6z"/>
	<path class="st1" d="M60.9,148.5c-0.3,0.2-0.9,0.4-1.8,0.4c-1.8,0-3-1.2-3-3.1s1.3-3.2,3.3-3.2c0.7,0,1.2,0.2,1.5,0.3l-0.3,0.9
		c-0.3-0.2-0.7-0.3-1.3-0.3c-1.4,0-2.2,1-2.2,2.3c0,1.4,0.9,2.3,2.1,2.3c0.6,0,1-0.2,1.4-0.3L60.9,148.5z"/>
	<path class="st1" d="M66.5,148.5c-0.3,0.2-0.9,0.4-1.8,0.4c-1.8,0-3-1.2-3-3.1s1.3-3.2,3.3-3.2c0.7,0,1.2,0.2,1.5,0.3l-0.3,0.9
		c-0.3-0.2-0.7-0.3-1.3-0.3c-1.4,0-2.2,1-2.2,2.3c0,1.4,0.9,2.3,2.1,2.3c0.6,0,1-0.2,1.4-0.3L66.5,148.5z"/>
	<path class="st1" d="M72.9,147.1c0,0.6,0,1.2,0.1,1.7h-1l-0.1-1l0,0c-0.3,0.5-0.9,1.1-2,1.1c-1,0-2.1-0.5-2.1-2.7v-3.6h1.1v3.4
		c0,1.2,0.4,1.9,1.4,1.9c0.7,0,1.3-0.5,1.5-1c0.1-0.2,0.1-0.4,0.1-0.6v-3.7h1V147.1z"/>
	<path class="st1" d="M75.4,145.9c0,1.5,1,2.1,2.1,2.1c0.8,0,1.3-0.1,1.7-0.3l0.2,0.8c-0.4,0.2-1.1,0.4-2,0.4c-1.9,0-3-1.2-3-3.1
		c0-1.8,1.1-3.3,2.9-3.3c2,0,2.5,1.8,2.5,2.9c0,0.2,0,0.4,0,0.5H75.4z M78.7,145.1c0-0.7-0.3-1.8-1.5-1.8c-1.1,0-1.6,1-1.7,1.8H78.7
		z"/>
	<path class="st1" d="M82.4,140.9c0,0.4-0.3,0.7-0.7,0.7c-0.4,0-0.7-0.3-0.7-0.7c0-0.4,0.3-0.7,0.7-0.7
		C82.1,140.2,82.4,140.5,82.4,140.9z M81.1,148.8v-6.2h1.1v6.1h-1.1V148.8z"/>
	<path class="st1" d="M84.1,139.8h1.1v9h-1.1V139.8z"/>
	<path class="st1" d="M87.1,139.8h1.1v9h-1.1V139.8z"/>
	<path class="st1" d="M91.3,140.9c0,0.4-0.3,0.7-0.7,0.7s-0.7-0.3-0.7-0.7c0-0.4,0.3-0.7,0.7-0.7C91,140.2,91.3,140.5,91.3,140.9z
		 M90,148.8v-6.2h1.1v6.1H90V148.8z"/>
	<path class="st1" d="M93,144.5c0-0.7,0-1.3-0.1-1.9h1v1.2H94c0.3-0.8,0.9-1.3,1.7-1.3c0.1,0,0.2,0,0.3,0v1c-0.1,0-0.2,0-0.4,0
		c-0.8,0-1.3,0.6-1.5,1.4c0,0.2-0.1,0.3-0.1,0.5v3.3h-1.1L93,144.5L93,144.5z"/>
	<path class="st1" d="M105.1,139.8v7.4c0,0.5,0,1.2,0.1,1.6h-1l-0.1-1.1l0,0c-0.3,0.7-1.1,1.2-2.1,1.2c-1.5,0-2.6-1.3-2.6-3.1
		c0-2,1.3-3.3,2.7-3.3c0.9,0,1.6,0.4,1.8,0.9l0,0v-3.7h1.2V139.8z M104,145.1c0-0.1,0-0.3-0.1-0.5c-0.2-0.7-0.8-1.3-1.6-1.3
		c-1.1,0-1.8,1-1.8,2.4c0,1.2,0.6,2.3,1.8,2.3c0.7,0,1.4-0.5,1.6-1.3c0-0.2,0.1-0.3,0.1-0.5V145.1z"/>
	<path class="st1" d="M107.6,145.9c0,1.5,1,2.1,2.1,2.1c0.8,0,1.3-0.1,1.7-0.3l0.2,0.8c-0.4,0.2-1.1,0.4-2,0.4c-1.9,0-3-1.2-3-3.1
		c0-1.8,1.1-3.3,2.9-3.3c2,0,2.5,1.8,2.5,2.9c0,0.2,0,0.4,0,0.5H107.6z M110.8,145.1c0-0.7-0.3-1.8-1.5-1.8c-1.1,0-1.6,1-1.7,1.8
		H110.8z"/>
	<path class="st1" d="M113.1,147.6c0.3,0.2,0.9,0.4,1.5,0.4c0.8,0,1.2-0.4,1.2-0.9s-0.3-0.8-1.1-1.1c-1.1-0.4-1.6-1-1.6-1.7
		c0-1,0.8-1.8,2.1-1.8c0.6,0,1.2,0.2,1.5,0.4l-0.3,0.8c-0.2-0.2-0.7-0.4-1.3-0.4c-0.7,0-1,0.4-1,0.8c0,0.5,0.4,0.7,1.2,1
		c1.1,0.4,1.6,0.9,1.6,1.8c0,1.1-0.8,1.8-2.3,1.8c-0.7,0-1.3-0.2-1.7-0.4L113.1,147.6z"/>
	<path class="st1" d="M122.3,140.9v1.8h1.6v0.8h-1.6v3.3c0,0.8,0.2,1.2,0.8,1.2c0.3,0,0.5,0,0.6-0.1l0.1,0.8c-0.2,0.1-0.6,0.2-1,0.2
		c-0.5,0-0.9-0.2-1.2-0.5s-0.4-0.9-0.4-1.6v-3.3h-0.9v-0.9h0.9v-1.5L122.3,140.9z"/>
	<path class="st1" d="M125.1,144.5c0-0.7,0-1.3-0.1-1.9h1v1.2h0.1c0.3-0.8,0.9-1.3,1.7-1.3c0.1,0,0.2,0,0.3,0v1c-0.1,0-0.2,0-0.4,0
		c-0.8,0-1.3,0.6-1.5,1.4c0,0.2-0.1,0.3-0.1,0.5v3.3H125v-4.2H125.1z"/>
	<path class="st1" d="M132.6,148.8l-0.1-0.8l0,0c-0.3,0.5-1,0.9-1.9,0.9c-1.2,0-1.9-0.9-1.9-1.8c0-1.5,1.3-2.3,3.7-2.3v-0.1
		c0-0.5-0.1-1.4-1.4-1.4c-0.6,0-1.2,0.2-1.6,0.5l-0.3-0.7c0.5-0.3,1.2-0.5,2-0.5c1.9,0,2.3,1.3,2.3,2.5v2.3c0,0.5,0,1,0.1,1.5h-0.9
		V148.8z M132.4,145.6c-1.2,0-2.6,0.2-2.6,1.4c0,0.7,0.5,1.1,1,1.1c0.8,0,1.3-0.5,1.5-1c0-0.1,0.1-0.2,0.1-0.4V145.6z"/>
	<path class="st1" d="M135.6,142.6l1.2,3.4c0.2,0.6,0.4,1.1,0.5,1.6l0,0c0.1-0.5,0.3-1,0.5-1.6l1.2-3.4h1.2l-2.4,6.1h-1.1l-2.3-6.1
		H135.6z"/>
	<path class="st1" d="M144.6,148.8l-0.1-0.8l0,0c-0.3,0.5-1,0.9-1.9,0.9c-1.2,0-1.9-0.9-1.9-1.8c0-1.5,1.3-2.3,3.7-2.3v-0.1
		c0-0.5-0.1-1.4-1.4-1.4c-0.6,0-1.2,0.2-1.6,0.5l-0.3-0.7c0.5-0.3,1.2-0.5,2-0.5c1.9,0,2.3,1.3,2.3,2.5v2.3c0,0.5,0,1,0.1,1.5h-0.9
		V148.8z M144.4,145.6c-1.2,0-2.6,0.2-2.6,1.4c0,0.7,0.5,1.1,1,1.1c0.8,0,1.3-0.5,1.5-1c0-0.1,0.1-0.2,0.1-0.4V145.6z"/>
	<path class="st1" d="M148.6,140.9c0,0.4-0.3,0.7-0.7,0.7s-0.7-0.3-0.7-0.7c0-0.4,0.3-0.7,0.7-0.7
		C148.3,140.2,148.6,140.5,148.6,140.9z M147.3,148.8v-6.2h1.1v6.1h-1.1V148.8z"/>
	<path class="st1" d="M150.3,139.8h1.1v9h-1.1V139.8z"/>
	<path class="st1" d="M153.3,139.8h1.1v9h-1.1V139.8z"/>
	<path class="st1" d="M156.9,145.9c0,1.5,1,2.1,2.1,2.1c0.8,0,1.3-0.1,1.7-0.3l0.2,0.8c-0.4,0.2-1.1,0.4-2,0.4c-1.9,0-3-1.2-3-3.1
		c0-1.8,1.1-3.3,2.9-3.3c2,0,2.5,1.8,2.5,2.9c0,0.2,0,0.4,0,0.5H156.9z M160.1,145.1c0-0.7-0.3-1.8-1.5-1.8c-1.1,0-1.6,1-1.7,1.8
		H160.1z"/>
	<path class="st1" d="M167.7,147.1c0,0.6,0,1.2,0.1,1.7h-1l-0.1-1l0,0c-0.3,0.5-0.9,1.1-2,1.1c-1,0-2.1-0.5-2.1-2.7v-3.6h1.1v3.4
		c0,1.2,0.4,1.9,1.4,1.9c0.7,0,1.3-0.5,1.5-1c0.1-0.2,0.1-0.4,0.1-0.6v-3.7h1.1v4.5H167.7z"/>
	<path class="st1" d="M169.5,144.5c0-0.7,0-1.3-0.1-1.9h1v1.2h0.1c0.3-0.8,0.9-1.3,1.7-1.3c0.1,0,0.2,0,0.3,0v1c-0.1,0-0.2,0-0.4,0
		c-0.8,0-1.3,0.6-1.5,1.4c0,0.2-0.1,0.3-0.1,0.5v3.3h-1.1v-4.2H169.5z"/>
	<path class="st1" d="M173.5,147.6c0.3,0.2,0.9,0.4,1.5,0.4c0.8,0,1.2-0.4,1.2-0.9s-0.3-0.8-1.1-1.1c-1.1-0.4-1.6-1-1.6-1.7
		c0-1,0.8-1.8,2.1-1.8c0.6,0,1.2,0.2,1.5,0.4l-0.3,0.8c-0.2-0.2-0.7-0.4-1.3-0.4c-0.7,0-1,0.4-1,0.8c0,0.5,0.4,0.7,1.2,1
		c1.1,0.4,1.6,0.9,1.6,1.8c0,1.1-0.8,1.8-2.3,1.8c-0.7,0-1.3-0.2-1.7-0.4L173.5,147.6z"/>
	<path class="st1" d="M181.3,139.8h1.1v3.8l0,0c0.2-0.3,0.5-0.6,0.8-0.8c0.3-0.2,0.7-0.3,1.1-0.3c0.8,0,2.1,0.5,2.1,2.6v3.6h-1.1
		v-3.5c0-1-0.4-1.8-1.4-1.8c-0.7,0-1.3,0.5-1.5,1.1c-0.1,0.2-0.1,0.3-0.1,0.5v3.7h-1.1L181.3,139.8L181.3,139.8z"/>
	<path class="st1" d="M191.7,148.8l-0.1-0.8l0,0c-0.3,0.5-1,0.9-1.9,0.9c-1.2,0-1.9-0.9-1.9-1.8c0-1.5,1.3-2.3,3.7-2.3v-0.1
		c0-0.5-0.1-1.4-1.4-1.4c-0.6,0-1.2,0.2-1.6,0.5l-0.3-0.7c0.5-0.3,1.2-0.5,2-0.5c1.9,0,2.3,1.3,2.3,2.5v2.3c0,0.5,0,1,0.1,1.5h-0.9
		V148.8z M191.6,145.6c-1.2,0-2.6,0.2-2.6,1.4c0,0.7,0.5,1.1,1,1.1c0.8,0,1.3-0.5,1.5-1c0-0.1,0.1-0.2,0.1-0.4V145.6z"/>
	<path class="st1" d="M194.5,144.3c0-0.6,0-1.1-0.1-1.7h1l0.1,1l0,0c0.3-0.6,1-1.1,2-1.1c0.8,0,2.2,0.5,2.2,2.6v3.7h-1.1v-3.5
		c0-1-0.4-1.8-1.4-1.8c-0.7,0-1.3,0.5-1.5,1.1c-0.1,0.1-0.1,0.3-0.1,0.5v3.7h-1.1L194.5,144.3L194.5,144.3z"/>
	<path class="st1" d="M206.7,139.8v7.4c0,0.5,0,1.2,0.1,1.6h-1v-1.1l0,0c-0.3,0.7-1.1,1.2-2.1,1.2c-1.5,0-2.6-1.3-2.6-3.1
		c0-2,1.3-3.3,2.7-3.3c0.9,0,1.6,0.4,1.8,0.9l0,0v-3.7h1.1V139.8z M205.6,145.1c0-0.1,0-0.3,0-0.5c-0.2-0.7-0.8-1.3-1.6-1.3
		c-1.2,0-1.8,1-1.8,2.4c0,1.2,0.6,2.3,1.8,2.3c0.7,0,1.4-0.5,1.6-1.3c0-0.2,0-0.3,0-0.5V145.1z"/>
	<path class="st1" d="M209.8,140.9c0,0.4-0.3,0.7-0.7,0.7s-0.7-0.3-0.7-0.7c0-0.4,0.3-0.7,0.7-0.7
		C209.6,140.2,209.8,140.5,209.8,140.9z M208.6,148.8v-6.2h1.1v6.1h-1.1V148.8z"/>
	<path class="st1" d="M215.9,148.5c-0.3,0.2-0.9,0.4-1.8,0.4c-1.8,0-3-1.2-3-3.1s1.3-3.2,3.3-3.2c0.7,0,1.2,0.2,1.5,0.3l-0.3,0.9
		c-0.3-0.2-0.7-0.3-1.3-0.3c-1.4,0-2.2,1-2.2,2.3c0,1.4,0.9,2.3,2.1,2.3c0.6,0,1-0.2,1.4-0.3L215.9,148.5z"/>
	<path class="st1" d="M220.6,148.8l-0.1-0.8l0,0c-0.3,0.5-1,0.9-1.9,0.9c-1.2,0-1.9-0.9-1.9-1.8c0-1.5,1.3-2.3,3.7-2.3v-0.1
		c0-0.5-0.1-1.4-1.4-1.4c-0.6,0-1.2,0.2-1.6,0.5l-0.3-0.7c0.5-0.3,1.2-0.5,2-0.5c1.9,0,2.3,1.3,2.3,2.5v2.3c0,0.5,0,1,0.1,1.5h-0.9
		V148.8z M220.4,145.6c-1.2,0-2.6,0.2-2.6,1.4c0,0.7,0.5,1.1,1,1.1c0.8,0,1.3-0.5,1.5-1c0-0.1,0.1-0.2,0.1-0.4V145.6z"/>
	<path class="st1" d="M223.3,144.6c0-0.8,0-1.4,0-2h1l0.1,1l0,0c0.5-0.7,1.2-1.2,2.2-1.2c1.5,0,2.6,1.3,2.6,3.1
		c0,2.2-1.3,3.3-2.8,3.3c-0.8,0-1.5-0.4-1.9-1l0,0v3.3h-1.1v-6.5H223.3z M224.4,146.3c0,0.2,0,0.3,0.1,0.5c0.2,0.8,0.9,1.3,1.7,1.3
		c1.2,0,1.9-1,1.9-2.4c0-1.2-0.6-2.3-1.8-2.3c-0.8,0-1.5,0.5-1.7,1.4c0,0.1-0.1,0.3-0.1,0.5L224.4,146.3L224.4,146.3z"/>
	<path class="st1" d="M231.1,145.9c0,1.5,1,2.1,2.1,2.1c0.8,0,1.3-0.1,1.7-0.3l0.2,0.8c-0.4,0.2-1.1,0.4-2,0.4c-1.9,0-3-1.2-3-3.1
		c0-1.8,1.1-3.3,2.9-3.3c2,0,2.5,1.8,2.5,2.9c0,0.2,0,0.4,0,0.5H231.1z M234.4,145.1c0-0.7-0.3-1.8-1.5-1.8c-1.1,0-1.6,1-1.7,1.8
		H234.4z M234.6,140l-1.5,1.8h-0.8l1.1-1.8H234.6z"/>
	<path class="st1" d="M236.7,147.6c0.3,0.2,0.9,0.4,1.5,0.4c0.8,0,1.2-0.4,1.2-0.9s-0.3-0.8-1.1-1.1c-1.1-0.4-1.6-1-1.6-1.7
		c0-1,0.8-1.8,2.1-1.8c0.6,0,1.2,0.2,1.5,0.4l-0.3,0.8c-0.2-0.2-0.7-0.4-1.3-0.4c-0.7,0-1,0.4-1,0.8c0,0.5,0.4,0.7,1.2,1
		c1.1,0.4,1.6,0.9,1.6,1.8c0,1.1-0.8,1.8-2.3,1.8c-0.7,0-1.3-0.2-1.7-0.4L236.7,147.6z"/>
	<path class="st1" d="M244.4,147.6c0.3,0.2,0.9,0.4,1.5,0.4c0.8,0,1.2-0.4,1.2-0.9s-0.3-0.8-1.1-1.1c-1.1-0.4-1.6-1-1.6-1.7
		c0-1,0.8-1.8,2.1-1.8c0.6,0,1.2,0.2,1.5,0.4l-0.3,0.8c-0.2-0.2-0.7-0.4-1.3-0.4c-0.7,0-1,0.4-1,0.8c0,0.5,0.4,0.7,1.2,1
		c1.1,0.4,1.6,0.9,1.6,1.8c0,1.1-0.8,1.8-2.3,1.8c-0.7,0-1.3-0.2-1.7-0.4L244.4,147.6z"/>
	<path class="st1" d="M254.6,147.1c0,0.6,0,1.2,0.1,1.7h-1l-0.1-1l0,0c-0.3,0.5-0.9,1.1-2,1.1c-1,0-2.1-0.5-2.1-2.7v-3.6h1.1v3.4
		c0,1.2,0.4,1.9,1.4,1.9c0.7,0,1.3-0.5,1.5-1c0.1-0.2,0.1-0.4,0.1-0.6v-3.7h1.1v4.5H254.6z"/>
	<path class="st1" d="M256.5,144.5c0-0.7,0-1.3,0-1.9h1v1.2l0,0c0.3-0.8,0.9-1.3,1.7-1.3c0.1,0,0.2,0,0.3,0v1c-0.1,0-0.2,0-0.4,0
		c-0.8,0-1.3,0.6-1.5,1.4c0,0.2-0.1,0.3-0.1,0.5v3.3h-1.1v-4.2H256.5z"/>
	<path class="st1" d="M268.4,147.1c0,0.6,0,1.2,0.1,1.7h-1l-0.1-1l0,0c-0.3,0.5-0.9,1.1-2,1.1c-1,0-2.1-0.5-2.1-2.7v-3.6h1.1v3.4
		c0,1.2,0.4,1.9,1.4,1.9c0.7,0,1.3-0.5,1.5-1c0.1-0.2,0.1-0.4,0.1-0.6v-3.7h1.1v4.5H268.4z"/>
	<path class="st1" d="M270.2,144.3c0-0.6,0-1.1,0-1.7h1l0.1,1l0,0c0.3-0.6,1-1.1,2-1.1c0.8,0,2.2,0.5,2.2,2.6v3.7h-1.1v-3.5
		c0-1-0.4-1.8-1.4-1.8c-0.7,0-1.3,0.5-1.5,1.1c-0.1,0.1-0.1,0.3-0.1,0.5v3.7h-1.1v-4.5H270.2z"/>
	<path class="st1" d="M281.3,140.9v1.8h1.6v0.8h-1.6v3.3c0,0.8,0.2,1.2,0.8,1.2c0.3,0,0.5,0,0.6-0.1l0.1,0.8c-0.2,0.1-0.6,0.2-1,0.2
		c-0.5,0-0.9-0.2-1.2-0.5c-0.3-0.3-0.4-0.9-0.4-1.6v-3.3h-0.9v-0.9h0.9v-1.5L281.3,140.9z"/>
	<path class="st1" d="M287.5,148.8l-0.1-0.8l0,0c-0.3,0.5-1,0.9-1.9,0.9c-1.2,0-1.9-0.9-1.9-1.8c0-1.5,1.3-2.3,3.7-2.3v-0.1
		c0-0.5-0.1-1.4-1.4-1.4c-0.6,0-1.2,0.2-1.6,0.5l-0.3-0.7c0.5-0.3,1.2-0.5,2-0.5c1.9,0,2.3,1.3,2.3,2.5v2.3c0,0.5,0,1,0.1,1.5h-0.9
		V148.8z M287.3,145.6c-1.2,0-2.6,0.2-2.6,1.4c0,0.7,0.5,1.1,1,1.1c0.8,0,1.3-0.5,1.5-1c0-0.1,0.1-0.2,0.1-0.4V145.6z"/>
	<path class="st1" d="M295.3,147.1c0,0.6,0,1.2,0.1,1.7h-1l-0.1-1l0,0c-0.3,0.5-0.9,1.1-2,1.1c-1,0-2.1-0.5-2.1-2.7v-3.6h1.1v3.4
		c0,1.2,0.4,1.9,1.4,1.9c0.7,0,1.3-0.5,1.5-1c0.1-0.2,0.1-0.4,0.1-0.6v-3.7h1.1v4.5H295.3z"/>
	<path class="st1" d="M297.7,142.6l0.9,1.3c0.2,0.3,0.4,0.7,0.6,1l0,0c0.2-0.4,0.4-0.7,0.6-1l0.9-1.3h1.2l-2.1,3l2.1,3.2h-1.3
		l-0.9-1.4c-0.2-0.4-0.4-0.7-0.7-1.1l0,0c-0.2,0.4-0.4,0.7-0.6,1.1l-0.9,1.4h-1.2l2.2-3.1l-2.1-3h1.3V142.6z"/>
	<path class="st1" d="M311,139.8v7.4c0,0.5,0,1.2,0.1,1.6h-1l-0.1-1.1l0,0c-0.3,0.7-1.1,1.2-2.1,1.2c-1.5,0-2.6-1.3-2.6-3.1
		c0-2,1.2-3.3,2.7-3.3c0.9,0,1.6,0.4,1.8,0.9l0,0v-3.7h1.2V139.8z M309.9,145.1c0-0.1,0-0.3-0.1-0.5c-0.2-0.7-0.8-1.3-1.6-1.3
		c-1.1,0-1.8,1-1.8,2.4c0,1.2,0.6,2.3,1.8,2.3c0.7,0,1.4-0.5,1.6-1.3c0-0.2,0.1-0.3,0.1-0.5V145.1z"/>
	<path class="st1" d="M313.5,145.9c0,1.5,1,2.1,2.1,2.1c0.8,0,1.3-0.1,1.7-0.3l0.2,0.8c-0.4,0.2-1.1,0.4-2,0.4c-1.9,0-3-1.2-3-3.1
		c0-1.8,1.1-3.3,2.9-3.3c2,0,2.5,1.8,2.5,2.9c0,0.2,0,0.4,0,0.5H313.5z M316.7,145.1c0-0.7-0.3-1.8-1.5-1.8c-1.1,0-1.6,1-1.7,1.8
		H316.7z"/>
	<path class="st1" d="M45.3,156.5c-0.2,0-0.5,0-0.8,0.1c-1.7,0.3-2.7,1.6-2.9,2.9l0,0c0.4-0.5,1.1-0.9,2-0.9c1.5,0,2.5,1,2.5,2.7
		c0,1.5-1,2.9-2.7,2.9c-1.8,0-2.9-1.4-2.9-3.5c0-1.6,0.6-2.9,1.4-3.7c0.7-0.7,1.6-1.1,2.6-1.2c0.3-0.1,0.6-0.1,0.8-0.1
		C45.3,155.7,45.3,156.5,45.3,156.5z M45,161.2c0-1.2-0.7-1.9-1.7-1.9c-0.7,0-1.3,0.4-1.6,1c-0.1,0.1-0.1,0.3-0.1,0.5
		c0,1.4,0.6,2.4,1.8,2.4C44.4,163.2,45,162.4,45,161.2z"/>
	<path class="st1" d="M50.8,158c0,1.7-0.9,2.6-2,2.6c-1,0-1.9-0.8-1.9-2.5c0-1.6,0.9-2.6,2-2.6C50.1,155.6,50.8,156.5,50.8,158z
		 M47.8,158.1c0,1,0.4,1.8,1.1,1.8c0.7,0,1.1-0.8,1.1-1.9c0-1-0.3-1.8-1.1-1.8C48.2,156.2,47.8,157.1,47.8,158.1z M48.8,164.1
		l4.8-8.5h0.7l-4.8,8.5H48.8z M56.2,161.4c0,1.7-0.9,2.6-2,2.6c-1,0-1.9-0.8-1.9-2.5s0.9-2.6,2-2.6C55.4,159,56.2,159.8,56.2,161.4z
		 M53.2,161.5c0,1,0.4,1.8,1.1,1.8c0.7,0,1.1-0.8,1.1-1.9c0-1-0.3-1.8-1.1-1.8S53.2,160.5,53.2,161.5z"/>
	<path class="st1" d="M65.4,154.9v7.4c0,0.5,0,1.2,0.1,1.6h-1l-0.1-1.1l0,0c-0.3,0.7-1.1,1.2-2.1,1.2c-1.5,0-2.6-1.3-2.6-3.1
		c0-2,1.3-3.3,2.7-3.3c0.9,0,1.6,0.4,1.8,0.9l0,0v-3.7h1.2V154.9z M64.3,160.3c0-0.1,0-0.3-0.1-0.5c-0.2-0.7-0.8-1.3-1.6-1.3
		c-1.1,0-1.8,1-1.8,2.4c0,1.2,0.6,2.3,1.8,2.3c0.7,0,1.4-0.5,1.6-1.3c0-0.2,0.1-0.3,0.1-0.5V160.3z"/>
	<path class="st1" d="M67.9,161.1c0,1.5,1,2.1,2.1,2.1c0.8,0,1.3-0.1,1.7-0.3l0.2,0.8c-0.4,0.2-1.1,0.4-2,0.4c-1.9,0-3-1.2-3-3.1
		c0-1.8,1.1-3.3,2.9-3.3c2,0,2.5,1.8,2.5,2.9c0,0.2,0,0.4,0,0.5H67.9z M71.2,160.3c0-0.7-0.3-1.8-1.5-1.8c-1.1,0-1.6,1-1.7,1.8H71.2
		z"/>
	<path class="st1" d="M76.3,154.9h1.1v9h-1.1V154.9z"/>
	<path class="st1" d="M79.9,161.1c0,1.5,1,2.1,2.1,2.1c0.8,0,1.3-0.1,1.7-0.3l0.2,0.8c-0.4,0.2-1.1,0.4-2,0.4c-1.9,0-3-1.2-3-3.1
		c0-1.8,1.1-3.3,2.9-3.3c2,0,2.5,1.8,2.5,2.9c0,0.2,0,0.4,0,0.5H79.9z M83.2,160.3c0-0.7-0.3-1.8-1.5-1.8c-1.1,0-1.6,1-1.7,1.8H83.2
		z"/>
	<path class="st1" d="M90.7,162.3c0,0.6,0,1.2,0.1,1.7h-1l-0.1-1l0,0c-0.3,0.5-0.9,1.1-2,1.1c-1,0-2.1-0.5-2.1-2.7v-3.6h1.1v3.4
		c0,1.2,0.4,1.9,1.4,1.9c0.7,0,1.3-0.5,1.5-1c0.1-0.2,0.1-0.4,0.1-0.6v-3.8h1.1L90.7,162.3L90.7,162.3z"/>
	<path class="st1" d="M92.6,159.7c0-0.7,0-1.3-0.1-1.9h1v1.2h0.1c0.3-0.8,0.9-1.3,1.7-1.3c0.1,0,0.2,0,0.3,0v1c-0.1,0-0.2,0-0.4,0
		c-0.8,0-1.3,0.6-1.5,1.4c0,0.2-0.1,0.3-0.1,0.5v3.3h-1.1v-4.2H92.6z"/>
	<path class="st1" d="M100,161.1c0,1.5,1,2.1,2.1,2.1c0.8,0,1.3-0.1,1.7-0.3l0.2,0.8c-0.4,0.2-1.1,0.4-2,0.4c-1.9,0-3-1.2-3-3.1
		c0-1.8,1.1-3.3,2.9-3.3c2,0,2.5,1.8,2.5,2.9c0,0.2,0,0.4,0,0.5H100z M103.3,160.3c0-0.7-0.3-1.8-1.5-1.8c-1.1,0-1.6,1-1.7,1.8
		H103.3z"/>
	<path class="st1" d="M109.5,163.9v-5.3h-2.6v5.3h-1.1v-5.3h-0.9v-0.8h0.9v-0.2c0-0.9,0.2-1.6,0.7-2.1c0.4-0.4,0.9-0.6,1.5-0.6
		c0.4,0,0.7,0.1,0.9,0.2l-0.2,0.8c-0.2-0.1-0.4-0.2-0.7-0.2c-0.9,0-1.1,0.7-1.1,1.7v0.3h2.6v-0.3c0-0.9,0.2-1.6,0.7-2.1
		c0.4-0.4,1-0.6,1.5-0.6c0.4,0,0.7,0.1,0.9,0.2l-0.1,0.9c-0.2-0.1-0.4-0.1-0.7-0.1c-0.9,0-1.2,0.8-1.2,1.8v0.3h1.5v0.8h-1.5v5.3
		L109.5,163.9L109.5,163.9z"/>
	<path class="st1" d="M113.5,161.1c0,1.5,1,2.1,2.1,2.1c0.8,0,1.3-0.1,1.7-0.3l0.2,0.8c-0.4,0.2-1.1,0.4-2,0.4c-1.9,0-3-1.2-3-3.1
		c0-1.8,1.1-3.3,2.9-3.3c2,0,2.5,1.8,2.5,2.9c0,0.2,0,0.4,0,0.5H113.5z M116.8,160.3c0-0.7-0.3-1.8-1.5-1.8c-1.1,0-1.6,1-1.7,1.8
		H116.8z"/>
	<path class="st1" d="M123.6,163.7c-0.3,0.2-0.9,0.4-1.8,0.4c-1.8,0-3-1.2-3-3.1s1.3-3.2,3.3-3.2c0.7,0,1.2,0.2,1.5,0.3l-0.3,0.9
		c-0.3-0.2-0.7-0.3-1.3-0.3c-1.4,0-2.2,1-2.2,2.3c0,1.4,0.9,2.3,2.1,2.3c0.6,0,1-0.2,1.4-0.3L123.6,163.7z"/>
	<path class="st1" d="M126.4,156v1.8h1.6v0.8h-1.6v3.3c0,0.8,0.2,1.2,0.8,1.2c0.3,0,0.5,0,0.6-0.1l0.1,0.8c-0.2,0.1-0.6,0.2-1,0.2
		c-0.5,0-0.9-0.2-1.2-0.5c-0.3-0.3-0.4-0.9-0.4-1.6v-3.3h-0.9v-0.8h0.9v-1.5L126.4,156z"/>
	<path class="st1" d="M130.5,156.1c0,0.4-0.3,0.7-0.7,0.7s-0.7-0.3-0.7-0.7c0-0.4,0.3-0.7,0.7-0.7S130.5,155.7,130.5,156.1z
		 M129.3,163.9v-6.1h1.1v6.1H129.3z"/>
	<path class="st1" d="M132.3,163.9v-5.3h-0.9v-0.8h0.9v-0.3c0-0.9,0.2-1.6,0.7-2.1c0.4-0.4,1-0.6,1.5-0.6c0.4,0,0.7,0.1,0.9,0.2
		l-0.2,0.9c-0.2-0.1-0.4-0.1-0.7-0.1c-0.9,0-1.2,0.8-1.2,1.8v0.3h1.5v0.8h-1.5v5.3L132.3,163.9L132.3,163.9z"/>
	<path class="st1" d="M139.9,156v1.8h1.6v0.8h-1.6v3.3c0,0.8,0.2,1.2,0.8,1.2c0.3,0,0.5,0,0.6-0.1l0.1,0.8c-0.2,0.1-0.6,0.2-1,0.2
		c-0.5,0-0.9-0.2-1.2-0.5s-0.4-0.9-0.4-1.6v-3.3h-0.9v-0.8h0.9v-1.5L139.9,156z"/>
	<path class="st1" d="M148.2,160.8c0,2.3-1.6,3.2-3,3.2c-1.7,0-2.9-1.2-2.9-3.1c0-2,1.3-3.2,3-3.2S148.2,158.9,148.2,160.8z
		 M143.4,160.9c0,1.3,0.8,2.3,1.9,2.3c1.1,0,1.9-1,1.9-2.4c0-1-0.5-2.3-1.8-2.3C143.9,158.5,143.4,159.7,143.4,160.9z"/>
	<path class="st1" d="M151,156v1.8h1.6v0.8H151v3.3c0,0.8,0.2,1.2,0.8,1.2c0.3,0,0.5,0,0.6-0.1l0.1,0.8c-0.2,0.1-0.6,0.2-1,0.2
		c-0.5,0-0.9-0.2-1.2-0.5s-0.4-0.9-0.4-1.6v-3.3h-1v-0.8h0.9v-1.5L151,156z"/>
	<path class="st1" d="M157.2,163.9l-0.1-0.8l0,0c-0.3,0.5-1,0.9-1.9,0.9c-1.2,0-1.9-0.9-1.9-1.8c0-1.5,1.3-2.3,3.7-2.3v-0.1
		c0-0.5-0.1-1.4-1.4-1.4c-0.6,0-1.2,0.2-1.6,0.5l-0.3-0.7c0.5-0.3,1.2-0.5,2-0.5c1.9,0,2.3,1.3,2.3,2.5v2.3c0,0.5,0,1,0.1,1.5h-0.9
		V163.9z M157,160.8c-1.2,0-2.6,0.2-2.6,1.4c0,0.7,0.5,1.1,1,1.1c0.8,0,1.3-0.5,1.5-1c0-0.1,0.1-0.2,0.1-0.4V160.8z"/>
	<path class="st1" d="M159.9,154.9h1.1v9h-1.1V154.9z"/>
	<path class="st1" d="M162.5,163.3c0-0.5,0.3-0.8,0.8-0.8s0.7,0.3,0.7,0.8s-0.3,0.8-0.8,0.8C162.8,164.1,162.5,163.7,162.5,163.3z"
		/>
</g>
<g>
	<g>
		<g>
			<path class="st2" d="M253.3,44.6c-0.4-0.2-0.9-0.4-1.5-0.5c-0.6-0.1-1.2-0.2-1.8-0.2c-0.8,0-1.7,0.1-2.4,0.4
				c-0.8,0.2-1.4,0.6-2,1.1c-0.6,0.5-1.1,1.1-1.5,1.8c-0.4,0.7-0.6,1.5-0.8,2.5c0.4-0.6,1-1.1,1.8-1.5c0.8-0.5,1.8-0.7,3-0.7
				c1,0,2,0.2,2.8,0.5c0.8,0.3,1.6,0.8,2.2,1.3c0.6,0.6,1.1,1.3,1.4,2.1c0.3,0.8,0.5,1.8,0.5,2.8s-0.2,2-0.6,2.9
				c-0.4,0.9-0.9,1.6-1.6,2.2c-0.7,0.6-1.5,1.1-2.5,1.5c-0.9,0.4-2,0.5-3.1,0.5c-1.1,0-2.1-0.2-3.1-0.6c-1-0.4-1.9-1-2.6-1.8
				c-0.7-0.8-1.3-1.7-1.8-2.9c-0.4-1.1-0.7-2.5-0.7-4c0-1.8,0.3-3.4,0.8-4.9c0.5-1.5,1.3-2.7,2.3-3.7c1-1,2.2-1.8,3.5-2.4
				c1.4-0.6,2.9-0.8,4.5-0.8c0.9,0,1.8,0.1,2.5,0.3c0.7,0.2,1.3,0.4,1.7,0.7L253.3,44.6z M243.6,54.3c0,0.5,0.1,1,0.3,1.4
				s0.5,0.8,0.8,1.1c0.3,0.3,0.7,0.5,1.1,0.7c0.4,0.2,0.9,0.2,1.3,0.2c0.5,0,1-0.1,1.4-0.2s0.8-0.4,1.1-0.7c0.3-0.3,0.6-0.7,0.8-1.1
				c0.2-0.4,0.3-0.9,0.3-1.4c0-0.5-0.1-1-0.3-1.4c-0.2-0.4-0.4-0.8-0.8-1.1s-0.7-0.5-1.1-0.7c-0.4-0.2-0.9-0.2-1.4-0.2
				c-0.5,0-0.9,0.1-1.4,0.2c-0.4,0.2-0.8,0.4-1.1,0.7c-0.3,0.3-0.6,0.6-0.8,1.1C243.7,53.3,243.6,53.8,243.6,54.3z"/>
			<path class="st2" d="M257.2,45.4c0-0.7,0.1-1.4,0.4-2c0.3-0.6,0.7-1.2,1.1-1.6s1-0.8,1.6-1.1c0.6-0.3,1.3-0.4,2-0.4
				s1.4,0.1,2,0.4c0.6,0.3,1.2,0.6,1.6,1.1c0.5,0.5,0.9,1,1.1,1.6c0.3,0.6,0.4,1.3,0.4,2c0,0.7-0.1,1.4-0.4,2
				c-0.3,0.6-0.7,1.2-1.1,1.6c-0.5,0.4-1,0.8-1.6,1.1c-0.6,0.3-1.3,0.4-2,0.4s-1.4-0.1-2-0.4c-0.6-0.3-1.2-0.6-1.6-1.1
				c-0.5-0.5-0.8-1-1.1-1.6C257.3,46.8,257.2,46.1,257.2,45.4z M260.2,60.8l14.2-20.1h3.6l-14.2,20.1H260.2z M260.3,45.4
				c0,0.7,0.2,1.2,0.6,1.6c0.4,0.4,0.9,0.6,1.5,0.6c0.6,0,1.1-0.2,1.5-0.6s0.6-0.9,0.6-1.6c0-0.6-0.2-1.2-0.6-1.6
				c-0.4-0.4-0.9-0.6-1.5-0.6c-0.6,0-1.1,0.2-1.5,0.6C260.5,44.3,260.3,44.8,260.3,45.4z M270.7,56.1c0-0.7,0.1-1.4,0.4-2
				c0.3-0.6,0.7-1.2,1.1-1.6c0.5-0.5,1-0.8,1.6-1.1c0.6-0.3,1.3-0.4,2-0.4s1.4,0.1,2,0.4s1.2,0.6,1.6,1.1s0.9,1,1.1,1.6
				c0.3,0.6,0.4,1.3,0.4,2c0,0.7-0.1,1.4-0.4,2c-0.3,0.6-0.7,1.2-1.1,1.6c-0.5,0.4-1,0.8-1.6,1.1c-0.6,0.3-1.3,0.4-2,0.4
				s-1.4-0.1-2-0.4c-0.6-0.3-1.2-0.6-1.6-1.1c-0.5-0.5-0.8-1-1.1-1.6C270.9,57.5,270.7,56.8,270.7,56.1z M273.8,56.1
				c0,0.7,0.2,1.2,0.6,1.6c0.4,0.4,0.9,0.6,1.5,0.6c0.6,0,1.1-0.2,1.5-0.6c0.4-0.4,0.6-0.9,0.6-1.6c0-0.6-0.2-1.2-0.6-1.6
				c-0.4-0.4-0.9-0.6-1.5-0.6c-0.6,0-1.1,0.2-1.5,0.6C274,55,273.8,55.5,273.8,56.1z"/>
		</g>
	</g>
	<g>
		<g>
			<path class="st2" d="M102.5,56.3c0-0.1-0.1-0.3-0.1-0.6c0-0.2,0-0.5,0-0.7c0-0.8,0.1-1.6,0.4-2.3c0.3-0.7,0.7-1.4,1.3-1.9
				c0.6-0.6,1.2-1,2.1-1.3c0.8-0.3,1.8-0.5,2.8-0.5c1,0,1.9,0.2,2.7,0.5c0.8,0.3,1.5,0.7,2.1,1.3c0.6,0.5,1,1.1,1.3,1.9
				c0.3,0.7,0.4,1.4,0.4,2.2c0,1.2-0.3,2.2-0.9,3.2c-0.6,0.9-1.5,1.7-2.6,2.4l-3.5,2.1c-0.4,0.2-0.7,0.5-0.9,0.7
				c-0.3,0.3-0.5,0.6-0.6,0.9h8.7v3.3h-13.4c0-0.8,0.1-1.6,0.2-2.3c0.1-0.7,0.4-1.4,0.7-2c0.3-0.6,0.8-1.3,1.3-1.8
				c0.5-0.6,1.2-1.1,2-1.6l3-1.8c0.8-0.5,1.3-0.9,1.7-1.4c0.3-0.5,0.5-1.1,0.5-1.7c0-0.6-0.2-1.2-0.7-1.7c-0.5-0.5-1.1-0.8-2-0.8
				c-1,0-1.7,0.3-2.2,0.9c-0.5,0.6-0.7,1.3-0.7,2.1c0,0.3,0,0.7,0.1,1L102.5,56.3z"/>
			<path class="st2" d="M117.6,58.5c0-1.2,0.1-2.3,0.3-3.4c0.2-1.1,0.6-2.1,1.3-3c0.6-0.9,1.4-1.6,2.4-2.2c1-0.6,2.2-0.8,3.6-0.8
				c1.4,0,2.6,0.3,3.6,0.8c1,0.6,1.8,1.3,2.4,2.2c0.6,0.9,1,2,1.3,3c0.2,1.1,0.3,2.2,0.3,3.4s-0.1,2.3-0.3,3.4
				c-0.2,1.1-0.7,2.1-1.3,3c-0.6,0.9-1.4,1.6-2.4,2.2s-2.2,0.8-3.6,0.8c-1.4,0-2.6-0.3-3.6-0.8c-1-0.6-1.8-1.3-2.4-2.2
				c-0.6-0.9-1-2-1.3-3C117.7,60.8,117.6,59.7,117.6,58.5z M121.4,58.5c0,0.9,0.1,1.8,0.2,2.6c0.1,0.8,0.4,1.5,0.8,2
				c0.3,0.4,0.6,0.8,1.1,1.1c0.4,0.3,1,0.4,1.6,0.4c0.7,0,1.2-0.1,1.6-0.4c0.4-0.3,0.8-0.6,1.1-1.1c0.4-0.5,0.6-1.2,0.8-2
				c0.1-0.8,0.2-1.7,0.2-2.6s-0.1-1.8-0.2-2.6c-0.1-0.8-0.4-1.5-0.8-2c-0.3-0.4-0.6-0.8-1.1-1.1c-0.4-0.3-1-0.4-1.6-0.4
				c-0.6,0-1.2,0.1-1.6,0.4c-0.4,0.3-0.8,0.6-1.1,1.1c-0.4,0.5-0.6,1.2-0.8,2C121.5,56.7,121.4,57.6,121.4,58.5z"/>
			<path class="st2" d="M92.8,85.8c0,0.4,0.2,0.8,0.5,1.2c0.3,0.3,0.8,0.5,1.5,0.5c0.5,0,0.9-0.1,1.1-0.3c0.2-0.2,0.4-0.5,0.4-0.8
				c0-0.3-0.1-0.5-0.3-0.7c-0.2-0.2-0.5-0.3-0.9-0.4l-1.4-0.3c-1.1-0.2-1.9-0.7-2.3-1.2s-0.7-1.3-0.7-2c0-0.5,0.1-1,0.3-1.4
				s0.5-0.8,0.9-1.1s0.8-0.6,1.3-0.8c0.5-0.2,1-0.3,1.6-0.3c0.8,0,1.4,0.1,2,0.3c0.5,0.2,1,0.5,1.3,0.8s0.6,0.7,0.7,1
				c0.2,0.4,0.3,0.7,0.3,1l-2.5,0.6c0-0.2-0.1-0.3-0.1-0.5c-0.1-0.2-0.2-0.3-0.3-0.5s-0.3-0.3-0.5-0.4c-0.2-0.1-0.5-0.1-0.8-0.1
				c-0.4,0-0.7,0.1-1,0.3c-0.3,0.2-0.4,0.5-0.4,0.8c0,0.3,0.1,0.5,0.3,0.6c0.2,0.2,0.4,0.3,0.7,0.3l1.6,0.3c1.1,0.2,1.9,0.6,2.4,1.2
				c0.5,0.6,0.8,1.3,0.8,2.1c0,0.4-0.1,0.9-0.3,1.3c-0.2,0.4-0.4,0.8-0.8,1.2c-0.4,0.3-0.8,0.6-1.3,0.8s-1.2,0.3-1.9,0.3
				c-0.8,0-1.5-0.1-2.1-0.4s-1-0.5-1.4-0.9c-0.4-0.3-0.6-0.7-0.8-1.1s-0.3-0.7-0.3-1.1L92.8,85.8z"/>
			<path class="st2" d="M100.7,86.4c0-0.5,0.1-0.9,0.3-1.3c0.2-0.4,0.4-0.7,0.7-1c0.3-0.3,0.6-0.5,1-0.7c0.4-0.2,0.8-0.3,1.3-0.4
				l2.7-0.4c0.3,0,0.5-0.1,0.6-0.3c0.1-0.1,0.2-0.3,0.2-0.5c0-0.4-0.2-0.7-0.5-1s-0.8-0.4-1.4-0.4c-0.7,0-1.2,0.2-1.5,0.5
				s-0.5,0.8-0.6,1.2l-2.6-0.6c0-0.4,0.2-0.9,0.4-1.3c0.2-0.4,0.5-0.8,0.9-1.2s0.9-0.6,1.4-0.8c0.6-0.2,1.2-0.3,2-0.3
				c0.9,0,1.6,0.1,2.2,0.3c0.6,0.2,1.1,0.5,1.5,0.9c0.4,0.4,0.7,0.8,0.8,1.3c0.2,0.5,0.3,1,0.3,1.6v5.4c0,0.3,0,0.6,0,0.9
				c0,0.3,0.1,0.6,0.1,0.8h-2.7c0-0.1-0.1-0.4-0.1-0.6c0-0.3,0-0.5,0-0.7c-0.3,0.4-0.7,0.8-1.2,1.1c-0.5,0.3-1.2,0.5-2,0.5
				c-0.6,0-1.1-0.1-1.6-0.3c-0.5-0.2-0.9-0.4-1.2-0.7s-0.6-0.7-0.7-1C100.8,87.2,100.7,86.8,100.7,86.4z M105.1,87.5
				c0.3,0,0.6,0,0.9-0.1s0.5-0.2,0.8-0.4c0.2-0.2,0.4-0.5,0.5-0.8c0.1-0.3,0.2-0.7,0.2-1.2v-0.5l-2.5,0.4c-0.4,0.1-0.7,0.2-1,0.4
				c-0.3,0.2-0.4,0.5-0.4,1c0,0.3,0.1,0.6,0.4,0.9C104.3,87.3,104.7,87.5,105.1,87.5z"/>
			<path class="st2" d="M113.4,89.4V73.2h3v16.1H113.4z"/>
			<path class="st2" d="M118.8,86.4c0-0.5,0.1-0.9,0.3-1.3c0.2-0.4,0.4-0.7,0.7-1c0.3-0.3,0.6-0.5,1-0.7c0.4-0.2,0.8-0.3,1.3-0.4
				l2.7-0.4c0.3,0,0.5-0.1,0.6-0.3c0.1-0.1,0.2-0.3,0.2-0.5c0-0.4-0.2-0.7-0.5-1s-0.8-0.4-1.4-0.4c-0.7,0-1.2,0.2-1.5,0.5
				s-0.5,0.8-0.6,1.2l-2.6-0.6c0-0.4,0.2-0.9,0.4-1.3c0.2-0.4,0.5-0.8,0.9-1.2s0.9-0.6,1.4-0.8c0.6-0.2,1.2-0.3,2-0.3
				c0.9,0,1.6,0.1,2.2,0.3c0.6,0.2,1.1,0.5,1.5,0.9c0.4,0.4,0.7,0.8,0.8,1.3c0.2,0.5,0.3,1,0.3,1.6v5.4c0,0.3,0,0.6,0,0.9
				c0,0.3,0.1,0.6,0.1,0.8h-2.7c0-0.1-0.1-0.4-0.1-0.6c0-0.3,0-0.5,0-0.7c-0.3,0.4-0.7,0.8-1.2,1.1c-0.5,0.3-1.2,0.5-2,0.5
				c-0.6,0-1.1-0.1-1.6-0.3c-0.5-0.2-0.9-0.4-1.2-0.7s-0.6-0.7-0.7-1C118.9,87.2,118.8,86.8,118.8,86.4z M123.2,87.5
				c0.3,0,0.6,0,0.9-0.1s0.5-0.2,0.8-0.4c0.2-0.2,0.4-0.5,0.5-0.8c0.1-0.3,0.2-0.7,0.2-1.2v-0.5l-2.5,0.4c-0.4,0.1-0.7,0.2-1,0.4
				c-0.3,0.2-0.4,0.5-0.4,1c0,0.3,0.1,0.6,0.4,0.9C122.4,87.3,122.7,87.5,123.2,87.5z"/>
			<path class="st2" d="M138.2,81.3c-0.3-0.1-0.6-0.1-0.9-0.1c-0.4,0-0.8,0.1-1.1,0.2c-0.3,0.1-0.6,0.3-0.9,0.5
				c-0.3,0.2-0.5,0.6-0.6,0.9c-0.2,0.4-0.2,0.9-0.2,1.5v5h-3v-11h2.9V80c0.2-0.4,0.4-0.6,0.6-0.9c0.3-0.2,0.5-0.4,0.8-0.5
				c0.3-0.1,0.6-0.2,0.9-0.2c0.3,0,0.6-0.1,0.8-0.1c0.1,0,0.2,0,0.3,0c0.1,0,0.2,0,0.3,0V81.3z"/>
			<path class="st2" d="M139.9,74.8c0-0.5,0.2-1,0.5-1.3c0.4-0.4,0.8-0.5,1.3-0.5c0.5,0,1,0.2,1.3,0.5c0.3,0.4,0.5,0.8,0.5,1.3
				c0,0.5-0.2,0.9-0.5,1.3c-0.3,0.4-0.8,0.5-1.3,0.5c-0.5,0-0.9-0.2-1.3-0.5C140.1,75.7,139.9,75.3,139.9,74.8z M140.3,89.4v-11h3
				v11H140.3z"/>
			<path class="st2" d="M156.3,86.2c-0.1,0.5-0.3,0.9-0.6,1.3s-0.6,0.8-1.1,1.1c-0.4,0.3-0.9,0.6-1.5,0.7c-0.6,0.2-1.2,0.3-1.8,0.3
				c-0.8,0-1.5-0.1-2.2-0.4s-1.3-0.6-1.8-1.1c-0.5-0.5-0.9-1.1-1.2-1.9c-0.3-0.7-0.5-1.6-0.5-2.5c0-0.9,0.1-1.7,0.4-2.4
				c0.3-0.7,0.7-1.3,1.2-1.8s1.1-0.9,1.7-1.2c0.7-0.3,1.3-0.4,2-0.4c1.7,0,3,0.5,4,1.5s1.4,2.4,1.4,4.2c0,0.2,0,0.4,0,0.6
				c0,0.2,0,0.3,0,0.3h-7.8c0,0.4,0.1,0.7,0.3,1c0.2,0.3,0.4,0.6,0.6,0.8c0.2,0.2,0.5,0.4,0.9,0.5c0.3,0.1,0.7,0.2,1,0.2
				c0.7,0,1.2-0.2,1.6-0.5c0.4-0.3,0.7-0.7,0.9-1.2L156.3,86.2z M153.5,82.6c0-0.3-0.1-0.5-0.2-0.8c-0.1-0.3-0.2-0.5-0.4-0.7
				c-0.2-0.2-0.5-0.4-0.8-0.5c-0.3-0.1-0.7-0.2-1.1-0.2c-0.4,0-0.7,0.1-1,0.2c-0.3,0.1-0.5,0.3-0.8,0.5s-0.4,0.4-0.5,0.7
				c-0.1,0.3-0.2,0.5-0.2,0.8H153.5z M152,77.1h-2.4l2-3.3h3.4L152,77.1z"/>
			<path class="st2" d="M160.4,85.8c0,0.4,0.2,0.8,0.5,1.2c0.3,0.3,0.8,0.5,1.5,0.5c0.5,0,0.9-0.1,1.1-0.3c0.2-0.2,0.4-0.5,0.4-0.8
				c0-0.3-0.1-0.5-0.3-0.7c-0.2-0.2-0.5-0.3-0.9-0.4l-1.4-0.3c-1.1-0.2-1.9-0.7-2.3-1.2s-0.7-1.3-0.7-2c0-0.5,0.1-1,0.3-1.4
				s0.5-0.8,0.9-1.1s0.8-0.6,1.3-0.8c0.5-0.2,1-0.3,1.6-0.3c0.8,0,1.4,0.1,2,0.3c0.5,0.2,1,0.5,1.3,0.8s0.6,0.7,0.7,1
				c0.2,0.4,0.3,0.7,0.3,1l-2.5,0.6c0-0.2-0.1-0.3-0.1-0.5c-0.1-0.2-0.2-0.3-0.3-0.5s-0.3-0.3-0.5-0.4c-0.2-0.1-0.5-0.1-0.8-0.1
				c-0.4,0-0.7,0.1-1,0.3c-0.3,0.2-0.4,0.5-0.4,0.8c0,0.3,0.1,0.5,0.3,0.6c0.2,0.2,0.4,0.3,0.7,0.3l1.6,0.3c1.1,0.2,1.9,0.6,2.4,1.2
				c0.5,0.6,0.8,1.3,0.8,2.1c0,0.4-0.1,0.9-0.3,1.3c-0.2,0.4-0.4,0.8-0.8,1.2c-0.4,0.3-0.8,0.6-1.3,0.8s-1.2,0.3-1.9,0.3
				c-0.8,0-1.5-0.1-2.1-0.4s-1-0.5-1.4-0.9c-0.4-0.3-0.6-0.7-0.8-1.1s-0.3-0.7-0.3-1.1L160.4,85.8z"/>
		</g>
		<g class="st3">
			<path class="st2" d="M74.6,60.9V49.1h6.8v11.8h11.5v6.6H81.4v11.9h-6.8V67.5H63.1v-6.6H74.6z"/>
		</g>
	</g>
	<g>
		<path class="st4" d="M211.6,47.5c0,0-0.7-0.2-2-0.5c-1.3-0.3-3.1-0.6-5.3-0.8c-1.1-0.1-2.3-0.1-3.6-0.1c-0.6,0-1.3,0-2,0
			c-0.7,0-1.3,0.1-2,0.1c-1.4,0.1-2.8,0.3-4.2,0.5c-0.7,0.1-1.5,0.2-2.2,0.4c-0.7,0.1-1.5,0.3-2.2,0.5c-0.7,0.2-1.4,0.3-2.1,0.5
			c-0.7,0.2-1.4,0.4-2.1,0.7c-1.4,0.5-2.7,1-4,1.6c-1.3,0.6-2.5,1.2-3.5,1.9c-1.1,0.7-2.1,1.3-3,2c-0.9,0.7-1.7,1.3-2.3,1.9
			c-0.7,0.6-1.2,1.2-1.7,1.6c-0.9,0.9-1.3,1.5-1.3,1.5s0.6-0.5,1.6-1.2c0.5-0.4,1.1-0.8,1.9-1.3c0.7-0.5,1.6-1,2.5-1.6
			c0.9-0.5,2-1.1,3.1-1.7c1.1-0.5,2.3-1.1,3.5-1.6c0.6-0.2,1.3-0.5,1.9-0.8c0.6-0.2,1.3-0.5,2-0.7c1.4-0.4,2.7-0.8,4.1-1.2
			c0.7-0.2,1.4-0.3,2.1-0.5c0.7-0.1,1.4-0.3,2.1-0.4c1.4-0.3,2.8-0.5,4.1-0.7c0.7-0.1,1.3-0.2,2-0.3c0.6-0.1,1.3-0.1,1.9-0.2
			c1.2-0.1,2.4-0.2,3.5-0.2c2.2-0.1,4,0,5.3,0.1C210.9,47.4,211.6,47.5,211.6,47.5z"/>
		<path class="st4" d="M213.5,47.7c-0.9-1.6-1.9-3.1-3.2-4.5c0.5,1.6,1.3,3.1,2.1,4.6c-1.4,0.9-2.7,1.9-3.8,3.2
			c1.7-0.7,3.3-1.6,4.8-2.6l0.4-0.3L213.5,47.7z"/>
	</g>
	<g>
		<path class="st5" d="M261.6,71.5c-0.1,0.1-0.3,0.2-0.3,0.2c-0.7,0.4-1.6,0.4-2.3-0.1v0c-0.2-0.4,0.6-0.5,0.5-1l2-1.2
			c-0.2,0.5-0.2,1.2,0,1.8C261.6,71.2,261.8,71.4,261.6,71.5z"/>
		<path class="st6" d="M258.4,66.3C258.4,66.3,258.4,66.3,258.4,66.3C258.4,66.3,258.4,66.3,258.4,66.3c0.2,0,0.3,0.1,0.4,0.1
			c0.1,0,0.2,0,0.2,0c-0.1-0.1-0.2-0.2-0.3-0.4c-0.1-0.2-0.1-0.4-0.1-0.5c0-0.1,0.1-0.1,0.1-0.2c0,0.1,0.1,0.2,0.1,0.2l0,0
			c0,0,0,0,0,0c0,0,0.3,0.3,1.1,0.2c0.9-0.1,1.5,0.1,1.9,0.5c0,0,0-0.1,0-0.1c0,0-0.1-0.1-0.1-0.2c0.2,0,0.3,0.1,0.3,0.2
			c0,0.1,0,0.2,0,0.4c0.1,0,0.3,0.1,0.3,0.2c0.1,0.1,0.1,0.3,0.1,0.4c0-0.1-0.1-0.1-0.1-0.1c0,0-0.1,0-0.1,0c0,0,0,0,0,0l0-0.1
			c0.1,0.3,0.1,0.6,0.1,0.8c0,1.1-0.3,1.8-1.1,2.2l-2.7-2.6l0,0l0,0l0,0l0,0l0,0l0,0c0,0-0.2-0.3-0.3-0.6
			C258.4,66.6,258.4,66.4,258.4,66.3z"/>
		<g>
			<g>
				<path class="st7" d="M252.5,87.2l0.8,0c0,0,0-1.1,0.1-4.5l0-0.5c0.1-2.5,0.2-4.5,0.9-4.5c1.1,0,5.4-0.3,5.6-0.3l-0.1-0.8
					c0,0-4.5,0.3-5.6,0.3c-1.1,0-1.3,1.2-1.4,1.6c-0.2,0.9-0.2,2.1-0.3,3.7l0,0.5C252.4,86.1,252.5,87.2,252.5,87.2z"/>
			</g>
			<g>
				<path class="st7" d="M260.2,85.5c0-0.1,0.2-7.3,0.3-9.5c0.2-2.2,0.7-2.2,1-2.2h1.1v-0.8h-1.1c-1.1,0-1.6,0.8-1.8,3
					c-0.2,2.3-0.3,9.5-0.3,9.6L260.2,85.5z"/>
			</g>
		</g>
		<path class="st8" d="M260.8,72.9c0,0,0.4,0.6,0,0.8c0.1,0.2,1.9,0.1,2.5,0c0.2,0,0.5-0.7,0-0.8C262.6,72.8,260.8,72.8,260.8,72.9z
			"/>
		<g>
			<g>
				<g>
					
						<rect x="254.1" y="85" transform="matrix(7.509825e-02 -0.9972 0.9972 7.509825e-02 155.0818 337.4908)" class="st6" width="10.7" height="0.3"/>
				</g>
				<g>
					<polygon class="st6" points="255.9,88.5 263.6,81.8 263.4,81.5 255.7,88.2 					"/>
				</g>
				<g>
					<polygon class="st6" points="262.2,88.7 262.4,88.5 256.7,81.6 256.5,81.8 					"/>
				</g>
				<g>
					
						<rect x="259.4" y="80.9" transform="matrix(9.437875e-02 -0.9955 0.9955 9.437875e-02 150.3112 335.5254)" class="st6" width="0.3" height="8.4"/>
				</g>
				<g>
					<path class="st6" d="M256,89.5c-0.7-0.9-1.1-2.2-1.1-3.5c0-1.5,0.5-3,1.3-4.3c0.9-1.3,2-2.1,3.2-2.4c0.3-0.1,0.5-0.1,0.8-0.1
						c1.1,0,2.1,0.5,2.9,1.4c0.7,0.9,1.1,2.2,1.1,3.5c0,1.5-0.5,3-1.3,4.3c-0.9,1.3-2,2.1-3.2,2.4c-0.3,0.1-0.5,0.1-0.8,0.1
						C257.8,90.9,256.7,90.4,256,89.5z M259.6,80.2c-2.1,0.4-3.8,3-3.8,5.7c0,2.3,1.3,4,3,4c0.2,0,0.4,0,0.6-0.1
						c2.1-0.4,3.8-3,3.8-5.7c0-2.3-1.3-4-3-4C260,80.2,259.8,80.2,259.6,80.2z"/>
				</g>
				<g>
					<path class="st6" d="M258.7,85.3c0,0.6,0.4,1,0.9,0.9c0.5-0.1,0.9-0.7,0.9-1.3c0-0.6-0.4-1-0.9-0.9
						C259,84.1,258.7,84.6,258.7,85.3z"/>
				</g>
			</g>
			<g>
				<g>
					<path class="st6" d="M251.9,88.7c0,0.7,0.5,1.2,1,1.1c0.6-0.1,1-0.8,1-1.5c0-0.7-0.5-1.2-1-1.1C252.4,87.3,251.9,88,251.9,88.7
						z"/>
				</g>
				<g>
					<path class="st6" d="M252.4,88.6c0,0.4,0.3,0.7,0.6,0.6c0.3-0.1,0.6-0.5,0.6-0.9c0-0.4-0.3-0.7-0.6-0.6
						C252.6,87.8,252.4,88.2,252.4,88.6z"/>
				</g>
				<g>
					<path class="st6" d="M251.5,88.7c0-1,0.6-1.9,1.4-2c0.1,0,0.2,0,0.3,0c0.7,0,1.3,0.7,1.3,1.6c0,1-0.6,1.9-1.4,2
						c-0.1,0-0.2,0-0.3,0C252,90.3,251.5,89.6,251.5,88.7z M253,87.3c-0.5,0.1-0.9,0.7-0.9,1.4c0,0.5,0.3,0.9,0.6,0.9
						c0,0,0.1,0,0.1,0c0.5-0.1,0.9-0.7,0.9-1.4c0-0.5-0.3-0.9-0.6-0.9C253.1,87.3,253.1,87.3,253,87.3z"/>
				</g>
			</g>
		</g>
		<path class="st9" d="M252.9,89.1c0,0,0,1.2-0.3,1.4c-0.5,0.3-1.5,0.3-1.7,0.6c-0.3,0.4,0.7,0.6,2.2,0.4c1.1-0.1,2-0.6,2-0.6
			l-0.6-1.7L252.9,89.1z"/>
		<path class="st6" d="M254.6,90.6c0,0,0,0.5-1.7,0.8c-1.4,0.3-2,0-2.1-0.2c-0.1,0.2,0,0.3,0,0.3s0.2,0.3,1.5,0.2
			c0.9-0.1,1.3-0.3,1.3-0.3l0,0.1c0,0,0.7-0.1,0.9-0.2C254.8,91.1,254.6,90.8,254.6,90.6z"/>
		<path class="st10" d="M265,77.2c0,0-1.9-2.1-4.6-3.1c-0.4,3.6-0.9,8.1-0.9,8.1s3.7,2.7,5.1,1.9C264.6,81.4,265,77.2,265,77.2z"/>
		<path class="st7" d="M264.4,83.8c0,0-3.7,0.3-4.6-2.4c-3.1,0.7-6.7,1.1-6.7,1.1s1.6,3.5,4.7,2.7C261.5,84.7,264.4,83.8,264.4,83.8
			z"/>
		<path class="st9" d="M254.4,89.9c0,0,0.1,1-0.1,1.3c-0.3,0.4-1.4,0.4-1.8,0.8c-0.3,0.3,0.2,0.7,2,0.3c1.1-0.3,1.7-0.9,1.7-0.9
			l-0.2-1.4L254.4,89.9z"/>
		<path class="st11" d="M258.3,79.7c0,0-4.8,1.6-5.7,2.5c-0.7,0.6-0.2,4.8,0.2,7.2c1.2,0.4,2.1,0,2.1,0l0.7-5.6l5.2-1.7
			C260.7,82,258.8,79.8,258.3,79.7z"/>
		<path class="st12" d="M255.5,79.7c0.1-0.1-0.7-0.8-0.8-0.6c0.1-0.1,0.1-0.1,0.2-0.2l0,0c0.7-0.9,1.2-1.6,1.3-2.2
			c0,0,0-0.1,0.1-0.5l0,0c0.4-4.2,1.5-4.7,1.5-4.7l1,0.5c0.1,0.2-0.3,1.2-0.3,1.2c-0.6,1.7-0.9,2.8-1,3.3l0.1,0
			c-0.1,0.4-0.1,0.8-0.2,1C256.2,79.2,255.5,79.7,255.5,79.7z"/>
		<path class="st6" d="M260,81.1c0,0-3.3,0.5-5.6,2.3c-0.7,0.5-0.4,6.6-0.4,6.6s1.4,0.6,2.4-0.1c0.3-1.3,0.2-4.9,0.2-4.9
			s4.3-0.4,5.2-1.2c1.6-1.4,1.3-2.7,1.3-2.7L260,81.1z"/>
		<g>
			<path class="st5" d="M260.1,83.9c0-0.5-0.2-0.8,0-1c0.1-0.3,0.8-0.8,1.2-1.2c0.1-0.1,0.1-0.1,0.2-0.3l0.8,0.7
				c-0.3,0.3-0.4,0.6-0.4,0.6c0,0.3,0,1-0.6,1.3C260.6,84.3,260.2,84.4,260.1,83.9z"/>
		</g>
		<path class="st12" d="M257.5,76l0.1-4.3c0.1-0.1,0.1-0.2,0.1-0.2c0,0,0,0,0,0c0,0,0.4-0.2,0.9-0.4c1-0.4,0.9-0.2,0.9-0.2
			c-0.1,0.2-0.1,0.3-0.2,0.5c0,0-0.1,0.4,0.5,0.5c0.9,0.1,1.6-0.8,1.6-0.8c0.1,0.1,0.1,0.1,0.2,0.2c0.6,0.3,1.6,0.8,1.6,0.8
			c0,0,0,0,0,0c1,0.8,1.3,5.1,1,5.8c0,0-0.4,1.5-1.4,3.1c0,0.2,0,0.3,0,0.3s-0.1,0-0.3,0.1c-0.2,0.3-0.4,0.6-0.6,0.9
			c0.1-0.2-1-0.6-1.1-0.3c0-0.1,0.1-0.2,0.1-0.4c-0.1,0-0.1,0-0.2,0c-0.5,0-0.9-0.1-1.1-0.1c-0.9-0.2-1.5-0.4-1.9-0.7
			c-0.2-0.1-0.5-0.3-0.6-0.5C257.4,80.3,257.4,78.1,257.5,76L257.5,76z"/>
		<g>
			<path class="st13" d="M261.2,81.5c0.6-1.5,1.5-3.5,1.5-4.3c0-0.9-0.1-1.7-0.4-2.7c0,0,0.3,2.6-0.4,4c-0.9,1.8-1.5,2.9-1.5,2.9
				C260.6,81.5,261,81.5,261.2,81.5z"/>
		</g>
		<g>
			<g>
				<path class="st7" d="M257.6,91.4l0.7-0.5c0,0-0.2-2.3-0.2-5.5c0-1.6,0.1-2.8,0.2-3.7c0.2-0.9,0.4-1.4,0.7-1.4
					c1.1,0,5.5-0.3,5.6-0.3l-0.1-0.8c0,0-4.5,0.3-5.6,0.3c-1.5,0-1.7,2.8-1.7,5.9C257.2,89,257.6,91.4,257.6,91.4z"/>
			</g>
			<g>
				<path class="st7" d="M264.8,87.2c0-0.1,0.1-6.2,0.3-8.4c0.2-2.2,0.7-2.2,1-2.2h1.1v-0.8h-1.1c-1.1,0-1.6,0.8-1.8,3
					c-0.2,2.3-0.3,8.4-0.3,8.5L264.8,87.2z"/>
			</g>
		</g>
		<g>
			
				<rect x="257.6" y="84.3" transform="matrix(0.9926 -0.1216 0.1216 0.9926 -8.3626 32.3679)" class="st7" width="7" height="0.8"/>
		</g>
		<g>
			<path class="st5" d="M253.8,81c0.5-0.1,0.7,0,0.9-0.2c0.2-0.2,0.6-0.9,0.9-1.3c0-0.1,0.1-0.1,0.2-0.2l-0.7-0.6
				c-0.3,0.3-0.4,0.5-0.5,0.5c-0.2,0.1-0.9,0.2-1.1,0.8C253.3,80.7,253.3,81,253.8,81z"/>
		</g>
		<g>
			<g>
				<g>
					
						<rect x="259.3" y="87.1" transform="matrix(7.508498e-02 -0.9972 0.9972 7.508498e-02 157.7079 344.5479)" class="st6" width="10.7" height="0.3"/>
				</g>
				<g>
					<polygon class="st6" points="261,90.6 268.7,83.9 268.5,83.7 260.8,90.3 					"/>
				</g>
				<g>
					<polygon class="st6" points="267.3,90.8 267.6,90.6 261.9,83.7 261.6,83.9 					"/>
				</g>
				<g>
					
						<rect x="264.5" y="83" transform="matrix(9.464366e-02 -0.9955 0.9955 9.464366e-02 152.7708 342.5021)" class="st6" width="0.3" height="8.4"/>
				</g>
				<g>
					<path class="st6" d="M261.1,91.6c-0.7-0.9-1.1-2.2-1.1-3.5c0-1.5,0.5-3,1.3-4.3c0.9-1.3,2-2.1,3.2-2.4c0.3-0.1,0.5-0.1,0.8-0.1
						c1.1,0,2.1,0.5,2.9,1.4c0.7,0.9,1.1,2.2,1.1,3.5c0,1.5-0.5,3-1.3,4.3c-0.9,1.3-2,2.1-3.2,2.4c-0.3,0.1-0.5,0.1-0.8,0.1
						C262.9,93.1,261.8,92.5,261.1,91.6z M264.7,82.3c-2.1,0.4-3.8,3-3.8,5.7c0,2.3,1.3,4,3,4c0.2,0,0.4,0,0.6-0.1
						c2.1-0.4,3.8-3,3.8-5.7c0-2.3-1.3-4-3-4C265.1,82.3,264.9,82.3,264.7,82.3z"/>
				</g>
				<g>
					<path class="st6" d="M263.8,87.4c0,0.6,0.4,1,0.9,0.9c0.5-0.1,0.9-0.7,0.9-1.3c0-0.6-0.4-1-0.9-0.9
						C264.2,86.2,263.8,86.8,263.8,87.4z"/>
				</g>
			</g>
			<g>
				<g>
					<path class="st6" d="M256.9,91.3c0,0.7,0.5,1.2,1,1.1c0.6-0.1,1-0.8,1-1.5c0-0.7-0.5-1.2-1-1.1
						C257.4,89.9,256.9,90.6,256.9,91.3z"/>
				</g>
				<g>
					<path class="st6" d="M257.3,91.2c0,0.4,0.3,0.7,0.6,0.6c0.3-0.1,0.6-0.5,0.6-0.9c0-0.4-0.3-0.7-0.6-0.6
						C257.6,90.4,257.3,90.8,257.3,91.2z"/>
				</g>
				<g>
					<path class="st6" d="M256.4,91.3c0-1,0.6-1.9,1.4-2c0.1,0,0.2,0,0.3,0c0.7,0,1.3,0.7,1.3,1.6c0,1-0.6,1.9-1.4,2
						c-0.1,0-0.2,0-0.3,0C257,92.9,256.4,92.2,256.4,91.3z M258,89.9c-0.5,0.1-0.9,0.7-0.9,1.4c0,0.5,0.3,0.9,0.6,0.9
						c0,0,0.1,0,0.1,0c0.5-0.1,0.9-0.7,0.9-1.4c0-0.5-0.3-0.9-0.6-0.9C258.1,89.9,258,89.9,258,89.9z"/>
				</g>
			</g>
		</g>
		<path class="st6" d="M256.3,91.3c0,0-0.1,0.5-1.7,0.9c-1.3,0.4-2,0.1-2.1-0.1c0,0.2,0,0.3,0,0.3s0.2,0.3,1.5,0.2
			c0.9-0.1,1.3-0.4,1.3-0.4l0,0.1c0,0,0.8-0.2,1-0.4C256.4,91.8,256.4,91.5,256.3,91.3z"/>
		<path class="st6" d="M266.1,75.7c0,0,0.4,0.6,0,0.8c0.1,0.2,1.9,0.1,2.5,0c0.2,0,0.5-0.7,0-0.8C267.9,75.6,266.1,75.6,266.1,75.7z
			"/>
		<path class="st14" d="M261.6,69.4c-0.1,0.2-0.1,0.6-0.1,1.1c-0.2,0.1-0.5,0.2-0.8,0.3c-0.5,0.2-1.1,0.2-1.1,0.2s0-0.1,0.1-0.4
			L261.6,69.4C261.6,69.4,261.6,69.4,261.6,69.4z"/>
		<path class="st5" d="M261.8,69.4c-0.1,0.1-0.2,0-0.2,0c-0.1,0.2-0.2,0.6-0.7,0.8c-0.5,0.3-1.2,0.6-1.4,0.6c-0.2,0-0.4,0-0.6-0.6
			c-0.3-0.6-0.5-0.8-0.4-1.4c0.1-0.5,0-1.7,0.7-2c0.5-0.2,1.3,0,1.7,0.5c0.4,0.5,0.4,0.7,0.4,1.4c0,0,0.1-0.4,0.4-0.5
			c0.2-0.1,0.4,0.1,0.3,0.4S261.9,69.3,261.8,69.4z"/>
		<path class="st13" d="M257.7,74.1c0,0-0.1,1-0.2,1.8c0,0.6-0.1,1.6-0.1,1.6l-0.3,0.4c0,0,0-1.5,0.2-2.4
			C257.4,74.7,257.7,74.1,257.7,74.1z"/>
	</g>
</g>
</svg>
