<?xml version="1.0" encoding="utf-8"?>
<!-- Generator: Adobe Illustrator 20.1.0, SVG Export Plug-In . SVG Version: 6.00 Build 0)  -->
<svg version="1.1" id="Calque_1" xmlns="http://www.w3.org/2000/svg" xmlns:xlink="http://www.w3.org/1999/xlink" x="0px" y="0px"
	 viewBox="0 0 361 158" style="enable-background:new 0 0 361 158;" xml:space="preserve">
<style type="text/css">
	.st0{fill:#FFFFFF;}
	.st1{fill:#23A9DE;}
	.st2{fill:#F59E32;}
	.st3{fill:#7C8E9C;}
</style>
<g>
	
		<image style="overflow:visible;opacity:0.15;" width="1455" height="626" xlink:href="2D8F2D483CC10291.png"  transform="matrix(0.24 0 0 0.24 5.1 6.6616)">
	</image>
	<g>
		<path class="st0" d="M330.2,139.7H29.1c-4.9,0-9-4-9-9V28.6c0-4.9,4-9,9-9h301.2c4.9,0,9,4,9,9v102.1
			C339.2,135.7,335.2,139.7,330.2,139.7z"/>
	</g>
</g>
<g>
	<path class="st1" d="M183.9,55.3c-0.3,0-0.6,0.1-0.8,0.3c-0.2,0.2-0.3,0.5-0.3,0.8c0,0.3,0.1,0.6,0.3,0.8c0.2,0.2,0.5,0.3,0.8,0.3
		c0.3,0,0.6-0.1,0.8-0.3c0.2-0.2,0.3-0.5,0.3-0.8c0-0.3-0.1-0.6-0.3-0.8C184.4,55.4,184.2,55.3,183.9,55.3z"/>
	<rect x="182.9" y="58.7" class="st1" width="1.8" height="6.8"/>
	<path class="st1" d="M192.4,59.3c-0.2-0.2-0.5-0.4-0.8-0.6s-0.7-0.2-1.1-0.2c-0.4,0-0.7,0.1-1.1,0.2c-0.4,0.2-0.7,0.4-0.9,0.8v-0.8
		h-1.8v6.8h1.8v-3.9c0-0.4,0.1-0.7,0.3-1c0.2-0.3,0.5-0.4,0.9-0.4c0.4,0,0.8,0.1,1,0.4c0.2,0.3,0.3,0.6,0.3,1v4h1.8v-4.3
		c0-0.4,0-0.7-0.1-1.1C192.7,59.9,192.6,59.6,192.4,59.3z"/>
	<path class="st1" d="M197.7,55.4c-0.4,0-0.7,0.1-1,0.2c-0.3,0.1-0.6,0.3-0.8,0.5c-0.2,0.2-0.4,0.5-0.5,0.8c-0.1,0.3-0.2,0.7-0.2,1
		v0.8h-1.1v1.6h1.1v5.3h1.9v-5.3h1.5v-1.6h-1.5V58c0-0.2,0-0.4,0.1-0.5c0.1-0.1,0.1-0.2,0.2-0.3s0.2-0.1,0.3-0.1c0.1,0,0.2,0,0.3,0
		c0.2,0,0.3,0,0.4,0c0.1,0,0.2,0,0.2,0v-1.6c-0.1,0-0.2-0.1-0.4-0.1C198.1,55.4,197.9,55.4,197.7,55.4z"/>
	<path class="st1" d="M205.3,59.5c-0.3-0.3-0.7-0.6-1.1-0.8s-0.9-0.3-1.4-0.3c-0.5,0-1,0.1-1.4,0.3c-0.4,0.2-0.8,0.4-1.1,0.8
		s-0.6,0.7-0.8,1.1s-0.3,0.9-0.3,1.5c0,0.5,0.1,1,0.3,1.5c0.2,0.4,0.4,0.8,0.8,1.1s0.7,0.6,1.1,0.8c0.4,0.2,0.9,0.3,1.4,0.3
		c0.5,0,1-0.1,1.4-0.3s0.8-0.4,1.1-0.8s0.6-0.7,0.8-1.1c0.2-0.4,0.3-0.9,0.3-1.5c0-0.5-0.1-1-0.3-1.5S205.6,59.9,205.3,59.5z
		 M204.3,63c-0.1,0.2-0.2,0.4-0.4,0.6c-0.2,0.2-0.3,0.3-0.6,0.4c-0.2,0.1-0.4,0.1-0.7,0.1c-0.2,0-0.4,0-0.7-0.1
		c-0.2-0.1-0.4-0.2-0.6-0.4s-0.3-0.4-0.4-0.6c-0.1-0.2-0.1-0.5-0.1-0.8s0-0.6,0.1-0.8c0.1-0.2,0.2-0.4,0.4-0.6
		c0.2-0.2,0.3-0.3,0.6-0.4c0.2-0.1,0.4-0.1,0.7-0.1c0.2,0,0.4,0,0.7,0.1c0.2,0.1,0.4,0.2,0.6,0.4c0.2,0.2,0.3,0.4,0.4,0.6
		c0.1,0.2,0.1,0.5,0.1,0.8S204.4,62.7,204.3,63z"/>
	<path class="st1" d="M211.5,58.7c-0.1,0-0.3,0-0.5,0s-0.4,0.1-0.5,0.2c-0.2,0.1-0.4,0.2-0.5,0.3c-0.2,0.1-0.3,0.3-0.4,0.5v-1h-1.8
		v6.8h1.8v-3.1c0-0.4,0-0.7,0.1-0.9c0.1-0.2,0.2-0.4,0.4-0.6c0.2-0.1,0.3-0.3,0.6-0.3c0.2-0.1,0.4-0.1,0.7-0.1c0.2,0,0.4,0,0.6,0.1
		v-1.9c-0.1,0-0.1,0-0.2,0C211.6,58.7,211.6,58.7,211.5,58.7z"/>
	<path class="st1" d="M222.9,59.1c-0.2-0.2-0.5-0.4-0.8-0.5c-0.3-0.1-0.6-0.1-0.9-0.1c-0.5,0-0.9,0.1-1.2,0.3
		c-0.4,0.2-0.7,0.5-0.9,0.9c-0.2-0.4-0.4-0.7-0.8-0.8s-0.8-0.3-1.2-0.3c-0.2,0-0.4,0-0.6,0.1c-0.2,0-0.4,0.1-0.6,0.2
		c-0.2,0.1-0.3,0.2-0.5,0.3c-0.1,0.1-0.3,0.3-0.4,0.4v-0.8h-1.8v6.8h1.8v-4c0-0.4,0.1-0.7,0.3-1c0.2-0.3,0.5-0.4,0.9-0.4
		c0.4,0,0.7,0.1,0.9,0.4s0.3,0.6,0.3,0.9v4.1h1.8v-4c0-0.4,0.1-0.7,0.3-1c0.2-0.3,0.5-0.4,0.9-0.4c0.4,0,0.7,0.1,0.9,0.4
		c0.2,0.2,0.3,0.6,0.3,0.9v4.1h1.8v-4.4c0-0.5-0.1-0.8-0.2-1.2C223.3,59.6,223.1,59.4,222.9,59.1z"/>
	<path class="st1" d="M231.2,64.5v-3.4c0-0.3-0.1-0.7-0.2-1c-0.1-0.3-0.3-0.6-0.5-0.8c-0.2-0.2-0.5-0.4-0.9-0.6
		c-0.4-0.1-0.8-0.2-1.4-0.2c-0.5,0-0.9,0.1-1.2,0.2c-0.4,0.1-0.6,0.3-0.9,0.5c-0.2,0.2-0.4,0.5-0.6,0.7s-0.2,0.5-0.2,0.8l1.6,0.3
		c0-0.3,0.2-0.6,0.4-0.8c0.2-0.2,0.5-0.3,0.9-0.3c0.4,0,0.7,0.1,0.9,0.3s0.3,0.4,0.3,0.6c0,0.1,0,0.2-0.1,0.3s-0.2,0.1-0.4,0.2
		l-1.7,0.2c-0.3,0-0.6,0.1-0.8,0.2s-0.5,0.2-0.6,0.4c-0.2,0.2-0.3,0.4-0.4,0.6c-0.1,0.2-0.2,0.5-0.2,0.8c0,0.3,0.1,0.5,0.2,0.8
		c0.1,0.2,0.3,0.5,0.5,0.7c0.2,0.2,0.5,0.3,0.7,0.5c0.3,0.1,0.6,0.2,1,0.2c0.5,0,0.9-0.1,1.3-0.3c0.3-0.2,0.6-0.4,0.8-0.7
		c0,0.1,0,0.3,0,0.4s0,0.3,0,0.4h1.7c0-0.1,0-0.3-0.1-0.5S231.2,64.7,231.2,64.5z M229.4,62.8c0,0.3,0,0.6-0.1,0.8
		c-0.1,0.2-0.2,0.4-0.3,0.5c-0.1,0.1-0.3,0.2-0.5,0.3c-0.2,0.1-0.4,0.1-0.6,0.1c-0.3,0-0.5-0.1-0.7-0.2c-0.1-0.2-0.2-0.3-0.2-0.5
		c0-0.3,0.1-0.5,0.2-0.6c0.2-0.1,0.4-0.2,0.6-0.3l1.5-0.2V62.8z"/>
	<path class="st1" d="M235.3,56.7h-1.7v1c0,0.3-0.1,0.6-0.3,0.8c-0.2,0.2-0.4,0.3-0.8,0.3h-0.3v1.6h1.2v3.2c0,0.7,0.2,1.2,0.6,1.6
		s0.9,0.6,1.6,0.6c0.3,0,0.5,0,0.7-0.1c0.2,0,0.3-0.1,0.4-0.1V64c0,0-0.1,0-0.2,0c-0.1,0-0.2,0-0.3,0c-0.3,0-0.5-0.1-0.6-0.2
		c-0.1-0.1-0.2-0.3-0.2-0.6v-2.9h1.4v-1.6h-1.4V56.7z"/>
	<rect x="238.2" y="58.7" class="st1" width="1.8" height="6.8"/>
	<path class="st1" d="M239.1,55.3c-0.3,0-0.6,0.1-0.8,0.3c-0.2,0.2-0.3,0.5-0.3,0.8c0,0.3,0.1,0.6,0.3,0.8c0.2,0.2,0.5,0.3,0.8,0.3
		c0.3,0,0.6-0.1,0.8-0.3c0.2-0.2,0.3-0.5,0.3-0.8c0-0.3-0.1-0.6-0.3-0.8C239.7,55.4,239.5,55.3,239.1,55.3z"/>
	<path class="st1" d="M247.7,59.5c-0.3-0.3-0.7-0.6-1.1-0.8s-0.9-0.3-1.4-0.3c-0.5,0-1,0.1-1.4,0.3c-0.4,0.2-0.8,0.4-1.1,0.8
		s-0.6,0.7-0.8,1.1s-0.3,0.9-0.3,1.5c0,0.5,0.1,1,0.3,1.5c0.2,0.4,0.4,0.8,0.8,1.1s0.7,0.6,1.1,0.8c0.4,0.2,0.9,0.3,1.4,0.3
		c0.5,0,1-0.1,1.4-0.3s0.8-0.4,1.1-0.8s0.6-0.7,0.8-1.1c0.2-0.4,0.3-0.9,0.3-1.5c0-0.5-0.1-1-0.3-1.5S248,59.9,247.7,59.5z
		 M246.7,63c-0.1,0.2-0.2,0.4-0.4,0.6c-0.2,0.2-0.3,0.3-0.6,0.4c-0.2,0.1-0.4,0.1-0.7,0.1c-0.2,0-0.4,0-0.7-0.1
		c-0.2-0.1-0.4-0.2-0.6-0.4s-0.3-0.4-0.4-0.6c-0.1-0.2-0.1-0.5-0.1-0.8s0-0.6,0.1-0.8c0.1-0.2,0.2-0.4,0.4-0.6
		c0.2-0.2,0.3-0.3,0.6-0.4c0.2-0.1,0.4-0.1,0.7-0.1c0.2,0,0.4,0,0.7,0.1c0.2,0.1,0.4,0.2,0.6,0.4c0.2,0.2,0.3,0.4,0.4,0.6
		c0.1,0.2,0.1,0.5,0.1,0.8S246.8,62.7,246.7,63z"/>
	<path class="st1" d="M255.8,59.3c-0.2-0.2-0.5-0.4-0.8-0.6s-0.7-0.2-1.1-0.2c-0.4,0-0.7,0.1-1.1,0.2c-0.4,0.2-0.7,0.4-0.9,0.8v-0.8
		h-1.8v6.8h1.8v-3.9c0-0.4,0.1-0.7,0.3-1c0.2-0.3,0.5-0.4,0.9-0.4c0.4,0,0.8,0.1,1,0.4c0.2,0.3,0.3,0.6,0.3,1v4h1.8v-4.3
		c0-0.4,0-0.7-0.1-1.1C256.1,59.9,256,59.6,255.8,59.3z"/>
	<path class="st1" d="M262.7,62.2c-0.3-0.4-0.8-0.6-1.5-0.8l-1-0.2c-0.2,0-0.3-0.1-0.5-0.2c-0.1-0.1-0.2-0.2-0.2-0.4
		c0-0.2,0.1-0.4,0.3-0.5c0.2-0.1,0.4-0.2,0.6-0.2c0.2,0,0.4,0,0.5,0.1c0.1,0.1,0.2,0.1,0.3,0.2c0.1,0.1,0.2,0.2,0.2,0.3
		c0,0.1,0.1,0.2,0.1,0.3l1.5-0.3c0-0.2-0.1-0.4-0.2-0.6c-0.1-0.2-0.3-0.4-0.5-0.6c-0.2-0.2-0.5-0.4-0.8-0.5
		c-0.3-0.1-0.7-0.2-1.2-0.2c-0.4,0-0.7,0.1-1,0.2c-0.3,0.1-0.6,0.3-0.8,0.5c-0.2,0.2-0.4,0.4-0.5,0.7c-0.1,0.3-0.2,0.6-0.2,0.9
		c0,0.5,0.2,0.9,0.5,1.3c0.3,0.4,0.8,0.6,1.5,0.8l0.9,0.2c0.3,0.1,0.5,0.1,0.6,0.3c0.1,0.1,0.2,0.3,0.2,0.4c0,0.2-0.1,0.3-0.2,0.5
		c-0.1,0.1-0.4,0.2-0.7,0.2c-0.4,0-0.7-0.1-0.9-0.3c-0.2-0.2-0.3-0.5-0.3-0.7l-1.6,0.3c0,0.2,0.1,0.4,0.2,0.7
		c0.1,0.2,0.3,0.5,0.5,0.7c0.2,0.2,0.5,0.4,0.9,0.5c0.4,0.1,0.8,0.2,1.3,0.2c0.4,0,0.8-0.1,1.2-0.2c0.3-0.1,0.6-0.3,0.8-0.5
		c0.2-0.2,0.4-0.5,0.5-0.7s0.2-0.5,0.2-0.8C263.2,63,263,62.6,262.7,62.2z"/>
	<path class="st1" d="M226.4,44.5c0.1-0.2,0.1-0.5,0.1-0.8c0.3-0.2,0.5-0.5,0.6-0.8c0.1-0.4,0.1-0.7,0-1.1c0.2-0.2,0.4-0.5,0.5-0.8
		c0.1-0.5,0-1.1-0.3-1.5c0.2-0.4,0.3-0.9,0.1-1.4c-0.3-0.7-0.9-1.1-1.6-1.1c-0.1,0-0.2,0-0.3,0c-0.3,0-0.5,0-0.8,0
		c-0.2,0-0.3,0-0.5,0c0,0,0,0-0.1,0c0,0-0.1,0-0.1,0c-0.1,0-0.1,0-0.2,0c0,0-0.1,0-0.1,0c0,0-0.1,0-0.1,0c0-0.1-0.1-0.2-0.1-0.7
		c-0.1-2.1-1.2-2.8-2.1-2.8c-0.6,0-1.4,0.4-1.5,1.7c-0.1,0.7-0.3,1.4-0.6,2.1c-0.2,0.3-0.4,0.7-0.6,1c0,0,0,0-0.1,0l0,0
		c-0.3-0.2-0.6-0.4-1-0.4h0h-1.6h0c-0.8,0-1.4,0.6-1.4,1.4v0v5.1v0c0,0.8,0.6,1.4,1.4,1.4h0h1.6h0c0.4,0,0.7-0.1,1-0.4
		c0.1,0,0.3,0,0.3,0c0.3,0,1.9,0.2,2.9,0.2c1.1,0,1.7,0,3-0.2C225.6,45.5,226.2,45,226.4,44.5z M218.5,44.5c0,0.2-0.1,0.4-0.2,0.5
		c0,0,0,0,0,0c-0.1,0.1-0.3,0.2-0.5,0.2h-1.6c-0.4,0-0.8-0.3-0.8-0.8v-5.1c0-0.4,0.3-0.8,0.8-0.8h1.6c0.2,0,0.4,0.1,0.5,0.2
		c0,0,0,0,0,0c0.1,0.1,0.2,0.3,0.2,0.5V44.5z M225.8,43.8c0,0.2,0,0.3,0,0.4c-0.1,0.3-0.5,0.6-0.9,0.7c-1.2,0.2-1.8,0.2-2.9,0.2
		c-1,0-2.5-0.1-2.7-0.2c0,0,0,0,0,0c0-0.1,0.1-0.2,0.1-0.4v-5.2c0-0.2,0-0.3-0.1-0.5c0.1-0.1,0.2-0.2,0.3-0.3c0.2-0.3,0.4-0.7,0.6-1
		c0.4-0.7,0.6-1.5,0.7-2.3c0.1-0.7,0.3-1,0.7-1c0.6,0,1.3,0.6,1.4,2.2c0,0.4,0.1,0.7,0.2,1c0.1,0.2,0.3,0.3,0.5,0.4
		c0.1,0,0.1,0,0.2,0c0,0,0.1,0,0.1,0c0,0,0.1,0,0.1,0c0,0,0.1,0,0.1,0c0,0,0.1,0,0.1,0c0.1,0,0.3,0,0.5,0c0.2,0,0.5,0,0.7,0
		c0.1,0,0.2,0,0.3,0c0.4,0,0.8,0.3,1,0.7c0.1,0.3,0.1,0.6,0,0.8c-0.1,0.2-0.1,0.5,0.1,0.7c0.2,0.3,0.2,0.6,0.2,0.9
		c0,0.2-0.1,0.3-0.3,0.5c-0.2,0.2-0.3,0.5-0.2,0.7c0.1,0.2,0.1,0.4,0,0.6c-0.1,0.2-0.2,0.3-0.3,0.4
		C225.8,43.2,225.7,43.5,225.8,43.8z"/>
</g>
<g>
	<path class="st2" d="M101.6,59.3c-0.3-0.3-0.6-0.6-1-0.8s-0.8-0.3-1.3-0.3c-0.5,0-1,0.1-1.3,0.3c-0.4,0.2-0.6,0.4-0.8,0.7v-0.8
		h-1.8v9.5h1.8v-3.3c0.2,0.2,0.4,0.4,0.8,0.6s0.7,0.2,1.2,0.2c0.5,0,0.9-0.1,1.3-0.3c0.4-0.2,0.7-0.4,1-0.8c0.3-0.3,0.5-0.7,0.7-1.1
		c0.2-0.4,0.2-0.9,0.2-1.4c0-0.5-0.1-1-0.2-1.4C102.1,60,101.9,59.6,101.6,59.3z M100.1,63.3c-0.3,0.3-0.7,0.5-1.2,0.5
		c-0.2,0-0.5,0-0.7-0.1c-0.2-0.1-0.4-0.2-0.5-0.4c-0.2-0.2-0.3-0.4-0.4-0.6c-0.1-0.2-0.1-0.5-0.1-0.8c0-0.3,0-0.6,0.1-0.8
		c0.1-0.2,0.2-0.4,0.4-0.6c0.2-0.2,0.3-0.3,0.5-0.4c0.2-0.1,0.4-0.1,0.7-0.1c0.5,0,0.9,0.2,1.2,0.5c0.3,0.3,0.5,0.8,0.5,1.4
		C100.6,62.4,100.5,62.9,100.1,63.3z"/>
	<path class="st2" d="M107.6,58.4c-0.1,0-0.3,0-0.5,0s-0.4,0.1-0.5,0.2c-0.2,0.1-0.4,0.2-0.5,0.3c-0.2,0.1-0.3,0.3-0.4,0.5v-1h-1.8
		v6.8h1.8v-3.1c0-0.4,0-0.7,0.1-0.9c0.1-0.2,0.2-0.4,0.4-0.6c0.2-0.1,0.3-0.3,0.6-0.3c0.2-0.1,0.4-0.1,0.7-0.1c0.2,0,0.4,0,0.6,0.1
		v-1.9c-0.1,0-0.1,0-0.2,0C107.8,58.4,107.7,58.4,107.6,58.4z"/>
	<polygon class="st2" points="114.7,55.5 112.6,55.5 111.3,57.6 112.8,57.6 	"/>
	<path class="st2" d="M112.2,58.2c-0.4,0-0.9,0.1-1.3,0.3c-0.4,0.2-0.8,0.4-1.1,0.7c-0.3,0.3-0.6,0.7-0.7,1.1
		c-0.2,0.4-0.3,0.9-0.3,1.5c0,0.6,0.1,1.1,0.3,1.5c0.2,0.5,0.4,0.8,0.8,1.2s0.7,0.6,1.1,0.7c0.4,0.2,0.9,0.2,1.3,0.2
		c0.4,0,0.8-0.1,1.1-0.2c0.3-0.1,0.7-0.3,0.9-0.5c0.3-0.2,0.5-0.4,0.7-0.7c0.2-0.3,0.3-0.5,0.4-0.8l-1.5-0.5
		c-0.1,0.3-0.3,0.6-0.5,0.7c-0.2,0.2-0.6,0.3-1,0.3c-0.2,0-0.4,0-0.7-0.1c-0.2-0.1-0.4-0.2-0.5-0.3s-0.3-0.3-0.4-0.5
		c-0.1-0.2-0.2-0.4-0.2-0.6h4.9c0,0,0-0.1,0-0.2c0-0.1,0-0.2,0-0.4c0-1.1-0.3-2-0.9-2.6C114.1,58.5,113.2,58.2,112.2,58.2z
		 M110.7,61.1c0-0.2,0-0.3,0.1-0.5s0.2-0.3,0.3-0.4c0.1-0.1,0.3-0.2,0.5-0.3c0.2-0.1,0.4-0.1,0.6-0.1c0.3,0,0.5,0,0.7,0.1
		c0.2,0.1,0.3,0.2,0.5,0.3s0.2,0.3,0.3,0.4c0.1,0.2,0.1,0.3,0.1,0.5H110.7z"/>
	<path class="st2" d="M117.9,55c-0.3,0-0.6,0.1-0.8,0.3c-0.2,0.2-0.3,0.5-0.3,0.8c0,0.3,0.1,0.6,0.3,0.8c0.2,0.2,0.5,0.3,0.8,0.3
		c0.3,0,0.6-0.1,0.8-0.3s0.3-0.5,0.3-0.8c0-0.3-0.1-0.6-0.3-0.8C118.5,55.1,118.2,55,117.9,55z"/>
	<path class="st2" d="M117,65.7c0,0.2-0.1,0.4-0.2,0.6c-0.1,0.1-0.3,0.2-0.6,0.2c-0.1,0-0.2,0-0.3,0c-0.1,0-0.2,0-0.2,0v1.5
		c0,0,0.2,0,0.4,0.1c0.2,0,0.4,0.1,0.7,0.1c0.3,0,0.6-0.1,0.9-0.2c0.3-0.1,0.5-0.3,0.7-0.5s0.3-0.4,0.4-0.7c0.1-0.3,0.1-0.6,0.1-0.9
		v-7.4H117V65.7z"/>
	<path class="st2" d="M127,64v-5.6h-1.8v4c0,0.4-0.1,0.7-0.3,1c-0.2,0.2-0.5,0.4-1,0.4c-0.4,0-0.8-0.1-1-0.4c-0.2-0.3-0.3-0.6-0.3-1
		v-3.9h-1.8v4.3c0,0.4,0.1,0.7,0.2,1c0.1,0.3,0.3,0.6,0.5,0.9c0.2,0.2,0.5,0.4,0.8,0.6c0.3,0.1,0.7,0.2,1.1,0.2
		c0.4,0,0.7-0.1,1.1-0.2c0.4-0.1,0.6-0.4,0.8-0.7c0,0.1,0,0.3,0,0.4c0,0.1,0,0.2,0,0.3h1.8c0-0.1,0-0.3,0-0.5S127,64.3,127,64z"/>
	<path class="st2" d="M133.6,59.2c-0.1-0.2-0.3-0.4-0.7-0.6s-0.7-0.3-1.3-0.3c-0.5,0-0.9,0.1-1.3,0.3c-0.4,0.2-0.7,0.4-1,0.7
		c-0.3,0.3-0.5,0.7-0.7,1.1c-0.2,0.4-0.2,0.8-0.2,1.3c0,0.5,0.1,0.9,0.2,1.3c0.2,0.4,0.4,0.8,0.7,1c0.3,0.3,0.6,0.5,1,0.7
		c0.4,0.2,0.8,0.2,1.3,0.2c0.5,0,0.9-0.1,1.2-0.3s0.5-0.4,0.7-0.6v0.5c0,0.7-0.2,1.2-0.5,1.5c-0.3,0.3-0.8,0.5-1.3,0.5
		c-0.4,0-0.8-0.1-1.1-0.4c-0.3-0.2-0.4-0.6-0.5-0.9l-1.7,0.4c0,0.3,0.2,0.6,0.3,0.9s0.4,0.6,0.7,0.8c0.3,0.2,0.6,0.4,1,0.5
		c0.4,0.1,0.8,0.2,1.3,0.2c0.6,0,1.2-0.1,1.6-0.3c0.5-0.2,0.8-0.5,1.1-0.8c0.3-0.3,0.5-0.7,0.6-1.1c0.1-0.4,0.2-0.9,0.2-1.4v-6.1
		h-1.8V59.2z M133.1,62.9c-0.3,0.3-0.7,0.5-1.2,0.5c-0.5,0-0.9-0.2-1.2-0.5c-0.3-0.3-0.5-0.7-0.5-1.3c0-0.3,0-0.5,0.1-0.7
		c0.1-0.2,0.2-0.4,0.3-0.5c0.1-0.2,0.3-0.3,0.5-0.3c0.2-0.1,0.4-0.1,0.6-0.1c0.4,0,0.8,0.2,1.1,0.5c0.3,0.3,0.5,0.7,0.5,1.3
		C133.5,62.2,133.4,62.6,133.1,62.9z"/>
	<path class="st2" d="M140.1,58.2c-0.4,0-0.9,0.1-1.3,0.3c-0.4,0.2-0.8,0.4-1.1,0.7c-0.3,0.3-0.6,0.7-0.7,1.1
		c-0.2,0.4-0.3,0.9-0.3,1.5c0,0.6,0.1,1.1,0.3,1.5c0.2,0.5,0.4,0.8,0.8,1.2s0.7,0.6,1.1,0.7c0.4,0.2,0.9,0.2,1.3,0.2
		c0.4,0,0.8-0.1,1.1-0.2c0.3-0.1,0.7-0.3,0.9-0.5c0.3-0.2,0.5-0.4,0.7-0.7c0.2-0.3,0.3-0.5,0.4-0.8l-1.5-0.5
		c-0.1,0.3-0.3,0.6-0.5,0.7c-0.2,0.2-0.6,0.3-1,0.3c-0.2,0-0.4,0-0.7-0.1c-0.2-0.1-0.4-0.2-0.5-0.3s-0.3-0.3-0.4-0.5
		c-0.1-0.2-0.2-0.4-0.2-0.6h4.9c0,0,0-0.1,0-0.2c0-0.1,0-0.2,0-0.4c0-1.1-0.3-2-0.9-2.6C142,58.5,141.1,58.2,140.1,58.2z
		 M138.6,61.1c0-0.2,0-0.3,0.1-0.5s0.2-0.3,0.3-0.4c0.1-0.1,0.3-0.2,0.5-0.3c0.2-0.1,0.4-0.1,0.6-0.1c0.3,0,0.5,0,0.7,0.1
		c0.2,0.1,0.3,0.2,0.5,0.3s0.2,0.3,0.3,0.4c0.1,0.2,0.1,0.3,0.1,0.5H138.6z"/>
	<polygon class="st2" points="142.6,55.5 140.5,55.5 139.2,57.6 140.7,57.6 	"/>
	<path class="st2" d="M149.3,61.9c-0.3-0.4-0.8-0.6-1.5-0.8l-1-0.2c-0.2,0-0.3-0.1-0.5-0.2c-0.1-0.1-0.2-0.2-0.2-0.4
		c0-0.2,0.1-0.4,0.3-0.5c0.2-0.1,0.4-0.2,0.6-0.2c0.2,0,0.4,0,0.5,0.1c0.1,0.1,0.2,0.1,0.3,0.2c0.1,0.1,0.2,0.2,0.2,0.3
		c0,0.1,0.1,0.2,0.1,0.3l1.5-0.3c0-0.2-0.1-0.4-0.2-0.6c-0.1-0.2-0.3-0.4-0.5-0.6c-0.2-0.2-0.5-0.4-0.8-0.5
		c-0.3-0.1-0.7-0.2-1.2-0.2c-0.4,0-0.7,0.1-1,0.2c-0.3,0.1-0.6,0.3-0.8,0.5c-0.2,0.2-0.4,0.4-0.5,0.7c-0.1,0.3-0.2,0.6-0.2,0.9
		c0,0.5,0.2,0.9,0.5,1.3c0.3,0.4,0.8,0.6,1.5,0.8l0.9,0.2c0.3,0.1,0.5,0.1,0.6,0.3c0.1,0.1,0.2,0.3,0.2,0.4c0,0.2-0.1,0.3-0.2,0.5
		c-0.1,0.1-0.4,0.2-0.7,0.2c-0.4,0-0.7-0.1-0.9-0.3c-0.2-0.2-0.3-0.5-0.3-0.7l-1.6,0.3c0,0.2,0.1,0.4,0.2,0.7
		c0.1,0.2,0.3,0.5,0.5,0.7c0.2,0.2,0.5,0.4,0.9,0.5c0.4,0.1,0.8,0.2,1.3,0.2c0.4,0,0.8-0.1,1.2-0.2c0.3-0.1,0.6-0.3,0.8-0.5
		c0.2-0.2,0.4-0.5,0.5-0.7c0.1-0.3,0.2-0.5,0.2-0.8C149.8,62.7,149.6,62.3,149.3,61.9z"/>
	<path class="st2" d="M122.1,44c0-0.4,0.1-0.6,0.1-0.7c0,0,0.1,0,0.1,0c0,0,0.1,0,0.1,0c0,0,0.1,0,0.2,0c0,0,0.1,0,0.1,0
		c0,0,0,0,0.1,0c0.1,0,0.3,0,0.5,0c0.2,0,0.5,0,0.8,0c0.1,0,0.2,0,0.3,0c0.7,0,1.4-0.5,1.6-1.1c0.2-0.6,0.1-1.1-0.1-1.4
		c0.3-0.4,0.4-1,0.3-1.5c-0.1-0.3-0.3-0.6-0.5-0.8c0.1-0.3,0.1-0.7,0-1.1c-0.1-0.3-0.3-0.6-0.6-0.8c0.1-0.4,0-0.6-0.1-0.8
		c-0.2-0.6-0.8-1-1.5-1.1c-1.3-0.2-1.9-0.2-3-0.2c-1,0-2.6,0.1-2.9,0.2c0,0-0.2,0-0.3,0c-0.3-0.2-0.6-0.4-1-0.4h0h-1.6h0
		c-0.8,0-1.4,0.6-1.4,1.4v0v5.1v0c0,0.8,0.6,1.4,1.4,1.4h0h1.6h0c0.4,0,0.7-0.1,1-0.4l0,0c0,0,0.1,0,0.1,0c0.2,0.3,0.4,0.7,0.6,1
		c0.4,0.6,0.6,1.3,0.6,2.1c0.1,1.3,0.8,1.7,1.5,1.7C120.9,46.8,122,46.1,122.1,44z M117,41c0,0.2-0.1,0.4-0.2,0.5c0,0,0,0,0,0
		c-0.1,0.1-0.3,0.2-0.5,0.2h-1.6c-0.4,0-0.8-0.3-0.8-0.8v-5.1c0-0.4,0.3-0.8,0.8-0.8h1.6c0.2,0,0.4,0.1,0.5,0.2c0,0,0,0,0,0
		c0.1,0.1,0.2,0.3,0.2,0.5V41z M120,46.1c-0.4,0-0.7-0.4-0.7-1c-0.1-0.8-0.3-1.6-0.7-2.3c-0.2-0.4-0.4-0.7-0.6-1
		c-0.1-0.1-0.2-0.2-0.3-0.3c0-0.1,0.1-0.3,0.1-0.5v-5.2c0-0.1,0-0.2-0.1-0.4c0,0,0,0,0,0c0.2,0,1.8-0.2,2.7-0.2c1.1,0,1.7,0,2.9,0.2
		c0.4,0.1,0.8,0.3,0.9,0.7c0,0.1,0.1,0.2,0,0.4c0,0.3,0.1,0.5,0.3,0.7c0.2,0.1,0.3,0.3,0.3,0.4c0.1,0.2,0.1,0.4,0,0.6
		c-0.1,0.3,0,0.5,0.2,0.7c0.1,0.1,0.2,0.3,0.3,0.5c0.1,0.3,0,0.6-0.2,0.9c-0.2,0.2-0.2,0.5-0.1,0.7c0.1,0.3,0.2,0.6,0,0.8
		c-0.2,0.4-0.6,0.7-1,0.7c-0.1,0-0.2,0-0.3,0c-0.2,0-0.5,0-0.7,0c-0.2,0-0.4,0-0.5,0c0,0-0.1,0-0.1,0c0,0-0.1,0-0.1,0
		c0,0-0.1,0-0.1,0c0,0-0.1,0-0.1,0c-0.1,0-0.1,0-0.2,0c-0.2,0-0.4,0.2-0.5,0.4c-0.1,0.2-0.2,0.5-0.2,1
		C121.3,45.5,120.6,46.1,120,46.1z"/>
</g>
<g>
	<path class="st3" d="M46.1,87.7C46,86.5,46,85.1,46,84l0,0c-0.3,1-0.6,2.1-1.1,3.2l-1.5,4.1h-0.8l-1.4-4.1c-0.4-1.2-0.7-2.3-1-3.3
		l0,0c0,1.1-0.1,2.5-0.2,3.8l-0.2,3.7h-1l0.6-8.5h1.4l1.5,4.1c0.4,1,0.6,2,0.9,2.9l0,0c0.2-0.9,0.5-1.8,0.9-2.9l1.5-4.1H47l0.5,8.5
		h-1.1L46.1,87.7z"/>
	<path class="st3" d="M49.7,88.6c0,1.5,1,2.1,2.1,2.1c0.8,0,1.3-0.1,1.7-0.3l0.2,0.8c-0.4,0.2-1.1,0.4-2,0.4c-1.9,0-3-1.2-3-3.1
		s1.1-3.3,2.9-3.3c2,0,2.5,1.8,2.5,2.9c0,0.2,0,0.4,0,0.5L49.7,88.6L49.7,88.6z M53,87.8c0-0.7-0.3-1.8-1.5-1.8
		c-1.1,0-1.6,1-1.7,1.8H53z"/>
	<path class="st3" d="M56.8,83.6v1.8h1.6v0.8h-1.6v3.3c0,0.8,0.2,1.2,0.8,1.2c0.3,0,0.5,0,0.6-0.1l0.1,0.8c-0.2,0.1-0.6,0.2-1,0.2
		c-0.5,0-0.9-0.2-1.2-0.5s-0.4-0.9-0.4-1.6v-3.3h-0.9v-0.8h0.9v-1.5L56.8,83.6z"/>
	<path class="st3" d="M61,83.6v1.8h1.6v0.8H61v3.3c0,0.8,0.2,1.2,0.8,1.2c0.3,0,0.5,0,0.6-0.1l0.1,0.8c-0.2,0.1-0.6,0.2-1,0.2
		c-0.5,0-0.9-0.2-1.2-0.5s-0.4-0.9-0.4-1.6v-3.3H59v-0.8h0.9v-1.5L61,83.6z"/>
	<path class="st3" d="M63.8,87.3c0-0.7,0-1.3-0.1-1.9h1v1.2h0.1c0.3-0.8,0.9-1.3,1.7-1.3c0.1,0,0.2,0,0.3,0v1c-0.1,0-0.2,0-0.4,0
		c-0.8,0-1.3,0.6-1.5,1.4c0,0.2-0.1,0.3-0.1,0.5v3.3h-1V87.3z"/>
	<path class="st3" d="M68.4,88.6c0,1.5,1,2.1,2.1,2.1c0.8,0,1.3-0.1,1.7-0.3l0.2,0.8c-0.4,0.2-1.1,0.4-2,0.4c-1.9,0-3-1.2-3-3.1
		s1.1-3.3,2.9-3.3c2,0,2.5,1.8,2.5,2.9c0,0.2,0,0.4,0,0.5L68.4,88.6L68.4,88.6z M71.7,87.8c0-0.7-0.3-1.8-1.5-1.8
		c-1.1,0-1.6,1-1.7,1.8H71.7z"/>
	<path class="st3" d="M77,91.5v-5.3h-0.9v-0.8H77v-0.3c0-1.6,0.9-2.7,2.7-2.7c0.6,0,1.2,0.2,1.6,0.4L81,83.6
		c-0.3-0.2-0.7-0.4-1.3-0.4c-1.2,0-1.5,0.8-1.5,1.8v0.3h3.6v6.1h-1.1v-5.2h-2.5v5.3H77z"/>
	<path class="st3" d="M83.4,87c0-0.6,0-1.1-0.1-1.7h1l0.1,1l0,0c0.3-0.6,1-1.1,2-1.1c0.8,0,2.2,0.5,2.2,2.6v3.7h-1.1V88
		c0-1-0.4-1.8-1.4-1.8c-0.7,0-1.3,0.5-1.5,1.1c-0.1,0.1-0.1,0.3-0.1,0.5v3.7h-1.1V87z"/>
	<path class="st3" d="M96.5,91.5l-0.1-0.8l0,0c-0.3,0.5-1,0.9-1.9,0.9c-1.2,0-1.9-0.9-1.9-1.8c0-1.5,1.3-2.3,3.7-2.3v-0.1
		c0-0.5-0.1-1.4-1.4-1.4c-0.6,0-1.2,0.2-1.6,0.5L93,85.8c0.5-0.3,1.2-0.5,2-0.5c1.9,0,2.3,1.3,2.3,2.5v2.3c0,0.5,0,1,0.1,1.5h-0.9
		V91.5z M96.4,88.4c-1.2,0-2.6,0.2-2.6,1.4c0,0.7,0.5,1.1,1,1.1c0.8,0,1.3-0.5,1.5-1c0-0.1,0.1-0.2,0.1-0.4V88.4z"/>
	<path class="st3" d="M104.3,89.8c0,0.6,0,1.2,0.1,1.7h-1l-0.1-1l0,0c-0.3,0.5-0.9,1.1-2,1.1c-1,0-2.1-0.5-2.1-2.7v-3.6h1.1v3.4
		c0,1.2,0.4,1.9,1.4,1.9c0.7,0,1.3-0.5,1.5-1c0.1-0.2,0.1-0.4,0.1-0.6v-3.8h1.1v4.6H104.3z"/>
	<path class="st3" d="M106.7,85.4l0.9,1.3c0.2,0.3,0.4,0.7,0.6,1l0,0c0.2-0.4,0.4-0.7,0.6-1l0.9-1.3h1.2l-2.1,3l2.1,3.2h-1.3
		l-0.9-1.4c-0.2-0.4-0.4-0.7-0.7-1.1l0,0c-0.2,0.4-0.4,0.7-0.6,1.1l-0.9,1.4h-1.2l2.2-3.1l-2.1-3h1.3V85.4z"/>
	<path class="st3" d="M114.7,87.4c0-0.8,0-1.4-0.1-2h1l0.1,1l0,0c0.5-0.7,1.2-1.2,2.2-1.2c1.5,0,2.6,1.3,2.6,3.1
		c0,2.2-1.3,3.3-2.8,3.3c-0.8,0-1.5-0.4-1.9-1l0,0v3.3h-1.1C114.7,93.9,114.7,87.4,114.7,87.4z M115.8,89c0,0.2,0,0.3,0.1,0.5
		c0.2,0.8,0.9,1.3,1.7,1.3c1.2,0,1.9-1,1.9-2.4c0-1.2-0.6-2.3-1.8-2.3c-0.8,0-1.5,0.5-1.7,1.4c0,0.1-0.1,0.3-0.1,0.5v1H115.8z"/>
	<path class="st3" d="M121.9,87.3c0-0.7,0-1.3-0.1-1.9h1v1.2h0.1c0.3-0.8,0.9-1.3,1.7-1.3c0.1,0,0.2,0,0.3,0v1c-0.1,0-0.2,0-0.4,0
		c-0.8,0-1.3,0.6-1.5,1.4c0,0.2-0.1,0.3-0.1,0.5v3.3h-1.1v-4.2H121.9z"/>
	<path class="st3" d="M126.5,88.6c0,1.5,1,2.1,2.1,2.1c0.8,0,1.3-0.1,1.7-0.3l0.2,0.8c-0.4,0.2-1.1,0.4-2,0.4c-1.9,0-3-1.2-3-3.1
		s1.1-3.3,2.9-3.3c2,0,2.5,1.8,2.5,2.9c0,0.2,0,0.4,0,0.5L126.5,88.6L126.5,88.6z M129.8,87.8c0-0.7-0.3-1.8-1.5-1.8
		c-1.1,0-1.6,1-1.7,1.8H129.8z M130.1,82.7l-1.5,1.8h-0.8l1.1-1.8H130.1z"/>
	<path class="st3" d="M130.8,93.2c0.5,0,0.9-0.2,1.2-0.5c0.3-0.4,0.4-0.8,0.4-2.3v-5.1h1.1v5.5c0,1.2-0.2,2-0.7,2.5
		s-1.3,0.7-1.9,0.7L130.8,93.2z M133.6,83.6c0,0.4-0.3,0.7-0.7,0.7s-0.7-0.3-0.7-0.7s0.3-0.7,0.7-0.7
		C133.4,82.9,133.6,83.3,133.6,83.6z"/>
	<path class="st3" d="M140.4,89.8c0,0.6,0,1.2,0.1,1.7h-1l-0.1-1l0,0c-0.3,0.5-0.9,1.1-2,1.1c-1,0-2.1-0.5-2.1-2.7v-3.6h1.1v3.4
		c0,1.2,0.4,1.9,1.4,1.9c0.7,0,1.3-0.5,1.5-1c0.1-0.2,0.1-0.4,0.1-0.6v-3.8h1.1v4.6H140.4z"/>
	<path class="st3" d="M147.6,85.4c0,0.4-0.1,0.9-0.1,1.7v3.5c0,1.4-0.3,2.3-0.9,2.8c-0.6,0.6-1.5,0.7-2.2,0.7s-1.5-0.2-2-0.5
		l0.3-0.8c0.4,0.3,1,0.5,1.8,0.5c1.1,0,2-0.6,2-2.1v-0.7l0,0c-0.3,0.6-1,1-1.9,1c-1.5,0-2.6-1.3-2.6-3c0-2.1,1.4-3.2,2.8-3.2
		c1.1,0,1.6,0.6,1.9,1.1l0,0l0.1-0.9L147.6,85.4L147.6,85.4z M146.4,87.8c0-0.2,0-0.4-0.1-0.5c-0.2-0.6-0.7-1.2-1.6-1.2
		c-1.1,0-1.8,0.9-1.8,2.3c0,1.2,0.6,2.2,1.8,2.2c0.7,0,1.3-0.4,1.5-1.1c0.1-0.2,0.1-0.4,0.1-0.6v-1.1H146.4z"/>
	<path class="st3" d="M150,88.6c0,1.5,1,2.1,2.1,2.1c0.8,0,1.3-0.1,1.7-0.3l0.2,0.8c-0.4,0.2-1.1,0.4-2,0.4c-1.9,0-3-1.2-3-3.1
		s1.1-3.3,2.9-3.3c2,0,2.5,1.8,2.5,2.9c0,0.2,0,0.4,0,0.5L150,88.6L150,88.6z M153.2,87.8c0-0.7-0.3-1.8-1.5-1.8
		c-1.1,0-1.6,1-1.7,1.8H153.2z M153.5,82.7l-1.5,1.8h-0.8l1.1-1.8H153.5z"/>
	<path class="st3" d="M155.5,90.3c0.3,0.2,0.9,0.4,1.5,0.4c0.8,0,1.2-0.4,1.2-0.9s-0.3-0.8-1.1-1.1c-1.1-0.4-1.6-1-1.6-1.7
		c0-1,0.8-1.8,2.1-1.8c0.6,0,1.2,0.2,1.5,0.4l-0.3,0.8c-0.2-0.2-0.7-0.4-1.3-0.4c-0.7,0-1,0.4-1,0.8c0,0.5,0.4,0.7,1.2,1
		c1.1,0.4,1.6,0.9,1.6,1.8c0,1.1-0.8,1.8-2.3,1.8c-0.7,0-1.3-0.2-1.7-0.4L155.5,90.3z"/>
	<path class="st3" d="M164,88.6c0,1.5,1,2.1,2.1,2.1c0.8,0,1.3-0.1,1.7-0.3l0.2,0.8c-0.4,0.2-1.1,0.4-2,0.4c-1.9,0-3-1.2-3-3.1
		s1.1-3.3,2.9-3.3c2,0,2.5,1.8,2.5,2.9c0,0.2,0,0.4,0,0.5L164,88.6L164,88.6z M167.2,87.8c0-0.7-0.3-1.8-1.5-1.8
		c-1.1,0-1.6,1-1.7,1.8H167.2z"/>
	<path class="st3" d="M171,83.6v1.8h1.6v0.8H171v3.3c0,0.8,0.2,1.2,0.8,1.2c0.3,0,0.5,0,0.6-0.1l0.1,0.8c-0.2,0.1-0.6,0.2-1,0.2
		c-0.5,0-0.9-0.2-1.2-0.5s-0.4-0.9-0.4-1.6v-3.3H169v-0.8h0.9v-1.5L171,83.6z"/>
	<path class="st3" d="M179.9,91.5l-0.1-0.8l0,0c-0.3,0.5-1,0.9-1.9,0.9c-1.2,0-1.9-0.9-1.9-1.8c0-1.5,1.3-2.3,3.7-2.3v-0.1
		c0-0.5-0.1-1.4-1.4-1.4c-0.6,0-1.2,0.2-1.6,0.5l-0.3-0.7c0.5-0.3,1.2-0.5,2-0.5c1.9,0,2.3,1.3,2.3,2.5v2.3c0,0.5,0,1,0.1,1.5h-0.9
		V91.5z M179.8,88.4c-1.2,0-2.6,0.2-2.6,1.4c0,0.7,0.5,1.1,1,1.1c0.8,0,1.3-0.5,1.5-1c0-0.1,0.1-0.2,0.1-0.4V88.4z"/>
	<path class="st3" d="M187.8,89.8c0,0.6,0,1.2,0.1,1.7h-1l-0.1-1l0,0c-0.3,0.5-0.9,1.1-2,1.1c-1,0-2.1-0.5-2.1-2.7v-3.6h1.1v3.4
		c0,1.2,0.4,1.9,1.4,1.9c0.7,0,1.3-0.5,1.5-1c0.1-0.2,0.1-0.4,0.1-0.6v-3.8h1.1v4.6H187.8z"/>
	<path class="st3" d="M190.1,85.4l0.9,1.3c0.2,0.3,0.4,0.7,0.6,1l0,0c0.2-0.4,0.4-0.7,0.6-1l0.9-1.3h1.2l-2.1,3l2.1,3.2H193
		l-0.9-1.4c-0.2-0.4-0.4-0.7-0.7-1.1l0,0c-0.2,0.4-0.4,0.7-0.6,1.1l-0.9,1.4h-1.1l2.2-3.1l-2.1-3h1.2V85.4z"/>
	<path class="st3" d="M198,90.3c0.3,0.2,0.9,0.4,1.5,0.4c0.8,0,1.2-0.4,1.2-0.9s-0.3-0.8-1.1-1.1c-1.1-0.4-1.6-1-1.6-1.7
		c0-1,0.8-1.8,2.1-1.8c0.6,0,1.2,0.2,1.5,0.4l-0.3,0.8c-0.2-0.2-0.7-0.4-1.2-0.4c-0.7,0-1,0.4-1,0.8c0,0.5,0.4,0.7,1.2,1
		c1.1,0.4,1.6,0.9,1.6,1.8c0,1.1-0.8,1.8-2.3,1.8c-0.7,0-1.3-0.2-1.7-0.4L198,90.3z"/>
	<path class="st3" d="M204.5,83.6v1.8h1.6v0.8h-1.6v3.3c0,0.8,0.2,1.2,0.8,1.2c0.3,0,0.5,0,0.6-0.1l0.1,0.8c-0.2,0.1-0.6,0.2-1,0.2
		c-0.5,0-0.9-0.2-1.2-0.5s-0.4-0.9-0.4-1.6v-3.3h-0.9v-0.8h0.9v-1.5L204.5,83.6z"/>
	<path class="st3" d="M207.9,88.6c0,1.5,1,2.1,2.1,2.1c0.8,0,1.3-0.1,1.7-0.3l0.2,0.8c-0.4,0.2-1.1,0.4-2,0.4c-1.9,0-3-1.2-3-3.1
		s1.1-3.3,2.9-3.3c2,0,2.5,1.8,2.5,2.9c0,0.2,0,0.4,0,0.5L207.9,88.6L207.9,88.6z M211.1,87.8c0-0.7-0.3-1.8-1.5-1.8
		c-1.1,0-1.6,1-1.7,1.8H211.1z M211.4,82.7l-1.5,1.8h-0.8l1.1-1.8H211.4z"/>
	<path class="st3" d="M213.6,87.3c0-0.7,0-1.3,0-1.9h1v1.2l0,0c0.3-0.8,0.9-1.3,1.7-1.3c0.1,0,0.2,0,0.3,0v1c-0.1,0-0.2,0-0.4,0
		c-0.8,0-1.3,0.6-1.5,1.4c0,0.2-0.1,0.3-0.1,0.5v3.3h-1.1v-4.2H213.6z"/>
	<path class="st3" d="M218.2,88.6c0,1.5,1,2.1,2.1,2.1c0.8,0,1.3-0.1,1.7-0.3l0.2,0.8c-0.4,0.2-1.1,0.4-2,0.4c-1.9,0-3-1.2-3-3.1
		s1.1-3.3,2.9-3.3c2,0,2.5,1.8,2.5,2.9c0,0.2,0,0.4,0,0.5L218.2,88.6L218.2,88.6z M221.5,87.8c0-0.7-0.3-1.8-1.5-1.8
		c-1.1,0-1.6,1-1.7,1.8H221.5z M221.7,82.7l-1.5,1.8h-0.8l1.1-1.8H221.7z"/>
	<path class="st3" d="M229.5,88.4c0,2.3-1.6,3.2-3,3.2c-1.7,0-2.9-1.2-2.9-3.1c0-2,1.3-3.2,3-3.2C228.3,85.2,229.5,86.5,229.5,88.4z
		 M224.6,88.4c0,1.3,0.8,2.3,1.9,2.3c1.1,0,1.9-1,1.9-2.4c0-1-0.5-2.3-1.8-2.3C225.2,86.1,224.6,87.3,224.6,88.4z"/>
	<path class="st3" d="M232.2,83.6v1.8h1.6v0.8h-1.6v3.3c0,0.8,0.2,1.2,0.8,1.2c0.3,0,0.5,0,0.6-0.1v0.8c-0.2,0.1-0.6,0.2-1,0.2
		c-0.5,0-0.9-0.2-1.2-0.5s-0.4-0.9-0.4-1.6v-3.3h-0.9v-0.8h0.9v-1.5L232.2,83.6z"/>
	<path class="st3" d="M235.6,85.4l1.3,3.6c0.1,0.4,0.3,0.9,0.4,1.3l0,0c0.1-0.4,0.2-0.8,0.4-1.3l1.2-3.6h1.2l-1.7,4.4
		c-0.8,2.1-1.3,3.2-2.1,3.8c-0.5,0.5-1.1,0.7-1.4,0.7l-0.3-0.9c0.3-0.1,0.6-0.3,1-0.5c0.3-0.2,0.7-0.7,0.9-1.2
		c0.1-0.1,0.1-0.2,0.1-0.3s0-0.2-0.1-0.3l-2.3-5.6h1.4V85.4z"/>
	<path class="st3" d="M241.1,87.4c0-0.8,0-1.4,0-2h1v1l0,0c0.5-0.7,1.2-1.2,2.2-1.2c1.5,0,2.6,1.3,2.6,3.1c0,2.2-1.3,3.3-2.8,3.3
		c-0.8,0-1.5-0.4-1.9-1l0,0v3.3h-1.1V87.4z M242.2,89c0,0.2,0,0.3,0.1,0.5c0.2,0.8,0.9,1.3,1.7,1.3c1.2,0,1.9-1,1.9-2.4
		c0-1.2-0.6-2.3-1.8-2.3c-0.8,0-1.5,0.5-1.7,1.4c0,0.1-0.1,0.3-0.1,0.5L242.2,89L242.2,89z"/>
	<path class="st3" d="M248.9,88.6c0,1.5,1,2.1,2.1,2.1c0.8,0,1.3-0.1,1.7-0.3l0.2,0.8c-0.4,0.2-1.1,0.4-2,0.4c-1.9,0-3-1.2-3-3.1
		s1.1-3.3,2.9-3.3c2,0,2.5,1.8,2.5,2.9c0,0.2,0,0.4,0,0.5L248.9,88.6L248.9,88.6z M252.2,87.8c0-0.7-0.3-1.8-1.5-1.8
		c-1.1,0-1.6,1-1.7,1.8H252.2z"/>
	<path class="st3" d="M254.5,90.3c0.3,0.2,0.9,0.4,1.5,0.4c0.8,0,1.2-0.4,1.2-0.9s-0.3-0.8-1.1-1.1c-1.1-0.4-1.6-1-1.6-1.7
		c0-1,0.8-1.8,2.1-1.8c0.6,0,1.2,0.2,1.5,0.4l-0.3,0.8c-0.2-0.2-0.7-0.4-1.3-0.4c-0.7,0-1,0.4-1,0.8c0,0.5,0.4,0.7,1.2,1
		c1.1,0.4,1.6,0.9,1.6,1.8c0,1.1-0.8,1.8-2.3,1.8c-0.7,0-1.3-0.2-1.7-0.4L254.5,90.3z"/>
	<path class="st3" d="M258.8,93c0.3-0.7,0.6-2.1,0.8-3l1.2-0.1c-0.3,1.1-0.8,2.5-1.2,3.1H258.8z"/>
	<path class="st3" d="M264.8,87c0-0.6,0-1.1,0-1.7h1l0.1,1l0,0c0.3-0.6,0.9-1.1,1.9-1.1c0.8,0,1.5,0.5,1.7,1.2l0,0
		c0.2-0.3,0.4-0.6,0.7-0.8c0.4-0.3,0.8-0.4,1.4-0.4c0.8,0,2,0.5,2,2.7v3.6h-1.1V88c0-1.2-0.4-1.9-1.3-1.9c-0.6,0-1.1,0.5-1.3,1
		c-0.1,0.2-0.1,0.4-0.1,0.6v3.8h-1.1v-3.7c0-1-0.4-1.7-1.3-1.7c-0.7,0-1.2,0.6-1.4,1.1c-0.1,0.2-0.1,0.4-0.1,0.5v3.7h-1.1V87z"/>
	<path class="st3" d="M278.7,91.5l-0.1-0.8l0,0c-0.3,0.5-1,0.9-1.9,0.9c-1.2,0-1.9-0.9-1.9-1.8c0-1.5,1.3-2.3,3.7-2.3v-0.1
		c0-0.5-0.1-1.4-1.4-1.4c-0.6,0-1.2,0.2-1.6,0.5l-0.3-0.7c0.5-0.3,1.2-0.5,2-0.5c1.9,0,2.3,1.3,2.3,2.5v2.3c0,0.5,0,1,0.1,1.5h-0.9
		V91.5z M278.5,88.4c-1.2,0-2.6,0.2-2.6,1.4c0,0.7,0.5,1.1,1,1.1c0.8,0,1.3-0.5,1.5-1c0-0.1,0.1-0.2,0.1-0.4V88.4z"/>
	<path class="st3" d="M282.7,83.6c0,0.4-0.3,0.7-0.7,0.7c-0.4,0-0.7-0.3-0.7-0.7s0.3-0.7,0.7-0.7S282.7,83.3,282.7,83.6z
		 M281.4,91.5v-6.1h1.1v6.1H281.4z"/>
	<path class="st3" d="M284.2,90.3c0.3,0.2,0.9,0.4,1.5,0.4c0.8,0,1.2-0.4,1.2-0.9s-0.3-0.8-1.1-1.1c-1.1-0.4-1.6-1-1.6-1.7
		c0-1,0.8-1.8,2.1-1.8c0.6,0,1.2,0.2,1.5,0.4l-0.3,0.8c-0.2-0.2-0.7-0.4-1.3-0.4c-0.7,0-1,0.4-1,0.8c0,0.5,0.4,0.7,1.2,1
		c1.1,0.4,1.6,0.9,1.6,1.8c0,1.1-0.8,1.8-2.3,1.8c-0.7,0-1.3-0.2-1.7-0.4L284.2,90.3z"/>
	<path class="st3" d="M295.4,91.5l-0.1-0.8l0,0c-0.3,0.5-1,0.9-1.9,0.9c-1.2,0-1.9-0.9-1.9-1.8c0-1.5,1.3-2.3,3.7-2.3v-0.1
		c0-0.5-0.1-1.4-1.4-1.4c-0.6,0-1.2,0.2-1.6,0.5l-0.3-0.7c0.5-0.3,1.2-0.5,2-0.5c1.9,0,2.3,1.3,2.3,2.5v2.3c0,0.5,0,1,0.1,1.5h-0.9
		V91.5z M295.3,88.4c-1.2,0-2.6,0.2-2.6,1.4c0,0.7,0.5,1.1,1,1.1c0.8,0,1.3-0.5,1.5-1c0-0.1,0.1-0.2,0.1-0.4V88.4z"/>
	<path class="st3" d="M303.3,89.8c0,0.6,0,1.2,0.1,1.7h-1l-0.1-1l0,0c-0.3,0.5-0.9,1.1-2,1.1c-1,0-2.1-0.5-2.1-2.7v-3.6h1.1v3.4
		c0,1.2,0.4,1.9,1.4,1.9c0.7,0,1.3-0.5,1.5-1c0.1-0.2,0.1-0.4,0.1-0.6v-3.8h1.1v4.6H303.3z"/>
	<path class="st3" d="M305,90.3c0.3,0.2,0.9,0.4,1.5,0.4c0.8,0,1.2-0.4,1.2-0.9s-0.3-0.8-1.1-1.1c-1.1-0.4-1.6-1-1.6-1.7
		c0-1,0.8-1.8,2.1-1.8c0.6,0,1.2,0.2,1.5,0.4l-0.3,0.8c-0.2-0.2-0.7-0.4-1.3-0.4c-0.7,0-1,0.4-1,0.8c0,0.5,0.4,0.7,1.2,1
		c1.1,0.4,1.6,0.9,1.6,1.8c0,1.1-0.8,1.8-2.3,1.8c-0.7,0-1.3-0.2-1.7-0.4L305,90.3z"/>
	<path class="st3" d="M310,90.3c0.3,0.2,0.9,0.4,1.5,0.4c0.8,0,1.2-0.4,1.2-0.9s-0.3-0.8-1.1-1.1c-1.1-0.4-1.6-1-1.6-1.7
		c0-1,0.8-1.8,2.1-1.8c0.6,0,1.2,0.2,1.5,0.4l-0.3,0.8c-0.2-0.2-0.7-0.4-1.3-0.4c-0.7,0-1,0.4-1,0.8c0,0.5,0.4,0.7,1.2,1
		c1.1,0.4,1.6,0.9,1.6,1.8c0,1.1-0.8,1.8-2.3,1.8c-0.7,0-1.3-0.2-1.7-0.4L310,90.3z"/>
	<path class="st3" d="M316.4,83.6c0,0.4-0.3,0.7-0.7,0.7c-0.4,0-0.7-0.3-0.7-0.7s0.3-0.7,0.7-0.7C316.1,82.9,316.4,83.3,316.4,83.6z
		 M315.1,91.5v-6.1h1.1v6.1H315.1z"/>
	<path class="st3" d="M44.2,97.7v7.4c0,0.5,0,1.2,0.1,1.6h-1l-0.1-1.1l0,0c-0.3,0.7-1.1,1.2-2.1,1.2c-1.5,0-2.6-1.2-2.6-3.1
		c0-2,1.3-3.3,2.7-3.3c0.9,0,1.6,0.4,1.8,0.9l0,0v-3.7L44.2,97.7L44.2,97.7z M43.1,103c0-0.1,0-0.3-0.1-0.5
		c-0.2-0.7-0.8-1.3-1.6-1.3c-1.1,0-1.8,1-1.8,2.4c0,1.2,0.6,2.3,1.8,2.3c0.7,0,1.4-0.5,1.6-1.3c0-0.2,0.1-0.3,0.1-0.5V103z"/>
	<path class="st3" d="M46.6,103.8c0,1.5,1,2.1,2.1,2.1c0.8,0,1.3-0.1,1.7-0.3l0.2,0.8c-0.4,0.2-1.1,0.4-2,0.4c-1.9,0-3-1.2-3-3.1
		s1.1-3.3,2.9-3.3c2,0,2.5,1.8,2.5,2.9c0,0.2,0,0.4,0,0.5L46.6,103.8L46.6,103.8z M49.9,103c0-0.7-0.3-1.8-1.5-1.8
		c-1.1,0-1.6,1-1.7,1.8H49.9z"/>
	<path class="st3" d="M55,102.4c0-0.7,0-1.3-0.1-1.9h1v1.2H56c0.3-0.8,0.9-1.3,1.7-1.3c0.1,0,0.2,0,0.3,0v1c-0.1,0-0.2,0-0.4,0
		c-0.8,0-1.3,0.6-1.5,1.4c0,0.2-0.1,0.3-0.1,0.5v3.3h-1.1L55,102.4L55,102.4z"/>
	<path class="st3" d="M59.7,103.8c0,1.5,1,2.1,2.1,2.1c0.8,0,1.3-0.1,1.7-0.3l0.2,0.8c-0.4,0.2-1.1,0.4-2,0.4c-1.9,0-3-1.2-3-3.1
		s1.1-3.3,2.9-3.3c2,0,2.5,1.8,2.5,2.9c0,0.2,0,0.4,0,0.5L59.7,103.8L59.7,103.8z M62.9,103c0-0.7-0.3-1.8-1.5-1.8
		c-1.1,0-1.6,1-1.7,1.8H62.9z"/>
	<path class="st3" d="M65.4,102.2c0-0.6,0-1.1-0.1-1.7h1l0.1,1l0,0c0.3-0.6,1-1.1,2-1.1c0.8,0,2.2,0.5,2.2,2.6v3.7h-1.1v-3.5
		c0-1-0.4-1.8-1.4-1.8c-0.7,0-1.3,0.5-1.5,1.1c-0.1,0.1-0.1,0.3-0.1,0.5v3.7h-1.1V102.2z"/>
	<path class="st3" d="M77.7,97.7v7.4c0,0.5,0,1.2,0.1,1.6h-1l-0.1-1.1l0,0c-0.3,0.7-1.1,1.2-2.1,1.2c-1.5,0-2.6-1.2-2.6-3.1
		c0-2,1.3-3.3,2.7-3.3c0.9,0,1.6,0.4,1.8,0.9l0,0v-3.7L77.7,97.7L77.7,97.7z M76.5,103c0-0.1,0-0.3-0.1-0.5
		c-0.2-0.7-0.8-1.3-1.6-1.3c-1.1,0-1.8,1-1.8,2.4c0,1.2,0.6,2.3,1.8,2.3c0.7,0,1.4-0.5,1.6-1.3c0-0.2,0.1-0.3,0.1-0.5V103z"/>
	<path class="st3" d="M79.5,102.4c0-0.7,0-1.3-0.1-1.9h1v1.2h0.1c0.3-0.8,0.9-1.3,1.7-1.3c0.1,0,0.2,0,0.3,0v1c-0.1,0-0.2,0-0.4,0
		c-0.8,0-1.3,0.6-1.5,1.4c0,0.2-0.1,0.3-0.1,0.5v3.3h-1.1L79.5,102.4L79.5,102.4z"/>
	<path class="st3" d="M84.1,103.8c0,1.5,1,2.1,2.1,2.1c0.8,0,1.3-0.1,1.7-0.3l0.2,0.8c-0.4,0.2-1.1,0.4-2,0.4c-1.9,0-3-1.2-3-3.1
		s1.1-3.3,2.9-3.3c2,0,2.5,1.8,2.5,2.9c0,0.2,0,0.4,0,0.5L84.1,103.8L84.1,103.8z M87.4,103c0-0.7-0.3-1.8-1.5-1.8
		c-1.1,0-1.6,1-1.7,1.8H87.4z"/>
	<path class="st3" d="M92.5,97.7h1.1v9h-1.1V97.7z"/>
	<path class="st3" d="M96.1,103.8c0,1.5,1,2.1,2.1,2.1c0.8,0,1.3-0.1,1.7-0.3l0.2,0.8c-0.4,0.2-1.1,0.4-2,0.4c-1.9,0-3-1.2-3-3.1
		s1.1-3.3,2.9-3.3c2,0,2.5,1.8,2.5,2.9c0,0.2,0,0.4,0,0.5L96.1,103.8L96.1,103.8z M99.4,103c0-0.7-0.3-1.8-1.5-1.8
		c-1.1,0-1.6,1-1.7,1.8H99.4z"/>
	<path class="st3" d="M101.7,105.5c0.3,0.2,0.9,0.4,1.5,0.4c0.8,0,1.2-0.4,1.2-0.9s-0.3-0.8-1.1-1.1c-1.1-0.4-1.6-1-1.6-1.7
		c0-1,0.8-1.8,2.1-1.8c0.6,0,1.2,0.2,1.5,0.4l-0.3,0.8c-0.2-0.2-0.7-0.4-1.3-0.4c-0.7,0-1,0.4-1,0.8c0,0.5,0.4,0.7,1.2,1
		c1.1,0.4,1.6,0.9,1.6,1.8c0,1.1-0.8,1.8-2.3,1.8c-0.7,0-1.3-0.2-1.7-0.4L101.7,105.5z"/>
	<path class="st3" d="M110.8,98.8c0,0.4-0.3,0.7-0.7,0.7s-0.7-0.3-0.7-0.7s0.3-0.7,0.7-0.7C110.5,98.1,110.8,98.4,110.8,98.8z
		 M109.5,106.6v-6.1h1.1v6.1H109.5z"/>
	<path class="st3" d="M112.5,102.2c0-0.6,0-1.1-0.1-1.7h1l0.1,1l0,0c0.3-0.6,1-1.1,2-1.1c0.8,0,2.2,0.5,2.2,2.6v3.7h-1.1v-3.5
		c0-1-0.4-1.8-1.4-1.8c-0.7,0-1.3,0.5-1.5,1.1c-0.1,0.1-0.1,0.3-0.1,0.5v3.7h-1.1V102.2z"/>
	<path class="st3" d="M119.6,106.6v-5.3h-0.9v-0.8h0.9v-0.3c0-0.9,0.2-1.6,0.7-2.1c0.4-0.4,1-0.6,1.5-0.6c0.4,0,0.7,0.1,0.9,0.2
		l-0.2,0.9c-0.2-0.1-0.4-0.1-0.7-0.1c-0.9,0-1.2,0.8-1.2,1.8v0.3h1.5v0.8h-1.5v5.3h-1V106.6z"/>
	<path class="st3" d="M128.5,103.5c0,2.3-1.6,3.2-3,3.2c-1.7,0-2.9-1.2-2.9-3.1c0-2,1.3-3.2,3-3.2
		C127.4,100.4,128.5,101.7,128.5,103.5z M123.7,103.6c0,1.3,0.8,2.3,1.9,2.3c1.1,0,1.9-1,1.9-2.4c0-1-0.5-2.3-1.8-2.3
		C124.3,101.2,123.7,102.4,123.7,103.6z"/>
	<path class="st3" d="M130,102.4c0-0.7,0-1.3-0.1-1.9h1v1.2h0.1c0.3-0.8,0.9-1.3,1.7-1.3c0.1,0,0.2,0,0.3,0v1c-0.1,0-0.2,0-0.4,0
		c-0.8,0-1.3,0.6-1.5,1.4c0,0.2-0.1,0.3-0.1,0.5v3.3h-1.1v-4.2H130z"/>
	<path class="st3" d="M134.1,102.2c0-0.6,0-1.1-0.1-1.7h1l0.1,1l0,0c0.3-0.6,0.9-1.1,1.9-1.1c0.8,0,1.5,0.5,1.7,1.2l0,0
		c0.2-0.3,0.4-0.6,0.7-0.8c0.4-0.3,0.8-0.4,1.4-0.4c0.8,0,2,0.5,2,2.7v3.6h-1v-3.5c0-1.2-0.4-1.9-1.3-1.9c-0.6,0-1.1,0.5-1.3,1
		c-0.1,0.2-0.1,0.4-0.1,0.6v3.8H138V103c0-1-0.4-1.7-1.3-1.7c-0.7,0-1.2,0.6-1.4,1.1c-0.1,0.2-0.1,0.4-0.1,0.5v3.7h-1.1L134.1,102.2
		L134.1,102.2z"/>
	<path class="st3" d="M148.1,106.6l-0.1-0.8l0,0c-0.3,0.5-1,0.9-1.9,0.9c-1.2,0-1.9-0.9-1.9-1.8c0-1.5,1.3-2.3,3.7-2.3v-0.1
		c0-0.5-0.1-1.4-1.4-1.4c-0.6,0-1.2,0.2-1.6,0.5l-0.3-0.7c0.5-0.3,1.2-0.5,2-0.5c1.9,0,2.3,1.3,2.3,2.5v2.3c0,0.5,0,1,0.1,1.5h-0.9
		V106.6z M147.9,103.5c-1.2,0-2.6,0.2-2.6,1.4c0,0.7,0.5,1.1,1,1.1c0.8,0,1.3-0.5,1.5-1c0-0.1,0.1-0.2,0.1-0.4V103.5z"/>
	<path class="st3" d="M152.1,98.8v1.8h1.6v0.8h-1.6v3.3c0,0.8,0.2,1.2,0.8,1.2c0.3,0,0.5,0,0.6-0.1l0.1,0.8c-0.2,0.1-0.6,0.2-1,0.2
		c-0.5,0-0.9-0.2-1.2-0.5s-0.4-0.9-0.4-1.6v-3.3h-0.9v-0.8h0.9v-1.5L152.1,98.8z"/>
	<path class="st3" d="M156.1,98.8c0,0.4-0.3,0.7-0.7,0.7s-0.7-0.3-0.7-0.7s0.3-0.7,0.7-0.7C155.9,98.1,156.1,98.4,156.1,98.8z
		 M154.9,106.6v-6.1h1.1v6.1H154.9z"/>
	<path class="st3" d="M163.4,103.5c0,2.3-1.6,3.2-3,3.2c-1.7,0-2.9-1.2-2.9-3.1c0-2,1.3-3.2,3-3.2
		C162.2,100.4,163.4,101.7,163.4,103.5z M158.5,103.6c0,1.3,0.8,2.3,1.9,2.3c1.1,0,1.9-1,1.9-2.4c0-1-0.5-2.3-1.8-2.3
		C159.1,101.2,158.5,102.4,158.5,103.6z"/>
	<path class="st3" d="M164.8,102.2c0-0.6,0-1.1-0.1-1.7h1l0.1,1l0,0c0.3-0.6,1-1.1,2-1.1c0.8,0,2.2,0.5,2.2,2.6v3.7h-1.1v-3.5
		c0-1-0.4-1.8-1.4-1.8c-0.7,0-1.3,0.5-1.5,1.1c-0.1,0.1-0.1,0.3-0.1,0.5v3.7h-1.1V102.2z"/>
	<path class="st3" d="M171.7,105.5c0.3,0.2,0.9,0.4,1.5,0.4c0.8,0,1.2-0.4,1.2-0.9s-0.3-0.8-1.1-1.1c-1.1-0.4-1.6-1-1.6-1.7
		c0-1,0.8-1.8,2.1-1.8c0.6,0,1.2,0.2,1.5,0.4l-0.3,0.8c-0.2-0.2-0.7-0.4-1.3-0.4c-0.7,0-1,0.4-1,0.8c0,0.5,0.4,0.7,1.2,1
		c1.1,0.4,1.6,0.9,1.6,1.8c0,1.1-0.8,1.8-2.3,1.8c-0.7,0-1.3-0.2-1.7-0.4L171.7,105.5z"/>
	<path class="st3" d="M179.5,102.5c0-0.8,0-1.4-0.1-2h1l0.1,1l0,0c0.5-0.7,1.2-1.2,2.2-1.2c1.5,0,2.6,1.3,2.6,3.1
		c0,2.2-1.3,3.3-2.8,3.3c-0.8,0-1.5-0.4-1.9-1l0,0v3.3h-1.1V102.5z M180.6,104.2c0,0.2,0,0.3,0.1,0.5c0.2,0.8,0.9,1.3,1.7,1.3
		c1.2,0,1.9-1,1.9-2.4c0-1.2-0.6-2.3-1.8-2.3c-0.8,0-1.5,0.5-1.7,1.4c0,0.1-0.1,0.3-0.1,0.5L180.6,104.2L180.6,104.2z"/>
	<path class="st3" d="M186.7,97.7h1.1v9h-1.1V97.7z"/>
	<path class="st3" d="M194.8,105c0,0.6,0,1.2,0.1,1.7h-1l-0.1-1l0,0c-0.3,0.5-0.9,1.1-2,1.1c-1,0-2.1-0.5-2.1-2.7v-3.6h1.1v3.4
		c0,1.2,0.4,1.9,1.4,1.9c0.7,0,1.3-0.5,1.5-1c0.1-0.2,0.1-0.4,0.1-0.6v-3.8h1.1v4.6H194.8z"/>
	<path class="st3" d="M196.5,105.5c0.3,0.2,0.9,0.4,1.5,0.4c0.8,0,1.2-0.4,1.2-0.9s-0.3-0.8-1.1-1.1c-1.1-0.4-1.6-1-1.6-1.7
		c0-1,0.8-1.8,2.1-1.8c0.6,0,1.2,0.2,1.5,0.4l-0.3,0.8c-0.2-0.2-0.7-0.4-1.3-0.4c-0.7,0-1,0.4-1,0.8c0,0.5,0.4,0.7,1.2,1
		c1.1,0.4,1.6,0.9,1.6,1.8c0,1.1-0.8,1.8-2.3,1.8c-0.7,0-1.3-0.2-1.7-0.4L196.5,105.5z"/>
	<path class="st3" d="M207.7,106.6l-0.1-0.8l0,0c-0.3,0.5-1,0.9-1.9,0.9c-1.2,0-1.9-0.9-1.9-1.8c0-1.5,1.3-2.3,3.7-2.3v-0.1
		c0-0.5-0.1-1.4-1.4-1.4c-0.6,0-1.2,0.2-1.6,0.5l-0.3-0.7c0.5-0.3,1.2-0.5,2-0.5c1.9,0,2.3,1.3,2.3,2.5v2.3c0,0.5,0,1,0.1,1.5h-0.9
		V106.6z M207.5,103.5c-1.2,0-2.6,0.2-2.6,1.4c0,0.7,0.5,1.1,1,1.1c0.8,0,1.3-0.5,1.5-1c0-0.1,0.1-0.2,0.1-0.4V103.5z"/>
	<path class="st3" d="M214.8,106.4c-0.3,0.2-0.9,0.4-1.8,0.4c-1.8,0-3-1.2-3-3.1c0-1.9,1.3-3.2,3.3-3.2c0.7,0,1.2,0.2,1.5,0.3
		l-0.3,0.9c-0.3-0.2-0.7-0.3-1.3-0.3c-1.4,0-2.2,1-2.2,2.3c0,1.4,0.9,2.3,2.1,2.3c0.6,0,1-0.2,1.4-0.3L214.8,106.4z"/>
	<path class="st3" d="M220.3,106.4c-0.3,0.2-0.9,0.4-1.8,0.4c-1.8,0-3-1.2-3-3.1c0-1.9,1.3-3.2,3.3-3.2c0.7,0,1.2,0.2,1.5,0.3
		l-0.3,0.9c-0.3-0.2-0.7-0.3-1.3-0.3c-1.4,0-2.2,1-2.2,2.3c0,1.4,0.9,2.3,2.1,2.3c0.6,0,1-0.2,1.4-0.3L220.3,106.4z"/>
	<path class="st3" d="M222.2,103.8c0,1.5,1,2.1,2.1,2.1c0.8,0,1.3-0.1,1.7-0.3l0.2,0.8c-0.4,0.2-1.1,0.4-2,0.4c-1.9,0-3-1.2-3-3.1
		s1.1-3.3,2.9-3.3c2,0,2.5,1.8,2.5,2.9c0,0.2,0,0.4,0,0.5L222.2,103.8L222.2,103.8z M225.4,103c0-0.7-0.3-1.8-1.5-1.8
		c-1.1,0-1.6,1-1.7,1.8H225.4z"/>
	<path class="st3" d="M227.7,105.5c0.3,0.2,0.9,0.4,1.5,0.4c0.8,0,1.2-0.4,1.2-0.9s-0.3-0.8-1.1-1.1c-1.1-0.4-1.6-1-1.6-1.7
		c0-1,0.8-1.8,2.1-1.8c0.6,0,1.2,0.2,1.5,0.4l-0.3,0.8c-0.2-0.2-0.7-0.4-1.3-0.4c-0.7,0-1,0.4-1,0.8c0,0.5,0.4,0.7,1.2,1
		c1.1,0.4,1.6,0.9,1.6,1.8c0,1.1-0.8,1.8-2.3,1.8c-0.7,0-1.3-0.2-1.7-0.4L227.7,105.5z"/>
	<path class="st3" d="M232.8,105.5c0.3,0.2,0.9,0.4,1.5,0.4c0.8,0,1.2-0.4,1.2-0.9s-0.3-0.8-1.1-1.1c-1.1-0.4-1.6-1-1.6-1.7
		c0-1,0.8-1.8,2.1-1.8c0.6,0,1.2,0.2,1.5,0.4l-0.3,0.8c-0.2-0.2-0.7-0.4-1.3-0.4c-0.7,0-1,0.4-1,0.8c0,0.5,0.4,0.7,1.2,1
		c1.1,0.4,1.6,0.9,1.6,1.8c0,1.1-0.8,1.8-2.3,1.8c-0.7,0-1.3-0.2-1.7-0.4L232.8,105.5z"/>
	<path class="st3" d="M239.1,98.8c0,0.4-0.3,0.7-0.7,0.7s-0.7-0.3-0.7-0.7s0.3-0.7,0.7-0.7C238.9,98.1,239.1,98.4,239.1,98.8z
		 M237.9,106.6v-6.1h1.1v6.1H237.9z"/>
	<path class="st3" d="M240.8,106.6c0-0.4,0-1,0-1.6v-7.4h1.1v3.8l0,0c0.4-0.7,1.1-1.1,2.1-1.1c1.5,0,2.6,1.3,2.6,3.1
		c0,2.2-1.4,3.3-2.7,3.3c-0.9,0-1.6-0.3-2-1.1l0,0l-0.1,1H240.8z M242,104.2c0,0.1,0,0.3,0.1,0.4c0.2,0.8,0.9,1.3,1.7,1.3
		c1.2,0,1.9-0.9,1.9-2.4c0-1.2-0.6-2.3-1.8-2.3c-0.8,0-1.5,0.5-1.7,1.4c0,0.1-0.1,0.3-0.1,0.5L242,104.2L242,104.2z"/>
	<path class="st3" d="M248.1,97.7h1.1v9h-1.1V97.7z"/>
	<path class="st3" d="M251.7,103.8c0,1.5,1,2.1,2.1,2.1c0.8,0,1.3-0.1,1.7-0.3l0.2,0.8c-0.4,0.2-1.1,0.4-2,0.4c-1.9,0-3-1.2-3-3.1
		s1.1-3.3,2.9-3.3c2,0,2.5,1.8,2.5,2.9c0,0.2,0,0.4,0,0.5L251.7,103.8L251.7,103.8z M254.9,103c0-0.7-0.3-1.8-1.5-1.8
		c-1.1,0-1.6,1-1.7,1.8H254.9z"/>
	<path class="st3" d="M257.2,105.5c0.3,0.2,0.9,0.4,1.5,0.4c0.8,0,1.2-0.4,1.2-0.9s-0.3-0.8-1.1-1.1c-1.1-0.4-1.6-1-1.6-1.7
		c0-1,0.8-1.8,2.1-1.8c0.6,0,1.2,0.2,1.5,0.4l-0.3,0.8c-0.2-0.2-0.7-0.4-1.3-0.4c-0.7,0-1,0.4-1,0.8c0,0.5,0.4,0.7,1.2,1
		c1.1,0.4,1.6,0.9,1.6,1.8c0,1.1-0.8,1.8-2.3,1.8c-0.7,0-1.3-0.2-1.7-0.4L257.2,105.5z"/>
	<path class="st3" d="M268.4,106.6l-0.1-0.8l0,0c-0.3,0.5-1,0.9-1.9,0.9c-1.2,0-1.9-0.9-1.9-1.8c0-1.5,1.3-2.3,3.7-2.3v-0.1
		c0-0.5-0.1-1.4-1.4-1.4c-0.6,0-1.2,0.2-1.6,0.5l-0.3-0.7c0.5-0.3,1.2-0.5,2-0.5c1.9,0,2.3,1.3,2.3,2.5v2.3c0,0.5,0,1,0.1,1.5h-0.9
		V106.6z M268.3,103.5c-1.2,0-2.6,0.2-2.6,1.4c0,0.7,0.5,1.1,1,1.1c0.8,0,1.3-0.5,1.5-1c0-0.1,0.1-0.2,0.1-0.4V103.5z"/>
	<path class="st3" d="M276.3,105c0,0.6,0,1.2,0.1,1.7h-1l-0.1-1l0,0c-0.3,0.5-0.9,1.1-2,1.1c-1,0-2.1-0.5-2.1-2.7v-3.6h1.1v3.4
		c0,1.2,0.4,1.9,1.4,1.9c0.7,0,1.3-0.5,1.5-1c0.1-0.2,0.1-0.4,0.1-0.6v-3.8h1.1v4.6H276.3z"/>
	<path class="st3" d="M278.6,100.5l0.9,1.3c0.2,0.3,0.4,0.7,0.6,1l0,0c0.2-0.4,0.4-0.7,0.6-1l0.9-1.3h1.2l-2.1,3l2.1,3.2h-1.3
		l-0.9-1.4c-0.2-0.4-0.4-0.7-0.7-1.1l0,0c-0.2,0.4-0.4,0.7-0.6,1.1l-0.9,1.4h-1.2l2.2-3.1l-2.1-3h1.3V100.5z"/>
	<path class="st3" d="M39.5,119c0,1.5,1,2.1,2.1,2.1c0.8,0,1.3-0.1,1.7-0.3l0.2,0.8c-0.4,0.2-1.1,0.4-2,0.4c-1.9,0-3-1.2-3-3.1
		c0-1.8,1.1-3.3,2.9-3.3c2,0,2.5,1.8,2.5,2.9c0,0.2,0,0.4,0,0.5L39.5,119L39.5,119z M42.8,118.2c0-0.7-0.3-1.8-1.5-1.8
		c-1.1,0-1.6,1-1.7,1.8H42.8z"/>
	<path class="st3" d="M45.2,117.3c0-0.6,0-1.1-0.1-1.7h1l0.1,1l0,0c0.3-0.6,0.9-1.1,1.9-1.1c0.8,0,1.5,0.5,1.7,1.2l0,0
		c0.2-0.3,0.4-0.6,0.7-0.8c0.4-0.3,0.8-0.4,1.4-0.4c0.8,0,2,0.5,2,2.7v3.6h-1.1v-3.5c0-1.2-0.4-1.9-1.3-1.9c-0.6,0-1.1,0.5-1.3,1
		c-0.1,0.2-0.1,0.4-0.1,0.6v3.8H49v-3.7c0-1-0.4-1.7-1.3-1.7c-0.7,0-1.2,0.6-1.4,1.1c-0.1,0.2-0.1,0.4-0.1,0.5v3.7h-1.1L45.2,117.3
		L45.2,117.3z"/>
	<path class="st3" d="M55.8,117.7c0-0.8,0-1.4-0.1-2h1l0.1,1l0,0c0.5-0.7,1.2-1.2,2.2-1.2c1.5,0,2.6,1.3,2.6,3.1
		c0,2.2-1.3,3.3-2.8,3.3c-0.8,0-1.5-0.4-1.9-1l0,0v3.3h-1.1V117.7z M56.9,119.3c0,0.2,0,0.3,0.1,0.5c0.2,0.8,0.9,1.3,1.7,1.3
		c1.2,0,1.9-1,1.9-2.4c0-1.2-0.6-2.3-1.8-2.3c-0.8,0-1.5,0.5-1.7,1.4c0,0.1-0.1,0.3-0.1,0.5v1H56.9z"/>
	<path class="st3" d="M62.9,112.8H64v9h-1.1V112.8z"/>
	<path class="st3" d="M71.5,118.7c0,2.3-1.6,3.2-3,3.2c-1.7,0-2.9-1.2-2.9-3.1c0-2,1.3-3.2,3-3.2S71.5,116.8,71.5,118.7z
		 M66.6,118.8c0,1.3,0.8,2.3,1.9,2.3c1.1,0,1.9-1,1.9-2.4c0-1-0.5-2.3-1.8-2.3C67.2,116.4,66.6,117.6,66.6,118.8z"/>
	<path class="st3" d="M73.2,115.7l1.3,3.6c0.1,0.4,0.3,0.9,0.4,1.3l0,0c0.1-0.4,0.2-0.8,0.4-1.3l1.2-3.6h1.2l-1.7,4.4
		c-0.8,2.1-1.3,3.2-2.1,3.8c-0.5,0.5-1.1,0.7-1.4,0.7l-0.3-0.9c0.3-0.1,0.6-0.3,1-0.5c0.3-0.2,0.7-0.7,0.9-1.2
		c0.1-0.1,0.1-0.2,0.1-0.3s0-0.2-0.1-0.3l-2.3-5.6h1.4V115.7z"/>
	<path class="st3" d="M79.2,119c0,1.5,1,2.1,2.1,2.1c0.8,0,1.3-0.1,1.7-0.3l0.2,0.8c-0.4,0.2-1.1,0.4-2,0.4c-1.9,0-3-1.2-3-3.1
		c0-1.8,1.1-3.3,2.9-3.3c2,0,2.5,1.8,2.5,2.9c0,0.2,0,0.4,0,0.5L79.2,119L79.2,119z M82.5,118.2c0-0.7-0.3-1.8-1.5-1.8
		c-1.1,0-1.6,1-1.7,1.8H82.5z"/>
	<path class="st3" d="M90.1,120.1c0,0.6,0,1.2,0.1,1.7h-1l-0.1-1l0,0c-0.3,0.5-0.9,1.1-2,1.1c-1,0-2.1-0.5-2.1-2.7v-3.6h1.1v3.4
		c0,1.2,0.4,1.9,1.4,1.9c0.7,0,1.3-0.5,1.5-1c0.1-0.2,0.1-0.4,0.1-0.6v-3.8h1.1v4.6H90.1z"/>
	<path class="st3" d="M91.9,117.6c0-0.7,0-1.3-0.1-1.9h1v1.2h0.1c0.3-0.8,0.9-1.3,1.7-1.3c0.1,0,0.2,0,0.3,0v1c-0.1,0-0.2,0-0.4,0
		c-0.8,0-1.3,0.6-1.5,1.4c0,0.2-0.1,0.3-0.1,0.5v3.3h-1.1v-4.2H91.9z"/>
	<path class="st3" d="M95.9,120.7c0.3,0.2,0.9,0.4,1.5,0.4c0.8,0,1.2-0.4,1.2-0.9s-0.3-0.8-1.1-1.1c-1.1-0.4-1.6-1-1.6-1.7
		c0-1,0.8-1.8,2.1-1.8c0.6,0,1.2,0.2,1.5,0.4l-0.3,0.8c-0.2-0.2-0.7-0.4-1.3-0.4c-0.7,0-1,0.4-1,0.8c0,0.5,0.4,0.7,1.2,1
		c1.1,0.4,1.6,0.9,1.6,1.8c0,1.1-0.8,1.8-2.3,1.8c-0.7,0-1.3-0.2-1.7-0.4L95.9,120.7z"/>
	<path class="st3" d="M100.6,121.1c0-0.5,0.3-0.8,0.8-0.8s0.7,0.3,0.7,0.8s-0.3,0.8-0.8,0.8C100.9,121.9,100.6,121.6,100.6,121.1z"
		/>
</g>
</svg>
