<?xml version="1.0" encoding="utf-8"?>
<!-- Generator: Adobe Illustrator 20.1.0, SVG Export Plug-In . SVG Version: 6.00 Build 0)  -->
<svg version="1.1" id="Calque_1" xmlns="http://www.w3.org/2000/svg" xmlns:xlink="http://www.w3.org/1999/xlink" x="0px" y="0px"
	 viewBox="0 0 38.4 49.1" style="enable-background:new 0 0 38.4 49.1;" xml:space="preserve">
<style type="text/css">
	.st0{fill:#F2F3F5;}
</style>
<path class="st0" d="M37.9,25.7L37.9,25.7C37.9,25.6,37.9,25.6,37.9,25.7c-0.2-1-0.6-2-0.9-3c-1.8-4.8-4.1-7.3-5.6-11
	c-1.5-3.8-1.5-6.2-1.5-6.2s-3.5,1.6-5.4,6C22,6,17.7,1.2,11.5,0c0.6,9.8-6.8,14.7-9.9,22.4c0,0,0,0,0,0c-0.1,0.2-0.1,0.3-0.2,0.5
	c-1.2,3-1.6,6.3-1.2,9.8c1.5,10.5,11.2,17.8,21.7,16.3c10.5-1.5,17.8-11.2,16.3-21.7C38.1,26.7,38,26.2,37.9,25.7z"/>
</svg>
