<?xml version="1.0" encoding="utf-8"?>
<!-- Generator: Adobe Illustrator 16.0.0, SVG Export Plug-In . SVG Version: 6.00 Build 0)  -->
<!DOCTYPE svg PUBLIC "-//W3C//DTD SVG 1.1//EN" "http://www.w3.org/Graphics/SVG/1.1/DTD/svg11.dtd">
<svg version="1.1" id="Calque_1" xmlns="http://www.w3.org/2000/svg" xmlns:xlink="http://www.w3.org/1999/xlink" x="0px" y="0px"
	 width="593.97px" height="772.674px" viewBox="0 0 593.97 772.674" enable-background="new 0 0 593.97 772.674"
	 xml:space="preserve">
<rect display="none" fill="#F69F31" width="592.47" height="772.674"/>
<g>
	<title>envelope</title>
	<path fill="#DCDFED" d="M394.96,309.784l-92.417,59.958l60.312,108.776c0.568,1.028,1.543,1.771,2.686,2.049l54.646,13.331
		c1.929,0.466,3.923-0.478,4.785-2.264l27.105-56.315l29.707-39.713l-70.496-83.401C407.23,307.406,400.238,306.368,394.96,309.784z
		"/>
	<path fill="#F2F2F2" d="M482.725,396.077l-0.263,0.354l-17.4,23.265l-0.314,0.421l-11.729,15.679l-23.184,48.173l-0.65,1.347
		l-3.272,6.796c-0.862,1.792-2.859,2.735-4.791,2.265l-54.646-13.337c-1.144-0.276-2.118-1.02-2.687-2.049l-5.255-9.462
		l-0.944-1.703l-37.93-68.439l-0.325-0.583l-15.854-28.59l1.915-1.243l14.522-9.419l0.336-0.22l30.578-19.839l1.931-1.252
		l43.133-27.985c5.276-3.422,12.274-2.386,16.334,2.418l32.16,38.061l1.413,1.696l23.342,27.615l0.129,0.151l11.735,13.882
		l1.477,1.749L482.725,396.077z"/>
	<path opacity="0.1" fill="#010202" enable-background="new    " d="M468.367,379.726l-2.85,19.79l-0.858,5.973l-0.492,12.722
		l-0.038,0.994l-2.556,66.475c-0.092,2.326-2.054,4.138-4.381,4.045c-0.251-0.011-0.501-0.044-0.746-0.098l-27.545-6.148
		l-0.295-0.068l-70.642-15.765l-1.298-0.291l-38.835-8.671l0.89-59.768l0.029-1.996l0.268-18.092l0.299-19.967l30.579-19.84
		l1.93-1.25c28.363,2.907,66.086,8.503,91.64,12.492l1.413,1.695l23.324,27.615L468.367,379.726z"/>
	<path fill="#1AACE4" d="M471.592,356.259l-3.353,23.325l-3.076,21.36l-0.858,5.958l-0.491,12.723l-2.594,67.467
		c-0.093,2.327-2.054,4.137-4.381,4.046c-0.251-0.011-0.502-0.043-0.747-0.099l-27.841-6.216l-70.642-15.765l-40.132-8.963
		l0.918-61.764l0.27-18.091l0.313-21.161l0.323-21.766c6.636-0.315,17.556,0.395,30.594,1.706
		c29.19,2.93,68.983,8.856,95.001,12.938C460.828,354.457,471.592,356.259,471.592,356.259z"/>
	<path opacity="0.1" fill="#010202" enable-background="new    " d="M480.102,393.606l-14.938,7.325l-76.239,37.392l-70.259-58.067
		l-14.204-11.758l-1.915,1.244l15.854,28.59l-0.918,61.764l40.132,8.963l5.243,9.46c0.57,1.028,1.544,1.772,2.687,2.049
		l54.646,13.331c1.93,0.465,3.92-0.479,4.782-2.264l3.273-6.798l27.84,6.218c2.272,0.504,4.525-0.929,5.03-3.201
		c0.054-0.245,0.088-0.496,0.099-0.746l2.592-67.469l17.717-23.678l0.049-0.599L480.102,393.606z"/>
	<path fill="#F8F7F7" d="M302.543,369.742l-6.301,107.904c-0.122,2.062,1.273,3.909,3.289,4.356l167.343,37.16
		c2.272,0.498,4.52-0.94,5.016-3.214c0.041-0.183,0.068-0.371,0.084-0.557l9.808-119.786l-92.857,45.544L302.543,369.742z"/>
	<path opacity="0.1" fill="#010202" enable-background="new    " d="M297.394,480.116l86.937-53.635
		c2.657-1.612,6.09-1.075,8.127,1.271l77.813,90.752c0.282,0.323,0.421,0.091,0,0L297.394,480.116
		C296.899,480.007,296.963,480.374,297.394,480.116z"/>
	<path fill="#F2F2F2" d="M298.016,480.026l86.038-51.974c2.81-1.696,6.43-1.125,8.581,1.35l77.109,88.679
		c0.335,0.389,0.294,0.976-0.095,1.312c-0.223,0.191-0.521,0.269-0.807,0.205l-170.548-37.869c-0.499-0.108-0.817-0.602-0.71-1.103
		C297.64,480.376,297.796,480.159,298.016,480.026z"/>
</g>
<path fill="none" stroke="#FFFFFF" stroke-width="3" stroke-linecap="round" stroke-linejoin="round" stroke-miterlimit="10" stroke-dasharray="12" d="
	M592.47,198.992c0,0-95.996-72.946-281.987-41.447c-185.991,31.499-178.491,101.995-167.992,134.993
	c10.5,32.999,110.995,65.997,109.495,0c-1.5-65.996-142.494-108.332-184.491-24.609c-50.998,69.312-47.998,205.423,7.5,273.598
	c31.498,50.659,103.494,89.995,181.491,52.497S359.98,518.67,359.98,518.67"/>
</svg>
